M48
; DRILL file {KiCad 7.0.5-0} date 2024 July 28, Sunday 13:55:19
; FORMAT={-:-/ absolute / inch / decimal}
; #@! TF.CreationDate,2024-07-28T13:55:19+02:00
; #@! TF.GenerationSoftware,Kicad,Pcbnew,7.0.5-0
; #@! TF.FileFunction,Plated,1,4,PTH
FMAT,2
INCH
; #@! TA.AperFunction,Plated,PTH,ViaDrill
T1C0.0157
; #@! TA.AperFunction,Plated,PTH,ComponentDrill
T2C0.0350
; #@! TA.AperFunction,Plated,PTH,ComponentDrill
T3C0.0354
; #@! TA.AperFunction,Plated,PTH,ComponentDrill
T4C0.0642
%
G90
G05
T1
X5.6791Y-3.435
X5.6791Y-3.5433
X5.6791Y-3.6319
X5.7087Y-4.0551
X5.9154Y-3.5335
X5.9154Y-3.6122
X5.9154Y-3.6909
X5.9154Y-3.7795
X5.9154Y-3.8681
X5.9154Y-3.9567
X5.935Y-3.435
X6.2106Y-3.435
X6.2106Y-3.5433
X6.2106Y-3.6319
T2
X5.8465Y-3.3071
X5.9449Y-3.3071
X6.0433Y-3.3071
T3
X5.7701Y-4.1594
X5.8197Y-4.0594
X5.8701Y-4.1594
X5.9197Y-4.0594
X5.9701Y-4.1594
X6.0197Y-4.0594
X6.0701Y-4.1594
X6.1197Y-4.0594
T4
X5.64Y-4.2898
X6.2498Y-4.2898
T0
M30
