%TF.GenerationSoftware,KiCad,Pcbnew,7.0.5-0*%
%TF.CreationDate,2024-07-28T13:55:19+02:00*%
%TF.ProjectId,rj45-dynamixel-adapter,726a3435-2d64-4796-9e61-6d6978656c2d,rev?*%
%TF.SameCoordinates,Original*%
%TF.FileFunction,Copper,L1,Top*%
%TF.FilePolarity,Positive*%
%FSLAX46Y46*%
G04 Gerber Fmt 4.6, Leading zero omitted, Abs format (unit mm)*
G04 Created by KiCad (PCBNEW 7.0.5-0) date 2024-07-28 13:55:19*
%MOMM*%
%LPD*%
G01*
G04 APERTURE LIST*
G04 Aperture macros list*
%AMRoundRect*
0 Rectangle with rounded corners*
0 $1 Rounding radius*
0 $2 $3 $4 $5 $6 $7 $8 $9 X,Y pos of 4 corners*
0 Add a 4 corners polygon primitive as box body*
4,1,4,$2,$3,$4,$5,$6,$7,$8,$9,$2,$3,0*
0 Add four circle primitives for the rounded corners*
1,1,$1+$1,$2,$3*
1,1,$1+$1,$4,$5*
1,1,$1+$1,$6,$7*
1,1,$1+$1,$8,$9*
0 Add four rect primitives between the rounded corners*
20,1,$1+$1,$2,$3,$4,$5,0*
20,1,$1+$1,$4,$5,$6,$7,0*
20,1,$1+$1,$6,$7,$8,$9,0*
20,1,$1+$1,$8,$9,$2,$3,0*%
G04 Aperture macros list end*
%TA.AperFunction,ComponentPad*%
%ADD10RoundRect,0.250500X-0.499500X-0.499500X0.499500X-0.499500X0.499500X0.499500X-0.499500X0.499500X0*%
%TD*%
%TA.AperFunction,ComponentPad*%
%ADD11C,1.500000*%
%TD*%
%TA.AperFunction,ComponentPad*%
%ADD12C,2.500000*%
%TD*%
%TA.AperFunction,SMDPad,CuDef*%
%ADD13R,1.485014X1.727991*%
%TD*%
%TA.AperFunction,ComponentPad*%
%ADD14C,1.397000*%
%TD*%
%TA.AperFunction,SMDPad,CuDef*%
%ADD15R,1.259995X3.610008*%
%TD*%
%TA.AperFunction,ViaPad*%
%ADD16C,0.800000*%
%TD*%
G04 APERTURE END LIST*
D10*
%TO.P,J3,1*%
%TO.N,/SIG*%
X146560000Y-105650000D03*
D11*
%TO.P,J3,2*%
%TO.N,GND*%
X147820000Y-103110000D03*
%TO.P,J3,3*%
%TO.N,/12V*%
X149100000Y-105650000D03*
%TO.P,J3,4*%
X150360000Y-103110000D03*
%TO.P,J3,5*%
X151640000Y-105650000D03*
%TO.P,J3,6*%
%TO.N,GND*%
X152900000Y-103110000D03*
%TO.P,J3,7*%
X154180000Y-105650000D03*
%TO.P,J3,8*%
X155440000Y-103110000D03*
D12*
%TO.P,J3,SH*%
X143255000Y-108960000D03*
X158745000Y-108960000D03*
%TD*%
D13*
%TO.P,C1,1,1*%
%TO.N,/12V*%
X152907417Y-87376000D03*
%TO.P,C1,2,2*%
%TO.N,GND*%
X156092583Y-87376000D03*
%TD*%
D14*
%TO.P,J1,1,1*%
%TO.N,GND*%
X153500000Y-84000000D03*
%TO.P,J1,2,2*%
%TO.N,/12V*%
X151000000Y-84000000D03*
%TO.P,J1,3,3*%
%TO.N,/SIG*%
X148500000Y-84000000D03*
%TD*%
D15*
%TO.P,C3,1,1*%
%TO.N,/12V*%
X155898000Y-98787790D03*
%TO.P,C3,2,2*%
%TO.N,GND*%
X155898000Y-92198000D03*
%TD*%
D13*
%TO.P,C2,1,1*%
%TO.N,/12V*%
X149092583Y-87376000D03*
%TO.P,C2,2,2*%
%TO.N,GND*%
X145907417Y-87376000D03*
%TD*%
D15*
%TO.P,C4,1,1*%
%TO.N,/12V*%
X146000000Y-98794895D03*
%TO.P,C4,2,2*%
%TO.N,GND*%
X146000000Y-92205105D03*
%TD*%
D16*
%TO.N,GND*%
X157750000Y-87250000D03*
X144250000Y-92250000D03*
X144250000Y-90000000D03*
X157750000Y-92250000D03*
X145000000Y-103000000D03*
X144250000Y-87250000D03*
X157750000Y-90000000D03*
%TO.N,/12V*%
X150250000Y-93750000D03*
X150250000Y-96000000D03*
X150250000Y-98250000D03*
X150750000Y-87250000D03*
X150250000Y-100500000D03*
X150250000Y-91750000D03*
X150250000Y-89750000D03*
%TD*%
%TA.AperFunction,Conductor*%
%TO.N,/12V*%
G36*
X152177511Y-86000798D02*
G01*
X152126000Y-86012004D01*
X152117065Y-86012004D01*
X152057537Y-86018405D01*
X152057530Y-86018407D01*
X151922823Y-86068649D01*
X151922816Y-86068653D01*
X151807722Y-86154813D01*
X151807719Y-86154816D01*
X151721559Y-86269910D01*
X151721555Y-86269917D01*
X151671313Y-86404624D01*
X151671311Y-86404631D01*
X151664910Y-86464159D01*
X151664910Y-87001000D01*
X153158417Y-87001000D01*
X153225456Y-87020685D01*
X153271211Y-87073489D01*
X153282417Y-87125000D01*
X153282417Y-88739996D01*
X153376000Y-88739996D01*
X153443039Y-88759681D01*
X153488794Y-88812485D01*
X153500000Y-88863996D01*
X153499999Y-95499999D01*
X153500000Y-95500000D01*
X157376000Y-95500000D01*
X157443039Y-95519685D01*
X157488794Y-95572489D01*
X157500000Y-95624000D01*
X157500000Y-100876000D01*
X157480315Y-100943039D01*
X157427511Y-100988794D01*
X157376000Y-101000000D01*
X157088360Y-101000000D01*
X157021321Y-100980315D01*
X156975566Y-100927511D01*
X156965622Y-100858353D01*
X156972178Y-100832667D01*
X157021594Y-100700173D01*
X157021596Y-100700166D01*
X157027997Y-100640638D01*
X157027998Y-100640621D01*
X157027998Y-99162790D01*
X154768002Y-99162790D01*
X154768002Y-100640638D01*
X154774403Y-100700166D01*
X154774405Y-100700173D01*
X154823822Y-100832667D01*
X154828806Y-100902359D01*
X154795321Y-100963682D01*
X154733998Y-100997166D01*
X154707640Y-101000000D01*
X151500000Y-101000000D01*
X151500000Y-98412790D01*
X154768002Y-98412790D01*
X155523000Y-98412790D01*
X155523000Y-96482786D01*
X156273000Y-96482786D01*
X156273000Y-98412790D01*
X157027998Y-98412790D01*
X157027998Y-96934958D01*
X157027997Y-96934941D01*
X157021596Y-96875413D01*
X157021594Y-96875406D01*
X156971352Y-96740699D01*
X156971348Y-96740692D01*
X156885188Y-96625598D01*
X156885185Y-96625595D01*
X156770091Y-96539435D01*
X156770084Y-96539431D01*
X156635377Y-96489189D01*
X156635370Y-96489187D01*
X156575842Y-96482786D01*
X156273000Y-96482786D01*
X155523000Y-96482786D01*
X155220157Y-96482786D01*
X155160629Y-96489187D01*
X155160622Y-96489189D01*
X155025915Y-96539431D01*
X155025908Y-96539435D01*
X154910814Y-96625595D01*
X154910811Y-96625598D01*
X154824651Y-96740692D01*
X154824647Y-96740699D01*
X154774405Y-96875406D01*
X154774403Y-96875413D01*
X154768002Y-96934941D01*
X154768002Y-98412790D01*
X151500000Y-98412790D01*
X151500000Y-89000000D01*
X149250000Y-89000000D01*
X149250000Y-101000000D01*
X147193010Y-101000000D01*
X147125971Y-100980315D01*
X147080216Y-100927511D01*
X147070272Y-100858353D01*
X147076828Y-100832667D01*
X147123594Y-100707278D01*
X147123596Y-100707271D01*
X147129997Y-100647743D01*
X147129998Y-100647726D01*
X147129998Y-99169895D01*
X144870002Y-99169895D01*
X144870002Y-100647743D01*
X144876403Y-100707271D01*
X144876405Y-100707278D01*
X144923172Y-100832667D01*
X144928156Y-100902359D01*
X144894671Y-100963682D01*
X144833348Y-100997166D01*
X144806990Y-101000000D01*
X144624000Y-101000000D01*
X144556961Y-100980315D01*
X144511206Y-100927511D01*
X144500000Y-100876000D01*
X144500000Y-98419895D01*
X144870002Y-98419895D01*
X145625000Y-98419895D01*
X145625000Y-96489891D01*
X146375000Y-96489891D01*
X146375000Y-98419895D01*
X147129998Y-98419895D01*
X147129998Y-96942063D01*
X147129997Y-96942046D01*
X147123596Y-96882518D01*
X147123594Y-96882511D01*
X147073352Y-96747804D01*
X147073348Y-96747797D01*
X146987188Y-96632703D01*
X146987185Y-96632700D01*
X146872091Y-96546540D01*
X146872084Y-96546536D01*
X146737377Y-96496294D01*
X146737370Y-96496292D01*
X146677842Y-96489891D01*
X146375000Y-96489891D01*
X145625000Y-96489891D01*
X145322157Y-96489891D01*
X145262629Y-96496292D01*
X145262622Y-96496294D01*
X145127915Y-96546536D01*
X145127908Y-96546540D01*
X145012814Y-96632700D01*
X145012811Y-96632703D01*
X144926651Y-96747797D01*
X144926647Y-96747804D01*
X144876405Y-96882511D01*
X144876403Y-96882518D01*
X144870002Y-96942046D01*
X144870002Y-98419895D01*
X144500000Y-98419895D01*
X144500000Y-95624000D01*
X144519685Y-95556961D01*
X144572489Y-95511206D01*
X144624000Y-95500000D01*
X148000000Y-95500000D01*
X148000000Y-88821665D01*
X148019685Y-88754626D01*
X148072489Y-88708871D01*
X148141647Y-88698927D01*
X148167334Y-88705484D01*
X148242692Y-88733591D01*
X148242703Y-88733594D01*
X148302231Y-88739995D01*
X148302248Y-88739996D01*
X148717583Y-88739996D01*
X148717583Y-87751000D01*
X149467583Y-87751000D01*
X149467583Y-88739996D01*
X149882918Y-88739996D01*
X149882934Y-88739995D01*
X149942462Y-88733594D01*
X149942469Y-88733592D01*
X150077176Y-88683350D01*
X150077183Y-88683346D01*
X150192277Y-88597186D01*
X150192280Y-88597183D01*
X150278440Y-88482089D01*
X150278444Y-88482082D01*
X150328686Y-88347375D01*
X150328688Y-88347368D01*
X150335089Y-88287840D01*
X150335090Y-88287823D01*
X150335090Y-87751000D01*
X151664910Y-87751000D01*
X151664910Y-88287840D01*
X151671311Y-88347368D01*
X151671313Y-88347375D01*
X151721555Y-88482082D01*
X151721559Y-88482089D01*
X151807719Y-88597183D01*
X151807722Y-88597186D01*
X151922816Y-88683346D01*
X151922823Y-88683350D01*
X152057530Y-88733592D01*
X152057537Y-88733594D01*
X152117065Y-88739995D01*
X152117082Y-88739996D01*
X152532417Y-88739996D01*
X152532417Y-87751000D01*
X151664910Y-87751000D01*
X150335090Y-87751000D01*
X149467583Y-87751000D01*
X148717583Y-87751000D01*
X148717583Y-87125000D01*
X148737268Y-87057961D01*
X148790072Y-87012206D01*
X148841583Y-87001000D01*
X150335090Y-87001000D01*
X150335090Y-86464176D01*
X150335089Y-86464159D01*
X150328688Y-86404631D01*
X150328686Y-86404624D01*
X150278444Y-86269917D01*
X150278440Y-86269910D01*
X150192280Y-86154816D01*
X150192277Y-86154813D01*
X150077183Y-86068653D01*
X150077176Y-86068649D01*
X149942469Y-86018407D01*
X149942462Y-86018405D01*
X149882934Y-86012004D01*
X149874000Y-86012004D01*
X149833119Y-86000000D01*
X152178432Y-86000000D01*
X152177511Y-86000798D01*
G37*
%TD.AperFunction*%
%TD*%
%TA.AperFunction,Conductor*%
%TO.N,/12V*%
G36*
X151500000Y-101000000D02*
G01*
X151500000Y-101000001D01*
X151500000Y-102417682D01*
X151481046Y-102512970D01*
X151427070Y-102593752D01*
X151346288Y-102647728D01*
X151265902Y-102663717D01*
X150819619Y-103110000D01*
X151268274Y-103558654D01*
X151311502Y-103560778D01*
X151399329Y-103602318D01*
X151464575Y-103674305D01*
X151497305Y-103765781D01*
X151500000Y-103802316D01*
X151500000Y-104250000D01*
X151514799Y-104276140D01*
X151530567Y-104290444D01*
X151572067Y-104378289D01*
X151576791Y-104475329D01*
X151544019Y-104566790D01*
X151478741Y-104638748D01*
X151402784Y-104676961D01*
X151255465Y-104721650D01*
X151200596Y-104750977D01*
X151639999Y-105190380D01*
X151640000Y-105190380D01*
X151649620Y-105200000D01*
X151606276Y-105200000D01*
X151505862Y-105215135D01*
X151383643Y-105273993D01*
X151284202Y-105366260D01*
X151216375Y-105483740D01*
X151186190Y-105615992D01*
X151196327Y-105751265D01*
X151245887Y-105877541D01*
X151330465Y-105983599D01*
X151442547Y-106060016D01*
X151572173Y-106100000D01*
X151649617Y-106100000D01*
X151178953Y-106570665D01*
X151141750Y-106649328D01*
X151069763Y-106714573D01*
X150978288Y-106747305D01*
X150941750Y-106750000D01*
X149798250Y-106750000D01*
X149702962Y-106731046D01*
X149622180Y-106677070D01*
X149568204Y-106596288D01*
X149563619Y-106573239D01*
X149090381Y-106100000D01*
X149133724Y-106100000D01*
X149234138Y-106084865D01*
X149356357Y-106026007D01*
X149455798Y-105933740D01*
X149523625Y-105816260D01*
X149553810Y-105684008D01*
X149551262Y-105650000D01*
X149559619Y-105650000D01*
X149999021Y-106089401D01*
X150028349Y-106034535D01*
X150028350Y-106034534D01*
X150085530Y-105846034D01*
X150104839Y-105649999D01*
X150635161Y-105649999D01*
X150654469Y-105846034D01*
X150711649Y-106034534D01*
X150711650Y-106034536D01*
X150740977Y-106089401D01*
X151180379Y-105650000D01*
X150740976Y-105210597D01*
X150711649Y-105265466D01*
X150654469Y-105453965D01*
X150635161Y-105649999D01*
X150104839Y-105649999D01*
X150085530Y-105453965D01*
X150028351Y-105265469D01*
X150028349Y-105265464D01*
X149999022Y-105210597D01*
X149559619Y-105650000D01*
X149551262Y-105650000D01*
X149543673Y-105548735D01*
X149494113Y-105422459D01*
X149409535Y-105316401D01*
X149297453Y-105239984D01*
X149167827Y-105200000D01*
X149090380Y-105200000D01*
X149100000Y-105190380D01*
X149539401Y-104750977D01*
X149539401Y-104750976D01*
X149484541Y-104721653D01*
X149484533Y-104721649D01*
X149343858Y-104678976D01*
X149258175Y-104633177D01*
X149196541Y-104558076D01*
X149168338Y-104465104D01*
X149177861Y-104368417D01*
X149223660Y-104282734D01*
X149238926Y-104269559D01*
X149250000Y-104250000D01*
X149250000Y-104009022D01*
X149920597Y-104009022D01*
X149975464Y-104038349D01*
X149975469Y-104038351D01*
X150163965Y-104095530D01*
X150359999Y-104114838D01*
X150556034Y-104095530D01*
X150744534Y-104038350D01*
X150744535Y-104038349D01*
X150799402Y-104009021D01*
X150360000Y-103569619D01*
X149920597Y-104009022D01*
X149250000Y-104009022D01*
X149250000Y-103806767D01*
X149268954Y-103711479D01*
X149322930Y-103630697D01*
X149403712Y-103576721D01*
X149441093Y-103569285D01*
X149900379Y-103110000D01*
X149866371Y-103075992D01*
X149906190Y-103075992D01*
X149916327Y-103211265D01*
X149965887Y-103337541D01*
X150050465Y-103443599D01*
X150162547Y-103520016D01*
X150292173Y-103560000D01*
X150393724Y-103560000D01*
X150494138Y-103544865D01*
X150616357Y-103486007D01*
X150715798Y-103393740D01*
X150783625Y-103276260D01*
X150813810Y-103144008D01*
X150803673Y-103008735D01*
X150754113Y-102882459D01*
X150669535Y-102776401D01*
X150557453Y-102699984D01*
X150427827Y-102660000D01*
X150326276Y-102660000D01*
X150225862Y-102675135D01*
X150103643Y-102733993D01*
X150004202Y-102826260D01*
X149936375Y-102943740D01*
X149906190Y-103075992D01*
X149866371Y-103075992D01*
X149445490Y-102655111D01*
X149438494Y-102654768D01*
X149350668Y-102613227D01*
X149285424Y-102541239D01*
X149252694Y-102449763D01*
X149250000Y-102413231D01*
X149250000Y-102210976D01*
X149920597Y-102210976D01*
X150360000Y-102650379D01*
X150799401Y-102210977D01*
X150744536Y-102181650D01*
X150744534Y-102181649D01*
X150556034Y-102124469D01*
X150360000Y-102105161D01*
X150163965Y-102124469D01*
X149975466Y-102181649D01*
X149920597Y-102210976D01*
X149250000Y-102210976D01*
X149250000Y-101000001D01*
X149250000Y-101000000D01*
X149250000Y-89000000D01*
X151500000Y-89000000D01*
X151500000Y-101000000D01*
G37*
%TD.AperFunction*%
%TD*%
%TA.AperFunction,Conductor*%
%TO.N,GND*%
G36*
X159002018Y-81025633D02*
G01*
X159182641Y-81037470D01*
X159253674Y-81042126D01*
X159261707Y-81043184D01*
X159492471Y-81089085D01*
X159507046Y-81091985D01*
X159514889Y-81094086D01*
X159751769Y-81174496D01*
X159759243Y-81177592D01*
X159983607Y-81288236D01*
X159990631Y-81292293D01*
X160119083Y-81378121D01*
X160198621Y-81431267D01*
X160205049Y-81436199D01*
X160393123Y-81601135D01*
X160398862Y-81606874D01*
X160563798Y-81794948D01*
X160568736Y-81801383D01*
X160707706Y-82009368D01*
X160711766Y-82016398D01*
X160822401Y-82240743D01*
X160825508Y-82248244D01*
X160905913Y-82485111D01*
X160908014Y-82492953D01*
X160956813Y-82738279D01*
X160957873Y-82746328D01*
X160974367Y-82997980D01*
X160974500Y-83002036D01*
X160974500Y-120997962D01*
X160974367Y-121002018D01*
X160957873Y-121253671D01*
X160956813Y-121261720D01*
X160908014Y-121507046D01*
X160905913Y-121514888D01*
X160825508Y-121751755D01*
X160822401Y-121759256D01*
X160711766Y-121983601D01*
X160707706Y-121990631D01*
X160568736Y-122198616D01*
X160563794Y-122205057D01*
X160398864Y-122393123D01*
X160393123Y-122398864D01*
X160205057Y-122563794D01*
X160198616Y-122568736D01*
X159990631Y-122707706D01*
X159983601Y-122711766D01*
X159759256Y-122822401D01*
X159751755Y-122825508D01*
X159514888Y-122905913D01*
X159507046Y-122908014D01*
X159261720Y-122956813D01*
X159253671Y-122957873D01*
X159002018Y-122974367D01*
X158997962Y-122974500D01*
X143002038Y-122974500D01*
X142997982Y-122974367D01*
X142746328Y-122957873D01*
X142738279Y-122956813D01*
X142492953Y-122908014D01*
X142485111Y-122905913D01*
X142332099Y-122853972D01*
X142248238Y-122825505D01*
X142240749Y-122822403D01*
X142016397Y-122711765D01*
X142009368Y-122707706D01*
X141801383Y-122568736D01*
X141794948Y-122563798D01*
X141606874Y-122398862D01*
X141601135Y-122393123D01*
X141553118Y-122338370D01*
X141436199Y-122205049D01*
X141431267Y-122198621D01*
X141378121Y-122119083D01*
X141292293Y-121990631D01*
X141288236Y-121983607D01*
X141177592Y-121759243D01*
X141174496Y-121751769D01*
X141094086Y-121514888D01*
X141091985Y-121507046D01*
X141069897Y-121396003D01*
X141043184Y-121261707D01*
X141042126Y-121253670D01*
X141025633Y-121002018D01*
X141025500Y-120997962D01*
X141025500Y-108960004D01*
X141500093Y-108960004D01*
X141519692Y-109221545D01*
X141519693Y-109221550D01*
X141578058Y-109477270D01*
X141673883Y-109721426D01*
X141673882Y-109721426D01*
X141792737Y-109927286D01*
X141792738Y-109927287D01*
X142487060Y-109232964D01*
X142516064Y-109315853D01*
X142613775Y-109471360D01*
X142743640Y-109601225D01*
X142899147Y-109698936D01*
X142982034Y-109727939D01*
X142289921Y-110420051D01*
X142377551Y-110479796D01*
X142613854Y-110593594D01*
X142613858Y-110593595D01*
X142864494Y-110670907D01*
X142864500Y-110670909D01*
X143123848Y-110709999D01*
X143123857Y-110710000D01*
X143386143Y-110710000D01*
X143386151Y-110709999D01*
X143645499Y-110670909D01*
X143645509Y-110670906D01*
X143668185Y-110663912D01*
X143738049Y-110662960D01*
X143797336Y-110699931D01*
X143827223Y-110763085D01*
X143818222Y-110832373D01*
X143805585Y-110854552D01*
X143679809Y-111030354D01*
X143679802Y-111030366D01*
X143554275Y-111274515D01*
X143554271Y-111274525D01*
X143465632Y-111534344D01*
X143465629Y-111534358D01*
X143415765Y-111804314D01*
X143415763Y-111804334D01*
X143405737Y-112078678D01*
X143435762Y-112351559D01*
X143435763Y-112351569D01*
X143505202Y-112617178D01*
X143505204Y-112617182D01*
X143612577Y-112869852D01*
X143755592Y-113104191D01*
X143755599Y-113104201D01*
X143931199Y-113315207D01*
X143931204Y-113315212D01*
X143931209Y-113315218D01*
X143931216Y-113315224D01*
X144135672Y-113498419D01*
X144135674Y-113498420D01*
X144135677Y-113498423D01*
X144364641Y-113649904D01*
X144613221Y-113766433D01*
X144876119Y-113845527D01*
X145147731Y-113885500D01*
X145147736Y-113885500D01*
X145353545Y-113885500D01*
X145353547Y-113885500D01*
X145353552Y-113885499D01*
X145353564Y-113885499D01*
X145391614Y-113882713D01*
X145558805Y-113870477D01*
X145826775Y-113810784D01*
X146083198Y-113712711D01*
X146322609Y-113578347D01*
X146539904Y-113410557D01*
X146730454Y-113212916D01*
X146890196Y-112989637D01*
X147015727Y-112745479D01*
X147104370Y-112485646D01*
X147154236Y-112215674D01*
X147159242Y-112078678D01*
X154835737Y-112078678D01*
X154865762Y-112351559D01*
X154865763Y-112351569D01*
X154935202Y-112617178D01*
X154935204Y-112617182D01*
X155042577Y-112869852D01*
X155185592Y-113104191D01*
X155185599Y-113104201D01*
X155361199Y-113315207D01*
X155361204Y-113315212D01*
X155361209Y-113315218D01*
X155361216Y-113315224D01*
X155565672Y-113498419D01*
X155565674Y-113498420D01*
X155565677Y-113498423D01*
X155794641Y-113649904D01*
X156043221Y-113766433D01*
X156306119Y-113845527D01*
X156577731Y-113885500D01*
X156577736Y-113885500D01*
X156783545Y-113885500D01*
X156783547Y-113885500D01*
X156783552Y-113885499D01*
X156783564Y-113885499D01*
X156821614Y-113882713D01*
X156988805Y-113870477D01*
X157256775Y-113810784D01*
X157513198Y-113712711D01*
X157752609Y-113578347D01*
X157969904Y-113410557D01*
X158160454Y-113212916D01*
X158320196Y-112989637D01*
X158445727Y-112745479D01*
X158534370Y-112485646D01*
X158584236Y-112215674D01*
X158594262Y-111941320D01*
X158564236Y-111668429D01*
X158494796Y-111402818D01*
X158387423Y-111150148D01*
X158244405Y-110915804D01*
X158243943Y-110915249D01*
X158199206Y-110861491D01*
X158171453Y-110797370D01*
X158182772Y-110728423D01*
X158229570Y-110676541D01*
X158296989Y-110658197D01*
X158331070Y-110663682D01*
X158354490Y-110670907D01*
X158354500Y-110670909D01*
X158613848Y-110709999D01*
X158613857Y-110710000D01*
X158876143Y-110710000D01*
X158876151Y-110709999D01*
X159135499Y-110670909D01*
X159135505Y-110670907D01*
X159386143Y-110593595D01*
X159622445Y-110479798D01*
X159622454Y-110479793D01*
X159710078Y-110420052D01*
X159017964Y-109727939D01*
X159100853Y-109698936D01*
X159256360Y-109601225D01*
X159386225Y-109471360D01*
X159483936Y-109315853D01*
X159512939Y-109232964D01*
X160207261Y-109927287D01*
X160207262Y-109927287D01*
X160326116Y-109721426D01*
X160421941Y-109477270D01*
X160480306Y-109221550D01*
X160480307Y-109221545D01*
X160499907Y-108960004D01*
X160499907Y-108959995D01*
X160480307Y-108698454D01*
X160480306Y-108698449D01*
X160421941Y-108442729D01*
X160326116Y-108198573D01*
X160207261Y-107992711D01*
X159512939Y-108687034D01*
X159483936Y-108604147D01*
X159386225Y-108448640D01*
X159256360Y-108318775D01*
X159100853Y-108221064D01*
X159017964Y-108192060D01*
X159710078Y-107499945D01*
X159622461Y-107440210D01*
X159622448Y-107440203D01*
X159386142Y-107326404D01*
X159386144Y-107326404D01*
X159135505Y-107249092D01*
X159135499Y-107249090D01*
X158876151Y-107210000D01*
X158613848Y-107210000D01*
X158354500Y-107249090D01*
X158354494Y-107249092D01*
X158103858Y-107326404D01*
X158103854Y-107326405D01*
X157867547Y-107440205D01*
X157867546Y-107440206D01*
X157779922Y-107499947D01*
X158472035Y-108192060D01*
X158389147Y-108221064D01*
X158233640Y-108318775D01*
X158103775Y-108448640D01*
X158006064Y-108604147D01*
X157977060Y-108687035D01*
X157282737Y-107992712D01*
X157163883Y-108198573D01*
X157068058Y-108442729D01*
X157009693Y-108698449D01*
X157009692Y-108698454D01*
X156990093Y-108959995D01*
X156990093Y-108960004D01*
X157009692Y-109221545D01*
X157009693Y-109221550D01*
X157068058Y-109477270D01*
X157163883Y-109721426D01*
X157163882Y-109721426D01*
X157295028Y-109948573D01*
X157338485Y-110003067D01*
X157364894Y-110067754D01*
X157352137Y-110136449D01*
X157304267Y-110187343D01*
X157236480Y-110204277D01*
X157205814Y-110199123D01*
X157123879Y-110174472D01*
X156979612Y-110153241D01*
X156852269Y-110134500D01*
X156646453Y-110134500D01*
X156646435Y-110134500D01*
X156441195Y-110149523D01*
X156441185Y-110149524D01*
X156173229Y-110209214D01*
X156173224Y-110209216D01*
X155916799Y-110307290D01*
X155677392Y-110441652D01*
X155677387Y-110441655D01*
X155460097Y-110609441D01*
X155460088Y-110609450D01*
X155269549Y-110807080D01*
X155269547Y-110807082D01*
X155109805Y-111030361D01*
X155109802Y-111030366D01*
X154984275Y-111274515D01*
X154984271Y-111274525D01*
X154895632Y-111534344D01*
X154895629Y-111534358D01*
X154845765Y-111804314D01*
X154845763Y-111804334D01*
X154835737Y-112078678D01*
X147159242Y-112078678D01*
X147164262Y-111941320D01*
X147134236Y-111668429D01*
X147064796Y-111402818D01*
X146957423Y-111150148D01*
X146814405Y-110915804D01*
X146812666Y-110913715D01*
X146638800Y-110704792D01*
X146638795Y-110704787D01*
X146638791Y-110704782D01*
X146532385Y-110609441D01*
X146434327Y-110521580D01*
X146434324Y-110521578D01*
X146434323Y-110521577D01*
X146205359Y-110370096D01*
X145956779Y-110253567D01*
X145809362Y-110209216D01*
X145693879Y-110174472D01*
X145549612Y-110153241D01*
X145422269Y-110134500D01*
X145216453Y-110134500D01*
X145216435Y-110134500D01*
X145011195Y-110149523D01*
X145011181Y-110149525D01*
X144786972Y-110199470D01*
X144717257Y-110194833D01*
X144661115Y-110153241D01*
X144636373Y-110087899D01*
X144650884Y-110019553D01*
X144663064Y-110001124D01*
X144704972Y-109948573D01*
X144836116Y-109721426D01*
X144931941Y-109477270D01*
X144990306Y-109221550D01*
X144990307Y-109221545D01*
X145009907Y-108960004D01*
X145009907Y-108959995D01*
X144990307Y-108698454D01*
X144990306Y-108698449D01*
X144931941Y-108442729D01*
X144836116Y-108198573D01*
X144717261Y-107992711D01*
X144022939Y-108687034D01*
X143993936Y-108604147D01*
X143896225Y-108448640D01*
X143766360Y-108318775D01*
X143610853Y-108221064D01*
X143527964Y-108192060D01*
X144220078Y-107499945D01*
X144132461Y-107440210D01*
X144132448Y-107440203D01*
X143896142Y-107326404D01*
X143896144Y-107326404D01*
X143645505Y-107249092D01*
X143645499Y-107249090D01*
X143386151Y-107210000D01*
X143123848Y-107210000D01*
X142864500Y-107249090D01*
X142864494Y-107249092D01*
X142613858Y-107326404D01*
X142613854Y-107326405D01*
X142377547Y-107440205D01*
X142377546Y-107440206D01*
X142289922Y-107499947D01*
X142982035Y-108192060D01*
X142899147Y-108221064D01*
X142743640Y-108318775D01*
X142613775Y-108448640D01*
X142516064Y-108604147D01*
X142487060Y-108687033D01*
X141792738Y-107992711D01*
X141792737Y-107992712D01*
X141673883Y-108198573D01*
X141578058Y-108442729D01*
X141519693Y-108698449D01*
X141519692Y-108698454D01*
X141500093Y-108959995D01*
X141500093Y-108960004D01*
X141025500Y-108960004D01*
X141025500Y-103110000D01*
X146565225Y-103110000D01*
X146584287Y-103327884D01*
X146584289Y-103327894D01*
X146640894Y-103539150D01*
X146640898Y-103539159D01*
X146721981Y-103713042D01*
X147325025Y-103109999D01*
X147325025Y-103109998D01*
X146721981Y-102506955D01*
X146721980Y-102506955D01*
X146640899Y-102680835D01*
X146640894Y-102680849D01*
X146584289Y-102892105D01*
X146584287Y-102892115D01*
X146565225Y-103109999D01*
X146565225Y-103110000D01*
X141025500Y-103110000D01*
X141025500Y-100876000D01*
X143986500Y-100876000D01*
X143986501Y-100876009D01*
X143998235Y-100985151D01*
X143998237Y-100985163D01*
X144009443Y-101036673D01*
X144044106Y-101140820D01*
X144044109Y-101140826D01*
X144123128Y-101263781D01*
X144123134Y-101263788D01*
X144168879Y-101316581D01*
X144168882Y-101316584D01*
X144168884Y-101316586D01*
X144185657Y-101331120D01*
X144279335Y-101412294D01*
X144279337Y-101412295D01*
X144279339Y-101412297D01*
X144412287Y-101473014D01*
X144479326Y-101492699D01*
X144479330Y-101492700D01*
X144624000Y-101513500D01*
X144624003Y-101513500D01*
X144820744Y-101513500D01*
X144823489Y-101513352D01*
X144848210Y-101512028D01*
X144888243Y-101507723D01*
X144942495Y-101498932D01*
X144942499Y-101498930D01*
X144942501Y-101498930D01*
X145079427Y-101447861D01*
X145079429Y-101447859D01*
X145079437Y-101447857D01*
X145140760Y-101414373D01*
X145140765Y-101414370D01*
X145257770Y-101326782D01*
X145345359Y-101209777D01*
X145365456Y-101172971D01*
X145414860Y-101123567D01*
X145474288Y-101108399D01*
X146524571Y-101108399D01*
X146591610Y-101128084D01*
X146628886Y-101165359D01*
X146692138Y-101263781D01*
X146692144Y-101263788D01*
X146737889Y-101316581D01*
X146737892Y-101316584D01*
X146737894Y-101316586D01*
X146754667Y-101331120D01*
X146848345Y-101412294D01*
X146848347Y-101412295D01*
X146848349Y-101412297D01*
X146981297Y-101473014D01*
X147048336Y-101492699D01*
X147048340Y-101492700D01*
X147193010Y-101513500D01*
X148612500Y-101513500D01*
X148679539Y-101533185D01*
X148725294Y-101585989D01*
X148736500Y-101637500D01*
X148736500Y-101987569D01*
X148716815Y-102054608D01*
X148664011Y-102100363D01*
X148594853Y-102110307D01*
X148541377Y-102089144D01*
X148447392Y-102023335D01*
X148447388Y-102023333D01*
X148249159Y-101930898D01*
X148249150Y-101930894D01*
X148037894Y-101874289D01*
X148037884Y-101874287D01*
X147820001Y-101855225D01*
X147819999Y-101855225D01*
X147602115Y-101874287D01*
X147602105Y-101874289D01*
X147390849Y-101930894D01*
X147390835Y-101930899D01*
X147216955Y-102011980D01*
X147864975Y-102660000D01*
X147786276Y-102660000D01*
X147685862Y-102675135D01*
X147563643Y-102733993D01*
X147464202Y-102826260D01*
X147396375Y-102943740D01*
X147366190Y-103075992D01*
X147376327Y-103211265D01*
X147425887Y-103337541D01*
X147510465Y-103443599D01*
X147622547Y-103520016D01*
X147752173Y-103560000D01*
X147853724Y-103560000D01*
X147866969Y-103558003D01*
X147216956Y-104208017D01*
X147223648Y-104245967D01*
X147215904Y-104315406D01*
X147171848Y-104369636D01*
X147105467Y-104391438D01*
X147101532Y-104391500D01*
X146009916Y-104391500D01*
X145905970Y-104402120D01*
X145737551Y-104457928D01*
X145737540Y-104457933D01*
X145586540Y-104551072D01*
X145586536Y-104551075D01*
X145461075Y-104676536D01*
X145461072Y-104676540D01*
X145367933Y-104827540D01*
X145367928Y-104827551D01*
X145312120Y-104995970D01*
X145301500Y-105099916D01*
X145301500Y-106200083D01*
X145312120Y-106304029D01*
X145367928Y-106472448D01*
X145367933Y-106472459D01*
X145461072Y-106623459D01*
X145461075Y-106623463D01*
X145586536Y-106748924D01*
X145586540Y-106748927D01*
X145737540Y-106842066D01*
X145737543Y-106842067D01*
X145737549Y-106842071D01*
X145905972Y-106897880D01*
X146009924Y-106908500D01*
X146009929Y-106908500D01*
X147110071Y-106908500D01*
X147110076Y-106908500D01*
X147214028Y-106897880D01*
X147382451Y-106842071D01*
X147533463Y-106748925D01*
X147658925Y-106623463D01*
X147752071Y-106472451D01*
X147798873Y-106331209D01*
X147838644Y-106273766D01*
X147903159Y-106246942D01*
X147971935Y-106259257D01*
X148018152Y-106299089D01*
X148132251Y-106462038D01*
X148287962Y-106617749D01*
X148468346Y-106744056D01*
X148667924Y-106837120D01*
X148880629Y-106894115D01*
X149038506Y-106907927D01*
X149105393Y-106913779D01*
X149105208Y-106915883D01*
X149163473Y-106932992D01*
X149195700Y-106962996D01*
X149228165Y-107006363D01*
X149336898Y-107104032D01*
X149417680Y-107158008D01*
X149464951Y-107186055D01*
X149602783Y-107234679D01*
X149698071Y-107253633D01*
X149698078Y-107253633D01*
X149698080Y-107253634D01*
X149725889Y-107256372D01*
X149798250Y-107263500D01*
X149798253Y-107263500D01*
X150951202Y-107263500D01*
X150951203Y-107263500D01*
X150970095Y-107262804D01*
X151016061Y-107259414D01*
X151151289Y-107230785D01*
X151242764Y-107198053D01*
X151293446Y-107176794D01*
X151414608Y-107095052D01*
X151486595Y-107029807D01*
X151525297Y-106990757D01*
X151539773Y-106968879D01*
X151593185Y-106923834D01*
X151634721Y-106915088D01*
X151634607Y-106913779D01*
X151699986Y-106908059D01*
X151859371Y-106894115D01*
X152072076Y-106837120D01*
X152263157Y-106748018D01*
X153576955Y-106748018D01*
X153750840Y-106829101D01*
X153750849Y-106829105D01*
X153962105Y-106885710D01*
X153962115Y-106885712D01*
X154179999Y-106904775D01*
X154180001Y-106904775D01*
X154397884Y-106885712D01*
X154397894Y-106885710D01*
X154609150Y-106829105D01*
X154609159Y-106829102D01*
X154783043Y-106748018D01*
X154180001Y-106144975D01*
X154180000Y-106144975D01*
X153576955Y-106748018D01*
X152263157Y-106748018D01*
X152271654Y-106744056D01*
X152452038Y-106617749D01*
X152607749Y-106462038D01*
X152734056Y-106281654D01*
X152802309Y-106135283D01*
X152848477Y-106082849D01*
X152915671Y-106063696D01*
X152982552Y-106083911D01*
X153027070Y-106135287D01*
X153081980Y-106253043D01*
X153081981Y-106253043D01*
X153685025Y-105650000D01*
X153685025Y-105649999D01*
X153651018Y-105615992D01*
X153726190Y-105615992D01*
X153736327Y-105751265D01*
X153785887Y-105877541D01*
X153870465Y-105983599D01*
X153982547Y-106060016D01*
X154112173Y-106100000D01*
X154213724Y-106100000D01*
X154314138Y-106084865D01*
X154436357Y-106026007D01*
X154535798Y-105933740D01*
X154603625Y-105816260D01*
X154633810Y-105684008D01*
X154631261Y-105649999D01*
X154674975Y-105649999D01*
X155278017Y-106253043D01*
X155278018Y-106253042D01*
X155359102Y-106079159D01*
X155359105Y-106079150D01*
X155415710Y-105867894D01*
X155415712Y-105867884D01*
X155434775Y-105650000D01*
X155434775Y-105649999D01*
X155415712Y-105432115D01*
X155415710Y-105432105D01*
X155359105Y-105220849D01*
X155359101Y-105220840D01*
X155278018Y-105046955D01*
X154674975Y-105649999D01*
X154631261Y-105649999D01*
X154623673Y-105548735D01*
X154574113Y-105422459D01*
X154489535Y-105316401D01*
X154377453Y-105239984D01*
X154247827Y-105200000D01*
X154146276Y-105200000D01*
X154045862Y-105215135D01*
X153923643Y-105273993D01*
X153824202Y-105366260D01*
X153756375Y-105483740D01*
X153726190Y-105615992D01*
X153651018Y-105615992D01*
X153081980Y-105046955D01*
X153027070Y-105164712D01*
X152980898Y-105217151D01*
X152913704Y-105236303D01*
X152846823Y-105216087D01*
X152802306Y-105164711D01*
X152797789Y-105155025D01*
X152734056Y-105018347D01*
X152734054Y-105018344D01*
X152734053Y-105018342D01*
X152670902Y-104928154D01*
X152607749Y-104837962D01*
X152452038Y-104682251D01*
X152271654Y-104555944D01*
X152263155Y-104551981D01*
X152263153Y-104551980D01*
X153576955Y-104551980D01*
X154180000Y-105155025D01*
X154180001Y-105155025D01*
X154783043Y-104551981D01*
X154609159Y-104470898D01*
X154609150Y-104470894D01*
X154397894Y-104414289D01*
X154397884Y-104414287D01*
X154180001Y-104395225D01*
X154179999Y-104395225D01*
X153962115Y-104414287D01*
X153962105Y-104414289D01*
X153750849Y-104470894D01*
X153750835Y-104470899D01*
X153576955Y-104551980D01*
X152263153Y-104551980D01*
X152158528Y-104503193D01*
X152106088Y-104457021D01*
X152087079Y-104396839D01*
X152084961Y-104353340D01*
X152084961Y-104353338D01*
X152084960Y-104353334D01*
X152084960Y-104353321D01*
X152080799Y-104312756D01*
X152093543Y-104244059D01*
X152141404Y-104193156D01*
X152209187Y-104176209D01*
X152266907Y-104195712D01*
X152267920Y-104193958D01*
X152272611Y-104196666D01*
X152470840Y-104289101D01*
X152470849Y-104289105D01*
X152682105Y-104345710D01*
X152682115Y-104345712D01*
X152899999Y-104364775D01*
X152900001Y-104364775D01*
X153117884Y-104345712D01*
X153117894Y-104345710D01*
X153329150Y-104289105D01*
X153329159Y-104289102D01*
X153503043Y-104208018D01*
X154836955Y-104208018D01*
X155010840Y-104289101D01*
X155010849Y-104289105D01*
X155222105Y-104345710D01*
X155222115Y-104345712D01*
X155439999Y-104364775D01*
X155440001Y-104364775D01*
X155657884Y-104345712D01*
X155657894Y-104345710D01*
X155869150Y-104289105D01*
X155869159Y-104289102D01*
X156043043Y-104208018D01*
X155440001Y-103604975D01*
X155440000Y-103604975D01*
X154836955Y-104208018D01*
X153503043Y-104208018D01*
X152855024Y-103560000D01*
X152933724Y-103560000D01*
X153034138Y-103544865D01*
X153156357Y-103486007D01*
X153255798Y-103393740D01*
X153323625Y-103276260D01*
X153353810Y-103144008D01*
X153351262Y-103110000D01*
X153394975Y-103110000D01*
X153998017Y-103713042D01*
X154057617Y-103585232D01*
X154103789Y-103532793D01*
X154170983Y-103513641D01*
X154237864Y-103533857D01*
X154282381Y-103585232D01*
X154341980Y-103713043D01*
X154341981Y-103713043D01*
X154945025Y-103110000D01*
X154911017Y-103075992D01*
X154986190Y-103075992D01*
X154996327Y-103211265D01*
X155045887Y-103337541D01*
X155130465Y-103443599D01*
X155242547Y-103520016D01*
X155372173Y-103560000D01*
X155473724Y-103560000D01*
X155574138Y-103544865D01*
X155696357Y-103486007D01*
X155795798Y-103393740D01*
X155863625Y-103276260D01*
X155893810Y-103144008D01*
X155891261Y-103109999D01*
X155934975Y-103109999D01*
X156538017Y-103713043D01*
X156538018Y-103713042D01*
X156619102Y-103539159D01*
X156619105Y-103539150D01*
X156675710Y-103327894D01*
X156675712Y-103327884D01*
X156694775Y-103110000D01*
X156694775Y-103109999D01*
X156675712Y-102892115D01*
X156675710Y-102892105D01*
X156619105Y-102680849D01*
X156619101Y-102680840D01*
X156538018Y-102506955D01*
X155934975Y-103109999D01*
X155891261Y-103109999D01*
X155883673Y-103008735D01*
X155834113Y-102882459D01*
X155749535Y-102776401D01*
X155637453Y-102699984D01*
X155507827Y-102660000D01*
X155406276Y-102660000D01*
X155305862Y-102675135D01*
X155183643Y-102733993D01*
X155084202Y-102826260D01*
X155016375Y-102943740D01*
X154986190Y-103075992D01*
X154911017Y-103075992D01*
X154341980Y-102506955D01*
X154282381Y-102634767D01*
X154236208Y-102687206D01*
X154169015Y-102706358D01*
X154102134Y-102686142D01*
X154057617Y-102634767D01*
X153998017Y-102506956D01*
X153394975Y-103109999D01*
X153394975Y-103110000D01*
X153351262Y-103110000D01*
X153343673Y-103008735D01*
X153294113Y-102882459D01*
X153209535Y-102776401D01*
X153097453Y-102699984D01*
X152967827Y-102660000D01*
X152866276Y-102660000D01*
X152853028Y-102661996D01*
X152900000Y-102615025D01*
X153503042Y-102011981D01*
X153503040Y-102011980D01*
X154836955Y-102011980D01*
X155440000Y-102615025D01*
X155440001Y-102615025D01*
X156043043Y-102011981D01*
X155869159Y-101930898D01*
X155869150Y-101930894D01*
X155657894Y-101874289D01*
X155657884Y-101874287D01*
X155440001Y-101855225D01*
X155439999Y-101855225D01*
X155222115Y-101874287D01*
X155222105Y-101874289D01*
X155010849Y-101930894D01*
X155010835Y-101930899D01*
X154836955Y-102011980D01*
X153503040Y-102011980D01*
X153329159Y-101930898D01*
X153329150Y-101930894D01*
X153117894Y-101874289D01*
X153117884Y-101874287D01*
X152900001Y-101855225D01*
X152899999Y-101855225D01*
X152682115Y-101874287D01*
X152682105Y-101874289D01*
X152470849Y-101930894D01*
X152470840Y-101930898D01*
X152272612Y-102023333D01*
X152272610Y-102023334D01*
X152208622Y-102068139D01*
X152142416Y-102090466D01*
X152074649Y-102073454D01*
X152026837Y-102022506D01*
X152013500Y-101966563D01*
X152013500Y-101637500D01*
X152033185Y-101570461D01*
X152085989Y-101524706D01*
X152137500Y-101513500D01*
X154721394Y-101513500D01*
X154724139Y-101513352D01*
X154748860Y-101512028D01*
X154788893Y-101507723D01*
X154843145Y-101498932D01*
X154843149Y-101498930D01*
X154843151Y-101498930D01*
X154980077Y-101447861D01*
X154980079Y-101447859D01*
X154980087Y-101447857D01*
X155041410Y-101414373D01*
X155041415Y-101414370D01*
X155158420Y-101326782D01*
X155246009Y-101209777D01*
X155269985Y-101165867D01*
X155319391Y-101116462D01*
X155378818Y-101101294D01*
X156415355Y-101101294D01*
X156482394Y-101120979D01*
X156519669Y-101158253D01*
X156529129Y-101172973D01*
X156587488Y-101263781D01*
X156587494Y-101263788D01*
X156633239Y-101316581D01*
X156633242Y-101316584D01*
X156633244Y-101316586D01*
X156650017Y-101331120D01*
X156743695Y-101412294D01*
X156743697Y-101412295D01*
X156743699Y-101412297D01*
X156876647Y-101473014D01*
X156943686Y-101492699D01*
X156943690Y-101492700D01*
X157088360Y-101513500D01*
X157088363Y-101513500D01*
X157375990Y-101513500D01*
X157376000Y-101513500D01*
X157485157Y-101501764D01*
X157536668Y-101490558D01*
X157571440Y-101478984D01*
X157640820Y-101455893D01*
X157640824Y-101455890D01*
X157640827Y-101455890D01*
X157763782Y-101376871D01*
X157816586Y-101331116D01*
X157912297Y-101220661D01*
X157973014Y-101087713D01*
X157992699Y-101020674D01*
X157992700Y-101020670D01*
X158013500Y-100876000D01*
X158013500Y-95624000D01*
X158001764Y-95514843D01*
X157990558Y-95463332D01*
X157990453Y-95463017D01*
X157955893Y-95359179D01*
X157955890Y-95359173D01*
X157876871Y-95236218D01*
X157876865Y-95236211D01*
X157831120Y-95183418D01*
X157831117Y-95183415D01*
X157720664Y-95087705D01*
X157720658Y-95087701D01*
X157587714Y-95026986D01*
X157520677Y-95007302D01*
X157520679Y-95007302D01*
X157520674Y-95007301D01*
X157520670Y-95007300D01*
X157376000Y-94986500D01*
X157375998Y-94986500D01*
X154137500Y-94986500D01*
X154070461Y-94966815D01*
X154024706Y-94914011D01*
X154013500Y-94862500D01*
X154013500Y-92548000D01*
X154768002Y-92548000D01*
X154768002Y-94050848D01*
X154774403Y-94110376D01*
X154774405Y-94110383D01*
X154824647Y-94245090D01*
X154824651Y-94245097D01*
X154910811Y-94360191D01*
X154910814Y-94360194D01*
X155025908Y-94446354D01*
X155025915Y-94446358D01*
X155160622Y-94496600D01*
X155160629Y-94496602D01*
X155220157Y-94503003D01*
X155220174Y-94503004D01*
X155548000Y-94503004D01*
X155548000Y-92548000D01*
X156248000Y-92548000D01*
X156248000Y-94503004D01*
X156575826Y-94503004D01*
X156575842Y-94503003D01*
X156635370Y-94496602D01*
X156635377Y-94496600D01*
X156770084Y-94446358D01*
X156770091Y-94446354D01*
X156885185Y-94360194D01*
X156885188Y-94360191D01*
X156971348Y-94245097D01*
X156971352Y-94245090D01*
X157021594Y-94110383D01*
X157021596Y-94110376D01*
X157027997Y-94050848D01*
X157027998Y-94050831D01*
X157027998Y-92548000D01*
X156248000Y-92548000D01*
X155548000Y-92548000D01*
X154768002Y-92548000D01*
X154013500Y-92548000D01*
X154013500Y-91848000D01*
X154768002Y-91848000D01*
X155548000Y-91848000D01*
X155548000Y-89892996D01*
X156248000Y-89892996D01*
X156248000Y-91848000D01*
X157027998Y-91848000D01*
X157027998Y-90345168D01*
X157027997Y-90345151D01*
X157021596Y-90285623D01*
X157021594Y-90285616D01*
X156971352Y-90150909D01*
X156971348Y-90150902D01*
X156885188Y-90035808D01*
X156885185Y-90035805D01*
X156770091Y-89949645D01*
X156770084Y-89949641D01*
X156635377Y-89899399D01*
X156635370Y-89899397D01*
X156575842Y-89892996D01*
X156248000Y-89892996D01*
X155548000Y-89892996D01*
X155220157Y-89892996D01*
X155160629Y-89899397D01*
X155160622Y-89899399D01*
X155025915Y-89949641D01*
X155025908Y-89949645D01*
X154910814Y-90035805D01*
X154910811Y-90035808D01*
X154824651Y-90150902D01*
X154824647Y-90150909D01*
X154774405Y-90285616D01*
X154774403Y-90285623D01*
X154768002Y-90345151D01*
X154768002Y-91848000D01*
X154013500Y-91848000D01*
X154013500Y-88864006D01*
X154013500Y-88863996D01*
X154001764Y-88754839D01*
X153990822Y-88704542D01*
X153995805Y-88634854D01*
X154012722Y-88603873D01*
X154013180Y-88603260D01*
X154013185Y-88603257D01*
X154100813Y-88486200D01*
X154151913Y-88349197D01*
X154158311Y-88289689D01*
X154158423Y-88288650D01*
X154158424Y-88288633D01*
X154158424Y-87726000D01*
X154850076Y-87726000D01*
X154850076Y-88287840D01*
X154856477Y-88347368D01*
X154856479Y-88347375D01*
X154906721Y-88482082D01*
X154906725Y-88482089D01*
X154992885Y-88597183D01*
X154992888Y-88597186D01*
X155107982Y-88683346D01*
X155107989Y-88683350D01*
X155242696Y-88733592D01*
X155242703Y-88733594D01*
X155302231Y-88739995D01*
X155302248Y-88739996D01*
X155742583Y-88739996D01*
X155742583Y-87726000D01*
X156442583Y-87726000D01*
X156442583Y-88739996D01*
X156882918Y-88739996D01*
X156882934Y-88739995D01*
X156942462Y-88733594D01*
X156942469Y-88733592D01*
X157077176Y-88683350D01*
X157077183Y-88683346D01*
X157192277Y-88597186D01*
X157192280Y-88597183D01*
X157278440Y-88482089D01*
X157278444Y-88482082D01*
X157328686Y-88347375D01*
X157328688Y-88347368D01*
X157335089Y-88287840D01*
X157335090Y-88287823D01*
X157335090Y-87726000D01*
X156442583Y-87726000D01*
X155742583Y-87726000D01*
X154850076Y-87726000D01*
X154158424Y-87726000D01*
X154158424Y-87026000D01*
X154850076Y-87026000D01*
X155742583Y-87026000D01*
X155742583Y-86012004D01*
X156442583Y-86012004D01*
X156442583Y-87026000D01*
X157335090Y-87026000D01*
X157335090Y-86464176D01*
X157335089Y-86464159D01*
X157328688Y-86404631D01*
X157328686Y-86404624D01*
X157278444Y-86269917D01*
X157278440Y-86269910D01*
X157192280Y-86154816D01*
X157192277Y-86154813D01*
X157077183Y-86068653D01*
X157077176Y-86068649D01*
X156942469Y-86018407D01*
X156942462Y-86018405D01*
X156882934Y-86012004D01*
X156442583Y-86012004D01*
X155742583Y-86012004D01*
X155302231Y-86012004D01*
X155242703Y-86018405D01*
X155242696Y-86018407D01*
X155107989Y-86068649D01*
X155107982Y-86068653D01*
X154992888Y-86154813D01*
X154992885Y-86154816D01*
X154906725Y-86269910D01*
X154906721Y-86269917D01*
X154856479Y-86404624D01*
X154856477Y-86404631D01*
X154850076Y-86464159D01*
X154850076Y-87026000D01*
X154158424Y-87026000D01*
X154158424Y-86463366D01*
X154158423Y-86463349D01*
X154155081Y-86432274D01*
X154151913Y-86402803D01*
X154100813Y-86265800D01*
X154013185Y-86148743D01*
X153896128Y-86061115D01*
X153896128Y-86061114D01*
X153759127Y-86010015D01*
X153698578Y-86003504D01*
X153698562Y-86003504D01*
X152887500Y-86003504D01*
X152820461Y-85983819D01*
X152774706Y-85931015D01*
X152763500Y-85879504D01*
X152763500Y-85176240D01*
X152783185Y-85109201D01*
X152835989Y-85063446D01*
X152905147Y-85053502D01*
X152952780Y-85070814D01*
X152963497Y-85077450D01*
X153170607Y-85157684D01*
X153388945Y-85198500D01*
X153611055Y-85198500D01*
X153829397Y-85157683D01*
X154036501Y-85077451D01*
X154064894Y-85059869D01*
X153500000Y-84494975D01*
X153449525Y-84444500D01*
X153533312Y-84444500D01*
X153632499Y-84429550D01*
X153753224Y-84371412D01*
X153851450Y-84280272D01*
X153918447Y-84164228D01*
X153948264Y-84033593D01*
X153945747Y-83999999D01*
X153994974Y-83999999D01*
X154558339Y-84563364D01*
X154622350Y-84434813D01*
X154622356Y-84434798D01*
X154683139Y-84221168D01*
X154683140Y-84221166D01*
X154703634Y-84000000D01*
X154703634Y-83999999D01*
X154683140Y-83778833D01*
X154683139Y-83778831D01*
X154622356Y-83565201D01*
X154622350Y-83565186D01*
X154558338Y-83436634D01*
X153994974Y-83999998D01*
X153994974Y-83999999D01*
X153945747Y-83999999D01*
X153938251Y-83899972D01*
X153889297Y-83775240D01*
X153805752Y-83670478D01*
X153695040Y-83594996D01*
X153566998Y-83555500D01*
X153466688Y-83555500D01*
X153367501Y-83570450D01*
X153246776Y-83628588D01*
X153148550Y-83719728D01*
X153081553Y-83835772D01*
X153051736Y-83966407D01*
X153058241Y-84053215D01*
X152441660Y-83436634D01*
X152377645Y-83565197D01*
X152377641Y-83565207D01*
X152374283Y-83577009D01*
X152337001Y-83636101D01*
X152273690Y-83665656D01*
X152204451Y-83656291D01*
X152151267Y-83610979D01*
X152140981Y-83590441D01*
X152140830Y-83590512D01*
X152137618Y-83583623D01*
X152049286Y-83394195D01*
X151928148Y-83221191D01*
X151778809Y-83071852D01*
X151778805Y-83071849D01*
X151778804Y-83071848D01*
X151605810Y-82950716D01*
X151605806Y-82950714D01*
X151583106Y-82940129D01*
X152935103Y-82940129D01*
X153500000Y-83505025D01*
X153500001Y-83505025D01*
X154064894Y-82940129D01*
X154064894Y-82940128D01*
X154036509Y-82922552D01*
X154036505Y-82922550D01*
X153829392Y-82842315D01*
X153611055Y-82801500D01*
X153388945Y-82801500D01*
X153170607Y-82842315D01*
X152963495Y-82922550D01*
X152963491Y-82922552D01*
X152935103Y-82940129D01*
X151583106Y-82940129D01*
X151545412Y-82922552D01*
X151414395Y-82861458D01*
X151414391Y-82861457D01*
X151414387Y-82861455D01*
X151210399Y-82806797D01*
X151210395Y-82806796D01*
X151210394Y-82806796D01*
X151210393Y-82806795D01*
X151210388Y-82806795D01*
X151000002Y-82788389D01*
X150999998Y-82788389D01*
X150789611Y-82806795D01*
X150789600Y-82806797D01*
X150585612Y-82861455D01*
X150585603Y-82861459D01*
X150394196Y-82950713D01*
X150394194Y-82950714D01*
X150221188Y-83071853D01*
X150071853Y-83221188D01*
X149950714Y-83394194D01*
X149950713Y-83394196D01*
X149862382Y-83583623D01*
X149816210Y-83636062D01*
X149749016Y-83655214D01*
X149682135Y-83634998D01*
X149637618Y-83583623D01*
X149600967Y-83505025D01*
X149549286Y-83394195D01*
X149428148Y-83221191D01*
X149278809Y-83071852D01*
X149278805Y-83071849D01*
X149278804Y-83071848D01*
X149105810Y-82950716D01*
X149105806Y-82950714D01*
X149045412Y-82922552D01*
X148914395Y-82861458D01*
X148914391Y-82861457D01*
X148914387Y-82861455D01*
X148710399Y-82806797D01*
X148710395Y-82806796D01*
X148710394Y-82806796D01*
X148710393Y-82806795D01*
X148710388Y-82806795D01*
X148500002Y-82788389D01*
X148499998Y-82788389D01*
X148289611Y-82806795D01*
X148289600Y-82806797D01*
X148085612Y-82861455D01*
X148085603Y-82861459D01*
X147894196Y-82950713D01*
X147894194Y-82950714D01*
X147721188Y-83071853D01*
X147571853Y-83221188D01*
X147450714Y-83394194D01*
X147450713Y-83394196D01*
X147361459Y-83585603D01*
X147361455Y-83585612D01*
X147306797Y-83789600D01*
X147306795Y-83789611D01*
X147288389Y-83999998D01*
X147288389Y-84000001D01*
X147306795Y-84210388D01*
X147306797Y-84210399D01*
X147361455Y-84414387D01*
X147361457Y-84414391D01*
X147361458Y-84414395D01*
X147430923Y-84563364D01*
X147450714Y-84605806D01*
X147450716Y-84605810D01*
X147571848Y-84778804D01*
X147571853Y-84778810D01*
X147721189Y-84928146D01*
X147721195Y-84928151D01*
X147894189Y-85049283D01*
X147894191Y-85049284D01*
X147894194Y-85049286D01*
X148085605Y-85138542D01*
X148289606Y-85193204D01*
X148439887Y-85206351D01*
X148499998Y-85211611D01*
X148500000Y-85211611D01*
X148500002Y-85211611D01*
X148552598Y-85207009D01*
X148710394Y-85193204D01*
X148914395Y-85138542D01*
X149060095Y-85070600D01*
X149129173Y-85060109D01*
X149192957Y-85088629D01*
X149231196Y-85147106D01*
X149236500Y-85182983D01*
X149236500Y-85879504D01*
X149216815Y-85946543D01*
X149164011Y-85992298D01*
X149112500Y-86003504D01*
X148301421Y-86003504D01*
X148240873Y-86010015D01*
X148240871Y-86010015D01*
X148103871Y-86061115D01*
X147986815Y-86148743D01*
X147899187Y-86265799D01*
X147848087Y-86402799D01*
X147848087Y-86402801D01*
X147841576Y-86463349D01*
X147841576Y-88185374D01*
X147821891Y-88252413D01*
X147784617Y-88289689D01*
X147736217Y-88320794D01*
X147736212Y-88320798D01*
X147683418Y-88366544D01*
X147683415Y-88366547D01*
X147587705Y-88477000D01*
X147587701Y-88477006D01*
X147526986Y-88609950D01*
X147519109Y-88636777D01*
X147507301Y-88676991D01*
X147507300Y-88676995D01*
X147499163Y-88733594D01*
X147486500Y-88821666D01*
X147486500Y-94862500D01*
X147466815Y-94929539D01*
X147414011Y-94975294D01*
X147362500Y-94986500D01*
X144624000Y-94986500D01*
X144623991Y-94986500D01*
X144623990Y-94986501D01*
X144514848Y-94998235D01*
X144514836Y-94998237D01*
X144463326Y-95009443D01*
X144359179Y-95044106D01*
X144359173Y-95044109D01*
X144236218Y-95123128D01*
X144236211Y-95123134D01*
X144183418Y-95168879D01*
X144183415Y-95168882D01*
X144087705Y-95279335D01*
X144087701Y-95279341D01*
X144026986Y-95412285D01*
X144011999Y-95463326D01*
X144007301Y-95479326D01*
X144007300Y-95479330D01*
X143986500Y-95624000D01*
X143986500Y-100876000D01*
X141025500Y-100876000D01*
X141025500Y-92555105D01*
X144870002Y-92555105D01*
X144870002Y-94057953D01*
X144876403Y-94117481D01*
X144876405Y-94117488D01*
X144926647Y-94252195D01*
X144926651Y-94252202D01*
X145012811Y-94367296D01*
X145012814Y-94367299D01*
X145127908Y-94453459D01*
X145127915Y-94453463D01*
X145262622Y-94503705D01*
X145262629Y-94503707D01*
X145322157Y-94510108D01*
X145322174Y-94510109D01*
X145650000Y-94510109D01*
X145650000Y-92555105D01*
X146350000Y-92555105D01*
X146350000Y-94510109D01*
X146677826Y-94510109D01*
X146677842Y-94510108D01*
X146737370Y-94503707D01*
X146737377Y-94503705D01*
X146872084Y-94453463D01*
X146872091Y-94453459D01*
X146987185Y-94367299D01*
X146987188Y-94367296D01*
X147073348Y-94252202D01*
X147073352Y-94252195D01*
X147123594Y-94117488D01*
X147123596Y-94117481D01*
X147129997Y-94057953D01*
X147129998Y-94057936D01*
X147129998Y-92555105D01*
X146350000Y-92555105D01*
X145650000Y-92555105D01*
X144870002Y-92555105D01*
X141025500Y-92555105D01*
X141025500Y-91855105D01*
X144870002Y-91855105D01*
X145650000Y-91855105D01*
X145650000Y-89900101D01*
X146350000Y-89900101D01*
X146350000Y-91855105D01*
X147129998Y-91855105D01*
X147129998Y-90352273D01*
X147129997Y-90352256D01*
X147123596Y-90292728D01*
X147123594Y-90292721D01*
X147073352Y-90158014D01*
X147073348Y-90158007D01*
X146987188Y-90042913D01*
X146987185Y-90042910D01*
X146872091Y-89956750D01*
X146872084Y-89956746D01*
X146737377Y-89906504D01*
X146737370Y-89906502D01*
X146677842Y-89900101D01*
X146350000Y-89900101D01*
X145650000Y-89900101D01*
X145322157Y-89900101D01*
X145262629Y-89906502D01*
X145262622Y-89906504D01*
X145127915Y-89956746D01*
X145127908Y-89956750D01*
X145012814Y-90042910D01*
X145012811Y-90042913D01*
X144926651Y-90158007D01*
X144926647Y-90158014D01*
X144876405Y-90292721D01*
X144876403Y-90292728D01*
X144870002Y-90352256D01*
X144870002Y-91855105D01*
X141025500Y-91855105D01*
X141025500Y-87726000D01*
X144664910Y-87726000D01*
X144664910Y-88287840D01*
X144671311Y-88347368D01*
X144671313Y-88347375D01*
X144721555Y-88482082D01*
X144721559Y-88482089D01*
X144807719Y-88597183D01*
X144807722Y-88597186D01*
X144922816Y-88683346D01*
X144922823Y-88683350D01*
X145057530Y-88733592D01*
X145057537Y-88733594D01*
X145117065Y-88739995D01*
X145117082Y-88739996D01*
X145557417Y-88739996D01*
X145557417Y-87726000D01*
X146257417Y-87726000D01*
X146257417Y-88739996D01*
X146697752Y-88739996D01*
X146697768Y-88739995D01*
X146757296Y-88733594D01*
X146757303Y-88733592D01*
X146892010Y-88683350D01*
X146892017Y-88683346D01*
X147007111Y-88597186D01*
X147007114Y-88597183D01*
X147093274Y-88482089D01*
X147093278Y-88482082D01*
X147143520Y-88347375D01*
X147143522Y-88347368D01*
X147149923Y-88287840D01*
X147149924Y-88287823D01*
X147149924Y-87726000D01*
X146257417Y-87726000D01*
X145557417Y-87726000D01*
X144664910Y-87726000D01*
X141025500Y-87726000D01*
X141025500Y-87026000D01*
X144664910Y-87026000D01*
X145557417Y-87026000D01*
X145557417Y-86012004D01*
X146257417Y-86012004D01*
X146257417Y-87026000D01*
X147149924Y-87026000D01*
X147149924Y-86464176D01*
X147149923Y-86464159D01*
X147143522Y-86404631D01*
X147143520Y-86404624D01*
X147093278Y-86269917D01*
X147093274Y-86269910D01*
X147007114Y-86154816D01*
X147007111Y-86154813D01*
X146892017Y-86068653D01*
X146892010Y-86068649D01*
X146757303Y-86018407D01*
X146757296Y-86018405D01*
X146697768Y-86012004D01*
X146257417Y-86012004D01*
X145557417Y-86012004D01*
X145117065Y-86012004D01*
X145057537Y-86018405D01*
X145057530Y-86018407D01*
X144922823Y-86068649D01*
X144922816Y-86068653D01*
X144807722Y-86154813D01*
X144807719Y-86154816D01*
X144721559Y-86269910D01*
X144721555Y-86269917D01*
X144671313Y-86404624D01*
X144671311Y-86404631D01*
X144664910Y-86464159D01*
X144664910Y-87026000D01*
X141025500Y-87026000D01*
X141025500Y-83002037D01*
X141025633Y-82997981D01*
X141038510Y-82801500D01*
X141042126Y-82746323D01*
X141043183Y-82738294D01*
X141091985Y-82492950D01*
X141094086Y-82485111D01*
X141174498Y-82248225D01*
X141177590Y-82240761D01*
X141288239Y-82016386D01*
X141292293Y-82009368D01*
X141313189Y-81978094D01*
X141431272Y-81801370D01*
X141436193Y-81794957D01*
X141601144Y-81606866D01*
X141606866Y-81601144D01*
X141794957Y-81436193D01*
X141801370Y-81431272D01*
X142009368Y-81292293D01*
X142016386Y-81288239D01*
X142240761Y-81177590D01*
X142248225Y-81174498D01*
X142485114Y-81094085D01*
X142492950Y-81091985D01*
X142738294Y-81043183D01*
X142746323Y-81042126D01*
X142828233Y-81036758D01*
X142997982Y-81025633D01*
X143002038Y-81025500D01*
X143008285Y-81025500D01*
X158991715Y-81025500D01*
X158997962Y-81025500D01*
X159002018Y-81025633D01*
G37*
%TD.AperFunction*%
%TD*%
%TA.AperFunction,Conductor*%
%TO.N,/12V*%
G36*
X150551736Y-83966407D02*
G01*
X150561749Y-84100028D01*
X150610703Y-84224760D01*
X150694248Y-84329522D01*
X150804960Y-84405004D01*
X150933002Y-84444500D01*
X151033312Y-84444500D01*
X151132499Y-84429550D01*
X151253224Y-84371412D01*
X151351450Y-84280272D01*
X151418447Y-84164228D01*
X151448264Y-84033593D01*
X151438894Y-83908564D01*
X152070090Y-84539760D01*
X152106037Y-84533897D01*
X152175371Y-84542533D01*
X152229030Y-84587282D01*
X152249978Y-84653937D01*
X152250000Y-84656279D01*
X152250000Y-86000000D01*
X149750000Y-86000000D01*
X149750000Y-85073389D01*
X150456939Y-85073389D01*
X150463498Y-85077451D01*
X150670602Y-85157683D01*
X150888945Y-85198500D01*
X151111055Y-85198500D01*
X151329397Y-85157683D01*
X151536503Y-85077450D01*
X151543059Y-85073389D01*
X151543059Y-85073388D01*
X151000001Y-84530329D01*
X151000000Y-84530329D01*
X150456939Y-85073389D01*
X149750000Y-85073389D01*
X149750000Y-84656279D01*
X149769685Y-84589240D01*
X149822489Y-84543485D01*
X149891647Y-84533541D01*
X149893964Y-84533897D01*
X149929908Y-84539760D01*
X150566072Y-83903595D01*
X150551736Y-83966407D01*
G37*
%TD.AperFunction*%
%TA.AperFunction,Conductor*%
G36*
X151043333Y-83528849D02*
G01*
X151087680Y-83557350D01*
X151094230Y-83563900D01*
X151066998Y-83555500D01*
X150966688Y-83555500D01*
X150904846Y-83564821D01*
X150912318Y-83557350D01*
X150973641Y-83523865D01*
X151043333Y-83528849D01*
G37*
%TD.AperFunction*%
%TD*%
M02*
