%TF.GenerationSoftware,KiCad,Pcbnew,7.0.5-0*%
%TF.CreationDate,2024-07-28T13:55:19+02:00*%
%TF.ProjectId,rj45-dynamixel-adapter,726a3435-2d64-4796-9e61-6d6978656c2d,rev?*%
%TF.SameCoordinates,Original*%
%TF.FileFunction,Legend,Top*%
%TF.FilePolarity,Positive*%
%FSLAX46Y46*%
G04 Gerber Fmt 4.6, Leading zero omitted, Abs format (unit mm)*
G04 Created by KiCad (PCBNEW 7.0.5-0) date 2024-07-28 13:55:19*
%MOMM*%
%LPD*%
G01*
G04 APERTURE LIST*
G04 Aperture macros list*
%AMRoundRect*
0 Rectangle with rounded corners*
0 $1 Rounding radius*
0 $2 $3 $4 $5 $6 $7 $8 $9 X,Y pos of 4 corners*
0 Add a 4 corners polygon primitive as box body*
4,1,4,$2,$3,$4,$5,$6,$7,$8,$9,$2,$3,0*
0 Add four circle primitives for the rounded corners*
1,1,$1+$1,$2,$3*
1,1,$1+$1,$4,$5*
1,1,$1+$1,$6,$7*
1,1,$1+$1,$8,$9*
0 Add four rect primitives between the rounded corners*
20,1,$1+$1,$2,$3,$4,$5,0*
20,1,$1+$1,$4,$5,$6,$7,0*
20,1,$1+$1,$6,$7,$8,$9,0*
20,1,$1+$1,$8,$9,$2,$3,0*%
G04 Aperture macros list end*
%ADD10C,0.150000*%
%ADD11C,0.120000*%
%ADD12C,0.152400*%
%ADD13C,0.059995*%
%ADD14C,3.250000*%
%ADD15RoundRect,0.250500X-0.499500X-0.499500X0.499500X-0.499500X0.499500X0.499500X-0.499500X0.499500X0*%
%ADD16C,1.500000*%
%ADD17C,2.500000*%
%ADD18R,1.485014X1.727991*%
%ADD19C,1.397000*%
%ADD20R,1.259995X3.610008*%
G04 APERTURE END LIST*
D10*
%TO.C,C1*%
X154333333Y-84642971D02*
X154285714Y-84690591D01*
X154285714Y-84690591D02*
X154142857Y-84738210D01*
X154142857Y-84738210D02*
X154047619Y-84738210D01*
X154047619Y-84738210D02*
X153904762Y-84690591D01*
X153904762Y-84690591D02*
X153809524Y-84595352D01*
X153809524Y-84595352D02*
X153761905Y-84500114D01*
X153761905Y-84500114D02*
X153714286Y-84309638D01*
X153714286Y-84309638D02*
X153714286Y-84166781D01*
X153714286Y-84166781D02*
X153761905Y-83976305D01*
X153761905Y-83976305D02*
X153809524Y-83881067D01*
X153809524Y-83881067D02*
X153904762Y-83785829D01*
X153904762Y-83785829D02*
X154047619Y-83738210D01*
X154047619Y-83738210D02*
X154142857Y-83738210D01*
X154142857Y-83738210D02*
X154285714Y-83785829D01*
X154285714Y-83785829D02*
X154333333Y-83833448D01*
X155285714Y-84738210D02*
X154714286Y-84738210D01*
X155000000Y-84738210D02*
X155000000Y-83738210D01*
X155000000Y-83738210D02*
X154904762Y-83881067D01*
X154904762Y-83881067D02*
X154809524Y-83976305D01*
X154809524Y-83976305D02*
X154714286Y-84023924D01*
%TO.C,J1*%
X151333333Y-84545180D02*
X151333333Y-83830895D01*
X151333333Y-83830895D02*
X151380952Y-83688038D01*
X151380952Y-83688038D02*
X151476190Y-83592800D01*
X151476190Y-83592800D02*
X151619047Y-83545180D01*
X151619047Y-83545180D02*
X151714285Y-83545180D01*
X150333333Y-83545180D02*
X150904761Y-83545180D01*
X150619047Y-83545180D02*
X150619047Y-84545180D01*
X150619047Y-84545180D02*
X150714285Y-84402323D01*
X150714285Y-84402323D02*
X150809523Y-84307085D01*
X150809523Y-84307085D02*
X150904761Y-84259466D01*
%TO.C,C3*%
X153572333Y-90765370D02*
X153524714Y-90812990D01*
X153524714Y-90812990D02*
X153381857Y-90860609D01*
X153381857Y-90860609D02*
X153286619Y-90860609D01*
X153286619Y-90860609D02*
X153143762Y-90812990D01*
X153143762Y-90812990D02*
X153048524Y-90717751D01*
X153048524Y-90717751D02*
X153000905Y-90622513D01*
X153000905Y-90622513D02*
X152953286Y-90432037D01*
X152953286Y-90432037D02*
X152953286Y-90289180D01*
X152953286Y-90289180D02*
X153000905Y-90098704D01*
X153000905Y-90098704D02*
X153048524Y-90003466D01*
X153048524Y-90003466D02*
X153143762Y-89908228D01*
X153143762Y-89908228D02*
X153286619Y-89860609D01*
X153286619Y-89860609D02*
X153381857Y-89860609D01*
X153381857Y-89860609D02*
X153524714Y-89908228D01*
X153524714Y-89908228D02*
X153572333Y-89955847D01*
X153905667Y-89860609D02*
X154524714Y-89860609D01*
X154524714Y-89860609D02*
X154191381Y-90241561D01*
X154191381Y-90241561D02*
X154334238Y-90241561D01*
X154334238Y-90241561D02*
X154429476Y-90289180D01*
X154429476Y-90289180D02*
X154477095Y-90336799D01*
X154477095Y-90336799D02*
X154524714Y-90432037D01*
X154524714Y-90432037D02*
X154524714Y-90670132D01*
X154524714Y-90670132D02*
X154477095Y-90765370D01*
X154477095Y-90765370D02*
X154429476Y-90812990D01*
X154429476Y-90812990D02*
X154334238Y-90860609D01*
X154334238Y-90860609D02*
X154048524Y-90860609D01*
X154048524Y-90860609D02*
X153953286Y-90812990D01*
X153953286Y-90812990D02*
X153905667Y-90765370D01*
%TO.C,C2*%
X147841333Y-90828189D02*
X147793714Y-90875809D01*
X147793714Y-90875809D02*
X147650857Y-90923428D01*
X147650857Y-90923428D02*
X147555619Y-90923428D01*
X147555619Y-90923428D02*
X147412762Y-90875809D01*
X147412762Y-90875809D02*
X147317524Y-90780570D01*
X147317524Y-90780570D02*
X147269905Y-90685332D01*
X147269905Y-90685332D02*
X147222286Y-90494856D01*
X147222286Y-90494856D02*
X147222286Y-90351999D01*
X147222286Y-90351999D02*
X147269905Y-90161523D01*
X147269905Y-90161523D02*
X147317524Y-90066285D01*
X147317524Y-90066285D02*
X147412762Y-89971047D01*
X147412762Y-89971047D02*
X147555619Y-89923428D01*
X147555619Y-89923428D02*
X147650857Y-89923428D01*
X147650857Y-89923428D02*
X147793714Y-89971047D01*
X147793714Y-89971047D02*
X147841333Y-90018666D01*
X148222286Y-90018666D02*
X148269905Y-89971047D01*
X148269905Y-89971047D02*
X148365143Y-89923428D01*
X148365143Y-89923428D02*
X148603238Y-89923428D01*
X148603238Y-89923428D02*
X148698476Y-89971047D01*
X148698476Y-89971047D02*
X148746095Y-90018666D01*
X148746095Y-90018666D02*
X148793714Y-90113904D01*
X148793714Y-90113904D02*
X148793714Y-90209142D01*
X148793714Y-90209142D02*
X148746095Y-90351999D01*
X148746095Y-90351999D02*
X148174667Y-90923428D01*
X148174667Y-90923428D02*
X148793714Y-90923428D01*
D11*
%TO.C,J3*%
X142880000Y-101390000D02*
X142880000Y-107300000D01*
X142880000Y-101390000D02*
X159120000Y-101390000D01*
X142880000Y-110580000D02*
X142880000Y-123030000D01*
X143000000Y-122760000D02*
X142750000Y-122760000D01*
X143100000Y-122910000D02*
X143100000Y-123160000D01*
X159120000Y-101390000D02*
X159120000Y-107300000D01*
X159120000Y-110580000D02*
X159120000Y-123030000D01*
X159120000Y-123030000D02*
X142880000Y-123030000D01*
D12*
%TO.C,C1*%
X151936398Y-88316208D02*
X151936398Y-86435792D01*
X152088799Y-86283391D02*
X153573787Y-86283391D01*
X153573787Y-88468609D02*
X152088799Y-88468609D01*
X155426213Y-88468609D02*
X156911201Y-88468609D01*
X156911201Y-86283391D02*
X155426213Y-86283391D01*
X157063602Y-88316208D02*
X157063602Y-86435792D01*
X152088799Y-86283391D02*
G75*
G03*
X151936398Y-86435792I-1J-152400D01*
G01*
X151936398Y-88316208D02*
G75*
G03*
X152088799Y-88468609I152400J-1D01*
G01*
X157063609Y-86435792D02*
G75*
G03*
X156911201Y-86283391I-152409J-8D01*
G01*
X156911201Y-88468602D02*
G75*
G03*
X157063602Y-88316208I-1J152402D01*
G01*
D13*
X152930023Y-88176102D02*
G75*
G03*
X152930023Y-88176102I-29972J0D01*
G01*
D12*
%TO.C,J1*%
X156130800Y-85727000D02*
X156130800Y-81663000D01*
X156130800Y-81663000D02*
X145869200Y-81663000D01*
X145869200Y-85727000D02*
X156130800Y-85727000D01*
X145869200Y-81663000D02*
X145869200Y-85727000D01*
%TO.C,C3*%
X160124238Y-91266657D02*
X160124238Y-97982862D01*
X156680398Y-91266657D02*
X160124238Y-91266657D01*
X155115602Y-91266657D02*
X151671762Y-91266657D01*
X151671762Y-91266657D02*
X151671762Y-97982862D01*
X160124238Y-97982862D02*
X158387967Y-99719133D01*
X151671762Y-97982862D02*
X153408033Y-99719133D01*
X158387967Y-99719133D02*
X156680398Y-99719133D01*
X153408033Y-99719133D02*
X155115602Y-99719133D01*
D13*
X160078086Y-99993022D02*
G75*
G03*
X160078086Y-99993022I-29972J0D01*
G01*
D12*
%TO.C,C2*%
X150063602Y-86435792D02*
X150063602Y-88316208D01*
X149911201Y-88468609D02*
X148426213Y-88468609D01*
X148426213Y-86283391D02*
X149911201Y-86283391D01*
X146573787Y-86283391D02*
X145088799Y-86283391D01*
X145088799Y-88468609D02*
X146573787Y-88468609D01*
X144936398Y-86435792D02*
X144936398Y-88316208D01*
X149911201Y-88468609D02*
G75*
G03*
X150063602Y-88316208I1J152400D01*
G01*
X150063602Y-86435792D02*
G75*
G03*
X149911201Y-86283391I-152400J1D01*
G01*
X144936391Y-88316208D02*
G75*
G03*
X145088799Y-88468609I152409J8D01*
G01*
X145088799Y-86283398D02*
G75*
G03*
X144936398Y-86435792I1J-152402D01*
G01*
D13*
X149129921Y-86575898D02*
G75*
G03*
X149129921Y-86575898I-29972J0D01*
G01*
D12*
%TO.C,C4*%
X150226238Y-91273762D02*
X150226238Y-97989967D01*
X146782398Y-91273762D02*
X150226238Y-91273762D01*
X145217602Y-91273762D02*
X141773762Y-91273762D01*
X141773762Y-91273762D02*
X141773762Y-97989967D01*
X150226238Y-97989967D02*
X148489967Y-99726238D01*
X141773762Y-97989967D02*
X143510033Y-99726238D01*
X148489967Y-99726238D02*
X146782398Y-99726238D01*
X143510033Y-99726238D02*
X145217602Y-99726238D01*
D13*
X150180086Y-100000127D02*
G75*
G03*
X150180086Y-100000127I-29972J0D01*
G01*
%TD*%
%LPC*%
D14*
%TO.C,J3*%
X145285000Y-112010000D03*
X156715000Y-112010000D03*
D15*
X146560000Y-105650000D03*
D16*
X147820000Y-103110000D03*
X149100000Y-105650000D03*
X150360000Y-103110000D03*
X151640000Y-105650000D03*
X152900000Y-103110000D03*
X154180000Y-105650000D03*
X155440000Y-103110000D03*
D17*
X143255000Y-108960000D03*
X158745000Y-108960000D03*
%TD*%
D18*
%TO.C,C1*%
X152907417Y-87376000D03*
X156092583Y-87376000D03*
%TD*%
D19*
%TO.C,J1*%
X153500000Y-84000000D03*
X151000000Y-84000000D03*
X148500000Y-84000000D03*
%TD*%
D20*
%TO.C,C3*%
X155898000Y-98787790D03*
X155898000Y-92198000D03*
%TD*%
D18*
%TO.C,C2*%
X149092583Y-87376000D03*
X145907417Y-87376000D03*
%TD*%
D20*
%TO.C,C4*%
X146000000Y-98794895D03*
X146000000Y-92205105D03*
%TD*%
%LPD*%
M02*
