M48
; DRILL file {KiCad 7.0.5-0} date 2024 January 05, Friday 10:03:26
; FORMAT={-:-/ absolute / inch / decimal}
; #@! TF.CreationDate,2024-01-05T10:03:26+01:00
; #@! TF.GenerationSoftware,Kicad,Pcbnew,7.0.5-0
; #@! TF.FileFunction,Plated,1,4,PTH
FMAT,2
INCH
; #@! TA.AperFunction,Plated,PTH,ViaDrill
T1C0.0157
; #@! TA.AperFunction,Plated,PTH,ComponentDrill
T2C0.0315
; #@! TA.AperFunction,Plated,PTH,ComponentDrill
T3C0.0354
; #@! TA.AperFunction,Plated,PTH,ComponentDrill
T4C0.0394
; #@! TA.AperFunction,Plated,PTH,ComponentDrill
T5C0.0402
; #@! TA.AperFunction,Plated,PTH,ComponentDrill
T6C0.0433
; #@! TA.AperFunction,Plated,PTH,ComponentDrill
T7C0.0472
; #@! TA.AperFunction,Plated,PTH,ComponentDrill
T8C0.0630
; #@! TA.AperFunction,Plated,PTH,ComponentDrill
T9C0.0669
; #@! TA.AperFunction,Plated,PTH,ComponentDrill
T10C0.1260
%
G90
G05
T1
X-3.895Y-1.19
X-3.715Y-1.425
X-3.715Y-1.575
X-3.71Y-0.975
X-3.65Y-0.975
X-1.2629Y-0.8881
X-0.7164Y0.7967
X0.6254Y0.7043
X0.6254Y0.1504
X0.6254Y-0.3996
X0.9054Y0.7543
X0.9054Y0.2004
X0.9054Y-0.3496
X0.9454Y1.0043
X0.9454Y0.8543
X0.9454Y0.4504
X0.9454Y-0.1246
X1.4816Y1.1
X1.875Y1.1
X1.925Y1.1
T2
X-2.1713Y0.05
X-2.1713Y-0.05
X-1.6894Y0.204
X-1.6894Y0.1253
X-1.6894Y0.0465
X-1.6106Y0.204
X-1.6106Y0.1253
X-1.6106Y0.0465
X-1.1498Y-0.8316
X-1.0941Y-0.7759
X-1.0941Y-0.8872
X-1.0384Y-0.8316
X-1.0384Y-0.9429
X-0.9827Y-0.8872
T3
X-1.3414Y-1.0586
X-1.2707Y-1.1293
X-1.2354Y-1.0232
X-1.2Y-1.2
X-1.1646Y-1.0939
X-1.1293Y-1.2707
X-1.0939Y-1.1646
X-1.0232Y-1.2354
X1.5066Y1.0
X1.5066Y0.9
X1.5066Y0.8
X1.5066Y0.7
X1.5066Y0.45
X1.5066Y0.35
X1.5066Y0.25
X1.5066Y0.15
X1.5066Y-0.1
X1.5066Y-0.2
X1.5066Y-0.3
X1.5066Y-0.4
X1.5066Y-0.65
X1.5066Y-0.75
X1.5066Y-0.85
X1.5066Y-0.95
X1.6066Y0.9504
X1.6066Y0.8504
X1.6066Y0.7504
X1.6066Y0.6504
X1.6066Y0.4004
X1.6066Y0.3004
X1.6066Y0.2004
X1.6066Y0.1004
X1.6066Y-0.1496
X1.6066Y-0.2496
X1.6066Y-0.3496
X1.6066Y-0.4496
X1.6066Y-0.6996
X1.6066Y-0.7996
X1.6066Y-0.8996
X1.6066Y-0.9996
T4
X-4.2504Y1.06
X-4.1504Y1.06
X-4.0504Y1.06
X-3.9504Y1.06
X-1.3884Y0.8883
X-1.2493Y1.0275
X-1.0275Y1.2493
X-0.9612Y0.8206
X-0.8905Y0.8913
X-0.8883Y1.3884
X-0.8198Y0.962
X0.3094Y-0.305
X0.4094Y-0.305
X0.5094Y-0.305
T5
X-1.712Y-1.3244
X-1.5939Y-1.3478
X-1.4305Y-1.6059
X-1.3125Y-1.6293
X-0.3014Y-1.4994
X-0.3014Y-1.5994
X-0.2014Y-1.4994
X-0.2014Y-1.5994
X-0.1014Y-1.4994
X-0.1014Y-1.5994
X-0.0014Y-1.4994
X-0.0014Y-1.5994
X0.0986Y-1.4994
X0.0986Y-1.5994
X0.1986Y-1.4994
X0.1986Y-1.5994
T6
X-2.2Y0.3
X-2.2Y-0.3
X-2.1Y0.3
X-2.1Y0.2
X-2.1Y-0.3
X-2.0Y0.3
X-2.0Y-0.3
X-1.952Y-0.1799
X-1.9Y0.3
X-1.9Y-0.3
X-1.852Y-0.1799
X-1.8Y0.3
X-1.8Y-0.3
X-1.752Y-0.1799
X-1.7Y0.3
X-1.7Y-0.3
X-1.652Y-0.1799
X-1.6Y0.3
X-1.6Y-0.3
X-1.552Y-0.1799
X-1.5Y0.3
X-1.5Y-0.3
X-1.4Y0.3
X-1.4Y-0.3
X-1.3Y0.3
X-1.3Y-0.3
X-1.2Y0.3
X-1.2Y-0.3
X-1.1Y0.3
X-1.1Y-0.3
X-1.0Y0.3
X-1.0Y-0.3
X-0.9Y0.3
X-0.9Y-0.3
X-0.8Y0.3
X-0.8Y-0.3
X-0.7Y0.3
X-0.7Y-0.3
X-0.6Y0.3
X-0.6Y-0.3
X-0.5Y0.3
X-0.5Y-0.3
X-0.4Y0.3
X-0.4Y0.2
X-0.4Y0.1
X-0.4Y0.0
X-0.4Y-0.1
X-0.4Y-0.2
X-0.4Y-0.3
X-0.3Y0.3
X-0.3Y-0.3
X-0.2Y0.3
X-0.2Y-0.3
X-0.1Y0.3
X-0.1Y-0.3
X0.0Y0.3
X0.0Y-0.3
X0.1Y0.3
X0.1Y-0.3
X1.7Y2.05
X2.1Y2.05
T7
X0.6486Y-0.8
X0.6486Y-1.2994
X0.6486Y-1.55
X0.65Y-1.05
T8
X-1.5288Y-1.055
X-1.0903Y-1.4934
T9
X1.4566Y0.5504
X1.4566Y0.0004
X1.4566Y-0.5496
X2.0015Y1.1598
X2.0015Y-1.1591
T10
X-6.65Y2.995
X-6.61Y2.575
X-6.2Y2.625
X-6.15Y2.995
T2
G00X-0.0512Y-1.7994
M15
G01X0.0512Y-1.7994
M16
G05
G00X-0.0433Y-2.0278
M15
G01X0.0433Y-2.0278
M16
G05
G00X0.189Y-1.9609
M15
G01X0.189Y-1.8743
M16
G05
T0
M30
