%TF.GenerationSoftware,KiCad,Pcbnew,7.0.5-0*%
%TF.CreationDate,2024-01-05T10:03:26+01:00*%
%TF.ProjectId,mollusc_motion_board,6d6f6c6c-7573-4635-9f6d-6f74696f6e5f,rev?*%
%TF.SameCoordinates,Original*%
%TF.FileFunction,Copper,L2,Inr*%
%TF.FilePolarity,Positive*%
%FSLAX46Y46*%
G04 Gerber Fmt 4.6, Leading zero omitted, Abs format (unit mm)*
G04 Created by KiCad (PCBNEW 7.0.5-0) date 2024-01-05 10:03:26*
%MOMM*%
%LPD*%
G01*
G04 APERTURE LIST*
G04 Aperture macros list*
%AMRoundRect*
0 Rectangle with rounded corners*
0 $1 Rounding radius*
0 $2 $3 $4 $5 $6 $7 $8 $9 X,Y pos of 4 corners*
0 Add a 4 corners polygon primitive as box body*
4,1,4,$2,$3,$4,$5,$6,$7,$8,$9,$2,$3,0*
0 Add four circle primitives for the rounded corners*
1,1,$1+$1,$2,$3*
1,1,$1+$1,$4,$5*
1,1,$1+$1,$6,$7*
1,1,$1+$1,$8,$9*
0 Add four rect primitives between the rounded corners*
20,1,$1+$1,$2,$3,$4,$5,0*
20,1,$1+$1,$4,$5,$6,$7,0*
20,1,$1+$1,$6,$7,$8,$9,0*
20,1,$1+$1,$8,$9,$2,$3,0*%
%AMHorizOval*
0 Thick line with rounded ends*
0 $1 width*
0 $2 $3 position (X,Y) of the first rounded end (center of the circle)*
0 $4 $5 position (X,Y) of the second rounded end (center of the circle)*
0 Add line between two ends*
20,1,$1,$2,$3,$4,$5,0*
0 Add two circle primitives to create the rounded ends*
1,1,$1,$2,$3*
1,1,$1,$4,$5*%
%AMRotRect*
0 Rectangle, with rotation*
0 The origin of the aperture is its center*
0 $1 length*
0 $2 width*
0 $3 Rotation angle, in degrees counterclockwise*
0 Add horizontal line*
21,1,$1,$2,0,0,$3*%
G04 Aperture macros list end*
%TA.AperFunction,ComponentPad*%
%ADD10R,2.500000X2.500000*%
%TD*%
%TA.AperFunction,ComponentPad*%
%ADD11C,3.600000*%
%TD*%
%TA.AperFunction,ComponentPad*%
%ADD12RotRect,2.000000X2.000000X45.000000*%
%TD*%
%TA.AperFunction,ComponentPad*%
%ADD13C,2.000000*%
%TD*%
%TA.AperFunction,ComponentPad*%
%ADD14RotRect,1.700000X1.700000X135.000000*%
%TD*%
%TA.AperFunction,ComponentPad*%
%ADD15HorizOval,1.700000X0.000000X0.000000X0.000000X0.000000X0*%
%TD*%
%TA.AperFunction,ComponentPad*%
%ADD16R,1.700000X1.700000*%
%TD*%
%TA.AperFunction,ComponentPad*%
%ADD17O,1.700000X1.700000*%
%TD*%
%TA.AperFunction,ComponentPad*%
%ADD18C,2.040000*%
%TD*%
%TA.AperFunction,ComponentPad*%
%ADD19R,2.040000X2.040000*%
%TD*%
%TA.AperFunction,ComponentPad*%
%ADD20R,1.600000X1.600000*%
%TD*%
%TA.AperFunction,ComponentPad*%
%ADD21C,1.600000*%
%TD*%
%TA.AperFunction,ComponentPad*%
%ADD22R,1.300000X1.300000*%
%TD*%
%TA.AperFunction,ComponentPad*%
%ADD23C,1.300000*%
%TD*%
%TA.AperFunction,ComponentPad*%
%ADD24R,2.200000X2.200000*%
%TD*%
%TA.AperFunction,ComponentPad*%
%ADD25O,2.200000X2.200000*%
%TD*%
%TA.AperFunction,ComponentPad*%
%ADD26RotRect,1.350000X1.350000X225.000000*%
%TD*%
%TA.AperFunction,ComponentPad*%
%ADD27HorizOval,1.350000X0.000000X0.000000X0.000000X0.000000X0*%
%TD*%
%TA.AperFunction,ComponentPad*%
%ADD28R,4.400000X1.800000*%
%TD*%
%TA.AperFunction,ComponentPad*%
%ADD29O,4.000000X1.800000*%
%TD*%
%TA.AperFunction,ComponentPad*%
%ADD30O,1.800000X4.000000*%
%TD*%
%TA.AperFunction,ComponentPad*%
%ADD31RoundRect,0.250500X0.499500X-0.499500X0.499500X0.499500X-0.499500X0.499500X-0.499500X-0.499500X0*%
%TD*%
%TA.AperFunction,ComponentPad*%
%ADD32C,1.500000*%
%TD*%
%TA.AperFunction,ComponentPad*%
%ADD33C,3.000000*%
%TD*%
%TA.AperFunction,ComponentPad*%
%ADD34RoundRect,0.250500X-0.706400X0.000000X0.000000X-0.706400X0.706400X0.000000X0.000000X0.706400X0*%
%TD*%
%TA.AperFunction,ComponentPad*%
%ADD35C,2.500000*%
%TD*%
%TA.AperFunction,ComponentPad*%
%ADD36RotRect,2.000000X2.000000X225.000000*%
%TD*%
%TA.AperFunction,ViaPad*%
%ADD37C,0.800000*%
%TD*%
%TA.AperFunction,Conductor*%
%ADD38C,1.500000*%
%TD*%
%TA.AperFunction,Conductor*%
%ADD39C,0.250000*%
%TD*%
G04 APERTURE END LIST*
D10*
%TO.N,/Vin*%
%TO.C,TP1*%
X16475000Y-33006000D03*
%TD*%
%TO.N,GND*%
%TO.C,TP2*%
X16475000Y-39370000D03*
%TD*%
D11*
%TO.N,N/C*%
%TO.C,H3*%
X-157480000Y66675000D03*
%TD*%
D12*
%TO.N,+5V*%
%TO.C,C15*%
X-26099136Y31730992D03*
D13*
%TO.N,GND*%
X-22563602Y35266526D03*
%TD*%
D11*
%TO.N,N/C*%
%TO.C,H1*%
X-168910000Y76073000D03*
%TD*%
D14*
%TO.N,GND*%
%TO.C,J1*%
X-24414329Y20843440D03*
D15*
%TO.N,Net-(J1-Pin_2)*%
X-22618278Y22639491D03*
%TO.N,+5V*%
X-20822227Y24435542D03*
%TD*%
D11*
%TO.N,N/C*%
%TO.C,H2*%
X-167894000Y65405000D03*
%TD*%
D16*
%TO.N,GND*%
%TO.C,J_I2C1*%
X-100340000Y26924000D03*
D17*
%TO.N,+5V*%
X-102880000Y26924000D03*
%TO.N,/I2C_SCL*%
X-105420000Y26924000D03*
%TO.N,/I2C_SDA*%
X-107960000Y26924000D03*
%TD*%
D18*
%TO.N,+5V*%
%TO.C,J6*%
X-7655000Y-38086000D03*
X-7655000Y-40626000D03*
D19*
%TO.N,GND*%
X-5115000Y-38086000D03*
X-5115000Y-40626000D03*
X-2575000Y-38086000D03*
X-2575000Y-40626000D03*
D18*
%TO.N,/Vin*%
X-35000Y-38086000D03*
X-35000Y-40626000D03*
%TO.N,+12V*%
X2505000Y-38086000D03*
X2505000Y-40626000D03*
%TO.N,unconnected-(J6-PG-Pad5)*%
X5045000Y-38086000D03*
%TO.N,unconnected-(J6-EN-Pad6)*%
X5045000Y-40626000D03*
%TD*%
D20*
%TO.N,GND*%
%TO.C,U9*%
X-55880000Y-7620000D03*
D21*
%TO.N,/STEPPER_03_DIR*%
X-53340000Y-7620000D03*
%TO.N,/STEPPER_03_PULSE*%
X-50800000Y-7620000D03*
%TO.N,/STEPPER_02_DIR*%
X-48260000Y-7620000D03*
%TO.N,/STEPPER_02_PULSE*%
X-45720000Y-7620000D03*
%TO.N,/STEPPER_01_DIR*%
X-43180000Y-7620000D03*
%TO.N,/STEPPER_01_PULSE*%
X-40640000Y-7620000D03*
%TO.N,/STEPPER_01_END*%
X-38100000Y-7620000D03*
%TO.N,/STEPPER_02_END*%
X-35560000Y-7620000D03*
%TO.N,/STEPPER_03_END*%
X-33020000Y-7620000D03*
%TO.N,/TEENSY_STEPPER_ENABLE*%
X-30480000Y-7620000D03*
%TO.N,unconnected-(U9-10_CS_MQSR-Pad12)*%
X-27940000Y-7620000D03*
%TO.N,unconnected-(U9-11_MOSI_CTX1-Pad13)*%
X-25400000Y-7620000D03*
%TO.N,unconnected-(U9-12_MISO_MQSL-Pad14)*%
X-22860000Y-7620000D03*
%TO.N,unconnected-(U9-3V3-Pad15)*%
X-20320000Y-7620000D03*
%TO.N,/NEOPIXEL_SIG*%
X-17780000Y-7620000D03*
%TO.N,unconnected-(U9-25_A11_RX6_SDA2-Pad17)*%
X-15240000Y-7620000D03*
%TO.N,unconnected-(U9-26_A12_MOSI1-Pad18)*%
X-12700000Y-7620000D03*
%TO.N,unconnected-(U9-27_A13_SCK1-Pad19)*%
X-10160000Y-7620000D03*
%TO.N,unconnected-(U9-28_RX7-Pad20)*%
X-7620000Y-7620000D03*
%TO.N,unconnected-(U9-29_TX7-Pad21)*%
X-5080000Y-7620000D03*
%TO.N,unconnected-(U9-30_CRX3-Pad22)*%
X-2540000Y-7620000D03*
%TO.N,unconnected-(U9-31_CTX3-Pad23)*%
X0Y-7620000D03*
%TO.N,unconnected-(U9-32_OUT1B-Pad24)*%
X2540000Y-7620000D03*
%TO.N,unconnected-(U9-33_MCLK2-Pad25)*%
X2540000Y7620000D03*
%TO.N,unconnected-(U9-34_RX8-Pad26)*%
X0Y7620000D03*
%TO.N,unconnected-(U9-35_TX8-Pad27)*%
X-2540000Y7620000D03*
%TO.N,unconnected-(U9-36_CS-Pad28)*%
X-5080000Y7620000D03*
%TO.N,unconnected-(U9-37_CS-Pad29)*%
X-7620000Y7620000D03*
%TO.N,unconnected-(U9-38_CS1_IN1-Pad30)*%
X-10160000Y7620000D03*
%TO.N,unconnected-(U9-39_MISO1_OUT1A-Pad31)*%
X-12700000Y7620000D03*
%TO.N,unconnected-(U9-40_A16-Pad32)*%
X-15240000Y7620000D03*
%TO.N,unconnected-(U9-41_A17-Pad33)*%
X-17780000Y7620000D03*
%TO.N,GND*%
X-20320000Y7620000D03*
%TO.N,unconnected-(U9-13_SCK_LED-Pad35)*%
X-22860000Y7620000D03*
%TO.N,Net-(U9-14_A0_TX3_SPDIF_OUT)*%
X-25400000Y7620000D03*
%TO.N,unconnected-(U9-15_A1_RX3_SPDIF_IN-Pad37)*%
X-27940000Y7620000D03*
%TO.N,unconnected-(U9-16_A2_RX4_SCL1-Pad38)*%
X-30480000Y7620000D03*
%TO.N,Net-(U9-17_A3_TX4_SDA1)*%
X-33020000Y7620000D03*
%TO.N,/I2C_SDA*%
X-35560000Y7620000D03*
%TO.N,/I2C_SCL*%
X-38100000Y7620000D03*
%TO.N,/DYN_TX*%
X-40640000Y7620000D03*
%TO.N,/DYN_RX*%
X-43180000Y7620000D03*
%TO.N,/DYN_DIRECTION*%
X-45720000Y7620000D03*
%TO.N,unconnected-(U9-23_A9_CRX1_MCLK1-Pad45)*%
X-48260000Y7620000D03*
%TO.N,+3.3V*%
X-50800000Y7620000D03*
%TO.N,GND*%
X-53340000Y7620000D03*
%TO.N,+5V*%
X-55880000Y7620000D03*
%TO.N,unconnected-(U9-VUSB-Pad49)*%
X-53340000Y5080000D03*
%TO.N,Net-(BT1-+)*%
X-10160000Y-5080000D03*
%TO.N,unconnected-(U9-3V3-Pad51)*%
X-10160000Y-2540000D03*
%TO.N,Net-(BT1--)*%
X-10160000Y0D03*
%TO.N,unconnected-(U9-PROGRAM-Pad53)*%
X-10160000Y2540000D03*
%TO.N,unconnected-(U9-ON_OFF-Pad54)*%
X-10160000Y5080000D03*
D20*
%TO.N,unconnected-(U9-5V-Pad55)*%
X-49580800Y-4569200D03*
D21*
%TO.N,unconnected-(U9-D--Pad56)*%
X-47040800Y-4569200D03*
%TO.N,unconnected-(U9-D+-Pad57)*%
X-44500800Y-4569200D03*
%TO.N,unconnected-(U9-GND-Pad58)*%
X-41960800Y-4569200D03*
%TO.N,unconnected-(U9-GND-Pad59)*%
X-39420800Y-4569200D03*
D22*
%TO.N,unconnected-(U9-R+-Pad60)*%
X-42910000Y5181600D03*
D23*
%TO.N,unconnected-(U9-LED-Pad61)*%
X-42910000Y3181600D03*
%TO.N,unconnected-(U9-T--Pad62)*%
X-42910000Y1181600D03*
%TO.N,unconnected-(U9-T+-Pad63)*%
X-40910000Y1181600D03*
%TO.N,unconnected-(U9-GND-Pad64)*%
X-40910000Y3181600D03*
%TO.N,unconnected-(U9-R--Pad65)*%
X-40910000Y5181600D03*
%TO.N,unconnected-(U9-D--Pad66)*%
X-55150000Y1270000D03*
%TO.N,unconnected-(U9-D+-Pad67)*%
X-55150000Y-1270000D03*
%TD*%
D24*
%TO.N,unconnected-(D4-K-Pad1)*%
%TO.C,D4*%
X43180000Y52070000D03*
D25*
%TO.N,unconnected-(D4-A-Pad2)*%
X53340000Y52070000D03*
%TD*%
D26*
%TO.N,/ETH_TX+*%
%TO.C,J5*%
X-24961031Y-22535656D03*
D27*
%TO.N,/ETH_TX-*%
X-26375245Y-23949870D03*
%TO.N,GND*%
X-26375245Y-21121442D03*
%TO.N,Net-(J5-Pin_4)*%
X-27789458Y-22535656D03*
%TO.N,/ETH_RX-*%
X-27789458Y-19707229D03*
%TO.N,/ETH_RX+*%
X-29203672Y-21121442D03*
%TD*%
D28*
%TO.N,/Vin*%
%TO.C,J2*%
X0Y-45706000D03*
D29*
%TO.N,GND*%
X0Y-51506000D03*
D30*
%TO.N,unconnected-(J2-Pad3)*%
X4800000Y-48706000D03*
%TD*%
D11*
%TO.N,N/C*%
%TO.C,H4*%
X-156210000Y76073000D03*
%TD*%
D10*
%TO.N,+3.3V*%
%TO.C,TP4*%
X16475000Y-20320000D03*
%TD*%
D16*
%TO.N,/STEPPER_01_END*%
%TO.C,J7*%
X7858973Y-7747000D03*
D17*
%TO.N,/STEPPER_02_END*%
X10398973Y-7747000D03*
%TO.N,/STEPPER_03_END*%
X12938973Y-7747000D03*
%TD*%
D31*
%TO.N,/DynamixelConnection/DYN_DATA*%
%TO.C,J4*%
X40807000Y-25390000D03*
D32*
%TO.N,GND*%
X38267000Y-24130000D03*
%TO.N,+12V*%
X40807000Y-22850000D03*
X38267000Y-21590000D03*
X40807000Y-20310000D03*
X38267000Y-19050000D03*
%TO.N,GND*%
X40807000Y-17770000D03*
X38267000Y-16510000D03*
D31*
%TO.N,/Stepper03/SIG*%
X40807000Y-11420000D03*
D32*
%TO.N,GND*%
X38267000Y-10160000D03*
%TO.N,+3.3V*%
X40807000Y-8880000D03*
%TO.N,/Stepper03/ENA+*%
X38267000Y-7620000D03*
%TO.N,GND*%
X40807000Y-6340000D03*
%TO.N,/Stepper03/DIR+*%
X38267000Y-5080000D03*
%TO.N,GND*%
X40807000Y-3800000D03*
%TO.N,/Stepper03/PUL+*%
X38267000Y-2540000D03*
D31*
%TO.N,/Stepper02/SIG*%
X40807000Y2550000D03*
D32*
%TO.N,GND*%
X38267000Y3810000D03*
%TO.N,+3.3V*%
X40807000Y5090000D03*
%TO.N,/Stepper02/ENA+*%
X38267000Y6350000D03*
%TO.N,GND*%
X40807000Y7630000D03*
%TO.N,/Stepper02/DIR+*%
X38267000Y8890000D03*
%TO.N,GND*%
X40807000Y10170000D03*
%TO.N,/Stepper02/PUL+*%
X38267000Y11430000D03*
D31*
%TO.N,/Stepper01/SIG*%
X40807000Y16520000D03*
D32*
%TO.N,GND*%
X38267000Y17780000D03*
%TO.N,+3.3V*%
X40807000Y19060000D03*
%TO.N,/Stepper01/ENA+*%
X38267000Y20320000D03*
%TO.N,GND*%
X40807000Y21600000D03*
%TO.N,/Stepper01/DIR+*%
X38267000Y22860000D03*
%TO.N,GND*%
X40807000Y24140000D03*
%TO.N,/Stepper01/PUL+*%
X38267000Y25400000D03*
D33*
%TO.N,GND*%
X50837000Y-29440000D03*
X36997000Y-13960000D03*
X36997000Y10000D03*
X36997000Y13980000D03*
X50837000Y29460000D03*
%TD*%
D10*
%TO.N,+5V*%
%TO.C,TP3*%
X16510000Y-26670000D03*
%TD*%
D34*
%TO.N,/ETH_TX+*%
%TO.C,J3*%
X-34072102Y-26887898D03*
D32*
%TO.N,Net-(C19-Pad1)*%
X-31378025Y-25989872D03*
%TO.N,/ETH_TX-*%
X-32276051Y-28683949D03*
%TO.N,/ETH_RX+*%
X-29581974Y-27785924D03*
%TO.N,Net-(C19-Pad1)*%
X-30480000Y-30480000D03*
%TO.N,/ETH_RX-*%
X-27785923Y-29581975D03*
%TO.N,unconnected-(J3-Pad7)*%
X-28683948Y-32276052D03*
%TO.N,GND*%
X-25989871Y-31378026D03*
X-43483693Y-33640768D03*
%TO.N,Net-(J5-Pin_4)*%
X-40485561Y-34234737D03*
%TO.N,unconnected-(J3-Pad11)*%
X-36334844Y-40789617D03*
%TO.N,unconnected-(J3-Pad12)*%
X-33336711Y-41383587D03*
D35*
%TO.N,GND*%
X-38830931Y-26795974D03*
X-27693999Y-37932906D03*
%TD*%
D36*
%TO.N,+5V*%
%TO.C,C18*%
X-31730992Y26099136D03*
D13*
%TO.N,GND*%
X-35266526Y22563602D03*
%TD*%
D37*
%TO.N,+5V*%
X-92710000Y-24765000D03*
X15885000Y-10150000D03*
X15885000Y17888441D03*
X15885000Y3820000D03*
X-98933000Y-30226000D03*
%TO.N,GND*%
X24013000Y25508441D03*
X-94234000Y-24765000D03*
X24013000Y-3165000D03*
X-94361000Y-36195000D03*
X-94361000Y-40005000D03*
X24013000Y11440000D03*
X24013000Y21698441D03*
%TO.N,+3.3V*%
X47625000Y27940000D03*
X48895000Y27940000D03*
X37632000Y27940000D03*
%TO.N,/TEENSY_STEPPER_ENABLE*%
X22997000Y5090000D03*
X22997000Y-8880000D03*
X22997000Y19158441D03*
%TO.N,/NEOPIXEL_SIG*%
X-18196511Y20236264D03*
%TO.N,Net-(J5-Pin_4)*%
X-32077354Y-22558284D03*
%TD*%
D38*
%TO.N,+3.3V*%
X41442000Y27940000D02*
X37632000Y27940000D01*
X43347000Y20328000D02*
X43347000Y26035000D01*
X44450000Y-8627000D02*
X44450000Y5343000D01*
X44450000Y5343000D02*
X44450000Y16707000D01*
X40807000Y5256000D02*
X44363000Y5256000D01*
X44460000Y16717000D02*
X44460000Y19237000D01*
X44460000Y19237000D02*
X44449000Y19226000D01*
X44450000Y16707000D02*
X44460000Y16717000D01*
X44449000Y19226000D02*
X40807000Y19226000D01*
X43347000Y26035000D02*
X41442000Y27940000D01*
D39*
X44374000Y-8703000D02*
X44450000Y-8627000D01*
D38*
X44449000Y19226000D02*
X43347000Y20328000D01*
X40807000Y-8703000D02*
X44374000Y-8703000D01*
D39*
X44363000Y5256000D02*
X44450000Y5343000D01*
%TO.N,/NEOPIXEL_SIG*%
X-16655000Y-6495000D02*
X-17780000Y-7620000D01*
X-16655000Y18694753D02*
X-16655000Y-6495000D01*
X-18196511Y20236264D02*
X-16655000Y18694753D01*
%TD*%
M02*
