%TF.GenerationSoftware,KiCad,Pcbnew,7.0.5-0*%
%TF.CreationDate,2024-01-05T10:03:26+01:00*%
%TF.ProjectId,mollusc_motion_board,6d6f6c6c-7573-4635-9f6d-6f74696f6e5f,rev?*%
%TF.SameCoordinates,Original*%
%TF.FileFunction,Legend,Bot*%
%TF.FilePolarity,Positive*%
%FSLAX46Y46*%
G04 Gerber Fmt 4.6, Leading zero omitted, Abs format (unit mm)*
G04 Created by KiCad (PCBNEW 7.0.5-0) date 2024-01-05 10:03:26*
%MOMM*%
%LPD*%
G01*
G04 APERTURE LIST*
G04 Aperture macros list*
%AMRoundRect*
0 Rectangle with rounded corners*
0 $1 Rounding radius*
0 $2 $3 $4 $5 $6 $7 $8 $9 X,Y pos of 4 corners*
0 Add a 4 corners polygon primitive as box body*
4,1,4,$2,$3,$4,$5,$6,$7,$8,$9,$2,$3,0*
0 Add four circle primitives for the rounded corners*
1,1,$1+$1,$2,$3*
1,1,$1+$1,$4,$5*
1,1,$1+$1,$6,$7*
1,1,$1+$1,$8,$9*
0 Add four rect primitives between the rounded corners*
20,1,$1+$1,$2,$3,$4,$5,0*
20,1,$1+$1,$4,$5,$6,$7,0*
20,1,$1+$1,$6,$7,$8,$9,0*
20,1,$1+$1,$8,$9,$2,$3,0*%
%AMHorizOval*
0 Thick line with rounded ends*
0 $1 width*
0 $2 $3 position (X,Y) of the first rounded end (center of the circle)*
0 $4 $5 position (X,Y) of the second rounded end (center of the circle)*
0 Add line between two ends*
20,1,$1,$2,$3,$4,$5,0*
0 Add two circle primitives to create the rounded ends*
1,1,$1,$2,$3*
1,1,$1,$4,$5*%
%AMRotRect*
0 Rectangle, with rotation*
0 The origin of the aperture is its center*
0 $1 length*
0 $2 width*
0 $3 Rotation angle, in degrees counterclockwise*
0 Add horizontal line*
21,1,$1,$2,0,0,$3*%
G04 Aperture macros list end*
%ADD10R,2.500000X2.500000*%
%ADD11C,3.600000*%
%ADD12C,5.600000*%
%ADD13RotRect,2.000000X2.000000X45.000000*%
%ADD14C,2.000000*%
%ADD15RotRect,1.700000X1.700000X135.000000*%
%ADD16HorizOval,1.700000X0.000000X0.000000X0.000000X0.000000X0*%
%ADD17R,1.700000X1.700000*%
%ADD18O,1.700000X1.700000*%
%ADD19C,2.040000*%
%ADD20R,2.040000X2.040000*%
%ADD21R,1.600000X1.600000*%
%ADD22C,1.600000*%
%ADD23R,1.300000X1.300000*%
%ADD24C,1.300000*%
%ADD25R,2.200000X2.200000*%
%ADD26O,2.200000X2.200000*%
%ADD27RotRect,1.350000X1.350000X225.000000*%
%ADD28HorizOval,1.350000X0.000000X0.000000X0.000000X0.000000X0*%
%ADD29R,4.400000X1.800000*%
%ADD30O,4.000000X1.800000*%
%ADD31O,1.800000X4.000000*%
%ADD32C,3.250000*%
%ADD33RoundRect,0.250500X0.499500X-0.499500X0.499500X0.499500X-0.499500X0.499500X-0.499500X-0.499500X0*%
%ADD34C,1.500000*%
%ADD35C,3.000000*%
%ADD36RoundRect,0.250500X-0.706400X0.000000X0.000000X-0.706400X0.706400X0.000000X0.000000X0.706400X0*%
%ADD37C,2.500000*%
%ADD38RotRect,2.000000X2.000000X225.000000*%
G04 APERTURE END LIST*
%LPC*%
D10*
%TO.C,TP1*%
X16475000Y-33006000D03*
%TD*%
%TO.C,TP2*%
X16475000Y-39370000D03*
%TD*%
D11*
%TO.C,H3*%
X-157480000Y66675000D03*
D12*
X-157480000Y66675000D03*
%TD*%
D13*
%TO.C,C15*%
X-26099136Y31730992D03*
D14*
X-22563602Y35266526D03*
%TD*%
D11*
%TO.C,H1*%
X-168910000Y76073000D03*
D12*
X-168910000Y76073000D03*
%TD*%
D15*
%TO.C,J1*%
X-24414329Y20843440D03*
D16*
X-22618278Y22639491D03*
X-20822227Y24435542D03*
%TD*%
D11*
%TO.C,H2*%
X-167894000Y65405000D03*
D12*
X-167894000Y65405000D03*
%TD*%
D17*
%TO.C,J_I2C1*%
X-100340000Y26924000D03*
D18*
X-102880000Y26924000D03*
X-105420000Y26924000D03*
X-107960000Y26924000D03*
%TD*%
D19*
%TO.C,J6*%
X-7655000Y-38086000D03*
X-7655000Y-40626000D03*
D20*
X-5115000Y-38086000D03*
X-5115000Y-40626000D03*
X-2575000Y-38086000D03*
X-2575000Y-40626000D03*
D19*
X-35000Y-38086000D03*
X-35000Y-40626000D03*
X2505000Y-38086000D03*
X2505000Y-40626000D03*
X5045000Y-38086000D03*
X5045000Y-40626000D03*
%TD*%
D21*
%TO.C,U9*%
X-55880000Y-7620000D03*
D22*
X-53340000Y-7620000D03*
X-50800000Y-7620000D03*
X-48260000Y-7620000D03*
X-45720000Y-7620000D03*
X-43180000Y-7620000D03*
X-40640000Y-7620000D03*
X-38100000Y-7620000D03*
X-35560000Y-7620000D03*
X-33020000Y-7620000D03*
X-30480000Y-7620000D03*
X-27940000Y-7620000D03*
X-25400000Y-7620000D03*
X-22860000Y-7620000D03*
X-20320000Y-7620000D03*
X-17780000Y-7620000D03*
X-15240000Y-7620000D03*
X-12700000Y-7620000D03*
X-10160000Y-7620000D03*
X-7620000Y-7620000D03*
X-5080000Y-7620000D03*
X-2540000Y-7620000D03*
X0Y-7620000D03*
X2540000Y-7620000D03*
X2540000Y7620000D03*
X0Y7620000D03*
X-2540000Y7620000D03*
X-5080000Y7620000D03*
X-7620000Y7620000D03*
X-10160000Y7620000D03*
X-12700000Y7620000D03*
X-15240000Y7620000D03*
X-17780000Y7620000D03*
X-20320000Y7620000D03*
X-22860000Y7620000D03*
X-25400000Y7620000D03*
X-27940000Y7620000D03*
X-30480000Y7620000D03*
X-33020000Y7620000D03*
X-35560000Y7620000D03*
X-38100000Y7620000D03*
X-40640000Y7620000D03*
X-43180000Y7620000D03*
X-45720000Y7620000D03*
X-48260000Y7620000D03*
X-50800000Y7620000D03*
X-53340000Y7620000D03*
X-55880000Y7620000D03*
X-53340000Y5080000D03*
X-10160000Y-5080000D03*
X-10160000Y-2540000D03*
X-10160000Y0D03*
X-10160000Y2540000D03*
X-10160000Y5080000D03*
D21*
X-49580800Y-4569200D03*
D22*
X-47040800Y-4569200D03*
X-44500800Y-4569200D03*
X-41960800Y-4569200D03*
X-39420800Y-4569200D03*
D23*
X-42910000Y5181600D03*
D24*
X-42910000Y3181600D03*
X-42910000Y1181600D03*
X-40910000Y1181600D03*
X-40910000Y3181600D03*
X-40910000Y5181600D03*
X-55150000Y1270000D03*
X-55150000Y-1270000D03*
%TD*%
D25*
%TO.C,D4*%
X43180000Y52070000D03*
D26*
X53340000Y52070000D03*
%TD*%
D27*
%TO.C,J5*%
X-24961031Y-22535656D03*
D28*
X-26375245Y-23949870D03*
X-26375245Y-21121442D03*
X-27789458Y-22535656D03*
X-27789458Y-19707229D03*
X-29203672Y-21121442D03*
%TD*%
D29*
%TO.C,J2*%
X0Y-45706000D03*
D30*
X0Y-51506000D03*
D31*
X4800000Y-48706000D03*
%TD*%
D11*
%TO.C,H4*%
X-156210000Y76073000D03*
D12*
X-156210000Y76073000D03*
%TD*%
D10*
%TO.C,TP4*%
X16475000Y-20320000D03*
%TD*%
D17*
%TO.C,J7*%
X7858973Y-7747000D03*
D18*
X10398973Y-7747000D03*
X12938973Y-7747000D03*
%TD*%
D32*
%TO.C,J4*%
X47157000Y-26660000D03*
X47157000Y26680000D03*
D33*
X40807000Y-25390000D03*
D34*
X38267000Y-24130000D03*
X40807000Y-22850000D03*
X38267000Y-21590000D03*
X40807000Y-20310000D03*
X38267000Y-19050000D03*
X40807000Y-17770000D03*
X38267000Y-16510000D03*
D33*
X40807000Y-11420000D03*
D34*
X38267000Y-10160000D03*
X40807000Y-8880000D03*
X38267000Y-7620000D03*
X40807000Y-6340000D03*
X38267000Y-5080000D03*
X40807000Y-3800000D03*
X38267000Y-2540000D03*
D33*
X40807000Y2550000D03*
D34*
X38267000Y3810000D03*
X40807000Y5090000D03*
X38267000Y6350000D03*
X40807000Y7630000D03*
X38267000Y8890000D03*
X40807000Y10170000D03*
X38267000Y11430000D03*
D33*
X40807000Y16520000D03*
D34*
X38267000Y17780000D03*
X40807000Y19060000D03*
X38267000Y20320000D03*
X40807000Y21600000D03*
X38267000Y22860000D03*
X40807000Y24140000D03*
X38267000Y25400000D03*
D35*
X50837000Y-29440000D03*
X36997000Y-13960000D03*
X36997000Y10000D03*
X36997000Y13980000D03*
X50837000Y29460000D03*
%TD*%
D10*
%TO.C,TP3*%
X16510000Y-26670000D03*
%TD*%
D32*
%TO.C,J3*%
X-39460256Y-30480000D03*
X-31378025Y-38562231D03*
D36*
X-34072102Y-26887898D03*
D34*
X-31378025Y-25989872D03*
X-32276051Y-28683949D03*
X-29581974Y-27785924D03*
X-30480000Y-30480000D03*
X-27785923Y-29581975D03*
X-28683948Y-32276052D03*
X-25989871Y-31378026D03*
X-43483693Y-33640768D03*
X-40485561Y-34234737D03*
X-36334844Y-40789617D03*
X-33336711Y-41383587D03*
D37*
X-38830931Y-26795974D03*
X-27693999Y-37932906D03*
%TD*%
D38*
%TO.C,C18*%
X-31730992Y26099136D03*
D14*
X-35266526Y22563602D03*
%TD*%
%LPD*%
M02*
