%TF.GenerationSoftware,KiCad,Pcbnew,7.0.5-0*%
%TF.CreationDate,2024-01-08T12:29:38+01:00*%
%TF.ProjectId,mollusc_motion_board,6d6f6c6c-7573-4635-9f6d-6f74696f6e5f,rev?*%
%TF.SameCoordinates,Original*%
%TF.FileFunction,Soldermask,Bot*%
%TF.FilePolarity,Negative*%
%FSLAX46Y46*%
G04 Gerber Fmt 4.6, Leading zero omitted, Abs format (unit mm)*
G04 Created by KiCad (PCBNEW 7.0.5-0) date 2024-01-08 12:29:38*
%MOMM*%
%LPD*%
G01*
G04 APERTURE LIST*
G04 Aperture macros list*
%AMRoundRect*
0 Rectangle with rounded corners*
0 $1 Rounding radius*
0 $2 $3 $4 $5 $6 $7 $8 $9 X,Y pos of 4 corners*
0 Add a 4 corners polygon primitive as box body*
4,1,4,$2,$3,$4,$5,$6,$7,$8,$9,$2,$3,0*
0 Add four circle primitives for the rounded corners*
1,1,$1+$1,$2,$3*
1,1,$1+$1,$4,$5*
1,1,$1+$1,$6,$7*
1,1,$1+$1,$8,$9*
0 Add four rect primitives between the rounded corners*
20,1,$1+$1,$2,$3,$4,$5,0*
20,1,$1+$1,$4,$5,$6,$7,0*
20,1,$1+$1,$6,$7,$8,$9,0*
20,1,$1+$1,$8,$9,$2,$3,0*%
%AMHorizOval*
0 Thick line with rounded ends*
0 $1 width*
0 $2 $3 position (X,Y) of the first rounded end (center of the circle)*
0 $4 $5 position (X,Y) of the second rounded end (center of the circle)*
0 Add line between two ends*
20,1,$1,$2,$3,$4,$5,0*
0 Add two circle primitives to create the rounded ends*
1,1,$1,$2,$3*
1,1,$1,$4,$5*%
%AMRotRect*
0 Rectangle, with rotation*
0 The origin of the aperture is its center*
0 $1 length*
0 $2 width*
0 $3 Rotation angle, in degrees counterclockwise*
0 Add horizontal line*
21,1,$1,$2,0,0,$3*%
G04 Aperture macros list end*
%ADD10R,1.500000X1.500000*%
%ADD11C,5.600000*%
%ADD12RotRect,2.000000X2.000000X135.000000*%
%ADD13C,2.000000*%
%ADD14RotRect,1.700000X1.700000X45.000000*%
%ADD15HorizOval,1.700000X0.000000X0.000000X0.000000X0.000000X0*%
%ADD16R,1.700000X1.700000*%
%ADD17O,1.700000X1.700000*%
%ADD18C,2.500000*%
%ADD19C,2.040000*%
%ADD20R,2.040000X2.040000*%
%ADD21R,1.600000X1.600000*%
%ADD22C,1.600000*%
%ADD23RotRect,1.350000X1.350000X315.000000*%
%ADD24HorizOval,1.350000X0.000000X0.000000X0.000000X0.000000X0*%
%ADD25R,1.800000X4.400000*%
%ADD26O,1.800000X4.000000*%
%ADD27O,4.000000X1.800000*%
%ADD28C,3.250000*%
%ADD29RoundRect,0.250500X0.499500X0.499500X-0.499500X0.499500X-0.499500X-0.499500X0.499500X-0.499500X0*%
%ADD30C,1.500000*%
%ADD31C,3.000000*%
%ADD32RoundRect,0.250500X0.000000X-0.706400X0.706400X0.000000X0.000000X0.706400X-0.706400X0.000000X0*%
%ADD33RotRect,2.000000X2.000000X315.000000*%
G04 APERTURE END LIST*
D10*
%TO.C,TP1*%
X-21980000Y-9800000D03*
%TD*%
%TO.C,TP2*%
X-15616000Y-9800000D03*
%TD*%
D11*
%TO.C,H3*%
X-32500000Y-77500000D03*
%TD*%
D12*
%TO.C,C15*%
X-86730992Y-47329136D03*
D13*
X-90266526Y-43793602D03*
%TD*%
D11*
%TO.C,H1*%
X-110000000Y0D03*
%TD*%
D14*
%TO.C,J1*%
X-79384000Y-42032600D03*
D15*
X-77587949Y-43828651D03*
X-75791898Y-45624702D03*
%TD*%
D11*
%TO.C,H2*%
X-77500000Y-77500000D03*
%TD*%
D16*
%TO.C,J_I2C1*%
X-67700000Y-64410000D03*
D17*
X-67700000Y-61870000D03*
X-67700000Y-59330000D03*
X-67700000Y-56790000D03*
%TD*%
D18*
%TO.C,J6*%
X-15204000Y-36860000D03*
X-36304000Y-15760000D03*
X-15204000Y-15760000D03*
D19*
X-16914000Y-32660000D03*
X-14374000Y-32660000D03*
D20*
X-16914000Y-30120000D03*
X-14374000Y-30120000D03*
X-16914000Y-27580000D03*
X-14374000Y-27580000D03*
D19*
X-16914000Y-25040000D03*
X-14374000Y-25040000D03*
X-16914000Y-22500000D03*
X-14374000Y-22500000D03*
X-16914000Y-19960000D03*
X-14374000Y-19960000D03*
%TD*%
D21*
%TO.C,U9*%
X-47380000Y-77110000D03*
D22*
X-47380000Y-74570000D03*
X-47380000Y-72030000D03*
X-47380000Y-69490000D03*
X-47380000Y-66950000D03*
X-47380000Y-64410000D03*
X-47380000Y-61870000D03*
X-47380000Y-59330000D03*
X-47380000Y-56790000D03*
X-47380000Y-54250000D03*
X-47380000Y-51710000D03*
X-47380000Y-49170000D03*
X-47380000Y-46630000D03*
X-47380000Y-44090000D03*
X-47380000Y-41550000D03*
X-47380000Y-39010000D03*
X-47380000Y-36470000D03*
X-47380000Y-33930000D03*
X-47380000Y-31390000D03*
X-47380000Y-28850000D03*
X-47380000Y-26310000D03*
X-47380000Y-23770000D03*
X-47380000Y-21230000D03*
X-47380000Y-18690000D03*
X-62620000Y-18690000D03*
X-62620000Y-21230000D03*
X-62620000Y-23770000D03*
X-62620000Y-26310000D03*
X-62620000Y-28850000D03*
X-62620000Y-31390000D03*
X-62620000Y-33930000D03*
X-62620000Y-36470000D03*
X-62620000Y-39010000D03*
X-62620000Y-41550000D03*
X-62620000Y-44090000D03*
X-62620000Y-46630000D03*
X-62620000Y-49170000D03*
X-62620000Y-51710000D03*
X-62620000Y-54250000D03*
X-62620000Y-56790000D03*
X-62620000Y-59330000D03*
X-62620000Y-61870000D03*
X-62620000Y-64410000D03*
X-62620000Y-66950000D03*
X-62620000Y-69490000D03*
X-62620000Y-72030000D03*
X-62620000Y-74570000D03*
X-62620000Y-77110000D03*
X-49920000Y-31390000D03*
X-55000000Y-31390000D03*
%TD*%
D14*
%TO.C,J8*%
X-73935561Y-36584439D03*
D15*
X-72139510Y-38380490D03*
%TD*%
D10*
%TO.C,TP_END_S3*%
X-67954000Y-18690000D03*
%TD*%
D14*
%TO.C,J7*%
X-76590000Y-39264000D03*
D15*
X-74793949Y-41060051D03*
%TD*%
D23*
%TO.C,J5*%
X-32464344Y-46191031D03*
D24*
X-31050130Y-47605245D03*
X-33878558Y-47605245D03*
X-32464344Y-49019458D03*
X-35292771Y-49019458D03*
X-33878558Y-50433672D03*
%TD*%
D25*
%TO.C,J2*%
X-9294000Y-21230000D03*
D26*
X-3494000Y-21230000D03*
D27*
X-6294000Y-16430000D03*
%TD*%
D10*
%TO.C,TP_END_S2*%
X-67954000Y-21224000D03*
%TD*%
D11*
%TO.C,H4*%
X-110000000Y-45000000D03*
%TD*%
D10*
%TO.C,TP4*%
X-68335000Y-45868000D03*
%TD*%
%TO.C,TP_END_S1*%
X-67954000Y-23770000D03*
%TD*%
D28*
%TO.C,J4*%
X-28340000Y25927000D03*
X-81680000Y25927000D03*
D29*
X-29610000Y19577000D03*
D30*
X-30870000Y17037000D03*
X-32150000Y19577000D03*
X-33410000Y17037000D03*
X-34690000Y19577000D03*
X-35950000Y17037000D03*
X-37230000Y19577000D03*
X-38490000Y17037000D03*
D29*
X-43580000Y19577000D03*
D30*
X-44840000Y17037000D03*
X-46120000Y19577000D03*
X-47380000Y17037000D03*
X-48660000Y19577000D03*
X-49920000Y17037000D03*
X-51200000Y19577000D03*
X-52460000Y17037000D03*
D29*
X-57550000Y19577000D03*
D30*
X-58810000Y17037000D03*
X-60090000Y19577000D03*
X-61350000Y17037000D03*
X-62630000Y19577000D03*
X-63890000Y17037000D03*
X-65170000Y19577000D03*
X-66430000Y17037000D03*
D29*
X-71520000Y19577000D03*
D30*
X-72780000Y17037000D03*
X-74060000Y19577000D03*
X-75320000Y17037000D03*
X-76600000Y19577000D03*
X-77860000Y17037000D03*
X-79140000Y19577000D03*
X-80400000Y17037000D03*
D31*
X-25560000Y29607000D03*
X-41040000Y15767000D03*
X-55010000Y15767000D03*
X-68980000Y15767000D03*
X-84460000Y29607000D03*
%TD*%
D10*
%TO.C,TP3*%
X-28316000Y-9765000D03*
%TD*%
D28*
%TO.C,J3*%
X-24520000Y-60690256D03*
X-16437769Y-52608025D03*
D32*
X-28112102Y-55302102D03*
D30*
X-29010128Y-52608025D03*
X-26316051Y-53506051D03*
X-27214076Y-50811974D03*
X-24520000Y-51710000D03*
X-25418025Y-49015923D03*
X-22723948Y-49913948D03*
X-23621974Y-47219871D03*
X-21359232Y-64713693D03*
X-20765263Y-61715561D03*
X-14210383Y-57564844D03*
X-13616413Y-54566711D03*
D18*
X-28204026Y-60060931D03*
X-17067094Y-48923999D03*
%TD*%
D33*
%TO.C,C18*%
X-81099136Y-52960992D03*
D13*
X-77563602Y-56496526D03*
%TD*%
D11*
%TO.C,H5*%
X0Y0D03*
%TD*%
%TO.C,H6*%
X0Y-45000000D03*
%TD*%
M02*
