%TF.GenerationSoftware,KiCad,Pcbnew,7.0.5-0*%
%TF.CreationDate,2024-01-05T10:03:26+01:00*%
%TF.ProjectId,mollusc_motion_board,6d6f6c6c-7573-4635-9f6d-6f74696f6e5f,rev?*%
%TF.SameCoordinates,Original*%
%TF.FileFunction,Paste,Top*%
%TF.FilePolarity,Positive*%
%FSLAX46Y46*%
G04 Gerber Fmt 4.6, Leading zero omitted, Abs format (unit mm)*
G04 Created by KiCad (PCBNEW 7.0.5-0) date 2024-01-05 10:03:26*
%MOMM*%
%LPD*%
G01*
G04 APERTURE LIST*
G04 Aperture macros list*
%AMRotRect*
0 Rectangle, with rotation*
0 The origin of the aperture is its center*
0 $1 length*
0 $2 width*
0 $3 Rotation angle, in degrees counterclockwise*
0 Add horizontal line*
21,1,$1,$2,0,0,$3*%
G04 Aperture macros list end*
%ADD10R,0.864008X0.806477*%
%ADD11O,2.037998X0.573990*%
%ADD12R,1.300000X1.900000*%
%ADD13R,0.806477X0.864008*%
%ADD14R,0.800000X0.800000*%
%ADD15R,3.000000X3.600000*%
%ADD16R,3.000000X2.600000*%
%ADD17R,1.200000X3.500000*%
%ADD18R,4.300000X1.259995*%
%ADD19R,0.900000X0.800000*%
%ADD20R,2.000000X2.000000*%
%ADD21RotRect,0.806477X0.864008X45.000000*%
%ADD22R,0.800000X0.900000*%
%ADD23RotRect,0.800000X0.900000X45.000000*%
%ADD24R,1.259995X4.300000*%
%ADD25R,1.100000X0.400000*%
G04 APERTURE END LIST*
D10*
%TO.C,R2*%
X28712000Y15013268D03*
X28712000Y16520000D03*
%TD*%
D11*
%TO.C,U2*%
X25766164Y3819992D03*
X25766164Y5089995D03*
X25766164Y6359997D03*
X25766164Y7630000D03*
X25766164Y8900003D03*
X25766164Y10170005D03*
X25766164Y11440008D03*
X20227937Y11440008D03*
X20227937Y10170005D03*
X20227937Y8900003D03*
X20227937Y7630000D03*
X20227937Y6359997D03*
X20227937Y5089995D03*
X20227937Y3819992D03*
%TD*%
%TO.C,U4*%
X13153137Y-3937005D03*
X13153137Y-2667002D03*
X13153137Y-1397000D03*
X13153137Y-126997D03*
X13153137Y1143006D03*
X13153137Y2413008D03*
X13153137Y3683011D03*
X7614910Y3683011D03*
X7614910Y2413008D03*
X7614910Y1143006D03*
X7614910Y-126997D03*
X7614910Y-1397000D03*
X7614910Y-2667002D03*
X7614910Y-3937005D03*
%TD*%
D10*
%TO.C,R6*%
X28712000Y-12926732D03*
X28712000Y-11420000D03*
%TD*%
%TO.C,R12*%
X-89559836Y-30285317D03*
X-89559836Y-28778585D03*
%TD*%
D12*
%TO.C,SW1*%
X-48549987Y66430076D03*
X-48549987Y58030025D03*
X-53049860Y66430076D03*
X-53049860Y58030025D03*
%TD*%
D11*
%TO.C,U3*%
X25766164Y-10150008D03*
X25766164Y-8880005D03*
X25766164Y-7610003D03*
X25766164Y-6340000D03*
X25766164Y-5069997D03*
X25766164Y-3799995D03*
X25766164Y-2529992D03*
X20227937Y-2529992D03*
X20227937Y-3799995D03*
X20227937Y-5069997D03*
X20227937Y-6340000D03*
X20227937Y-7610003D03*
X20227937Y-8880005D03*
X20227937Y-10150008D03*
%TD*%
D13*
%TO.C,R9*%
X-108821732Y24130000D03*
X-107315000Y24130000D03*
%TD*%
D14*
%TO.C,D2*%
X7616571Y-32220533D03*
X7623429Y-33819467D03*
%TD*%
D10*
%TO.C,R11*%
X-97306836Y-30285317D03*
X-97306836Y-28778585D03*
%TD*%
%TO.C,R5*%
X32522000Y2550000D03*
X32522000Y1043268D03*
%TD*%
D15*
%TO.C,BT1*%
X12900000Y44450000D03*
D16*
X-8500000Y44450000D03*
%TD*%
D13*
%TO.C,R8*%
X-103903268Y24130000D03*
X-105410000Y24130000D03*
%TD*%
D17*
%TO.C,C16*%
X36195127Y-24894977D03*
X36195127Y-19555124D03*
%TD*%
D11*
%TO.C,U6*%
X-96266000Y-32384992D03*
X-96266000Y-33654995D03*
X-96266000Y-34924997D03*
X-96266000Y-36195000D03*
X-96266000Y-37465003D03*
X-96266000Y-38735005D03*
X-96266000Y-40005008D03*
X-90727773Y-40005008D03*
X-90727773Y-38735005D03*
X-90727773Y-37465003D03*
X-90727773Y-36195000D03*
X-90727773Y-34924997D03*
X-90727773Y-33654995D03*
X-90727773Y-32384992D03*
%TD*%
D14*
%TO.C,D1*%
X7620000Y-25221533D03*
X7626858Y-26820467D03*
%TD*%
D10*
%TO.C,R15*%
X5718429Y-32312735D03*
X5718429Y-33819467D03*
%TD*%
D12*
%TO.C,SW2*%
X-62519987Y57540076D03*
X-62519987Y49140025D03*
X-67019860Y57540076D03*
X-67019860Y49140025D03*
%TD*%
D10*
%TO.C,R3*%
X32522000Y16520000D03*
X32522000Y15013268D03*
%TD*%
D18*
%TO.C,C1*%
X-51856393Y15240000D03*
X-44663607Y15240000D03*
%TD*%
D10*
%TO.C,R10*%
X-97306836Y-25485219D03*
X-97306836Y-26991951D03*
%TD*%
D19*
%TO.C,C17*%
X41275000Y-22925025D03*
X41275000Y-21524975D03*
%TD*%
%TO.C,C8*%
X30617000Y-12873391D03*
X30617000Y-11473341D03*
%TD*%
D20*
%TO.C,D3*%
X-7020000Y-46341000D03*
X-7020000Y-50741051D03*
%TD*%
D10*
%TO.C,R13*%
X-89559836Y-26991951D03*
X-89559836Y-25485219D03*
%TD*%
D19*
%TO.C,C7*%
X-88416836Y-33838391D03*
X-88416836Y-32438341D03*
%TD*%
D21*
%TO.C,R14*%
X-20519167Y20428079D03*
X-19453747Y21493499D03*
%TD*%
D17*
%TO.C,C14*%
X27305127Y-24894977D03*
X27305127Y-19555124D03*
%TD*%
D22*
%TO.C,C11*%
X-94196861Y-26610951D03*
X-92796811Y-26610951D03*
%TD*%
D18*
%TO.C,C9*%
X39156393Y32385000D03*
X31963607Y32385000D03*
%TD*%
D19*
%TO.C,C3*%
X5303973Y-2474972D03*
X5303973Y-3875022D03*
%TD*%
D23*
%TO.C,C19*%
X-21083723Y-29165955D03*
X-20093739Y-28175971D03*
%TD*%
D19*
%TO.C,C6*%
X30617000Y1096609D03*
X30617000Y2496659D03*
%TD*%
%TO.C,C4*%
X30617000Y15066609D03*
X30617000Y16466659D03*
%TD*%
D24*
%TO.C,C12*%
X13300000Y-47189607D03*
X13300000Y-54382393D03*
%TD*%
D19*
%TO.C,C10*%
X17917000Y19350466D03*
X17917000Y17950416D03*
%TD*%
D11*
%TO.C,U1*%
X25766164Y17888433D03*
X25766164Y19158436D03*
X25766164Y20428438D03*
X25766164Y21698441D03*
X25766164Y22968444D03*
X25766164Y24238446D03*
X25766164Y25508449D03*
X20227937Y25508449D03*
X20227937Y24238446D03*
X20227937Y22968444D03*
X20227937Y21698441D03*
X20227937Y20428438D03*
X20227937Y19158436D03*
X20227937Y17888433D03*
%TD*%
D19*
%TO.C,C5*%
X17917000Y5290659D03*
X17917000Y3890609D03*
%TD*%
D18*
%TO.C,C13*%
X18501607Y32385000D03*
X25694393Y32385000D03*
%TD*%
D19*
%TO.C,C2*%
X17917000Y-8696609D03*
X17917000Y-10096659D03*
%TD*%
D10*
%TO.C,R7*%
X32522000Y-11420000D03*
X32522000Y-12926732D03*
%TD*%
D25*
%TO.C,U7*%
X-95396836Y-28429970D03*
X-95396836Y-29079957D03*
X-95396836Y-29729945D03*
X-95396836Y-30379932D03*
X-91596836Y-30379932D03*
X-91596836Y-29729945D03*
X-91596836Y-29079957D03*
X-91596836Y-28429970D03*
%TD*%
D10*
%TO.C,R4*%
X28712000Y1043268D03*
X28712000Y2550000D03*
%TD*%
%TO.C,R1*%
X5715000Y-25221533D03*
X5715000Y-26728265D03*
%TD*%
M02*
