M48
; DRILL file {KiCad 7.0.5-0} date 2024 January 02, Tuesday 16:13:28
; FORMAT={-:-/ absolute / inch / decimal}
; #@! TF.CreationDate,2024-01-02T16:13:28+01:00
; #@! TF.GenerationSoftware,Kicad,Pcbnew,7.0.5-0
; #@! TF.FileFunction,Plated,1,4,PTH
FMAT,2
INCH
; #@! TA.AperFunction,Plated,PTH,ViaDrill
T1C0.0157
; #@! TA.AperFunction,Plated,PTH,ComponentDrill
T2C0.0315
; #@! TA.AperFunction,Plated,PTH,ComponentDrill
T3C0.0354
; #@! TA.AperFunction,Plated,PTH,ComponentDrill
T4C0.0394
; #@! TA.AperFunction,Plated,PTH,ComponentDrill
T5C0.0402
; #@! TA.AperFunction,Plated,PTH,ComponentDrill
T6C0.0433
; #@! TA.AperFunction,Plated,PTH,ComponentDrill
T7C0.0630
; #@! TA.AperFunction,Plated,PTH,ComponentDrill
T8C0.0669
; #@! TA.AperFunction,Plated,PTH,ComponentDrill
T9C0.1260
%
G90
G05
T1
X-3.57Y4.04
X0.875Y2.35
X1.23Y3.03
X1.37Y3.03
X1.455Y2.285
X1.52Y3.03
X1.635Y2.05
X1.635Y1.9
X1.64Y2.5
X1.66Y2.3
X1.67Y3.03
X1.7Y2.5
X1.82Y3.03
X1.87Y1.21
X1.87Y0.73
X1.87Y0.25
X1.97Y3.03
X2.04Y1.64
X2.11Y3.03
X2.14Y2.12
X2.15Y1.26
X2.15Y0.78
X2.15Y0.3
X2.19Y1.51
X2.19Y1.36
X2.19Y1.03
X2.19Y0.525
X2.425Y2.16
X2.425Y1.93
X2.425Y1.71
X2.67Y2.11
X2.67Y1.88
X2.67Y1.66
T2
X-3.45Y4.0
X-3.45Y3.9213
X-3.45Y3.8425
X-3.3713Y4.0
X-3.3713Y3.9213
X-3.3713Y3.8425
X-1.094Y1.0494
X-1.094Y0.9706
X-1.0153Y1.0494
X-1.0153Y0.9706
X-0.94Y0.4887
X-0.9365Y1.0494
X-0.9365Y0.9706
X-0.84Y0.4887
T3
X-3.7461Y3.975
X-3.7461Y3.875
X-3.7461Y3.775
X-3.7461Y3.675
X-3.6461Y3.925
X-3.6461Y3.825
X-3.6461Y3.725
X-3.6461Y3.625
X2.9062Y2.3096
X2.9062Y2.2096
X2.9062Y2.1096
X2.9062Y2.0096
X2.9062Y1.7596
X2.9062Y1.6596
X2.9062Y1.5596
X2.9062Y1.4596
X2.9062Y1.2096
X2.9062Y1.1096
X2.9062Y1.0096
X2.9062Y0.9096
X2.9062Y0.6596
X2.9062Y0.5596
X2.9062Y0.4596
X2.9062Y0.3596
X3.0062Y2.26
X3.0062Y2.16
X3.0062Y2.06
X3.0062Y1.96
X3.0062Y1.71
X3.0062Y1.61
X3.0062Y1.51
X3.0062Y1.41
X3.0062Y1.16
X3.0062Y1.06
X3.0062Y0.96
X3.0062Y0.86
X3.0062Y0.61
X3.0062Y0.51
X3.0062Y0.41
X3.0062Y0.31
T4
X-2.4969Y4.4
X-2.3Y4.4
X0.9839Y1.9504
X1.0839Y1.9504
X1.1839Y1.9504
X1.2839Y1.9504
X1.54Y4.54
X1.54Y4.44
X1.54Y4.34
X1.87Y4.54
X1.87Y4.3431
T5
X-4.1961Y4.049
X-4.1961Y3.651
X-4.1291Y3.949
X-4.1291Y3.551
T6
X-1.19Y2.76
X-1.19Y2.66
X-1.19Y2.56
X-1.19Y2.46
X-1.19Y2.36
X-1.19Y2.26
X-1.19Y2.16
X-1.19Y2.06
X-1.19Y1.96
X-1.19Y1.86
X-1.19Y1.76
X-1.19Y1.66
X-1.19Y1.56
X-1.19Y1.46
X-1.19Y1.36
X-1.19Y1.26
X-1.19Y1.16
X-1.19Y1.06
X-1.19Y0.96
X-1.19Y0.86
X-1.19Y0.76
X-1.19Y0.66
X-1.19Y0.56
X-1.19Y0.46
X-1.09Y2.26
X-1.09Y0.56
X-0.99Y2.26
X-0.89Y2.26
X-0.79Y2.26
X-0.7101Y1.108
X-0.7101Y1.008
X-0.7101Y0.908
X-0.7101Y0.808
X-0.7101Y0.708
X-0.69Y2.26
X-0.59Y2.76
X-0.59Y2.66
X-0.59Y2.56
X-0.59Y2.46
X-0.59Y2.36
X-0.59Y2.26
X-0.59Y2.16
X-0.59Y2.06
X-0.59Y1.96
X-0.59Y1.86
X-0.59Y1.76
X-0.59Y1.66
X-0.59Y1.56
X-0.59Y1.46
X-0.59Y1.36
X-0.59Y1.26
X-0.59Y1.16
X-0.59Y1.06
X-0.59Y0.96
X-0.59Y0.86
X-0.59Y0.76
X-0.59Y0.66
X-0.59Y0.56
X-0.59Y0.46
T7
X-3.876Y4.11
X-3.876Y3.49
T8
X2.8562Y1.86
X2.8562Y1.31
X2.8562Y0.76
X3.4011Y2.4694
X3.4011Y0.1506
T9
X-0.86Y4.67
X-0.82Y4.25
X-0.41Y4.3
X-0.36Y4.67
T2
G00X3.15Y2.7288
M15
G01X3.15Y2.8312
M16
G05
G00X3.3114Y2.969
M15
G01X3.2248Y2.969
M16
G05
G00X3.3783Y2.7367
M15
G01X3.3783Y2.8233
M16
G05
T0
M30
