%TF.GenerationSoftware,KiCad,Pcbnew,7.0.5-0*%
%TF.CreationDate,2024-01-08T12:29:38+01:00*%
%TF.ProjectId,mollusc_motion_board,6d6f6c6c-7573-4635-9f6d-6f74696f6e5f,rev?*%
%TF.SameCoordinates,Original*%
%TF.FileFunction,Paste,Top*%
%TF.FilePolarity,Positive*%
%FSLAX46Y46*%
G04 Gerber Fmt 4.6, Leading zero omitted, Abs format (unit mm)*
G04 Created by KiCad (PCBNEW 7.0.5-0) date 2024-01-08 12:29:38*
%MOMM*%
%LPD*%
G01*
G04 APERTURE LIST*
G04 Aperture macros list*
%AMRotRect*
0 Rectangle, with rotation*
0 The origin of the aperture is its center*
0 $1 length*
0 $2 width*
0 $3 Rotation angle, in degrees counterclockwise*
0 Add horizontal line*
21,1,$1,$2,0,0,$3*%
%AMFreePoly0*
4,1,5,0.304674,-0.241351,-0.304928,-0.241351,-0.304928,0.241250,0.304674,0.241250,0.304674,-0.241351,0.304674,-0.241351,$1*%
%AMFreePoly1*
4,1,5,0.304674,-0.241199,-0.304928,-0.241199,-0.304928,0.241402,0.304674,0.241402,0.304674,-0.241199,0.304674,-0.241199,$1*%
G04 Aperture macros list end*
%ADD10R,0.806477X0.864008*%
%ADD11O,0.573990X2.037998*%
%ADD12FreePoly0,90.000000*%
%ADD13FreePoly1,90.000000*%
%ADD14R,4.300000X1.259995*%
%ADD15R,0.800000X0.800000*%
%ADD16R,0.864008X0.806477*%
%ADD17R,3.600000X3.000000*%
%ADD18R,2.600000X3.000000*%
%ADD19R,0.800000X0.900000*%
%ADD20R,1.259995X4.300000*%
%ADD21R,2.000000X2.000000*%
%ADD22RotRect,0.806477X0.864008X45.000000*%
%ADD23R,0.900000X0.800000*%
%ADD24RotRect,0.800000X0.900000X135.000000*%
%ADD25RotRect,1.900000X1.300000X135.000000*%
%ADD26R,0.400000X1.100000*%
G04 APERTURE END LIST*
D10*
%TO.C,R2*%
X-70013268Y7482000D03*
X-71520000Y7482000D03*
%TD*%
D11*
%TO.C,U2*%
X-58819992Y4536164D03*
X-60089995Y4536164D03*
X-61359997Y4536164D03*
X-62630000Y4536164D03*
X-63900003Y4536164D03*
X-65170005Y4536164D03*
X-66440008Y4536164D03*
X-66440008Y-1002063D03*
X-65170005Y-1002063D03*
X-63900003Y-1002063D03*
X-62630000Y-1002063D03*
X-61359997Y-1002063D03*
X-60089995Y-1002063D03*
X-58819992Y-1002063D03*
%TD*%
D12*
%TO.C,D6*%
X-42051080Y11586799D03*
D13*
X-42040920Y13009201D03*
%TD*%
D11*
%TO.C,U4*%
X-71509992Y-18460836D03*
X-72779995Y-18460836D03*
X-74049997Y-18460836D03*
X-75320000Y-18460836D03*
X-76590003Y-18460836D03*
X-77860005Y-18460836D03*
X-79130008Y-18460836D03*
X-79130008Y-23999063D03*
X-77860005Y-23999063D03*
X-76590003Y-23999063D03*
X-75320000Y-23999063D03*
X-74049997Y-23999063D03*
X-72779995Y-23999063D03*
X-71509992Y-23999063D03*
%TD*%
D10*
%TO.C,R6*%
X-42073268Y7482000D03*
X-43580000Y7482000D03*
%TD*%
%TO.C,R12*%
X-30773762Y-2028164D03*
X-29267030Y-2028164D03*
%TD*%
D14*
%TO.C,C20*%
X-21298786Y15813607D03*
X-14106000Y15813607D03*
%TD*%
D11*
%TO.C,U3*%
X-44849992Y4536164D03*
X-46119995Y4536164D03*
X-47389997Y4536164D03*
X-48660000Y4536164D03*
X-49930003Y4536164D03*
X-51200005Y4536164D03*
X-52470008Y4536164D03*
X-52470008Y-1002063D03*
X-51200005Y-1002063D03*
X-49930003Y-1002063D03*
X-48660000Y-1002063D03*
X-47389997Y-1002063D03*
X-46119995Y-1002063D03*
X-44849992Y-1002063D03*
%TD*%
D12*
%TO.C,D4*%
X-56021080Y11459799D03*
D13*
X-56010920Y12882201D03*
%TD*%
D10*
%TO.C,R9*%
X-71628366Y-56790000D03*
X-70121634Y-56790000D03*
%TD*%
D15*
%TO.C,D2*%
X-22765467Y-18658429D03*
X-21166533Y-18651571D03*
%TD*%
D10*
%TO.C,R11*%
X-30773762Y5718836D03*
X-29267030Y5718836D03*
%TD*%
D16*
%TO.C,R5*%
X-57550000Y12933000D03*
X-57550000Y11426268D03*
%TD*%
D17*
%TO.C,BT1*%
X-99450000Y-8330000D03*
D18*
X-99450000Y-29730000D03*
%TD*%
D10*
%TO.C,R8*%
X-71628366Y-59457000D03*
X-70121634Y-59457000D03*
%TD*%
D11*
%TO.C,U6*%
X-32873437Y4678000D03*
X-34143440Y4678000D03*
X-35413442Y4678000D03*
X-36683445Y4678000D03*
X-37953448Y4678000D03*
X-39223450Y4678000D03*
X-40493453Y4678000D03*
X-40493453Y-860227D03*
X-39223450Y-860227D03*
X-37953448Y-860227D03*
X-36683445Y-860227D03*
X-35413442Y-860227D03*
X-34143440Y-860227D03*
X-32873437Y-860227D03*
%TD*%
D15*
%TO.C,D1*%
X-29764467Y-18655000D03*
X-28165533Y-18648142D03*
%TD*%
D10*
%TO.C,R15*%
X-22673265Y-20556571D03*
X-21166533Y-20556571D03*
%TD*%
D19*
%TO.C,C16*%
X-51694950Y-28215000D03*
X-53095000Y-28215000D03*
%TD*%
D16*
%TO.C,R3*%
X-71520000Y13051366D03*
X-71520000Y11544634D03*
%TD*%
D20*
%TO.C,C1*%
X-70240000Y-76896393D03*
X-70240000Y-69703607D03*
%TD*%
D10*
%TO.C,R10*%
X-25973664Y5718836D03*
X-27480396Y5718836D03*
%TD*%
D19*
%TO.C,C17*%
X-21914975Y21950000D03*
X-23315025Y21950000D03*
%TD*%
%TO.C,C8*%
X-42126609Y9387000D03*
X-43526659Y9387000D03*
%TD*%
D21*
%TO.C,D3*%
X-8659000Y-28250000D03*
X-4258949Y-28250000D03*
%TD*%
D10*
%TO.C,R13*%
X-27480396Y-2028164D03*
X-25973664Y-2028164D03*
%TD*%
D19*
%TO.C,C7*%
X-34326836Y-3171164D03*
X-32926786Y-3171164D03*
%TD*%
D22*
%TO.C,R14*%
X-73058710Y-43860710D03*
X-71993290Y-42795290D03*
%TD*%
D14*
%TO.C,C14*%
X-21298786Y6075000D03*
X-14106000Y6075000D03*
%TD*%
D23*
%TO.C,C11*%
X-27099396Y2608861D03*
X-27099396Y1208811D03*
%TD*%
D20*
%TO.C,C9*%
X-91195000Y15854000D03*
X-91195000Y8661214D03*
%TD*%
D19*
%TO.C,C3*%
X-72972025Y-26310000D03*
X-71571975Y-26310000D03*
%TD*%
D24*
%TO.C,C19*%
X-25834045Y-42313723D03*
X-26824029Y-41323739D03*
%TD*%
D19*
%TO.C,C6*%
X-56096609Y9387000D03*
X-57496659Y9387000D03*
%TD*%
D25*
%TO.C,U8*%
X-101020097Y-57136902D03*
X-106959830Y-51197169D03*
X-97838207Y-53955011D03*
X-103777940Y-48015278D03*
%TD*%
D19*
%TO.C,C4*%
X-70066609Y9387000D03*
X-71466659Y9387000D03*
%TD*%
D14*
%TO.C,C12*%
X-7810393Y-7930000D03*
X-617607Y-7930000D03*
%TD*%
D19*
%TO.C,C10*%
X-74350466Y-3313000D03*
X-72950416Y-3313000D03*
%TD*%
D11*
%TO.C,U1*%
X-72888433Y4536164D03*
X-74158436Y4536164D03*
X-75428438Y4536164D03*
X-76698441Y4536164D03*
X-77968444Y4536164D03*
X-79238446Y4536164D03*
X-80508449Y4536164D03*
X-80508449Y-1002063D03*
X-79238446Y-1002063D03*
X-77968444Y-1002063D03*
X-76698441Y-1002063D03*
X-75428438Y-1002063D03*
X-74158436Y-1002063D03*
X-72888433Y-1002063D03*
%TD*%
D19*
%TO.C,C5*%
X-60290659Y-3313000D03*
X-58890609Y-3313000D03*
%TD*%
D20*
%TO.C,C13*%
X-91195000Y-3657786D03*
X-91195000Y3535000D03*
%TD*%
D19*
%TO.C,C2*%
X-46303391Y-3313000D03*
X-44903341Y-3313000D03*
%TD*%
D16*
%TO.C,R7*%
X-43580000Y13060000D03*
X-43580000Y11553268D03*
%TD*%
D25*
%TO.C,U5*%
X-83420097Y-74436902D03*
X-89359830Y-68497169D03*
X-80238207Y-71255011D03*
X-86177940Y-65315278D03*
%TD*%
D26*
%TO.C,U7*%
X-28918415Y3808836D03*
X-29568402Y3808836D03*
X-30218390Y3808836D03*
X-30868377Y3808836D03*
X-30868377Y8836D03*
X-30218390Y8836D03*
X-29568402Y8836D03*
X-28918415Y8836D03*
%TD*%
D12*
%TO.C,D5*%
X-69991080Y11586799D03*
D13*
X-69980920Y13009201D03*
%TD*%
D10*
%TO.C,R4*%
X-56043268Y7482000D03*
X-57550000Y7482000D03*
%TD*%
%TO.C,R1*%
X-29764467Y-20560000D03*
X-28257735Y-20560000D03*
%TD*%
M02*
