%TF.GenerationSoftware,KiCad,Pcbnew,7.0.5-0*%
%TF.CreationDate,2024-01-02T16:13:28+01:00*%
%TF.ProjectId,mollusc_motion_board,6d6f6c6c-7573-4635-9f6d-6f74696f6e5f,rev?*%
%TF.SameCoordinates,Original*%
%TF.FileFunction,Copper,L2,Inr*%
%TF.FilePolarity,Positive*%
%FSLAX46Y46*%
G04 Gerber Fmt 4.6, Leading zero omitted, Abs format (unit mm)*
G04 Created by KiCad (PCBNEW 7.0.5-0) date 2024-01-02 16:13:28*
%MOMM*%
%LPD*%
G01*
G04 APERTURE LIST*
G04 Aperture macros list*
%AMRoundRect*
0 Rectangle with rounded corners*
0 $1 Rounding radius*
0 $2 $3 $4 $5 $6 $7 $8 $9 X,Y pos of 4 corners*
0 Add a 4 corners polygon primitive as box body*
4,1,4,$2,$3,$4,$5,$6,$7,$8,$9,$2,$3,0*
0 Add four circle primitives for the rounded corners*
1,1,$1+$1,$2,$3*
1,1,$1+$1,$4,$5*
1,1,$1+$1,$6,$7*
1,1,$1+$1,$8,$9*
0 Add four rect primitives between the rounded corners*
20,1,$1+$1,$2,$3,$4,$5,0*
20,1,$1+$1,$4,$5,$6,$7,0*
20,1,$1+$1,$6,$7,$8,$9,0*
20,1,$1+$1,$8,$9,$2,$3,0*%
G04 Aperture macros list end*
%TA.AperFunction,ComponentPad*%
%ADD10C,3.600000*%
%TD*%
%TA.AperFunction,ComponentPad*%
%ADD11R,2.000000X2.000000*%
%TD*%
%TA.AperFunction,ComponentPad*%
%ADD12C,2.000000*%
%TD*%
%TA.AperFunction,ComponentPad*%
%ADD13R,1.700000X1.700000*%
%TD*%
%TA.AperFunction,ComponentPad*%
%ADD14O,1.700000X1.700000*%
%TD*%
%TA.AperFunction,ComponentPad*%
%ADD15R,1.600000X1.600000*%
%TD*%
%TA.AperFunction,ComponentPad*%
%ADD16C,1.600000*%
%TD*%
%TA.AperFunction,ComponentPad*%
%ADD17R,1.300000X1.300000*%
%TD*%
%TA.AperFunction,ComponentPad*%
%ADD18C,1.300000*%
%TD*%
%TA.AperFunction,ComponentPad*%
%ADD19R,1.350000X1.350000*%
%TD*%
%TA.AperFunction,ComponentPad*%
%ADD20O,1.350000X1.350000*%
%TD*%
%TA.AperFunction,ComponentPad*%
%ADD21R,1.800000X4.400000*%
%TD*%
%TA.AperFunction,ComponentPad*%
%ADD22O,1.800000X4.000000*%
%TD*%
%TA.AperFunction,ComponentPad*%
%ADD23O,4.000000X1.800000*%
%TD*%
%TA.AperFunction,ComponentPad*%
%ADD24RoundRect,0.250500X0.499500X-0.499500X0.499500X0.499500X-0.499500X0.499500X-0.499500X-0.499500X0*%
%TD*%
%TA.AperFunction,ComponentPad*%
%ADD25C,1.500000*%
%TD*%
%TA.AperFunction,ComponentPad*%
%ADD26C,3.000000*%
%TD*%
%TA.AperFunction,ComponentPad*%
%ADD27RoundRect,0.250500X-0.499500X0.499500X-0.499500X-0.499500X0.499500X-0.499500X0.499500X0.499500X0*%
%TD*%
%TA.AperFunction,ComponentPad*%
%ADD28C,2.500000*%
%TD*%
%TA.AperFunction,ViaPad*%
%ADD29C,0.800000*%
%TD*%
%TA.AperFunction,Conductor*%
%ADD30C,1.500000*%
%TD*%
%TA.AperFunction,Conductor*%
%ADD31C,0.250000*%
%TD*%
G04 APERTURE END LIST*
D10*
%TO.N,N/C*%
%TO.C,H4*%
X-9144000Y118618000D03*
%TD*%
%TO.N,N/C*%
%TO.C,H3*%
X-10414000Y109220000D03*
%TD*%
%TO.N,N/C*%
%TO.C,H2*%
X-20828000Y107950000D03*
%TD*%
%TO.N,N/C*%
%TO.C,H1*%
X-21844000Y118618000D03*
%TD*%
D11*
%TO.N,+5V*%
%TO.C,C15*%
X47498000Y110316000D03*
D12*
%TO.N,GND*%
X47498000Y115316000D03*
%TD*%
D13*
%TO.N,GND*%
%TO.C,J1*%
X39116000Y115316000D03*
D14*
%TO.N,Net-(J1-Pin_2)*%
X39116000Y112776000D03*
%TO.N,+5V*%
X39116000Y110236000D03*
%TD*%
D13*
%TO.N,GND*%
%TO.C,J_I2C1*%
X32611732Y49540000D03*
D14*
%TO.N,+5V*%
X30071732Y49540000D03*
%TO.N,/I2C_SCL*%
X27531732Y49540000D03*
%TO.N,/I2C_SDA*%
X24991732Y49540000D03*
%TD*%
D15*
%TO.N,GND*%
%TO.C,U9*%
X-14986000Y11684000D03*
D16*
%TO.N,/STEPPER_03_DIR*%
X-14986000Y14224000D03*
%TO.N,/STEPPER_03_PULSE*%
X-14986000Y16764000D03*
%TO.N,/STEPPER_02_DIR*%
X-14986000Y19304000D03*
%TO.N,/STEPPER_02_PULSE*%
X-14986000Y21844000D03*
%TO.N,/STEPPER_01_DIR*%
X-14986000Y24384000D03*
%TO.N,/STEPPER_01_PULSE*%
X-14986000Y26924000D03*
%TO.N,/STEPPER_03_END*%
X-14986000Y29464000D03*
%TO.N,/STEPPER_02_END*%
X-14986000Y32004000D03*
%TO.N,/STEPPER_01_END*%
X-14986000Y34544000D03*
%TO.N,/TEENSY_STEPPER_ENABLE*%
X-14986000Y37084000D03*
%TO.N,unconnected-(U9-10_CS_MQSR-Pad12)*%
X-14986000Y39624000D03*
%TO.N,unconnected-(U9-11_MOSI_CTX1-Pad13)*%
X-14986000Y42164000D03*
%TO.N,unconnected-(U9-12_MISO_MQSL-Pad14)*%
X-14986000Y44704000D03*
%TO.N,unconnected-(U9-3V3-Pad15)*%
X-14986000Y47244000D03*
%TO.N,/NEOPIXEL_SIG*%
X-14986000Y49784000D03*
%TO.N,unconnected-(U9-25_A11_RX6_SDA2-Pad17)*%
X-14986000Y52324000D03*
%TO.N,unconnected-(U9-26_A12_MOSI1-Pad18)*%
X-14986000Y54864000D03*
%TO.N,unconnected-(U9-27_A13_SCK1-Pad19)*%
X-14986000Y57404000D03*
%TO.N,unconnected-(U9-28_RX7-Pad20)*%
X-14986000Y59944000D03*
%TO.N,unconnected-(U9-29_TX7-Pad21)*%
X-14986000Y62484000D03*
%TO.N,unconnected-(U9-30_CRX3-Pad22)*%
X-14986000Y65024000D03*
%TO.N,unconnected-(U9-31_CTX3-Pad23)*%
X-14986000Y67564000D03*
%TO.N,unconnected-(U9-32_OUT1B-Pad24)*%
X-14986000Y70104000D03*
%TO.N,unconnected-(U9-33_MCLK2-Pad25)*%
X-30226000Y70104000D03*
%TO.N,unconnected-(U9-34_RX8-Pad26)*%
X-30226000Y67564000D03*
%TO.N,unconnected-(U9-35_TX8-Pad27)*%
X-30226000Y65024000D03*
%TO.N,unconnected-(U9-36_CS-Pad28)*%
X-30226000Y62484000D03*
%TO.N,unconnected-(U9-37_CS-Pad29)*%
X-30226000Y59944000D03*
%TO.N,unconnected-(U9-38_CS1_IN1-Pad30)*%
X-30226000Y57404000D03*
%TO.N,unconnected-(U9-39_MISO1_OUT1A-Pad31)*%
X-30226000Y54864000D03*
%TO.N,unconnected-(U9-40_A16-Pad32)*%
X-30226000Y52324000D03*
%TO.N,unconnected-(U9-41_A17-Pad33)*%
X-30226000Y49784000D03*
%TO.N,GND*%
X-30226000Y47244000D03*
%TO.N,unconnected-(U9-13_SCK_LED-Pad35)*%
X-30226000Y44704000D03*
%TO.N,Net-(U9-14_A0_TX3_SPDIF_OUT)*%
X-30226000Y42164000D03*
%TO.N,unconnected-(U9-15_A1_RX3_SPDIF_IN-Pad37)*%
X-30226000Y39624000D03*
%TO.N,unconnected-(U9-16_A2_RX4_SCL1-Pad38)*%
X-30226000Y37084000D03*
%TO.N,Net-(U9-17_A3_TX4_SDA1)*%
X-30226000Y34544000D03*
%TO.N,/I2C_SDA*%
X-30226000Y32004000D03*
%TO.N,/I2C_SCL*%
X-30226000Y29464000D03*
%TO.N,/DYN_TX*%
X-30226000Y26924000D03*
%TO.N,/DYN_RX*%
X-30226000Y24384000D03*
%TO.N,/DYN_DIRECTION*%
X-30226000Y21844000D03*
%TO.N,unconnected-(U9-23_A9_CRX1_MCLK1-Pad45)*%
X-30226000Y19304000D03*
%TO.N,+3.3V*%
X-30226000Y16764000D03*
%TO.N,GND*%
X-30226000Y14224000D03*
%TO.N,+5V*%
X-30226000Y11684000D03*
%TO.N,unconnected-(U9-VUSB-Pad49)*%
X-27686000Y14224000D03*
%TO.N,unconnected-(U9-VBAT-Pad50)*%
X-17526000Y57404000D03*
%TO.N,unconnected-(U9-3V3-Pad51)*%
X-20066000Y57404000D03*
%TO.N,unconnected-(U9-GND-Pad52)*%
X-22606000Y57404000D03*
%TO.N,unconnected-(U9-PROGRAM-Pad53)*%
X-25146000Y57404000D03*
%TO.N,unconnected-(U9-ON_OFF-Pad54)*%
X-27686000Y57404000D03*
D15*
%TO.N,unconnected-(U9-5V-Pad55)*%
X-18036800Y17983200D03*
D16*
%TO.N,unconnected-(U9-D--Pad56)*%
X-18036800Y20523200D03*
%TO.N,unconnected-(U9-D+-Pad57)*%
X-18036800Y23063200D03*
%TO.N,unconnected-(U9-GND-Pad58)*%
X-18036800Y25603200D03*
%TO.N,unconnected-(U9-GND-Pad59)*%
X-18036800Y28143200D03*
D17*
%TO.N,unconnected-(U9-R+-Pad60)*%
X-27787600Y24654000D03*
D18*
%TO.N,unconnected-(U9-LED-Pad61)*%
X-25787600Y24654000D03*
%TO.N,unconnected-(U9-T--Pad62)*%
X-23787600Y24654000D03*
%TO.N,unconnected-(U9-T+-Pad63)*%
X-23787600Y26654000D03*
%TO.N,unconnected-(U9-GND-Pad64)*%
X-25787600Y26654000D03*
%TO.N,unconnected-(U9-R--Pad65)*%
X-27787600Y26654000D03*
%TO.N,unconnected-(U9-D--Pad66)*%
X-23876000Y12414000D03*
%TO.N,unconnected-(U9-D+-Pad67)*%
X-21336000Y12414000D03*
%TD*%
D19*
%TO.N,/ETH_TX+*%
%TO.C,J5*%
X-85630000Y97600000D03*
D20*
%TO.N,/ETH_TX-*%
X-87630000Y97600000D03*
%TO.N,GND*%
X-85630000Y99600000D03*
%TO.N,Net-(J5-Pin_4)*%
X-87630000Y99600000D03*
%TO.N,/ETH_RX-*%
X-85630000Y101600000D03*
%TO.N,/ETH_RX+*%
X-87630000Y101600000D03*
%TD*%
D21*
%TO.N,+12V*%
%TO.C,J2*%
X80010000Y70612000D03*
D22*
%TO.N,GND*%
X85810000Y70612000D03*
D23*
%TO.N,unconnected-(J2-Pad3)*%
X83010000Y75412000D03*
%TD*%
D24*
%TO.N,/Stepper03/SIG*%
%TO.C,J4*%
X76357000Y7874000D03*
D25*
%TO.N,GND*%
X73817000Y9134000D03*
%TO.N,+3.3V*%
X76357000Y10414000D03*
%TO.N,/Stepper03/ENA+*%
X73817000Y11674000D03*
%TO.N,GND*%
X76357000Y12954000D03*
%TO.N,/Stepper03/DIR+*%
X73817000Y14214000D03*
%TO.N,GND*%
X76357000Y15494000D03*
%TO.N,/Stepper03/PUL+*%
X73817000Y16754000D03*
D24*
%TO.N,/Stepper02/SIG*%
X76357000Y21844000D03*
D25*
%TO.N,GND*%
X73817000Y23104000D03*
%TO.N,+3.3V*%
X76357000Y24384000D03*
%TO.N,/Stepper02/ENA+*%
X73817000Y25644000D03*
%TO.N,GND*%
X76357000Y26924000D03*
%TO.N,/Stepper02/DIR+*%
X73817000Y28184000D03*
%TO.N,GND*%
X76357000Y29464000D03*
%TO.N,/Stepper02/PUL+*%
X73817000Y30724000D03*
D24*
%TO.N,/Stepper01/SIG*%
X76357000Y35814000D03*
D25*
%TO.N,GND*%
X73817000Y37074000D03*
%TO.N,+3.3V*%
X76357000Y38354000D03*
%TO.N,/Stepper01/ENA+*%
X73817000Y39614000D03*
%TO.N,GND*%
X76357000Y40894000D03*
%TO.N,/Stepper01/DIR+*%
X73817000Y42154000D03*
%TO.N,GND*%
X76357000Y43434000D03*
%TO.N,/Stepper01/PUL+*%
X73817000Y44694000D03*
D24*
%TO.N,/DynamixelConnection/DYN_DATA*%
X76357000Y49784000D03*
D25*
%TO.N,GND*%
X73817000Y51044000D03*
%TO.N,+12V*%
X76357000Y52324000D03*
X73817000Y53584000D03*
X76357000Y54864000D03*
X73817000Y56124000D03*
%TO.N,GND*%
X76357000Y57404000D03*
X73817000Y58664000D03*
D26*
X86387000Y3824000D03*
X72547000Y19304000D03*
X72547000Y33274000D03*
X72547000Y47244000D03*
X86387000Y62724000D03*
%TD*%
D27*
%TO.N,/ETH_TX+*%
%TO.C,J3*%
X-95150000Y100965000D03*
D25*
%TO.N,Net-(C19-Pad1)*%
X-92610000Y99695000D03*
%TO.N,/ETH_TX-*%
X-95150000Y98425000D03*
%TO.N,/ETH_RX+*%
X-92610000Y97155000D03*
%TO.N,Net-(C19-Pad1)*%
X-95150000Y95885000D03*
%TO.N,/ETH_RX-*%
X-92610000Y94615000D03*
%TO.N,unconnected-(J3-Pad7)*%
X-95150000Y93345000D03*
%TO.N,GND*%
X-92610000Y92075000D03*
X-106580000Y102845000D03*
%TO.N,Net-(J5-Pin_4)*%
X-104880000Y100305000D03*
%TO.N,unconnected-(J3-Pad11)*%
X-106580000Y92735000D03*
%TO.N,unconnected-(J3-Pad12)*%
X-104880000Y90195000D03*
D28*
%TO.N,GND*%
X-98450000Y104395000D03*
X-98450000Y88645000D03*
%TD*%
D11*
%TO.N,+5V*%
%TO.C,C18*%
X-63420000Y111760000D03*
D12*
%TO.N,GND*%
X-58420000Y111760000D03*
%TD*%
D29*
%TO.N,+5V*%
X43180000Y63500000D03*
X38608000Y76962000D03*
X34798000Y76962000D03*
X47498000Y6350000D03*
X47498000Y30734000D03*
X42418000Y76962000D03*
X31242000Y76962000D03*
X47498000Y18542000D03*
X53594000Y76962000D03*
X46228000Y76962000D03*
X50038000Y76962000D03*
X36957000Y58039000D03*
X54356000Y53848000D03*
%TO.N,GND*%
X55626000Y38354000D03*
X41656000Y63500000D03*
X55626000Y13335000D03*
X41529000Y52070000D03*
X41529000Y48260000D03*
X55626000Y26162000D03*
X55626000Y34544000D03*
%TO.N,+3.3V*%
X61595000Y43434000D03*
X51816000Y41656000D03*
X61595000Y49022000D03*
X22225000Y59690000D03*
X61595000Y54864000D03*
%TO.N,/Stepper01/SIG*%
X67818000Y53594000D03*
%TO.N,/Stepper02/SIG*%
X67818000Y47752000D03*
%TO.N,/TEENSY_STEPPER_ENABLE*%
X54610000Y19812000D03*
X54610000Y7620000D03*
X54610000Y32004000D03*
%TO.N,/Stepper03/SIG*%
X67818000Y42164000D03*
%TO.N,/DynamixelConnection/DYN_DATA*%
X42164000Y58420000D03*
%TO.N,Net-(J5-Pin_4)*%
X-90678000Y102616000D03*
%TD*%
D30*
%TO.N,+3.3V*%
X19050000Y18720000D02*
X19050000Y30150000D01*
X13345000Y30440000D02*
X18760000Y30440000D01*
X80000000Y10490000D02*
X80000000Y24460000D01*
X19050000Y30150000D02*
X19050000Y53086000D01*
X61595000Y43434000D02*
X59817000Y41656000D01*
X13345000Y53300000D02*
X18836000Y53300000D01*
X19050000Y53086000D02*
X19050000Y59005000D01*
X80000000Y24460000D02*
X80000000Y35824000D01*
X24755000Y15570000D02*
X30470000Y15570000D01*
X76357000Y24373000D02*
X79913000Y24373000D01*
X18760000Y30440000D02*
X19050000Y30150000D01*
X80010000Y35834000D02*
X80010000Y38354000D01*
X80010000Y38354000D02*
X79999000Y38343000D01*
X19050000Y59005000D02*
X19735000Y59690000D01*
X25613607Y59690000D02*
X22352000Y59690000D01*
X80000000Y35824000D02*
X80010000Y35834000D01*
X22352000Y59690000D02*
X19735000Y59690000D01*
X44958000Y34798000D02*
X51816000Y41656000D01*
X61595000Y54864000D02*
X61595000Y43434000D01*
X79999000Y38343000D02*
X76357000Y38343000D01*
X59817000Y41656000D02*
X51816000Y41656000D01*
D31*
X79924000Y10414000D02*
X80000000Y10490000D01*
D30*
X22200000Y15570000D02*
X24755000Y15570000D01*
X76357000Y10414000D02*
X79924000Y10414000D01*
X30470000Y15570000D02*
X40927000Y5113000D01*
D31*
X79913000Y24373000D02*
X80000000Y24460000D01*
D30*
X80000000Y7823000D02*
X80000000Y10490000D01*
X18836000Y53300000D02*
X19050000Y53086000D01*
X40927000Y5113000D02*
X44710000Y1330000D01*
X73507000Y1330000D02*
X80000000Y7823000D01*
X40927000Y5113000D02*
X44958000Y9144000D01*
X44958000Y9144000D02*
X44958000Y34798000D01*
X19050000Y18720000D02*
X22200000Y15570000D01*
X44710000Y1330000D02*
X73507000Y1330000D01*
%TD*%
%TA.AperFunction,Conductor*%
%TO.N,GND*%
G36*
X93922539Y78719815D02*
G01*
X93968294Y78667011D01*
X93979500Y78615500D01*
X93979500Y124500D01*
X93959815Y57461D01*
X93907011Y11706D01*
X93855500Y500D01*
X74176600Y500D01*
X74109561Y20185D01*
X74063806Y72989D01*
X74053862Y142147D01*
X74082887Y205703D01*
X74121971Y234899D01*
X74121777Y235242D01*
X74124500Y236788D01*
X74125319Y237399D01*
X74125819Y237627D01*
X74126626Y237993D01*
X74130220Y240484D01*
X74147035Y250276D01*
X74150973Y252171D01*
X74230210Y309741D01*
X74231150Y310408D01*
X74311654Y366180D01*
X74314743Y369270D01*
X74329545Y381912D01*
X74333078Y384478D01*
X74400755Y455265D01*
X74401602Y456130D01*
X77769471Y3823999D01*
X84381891Y3823999D01*
X84402300Y3538638D01*
X84463109Y3259105D01*
X84563091Y2991042D01*
X84700191Y2739962D01*
X84700196Y2739954D01*
X84806882Y2597439D01*
X84806883Y2597438D01*
X85635766Y3426321D01*
X85679316Y3344178D01*
X85799009Y3203265D01*
X85946195Y3091377D01*
X85988402Y3071850D01*
X85160436Y2243885D01*
X85302960Y2137193D01*
X85302961Y2137192D01*
X85554042Y2000092D01*
X85554041Y2000092D01*
X85822104Y1900110D01*
X86101637Y1839301D01*
X86386999Y1818891D01*
X86387001Y1818891D01*
X86672362Y1839301D01*
X86951895Y1900110D01*
X87219958Y2000092D01*
X87471047Y2137197D01*
X87613561Y2243884D01*
X87613562Y2243885D01*
X86785609Y3071839D01*
X86904431Y3143331D01*
X87038658Y3270477D01*
X87141861Y3422692D01*
X87967115Y2597438D01*
X87967116Y2597439D01*
X88073803Y2739953D01*
X88210908Y2991042D01*
X88310890Y3259105D01*
X88371699Y3538638D01*
X88392109Y3823999D01*
X88392109Y3824002D01*
X88371699Y4109363D01*
X88310890Y4388896D01*
X88210908Y4656959D01*
X88073808Y4908039D01*
X88073807Y4908040D01*
X87967115Y5050564D01*
X87138232Y4221681D01*
X87094684Y4303822D01*
X86974991Y4444735D01*
X86827805Y4556623D01*
X86785596Y4576151D01*
X87613562Y5404117D01*
X87613561Y5404118D01*
X87471046Y5510804D01*
X87471038Y5510809D01*
X87219957Y5647909D01*
X87219958Y5647909D01*
X86951895Y5747891D01*
X86672362Y5808700D01*
X86387001Y5829109D01*
X86386999Y5829109D01*
X86101637Y5808700D01*
X85822104Y5747891D01*
X85554041Y5647909D01*
X85302961Y5510809D01*
X85302953Y5510804D01*
X85160437Y5404118D01*
X85160436Y5404117D01*
X85988391Y4576163D01*
X85869569Y4504669D01*
X85735342Y4377523D01*
X85632138Y4225309D01*
X84806883Y5050564D01*
X84806882Y5050563D01*
X84700196Y4908047D01*
X84700191Y4908039D01*
X84563091Y4656959D01*
X84463109Y4388896D01*
X84402300Y4109363D01*
X84381891Y3824002D01*
X84381891Y3823999D01*
X77769471Y3823999D01*
X80643743Y6698271D01*
X80705064Y6731754D01*
X80774756Y6726770D01*
X80830689Y6684898D01*
X80855106Y6619434D01*
X80855339Y6606060D01*
X80852787Y6536237D01*
X80882413Y6266987D01*
X80882415Y6266976D01*
X80950926Y6004918D01*
X80950928Y6004912D01*
X81056870Y5755610D01*
X81128998Y5637425D01*
X81197979Y5524395D01*
X81197986Y5524385D01*
X81371253Y5316181D01*
X81371259Y5316176D01*
X81572998Y5135418D01*
X81798910Y4985956D01*
X82044176Y4870980D01*
X82044183Y4870978D01*
X82044185Y4870977D01*
X82303557Y4792943D01*
X82303564Y4792942D01*
X82303569Y4792940D01*
X82571561Y4753500D01*
X82571566Y4753500D01*
X82774629Y4753500D01*
X82774631Y4753500D01*
X82774636Y4753501D01*
X82774648Y4753501D01*
X82812191Y4756250D01*
X82977156Y4768323D01*
X83089758Y4793407D01*
X83241546Y4827218D01*
X83241548Y4827219D01*
X83241553Y4827220D01*
X83494558Y4923986D01*
X83730777Y5056559D01*
X83945177Y5222112D01*
X84133186Y5417119D01*
X84290799Y5637421D01*
X84364787Y5781331D01*
X84414649Y5878310D01*
X84414651Y5878316D01*
X84414656Y5878325D01*
X84502118Y6134695D01*
X84551319Y6401067D01*
X84561212Y6671765D01*
X84531586Y6941018D01*
X84463072Y7203088D01*
X84357130Y7452390D01*
X84216018Y7683610D01*
X84126747Y7790881D01*
X84042746Y7891820D01*
X84042740Y7891825D01*
X83841002Y8072582D01*
X83615092Y8222043D01*
X83615090Y8222044D01*
X83369824Y8337020D01*
X83369819Y8337022D01*
X83369814Y8337024D01*
X83110442Y8415058D01*
X83110428Y8415061D01*
X82987178Y8433199D01*
X82842439Y8454500D01*
X82639369Y8454500D01*
X82639351Y8454500D01*
X82436844Y8439677D01*
X82436831Y8439675D01*
X82172453Y8380783D01*
X82172446Y8380780D01*
X81919439Y8284013D01*
X81683226Y8151443D01*
X81468821Y7985887D01*
X81463767Y7980644D01*
X81403066Y7946045D01*
X81333295Y7949757D01*
X81276606Y7990600D01*
X81250998Y8055608D01*
X81250500Y8066710D01*
X81250500Y35655190D01*
X81252493Y35677333D01*
X81260500Y35721452D01*
X81260500Y35725831D01*
X81262027Y35745230D01*
X81262710Y35749540D01*
X81261369Y35809275D01*
X81260516Y35847317D01*
X81260500Y35848708D01*
X81260500Y38245831D01*
X81262027Y38265230D01*
X81262710Y38269540D01*
X81261023Y38344708D01*
X81260516Y38367317D01*
X81260500Y38368708D01*
X81260500Y38410152D01*
X81260371Y38411589D01*
X81259426Y38422083D01*
X81259192Y38426241D01*
X81257659Y38494578D01*
X81249866Y38532635D01*
X81248858Y38539495D01*
X81245377Y38578188D01*
X81227192Y38644077D01*
X81226217Y38648138D01*
X81212508Y38715095D01*
X81212508Y38715096D01*
X81198046Y38751148D01*
X81195825Y38757733D01*
X81185496Y38795159D01*
X81185493Y38795169D01*
X81185493Y38795170D01*
X81155831Y38856764D01*
X81154156Y38860565D01*
X81128706Y38924011D01*
X81123546Y38932222D01*
X81108042Y38956897D01*
X81104682Y38962977D01*
X81095695Y38981638D01*
X81087829Y38997973D01*
X81047643Y39053284D01*
X81045311Y39056732D01*
X81008949Y39114602D01*
X80982749Y39143266D01*
X80978350Y39148658D01*
X80955524Y39180076D01*
X80906112Y39227319D01*
X80903193Y39230303D01*
X80857082Y39280751D01*
X80836975Y39296060D01*
X80826184Y39304276D01*
X80820897Y39308792D01*
X80792826Y39335632D01*
X80735776Y39373290D01*
X80732389Y39375692D01*
X80701854Y39398942D01*
X80677996Y39417108D01*
X80643391Y39434740D01*
X80637378Y39438241D01*
X80604971Y39459633D01*
X80604968Y39459635D01*
X80604964Y39459637D01*
X80604958Y39459640D01*
X80542110Y39486503D01*
X80538331Y39488271D01*
X80517373Y39498949D01*
X80477435Y39519298D01*
X80477432Y39519299D01*
X80477430Y39519300D01*
X80477428Y39519301D01*
X80440244Y39530467D01*
X80433704Y39532838D01*
X80397992Y39548102D01*
X80397982Y39548105D01*
X80331331Y39563319D01*
X80327296Y39564384D01*
X80261858Y39584034D01*
X80261845Y39584036D01*
X80223263Y39588383D01*
X80216405Y39589548D01*
X80178537Y39598191D01*
X80164192Y39598836D01*
X80110237Y39601259D01*
X80106083Y39601586D01*
X80082393Y39604255D01*
X80038176Y39609237D01*
X80038166Y39609238D01*
X79999431Y39606626D01*
X79992475Y39606548D01*
X79953675Y39608291D01*
X79953670Y39608290D01*
X79885925Y39599114D01*
X79881781Y39598694D01*
X79815196Y39594205D01*
X79806838Y39593641D01*
X79802665Y39593500D01*
X77072281Y39593500D01*
X77005242Y39613185D01*
X76959487Y39665989D01*
X76949543Y39735147D01*
X76978568Y39798703D01*
X77001157Y39819074D01*
X77046572Y39850875D01*
X77046572Y39850876D01*
X76445232Y40452216D01*
X76491138Y40459135D01*
X76613357Y40517993D01*
X76712798Y40610260D01*
X76780625Y40727740D01*
X76798499Y40806053D01*
X77400124Y40204428D01*
X77443666Y40266613D01*
X77536101Y40464841D01*
X77536105Y40464850D01*
X77592710Y40676106D01*
X77592712Y40676116D01*
X77611775Y40894000D01*
X77611775Y40894001D01*
X77592712Y41111885D01*
X77592710Y41111895D01*
X77536105Y41323151D01*
X77536101Y41323160D01*
X77443668Y41521385D01*
X77400123Y41583572D01*
X76801449Y40984899D01*
X76800673Y40995265D01*
X76751113Y41121541D01*
X76666535Y41227599D01*
X76554453Y41304016D01*
X76446699Y41337254D01*
X77046572Y41937126D01*
X77046571Y41937127D01*
X76984391Y41980665D01*
X76832232Y42051618D01*
X76779793Y42097790D01*
X76760641Y42164984D01*
X76780857Y42231865D01*
X76832232Y42276382D01*
X76984387Y42347334D01*
X77046572Y42390876D01*
X76445232Y42992216D01*
X76491138Y42999135D01*
X76613357Y43057993D01*
X76712798Y43150260D01*
X76780625Y43267740D01*
X76798499Y43346053D01*
X77400124Y42744428D01*
X77443666Y42806613D01*
X77536101Y43004841D01*
X77536105Y43004850D01*
X77592710Y43216106D01*
X77592712Y43216116D01*
X77611775Y43434000D01*
X77611775Y43434001D01*
X77592712Y43651885D01*
X77592710Y43651895D01*
X77536105Y43863151D01*
X77536101Y43863160D01*
X77443668Y44061385D01*
X77400123Y44123572D01*
X76801449Y43524899D01*
X76800673Y43535265D01*
X76751113Y43661541D01*
X76666535Y43767599D01*
X76554453Y43844016D01*
X76446700Y43877253D01*
X77046572Y44477125D01*
X77046571Y44477127D01*
X76984391Y44520665D01*
X76786159Y44613102D01*
X76786150Y44613106D01*
X76574894Y44669711D01*
X76574884Y44669713D01*
X76357001Y44688775D01*
X76356999Y44688775D01*
X76139115Y44669713D01*
X76139105Y44669711D01*
X75927849Y44613106D01*
X75927840Y44613102D01*
X75729614Y44520668D01*
X75729612Y44520667D01*
X75667428Y44477125D01*
X75667427Y44477125D01*
X76268768Y43875785D01*
X76222862Y43868865D01*
X76100643Y43810007D01*
X76001202Y43717740D01*
X75933375Y43600260D01*
X75915500Y43521948D01*
X75313875Y44123573D01*
X75313875Y44123572D01*
X75270333Y44061388D01*
X75270332Y44061386D01*
X75177898Y43863160D01*
X75177894Y43863151D01*
X75121289Y43651895D01*
X75121287Y43651885D01*
X75102225Y43434001D01*
X75102225Y43434000D01*
X75121287Y43216116D01*
X75121289Y43216106D01*
X75177894Y43004850D01*
X75177898Y43004841D01*
X75270335Y42806609D01*
X75313873Y42744429D01*
X75313875Y42744428D01*
X75912550Y43343104D01*
X75913327Y43332735D01*
X75962887Y43206459D01*
X76047465Y43100401D01*
X76159547Y43023984D01*
X76267299Y42990747D01*
X75667426Y42390876D01*
X75729611Y42347334D01*
X75729613Y42347333D01*
X75881767Y42276382D01*
X75934206Y42230210D01*
X75953358Y42163016D01*
X75933142Y42096135D01*
X75881767Y42051618D01*
X75729614Y41980668D01*
X75729612Y41980667D01*
X75667428Y41937125D01*
X75667427Y41937124D01*
X76268766Y41335785D01*
X76222862Y41328865D01*
X76100643Y41270007D01*
X76001202Y41177740D01*
X75933375Y41060260D01*
X75915500Y40981948D01*
X75313875Y41583573D01*
X75313875Y41583572D01*
X75270333Y41521388D01*
X75270332Y41521386D01*
X75177898Y41323160D01*
X75177894Y41323151D01*
X75121289Y41111895D01*
X75121287Y41111885D01*
X75102225Y40894001D01*
X75102225Y40894000D01*
X75121287Y40676116D01*
X75121289Y40676106D01*
X75177894Y40464850D01*
X75177898Y40464841D01*
X75270335Y40266609D01*
X75313873Y40204429D01*
X75313874Y40204428D01*
X75912549Y40803106D01*
X75913327Y40792735D01*
X75962887Y40666459D01*
X76047465Y40560401D01*
X76159547Y40483984D01*
X76267299Y40450747D01*
X75667426Y39850876D01*
X75729611Y39807334D01*
X75729617Y39807331D01*
X75881174Y39736659D01*
X75933614Y39690487D01*
X75952766Y39623294D01*
X75932551Y39556412D01*
X75881176Y39511895D01*
X75729358Y39441100D01*
X75729357Y39441100D01*
X75550121Y39315598D01*
X75395402Y39160879D01*
X75269900Y38981643D01*
X75269898Y38981639D01*
X75177425Y38783332D01*
X75165410Y38738493D01*
X75164078Y38734624D01*
X75162895Y38730984D01*
X75160260Y38719444D01*
X75159704Y38717203D01*
X75120795Y38571986D01*
X75120792Y38571973D01*
X75117552Y38534944D01*
X75116233Y38526546D01*
X75112810Y38511547D01*
X75112809Y38511540D01*
X75110022Y38449514D01*
X75109849Y38446894D01*
X75101723Y38354004D01*
X75101723Y38354003D01*
X75104014Y38327796D01*
X75104188Y38319606D01*
X75102709Y38286678D01*
X75102710Y38286671D01*
X75116358Y38185909D01*
X75116683Y38182992D01*
X75120793Y38136021D01*
X75122427Y38129923D01*
X75124470Y38122299D01*
X75126020Y38114578D01*
X75132924Y38063616D01*
X75132924Y38063615D01*
X75173889Y37937539D01*
X75174804Y37934449D01*
X75176149Y37929431D01*
X75177423Y37924675D01*
X75177424Y37924672D01*
X75177425Y37924670D01*
X75177952Y37923540D01*
X75180723Y37916503D01*
X75202483Y37849536D01*
X75309146Y37651322D01*
X75309148Y37651319D01*
X75449489Y37475337D01*
X75449491Y37475336D01*
X75449492Y37475334D01*
X75619004Y37327235D01*
X75711165Y37272172D01*
X75758619Y37220889D01*
X75770814Y37152092D01*
X75743879Y37087623D01*
X75686570Y37048018D01*
X75537955Y36998772D01*
X75537950Y36998770D01*
X75388533Y36906608D01*
X75266257Y36784332D01*
X75204934Y36750848D01*
X75135242Y36755832D01*
X75079309Y36797704D01*
X75054892Y36863168D01*
X75055048Y36882822D01*
X75071775Y37074000D01*
X75071775Y37074001D01*
X75052712Y37291885D01*
X75052710Y37291895D01*
X74996105Y37503151D01*
X74996101Y37503160D01*
X74903668Y37701385D01*
X74860123Y37763573D01*
X74261449Y37164899D01*
X74260673Y37175265D01*
X74211113Y37301541D01*
X74126535Y37407599D01*
X74014453Y37484016D01*
X73906698Y37517254D01*
X74506572Y38117126D01*
X74506571Y38117127D01*
X74444391Y38160665D01*
X74292824Y38231342D01*
X74240385Y38277514D01*
X74221233Y38344708D01*
X74241449Y38411589D01*
X74292822Y38456105D01*
X74444639Y38526898D01*
X74623877Y38652402D01*
X74778598Y38807123D01*
X74904102Y38986361D01*
X74996575Y39184670D01*
X75053207Y39396023D01*
X75071162Y39601259D01*
X75072277Y39613998D01*
X75072277Y39614003D01*
X75061546Y39736659D01*
X75053207Y39831977D01*
X74996575Y40043330D01*
X74904102Y40241638D01*
X74904100Y40241641D01*
X74904099Y40241643D01*
X74778599Y40420876D01*
X74715491Y40483984D01*
X74623877Y40575598D01*
X74444639Y40701102D01*
X74293414Y40771619D01*
X74240977Y40817790D01*
X74221825Y40884984D01*
X74242041Y40951865D01*
X74293414Y40996382D01*
X74444639Y41066898D01*
X74623877Y41192402D01*
X74778598Y41347123D01*
X74904102Y41526361D01*
X74996575Y41724670D01*
X75053207Y41936023D01*
X75072277Y42154000D01*
X75053207Y42371977D01*
X75010253Y42532284D01*
X74996577Y42583323D01*
X74996576Y42583324D01*
X74996575Y42583330D01*
X74904102Y42781638D01*
X74904100Y42781641D01*
X74904099Y42781643D01*
X74778599Y42960876D01*
X74714330Y43025145D01*
X74623877Y43115598D01*
X74444639Y43241102D01*
X74293414Y43311619D01*
X74240977Y43357790D01*
X74221825Y43424984D01*
X74242041Y43491865D01*
X74293414Y43536382D01*
X74444639Y43606898D01*
X74623877Y43732402D01*
X74778598Y43887123D01*
X74904102Y44066361D01*
X74996575Y44264670D01*
X75053207Y44476023D01*
X75072277Y44694000D01*
X75053207Y44911977D01*
X75018548Y45041325D01*
X74996577Y45123323D01*
X74996576Y45123324D01*
X74996575Y45123330D01*
X74904102Y45321638D01*
X74904100Y45321641D01*
X74904099Y45321643D01*
X74778599Y45500876D01*
X74722282Y45557193D01*
X74623877Y45655598D01*
X74444639Y45781102D01*
X74444640Y45781102D01*
X74444638Y45781103D01*
X74345484Y45827339D01*
X74246330Y45873575D01*
X74246325Y45873577D01*
X74246316Y45873580D01*
X74234298Y45876800D01*
X74174638Y45913165D01*
X74144110Y45976012D01*
X74152405Y46045388D01*
X74167126Y46070885D01*
X74233807Y46159961D01*
X74233808Y46159962D01*
X74370908Y46411042D01*
X74470890Y46679105D01*
X74531699Y46958638D01*
X74552108Y47243999D01*
X74552108Y47244002D01*
X74531699Y47529363D01*
X74470890Y47808896D01*
X74370908Y48076959D01*
X74233808Y48328039D01*
X74233807Y48328040D01*
X74127115Y48470564D01*
X73298232Y47641681D01*
X73254684Y47723822D01*
X73134991Y47864735D01*
X72987805Y47976623D01*
X72945596Y47996151D01*
X73773562Y48824117D01*
X73773561Y48824118D01*
X73631046Y48930804D01*
X73631038Y48930809D01*
X73379957Y49067909D01*
X73379958Y49067909D01*
X73111895Y49167891D01*
X72832362Y49228700D01*
X72547001Y49249109D01*
X72546999Y49249109D01*
X72261637Y49228700D01*
X71982104Y49167891D01*
X71714041Y49067909D01*
X71462961Y48930809D01*
X71462953Y48930804D01*
X71320437Y48824118D01*
X71320436Y48824117D01*
X72148391Y47996163D01*
X72029569Y47924669D01*
X71895342Y47797523D01*
X71792138Y47645309D01*
X70966883Y48470564D01*
X70966882Y48470564D01*
X70860196Y48328047D01*
X70860191Y48328039D01*
X70723091Y48076959D01*
X70623109Y47808896D01*
X70562300Y47529363D01*
X70541891Y47244002D01*
X70541891Y47243999D01*
X70562300Y46958638D01*
X70623109Y46679105D01*
X70723091Y46411042D01*
X70860191Y46159962D01*
X70860196Y46159954D01*
X70966882Y46017439D01*
X70966883Y46017438D01*
X71795766Y46846322D01*
X71839316Y46764178D01*
X71959009Y46623265D01*
X72106195Y46511377D01*
X72148402Y46491850D01*
X71320436Y45663885D01*
X71462960Y45557193D01*
X71462961Y45557192D01*
X71714042Y45420092D01*
X71714041Y45420092D01*
X71982104Y45320110D01*
X72261637Y45259301D01*
X72516308Y45241087D01*
X72581772Y45216670D01*
X72623644Y45160737D01*
X72628628Y45091045D01*
X72627237Y45085310D01*
X72580793Y44911980D01*
X72580793Y44911977D01*
X72561723Y44694000D01*
X72580696Y44477127D01*
X72580793Y44476025D01*
X72580793Y44476021D01*
X72637422Y44264678D01*
X72637424Y44264674D01*
X72637425Y44264670D01*
X72683661Y44165516D01*
X72729897Y44066362D01*
X72733382Y44061385D01*
X72855402Y43887123D01*
X73010123Y43732402D01*
X73189360Y43606899D01*
X73189361Y43606898D01*
X73340583Y43536382D01*
X73393022Y43490210D01*
X73412174Y43423016D01*
X73391958Y43356135D01*
X73340583Y43311618D01*
X73189361Y43241102D01*
X73189357Y43241100D01*
X73010121Y43115598D01*
X72855402Y42960879D01*
X72729900Y42781643D01*
X72729898Y42781639D01*
X72637426Y42583332D01*
X72637422Y42583323D01*
X72580793Y42371980D01*
X72580793Y42371977D01*
X72561723Y42154000D01*
X72580696Y41937127D01*
X72580793Y41936025D01*
X72580793Y41936021D01*
X72637422Y41724678D01*
X72637424Y41724674D01*
X72637425Y41724670D01*
X72680738Y41631786D01*
X72729897Y41526362D01*
X72733382Y41521385D01*
X72855402Y41347123D01*
X73010123Y41192402D01*
X73189360Y41066899D01*
X73189361Y41066898D01*
X73340583Y40996382D01*
X73393022Y40950210D01*
X73412174Y40883016D01*
X73391958Y40816135D01*
X73340583Y40771618D01*
X73189361Y40701102D01*
X73189357Y40701100D01*
X73010121Y40575598D01*
X72855402Y40420879D01*
X72729900Y40241643D01*
X72729898Y40241639D01*
X72637426Y40043332D01*
X72637422Y40043323D01*
X72580793Y39831980D01*
X72580793Y39831976D01*
X72561723Y39614003D01*
X72561723Y39613998D01*
X72566157Y39563319D01*
X72577267Y39436321D01*
X72580793Y39396025D01*
X72580793Y39396021D01*
X72637422Y39184678D01*
X72637424Y39184674D01*
X72637425Y39184670D01*
X72648519Y39160879D01*
X72729897Y38986362D01*
X72750537Y38956886D01*
X72855402Y38807123D01*
X73010123Y38652402D01*
X73171355Y38539506D01*
X73189361Y38526898D01*
X73341175Y38456106D01*
X73393614Y38409934D01*
X73412766Y38342740D01*
X73392550Y38275859D01*
X73341175Y38231342D01*
X73189614Y38160668D01*
X73189612Y38160667D01*
X73127428Y38117125D01*
X73127427Y38117125D01*
X73728767Y37515785D01*
X73682862Y37508865D01*
X73560643Y37450007D01*
X73461202Y37357740D01*
X73393375Y37240260D01*
X73375500Y37161947D01*
X72773875Y37763573D01*
X72773875Y37763572D01*
X72730333Y37701388D01*
X72730332Y37701386D01*
X72637898Y37503160D01*
X72637894Y37503151D01*
X72581289Y37291895D01*
X72581287Y37291885D01*
X72562225Y37074001D01*
X72562225Y37074000D01*
X72581287Y36856116D01*
X72581289Y36856106D01*
X72637894Y36644850D01*
X72637898Y36644841D01*
X72730335Y36446609D01*
X72773873Y36384429D01*
X72773875Y36384428D01*
X73372550Y36983104D01*
X73373327Y36972735D01*
X73422887Y36846459D01*
X73507465Y36740401D01*
X73619547Y36663984D01*
X73727299Y36630747D01*
X73127426Y36030876D01*
X73189611Y35987334D01*
X73189613Y35987333D01*
X73387840Y35894899D01*
X73387849Y35894895D01*
X73599105Y35838290D01*
X73599115Y35838288D01*
X73816999Y35819225D01*
X73817001Y35819225D01*
X74034884Y35838288D01*
X74034894Y35838290D01*
X74246150Y35894895D01*
X74246159Y35894899D01*
X74444387Y35987334D01*
X74506572Y36030876D01*
X73905232Y36632216D01*
X73951138Y36639135D01*
X74073357Y36697993D01*
X74172798Y36790260D01*
X74240625Y36907740D01*
X74258499Y36986053D01*
X74860124Y36384428D01*
X74880925Y36414134D01*
X74935502Y36457759D01*
X75005001Y36464951D01*
X75067355Y36433429D01*
X75102769Y36373199D01*
X75106500Y36343010D01*
X75106499Y35264460D01*
X75106500Y35264447D01*
X75113300Y35197891D01*
X75117008Y35161601D01*
X75172229Y34994953D01*
X75264393Y34845532D01*
X75388532Y34721393D01*
X75537953Y34629229D01*
X75704601Y34574008D01*
X75807454Y34563500D01*
X75807459Y34563500D01*
X76906541Y34563500D01*
X76906546Y34563500D01*
X77009399Y34574008D01*
X77176047Y34629229D01*
X77325468Y34721393D01*
X77449607Y34845532D01*
X77541771Y34994953D01*
X77596992Y35161601D01*
X77607500Y35264454D01*
X77607500Y36363546D01*
X77596992Y36466399D01*
X77541771Y36633047D01*
X77449607Y36782468D01*
X77351256Y36880819D01*
X77317771Y36942142D01*
X77322755Y37011834D01*
X77364627Y37067767D01*
X77430091Y37092184D01*
X77438937Y37092500D01*
X78635500Y37092500D01*
X78702539Y37072815D01*
X78748294Y37020011D01*
X78759500Y36968500D01*
X78759500Y36002810D01*
X78757507Y35980669D01*
X78749500Y35936549D01*
X78749499Y35936540D01*
X78749499Y35932160D01*
X78747975Y35912792D01*
X78747290Y35908464D01*
X78747289Y35908461D01*
X78749484Y35810666D01*
X78749500Y35809275D01*
X78749500Y25747500D01*
X78729815Y25680461D01*
X78677011Y25634706D01*
X78625500Y25623500D01*
X77072281Y25623500D01*
X77005242Y25643185D01*
X76959487Y25695989D01*
X76949543Y25765147D01*
X76978568Y25828703D01*
X77001157Y25849074D01*
X77046572Y25880875D01*
X77046572Y25880876D01*
X76445232Y26482216D01*
X76491138Y26489135D01*
X76613357Y26547993D01*
X76712798Y26640260D01*
X76780625Y26757740D01*
X76798499Y26836054D01*
X77400124Y26234428D01*
X77443666Y26296613D01*
X77536101Y26494841D01*
X77536105Y26494850D01*
X77592710Y26706106D01*
X77592712Y26706116D01*
X77611775Y26924000D01*
X77611775Y26924001D01*
X77592712Y27141885D01*
X77592710Y27141895D01*
X77536105Y27353151D01*
X77536101Y27353160D01*
X77443668Y27551385D01*
X77400123Y27613573D01*
X76801449Y27014900D01*
X76800673Y27025265D01*
X76751113Y27151541D01*
X76666535Y27257599D01*
X76554453Y27334016D01*
X76446698Y27367254D01*
X77046572Y27967126D01*
X77046571Y27967127D01*
X76984391Y28010666D01*
X76832232Y28081619D01*
X76779793Y28127792D01*
X76760641Y28194985D01*
X76780857Y28261866D01*
X76832233Y28306383D01*
X76984384Y28377332D01*
X76984386Y28377333D01*
X77046572Y28420876D01*
X76445232Y29022216D01*
X76491138Y29029135D01*
X76613357Y29087993D01*
X76712798Y29180260D01*
X76780625Y29297740D01*
X76798499Y29376053D01*
X77400124Y28774428D01*
X77443666Y28836613D01*
X77536101Y29034841D01*
X77536105Y29034850D01*
X77592710Y29246106D01*
X77592712Y29246116D01*
X77611775Y29464000D01*
X77611775Y29464001D01*
X77592712Y29681885D01*
X77592710Y29681895D01*
X77536105Y29893151D01*
X77536101Y29893160D01*
X77443668Y30091385D01*
X77400123Y30153572D01*
X76801449Y29554899D01*
X76800673Y29565265D01*
X76751113Y29691541D01*
X76666535Y29797599D01*
X76554453Y29874016D01*
X76446700Y29907253D01*
X77046572Y30507125D01*
X77046571Y30507127D01*
X76984391Y30550665D01*
X76786159Y30643102D01*
X76786150Y30643106D01*
X76574894Y30699711D01*
X76574884Y30699713D01*
X76357001Y30718775D01*
X76356999Y30718775D01*
X76139115Y30699713D01*
X76139105Y30699711D01*
X75927849Y30643106D01*
X75927840Y30643102D01*
X75729614Y30550668D01*
X75729612Y30550667D01*
X75667428Y30507125D01*
X75667427Y30507125D01*
X76268768Y29905785D01*
X76222862Y29898865D01*
X76100643Y29840007D01*
X76001202Y29747740D01*
X75933375Y29630260D01*
X75915500Y29551948D01*
X75313875Y30153573D01*
X75313875Y30153572D01*
X75270333Y30091388D01*
X75270332Y30091386D01*
X75177898Y29893160D01*
X75177894Y29893151D01*
X75121289Y29681895D01*
X75121287Y29681885D01*
X75102225Y29464001D01*
X75102225Y29464000D01*
X75121287Y29246116D01*
X75121289Y29246106D01*
X75177894Y29034850D01*
X75177898Y29034841D01*
X75270335Y28836609D01*
X75313873Y28774429D01*
X75313875Y28774428D01*
X75912550Y29373104D01*
X75913327Y29362735D01*
X75962887Y29236459D01*
X76047465Y29130401D01*
X76159547Y29053984D01*
X76267299Y29020747D01*
X75667426Y28420876D01*
X75729611Y28377334D01*
X75729613Y28377333D01*
X75881767Y28306382D01*
X75934206Y28260210D01*
X75953358Y28193016D01*
X75933142Y28126135D01*
X75881767Y28081618D01*
X75729614Y28010668D01*
X75729612Y28010667D01*
X75667428Y27967125D01*
X75667427Y27967125D01*
X76268767Y27365785D01*
X76222862Y27358865D01*
X76100643Y27300007D01*
X76001202Y27207740D01*
X75933375Y27090260D01*
X75915500Y27011948D01*
X75313875Y27613573D01*
X75313875Y27613572D01*
X75270333Y27551388D01*
X75270332Y27551386D01*
X75177898Y27353160D01*
X75177894Y27353151D01*
X75121289Y27141895D01*
X75121287Y27141885D01*
X75102225Y26924001D01*
X75102225Y26924000D01*
X75121287Y26706116D01*
X75121289Y26706106D01*
X75177894Y26494850D01*
X75177898Y26494841D01*
X75270335Y26296609D01*
X75313873Y26234429D01*
X75313874Y26234428D01*
X75912549Y26833106D01*
X75913327Y26822735D01*
X75962887Y26696459D01*
X76047465Y26590401D01*
X76159547Y26513984D01*
X76267299Y26480747D01*
X75667426Y25880876D01*
X75729611Y25837334D01*
X75729617Y25837331D01*
X75881174Y25766659D01*
X75933614Y25720487D01*
X75952766Y25653294D01*
X75932551Y25586412D01*
X75881176Y25541895D01*
X75729358Y25471100D01*
X75729357Y25471100D01*
X75550121Y25345598D01*
X75395402Y25190879D01*
X75269900Y25011643D01*
X75269898Y25011639D01*
X75177425Y24813332D01*
X75165410Y24768493D01*
X75164078Y24764624D01*
X75162895Y24760984D01*
X75160260Y24749444D01*
X75159704Y24747203D01*
X75120795Y24601986D01*
X75120792Y24601973D01*
X75117552Y24564944D01*
X75116233Y24556546D01*
X75112810Y24541547D01*
X75112809Y24541540D01*
X75110022Y24479514D01*
X75109849Y24476894D01*
X75101723Y24384004D01*
X75101723Y24384003D01*
X75104014Y24357796D01*
X75104188Y24349606D01*
X75102709Y24316678D01*
X75102710Y24316671D01*
X75116358Y24215909D01*
X75116683Y24212992D01*
X75120793Y24166021D01*
X75122427Y24159923D01*
X75124470Y24152299D01*
X75126020Y24144578D01*
X75132924Y24093616D01*
X75132924Y24093615D01*
X75173889Y23967539D01*
X75174804Y23964449D01*
X75176149Y23959431D01*
X75177423Y23954675D01*
X75177424Y23954672D01*
X75177425Y23954670D01*
X75177952Y23953540D01*
X75180723Y23946503D01*
X75202483Y23879536D01*
X75309146Y23681322D01*
X75309148Y23681319D01*
X75449489Y23505337D01*
X75449491Y23505336D01*
X75449492Y23505334D01*
X75619004Y23357235D01*
X75711165Y23302172D01*
X75758619Y23250889D01*
X75770814Y23182092D01*
X75743879Y23117623D01*
X75686570Y23078018D01*
X75537955Y23028772D01*
X75537950Y23028770D01*
X75388533Y22936608D01*
X75266257Y22814332D01*
X75204934Y22780848D01*
X75135242Y22785832D01*
X75079309Y22827704D01*
X75054892Y22893168D01*
X75055048Y22912822D01*
X75071775Y23104000D01*
X75071775Y23104001D01*
X75052712Y23321885D01*
X75052710Y23321895D01*
X74996105Y23533151D01*
X74996101Y23533160D01*
X74903668Y23731385D01*
X74860123Y23793573D01*
X74261449Y23194899D01*
X74260673Y23205265D01*
X74211113Y23331541D01*
X74126535Y23437599D01*
X74014453Y23514016D01*
X73906698Y23547254D01*
X74506572Y24147126D01*
X74506571Y24147127D01*
X74444391Y24190665D01*
X74292824Y24261342D01*
X74240385Y24307514D01*
X74221233Y24374708D01*
X74241449Y24441589D01*
X74292822Y24486105D01*
X74444639Y24556898D01*
X74623877Y24682402D01*
X74778598Y24837123D01*
X74904102Y25016361D01*
X74996575Y25214670D01*
X75053207Y25426023D01*
X75072277Y25644000D01*
X75053207Y25861977D01*
X74996575Y26073330D01*
X74904102Y26271638D01*
X74904100Y26271641D01*
X74904099Y26271643D01*
X74778599Y26450876D01*
X74715491Y26513984D01*
X74623877Y26605598D01*
X74444639Y26731102D01*
X74293414Y26801619D01*
X74240977Y26847790D01*
X74221825Y26914984D01*
X74242041Y26981865D01*
X74293414Y27026382D01*
X74444639Y27096898D01*
X74623877Y27222402D01*
X74778598Y27377123D01*
X74904102Y27556361D01*
X74996575Y27754670D01*
X75053207Y27966023D01*
X75072277Y28184000D01*
X75053207Y28401977D01*
X74996575Y28613330D01*
X74904102Y28811638D01*
X74904100Y28811641D01*
X74904099Y28811643D01*
X74778599Y28990876D01*
X74703975Y29065500D01*
X74623877Y29145598D01*
X74444639Y29271102D01*
X74293414Y29341619D01*
X74240977Y29387790D01*
X74221825Y29454984D01*
X74242041Y29521865D01*
X74293414Y29566382D01*
X74444639Y29636898D01*
X74623877Y29762402D01*
X74778598Y29917123D01*
X74904102Y30096361D01*
X74996575Y30294670D01*
X75053207Y30506023D01*
X75072277Y30724000D01*
X75053207Y30941977D01*
X75010253Y31102284D01*
X74996577Y31153323D01*
X74996576Y31153324D01*
X74996575Y31153330D01*
X74904102Y31351638D01*
X74904100Y31351641D01*
X74904099Y31351643D01*
X74778599Y31530876D01*
X74714330Y31595145D01*
X74623877Y31685598D01*
X74444639Y31811102D01*
X74444640Y31811102D01*
X74444638Y31811103D01*
X74345484Y31857339D01*
X74246330Y31903575D01*
X74246325Y31903577D01*
X74246316Y31903580D01*
X74234298Y31906800D01*
X74174638Y31943165D01*
X74144110Y32006012D01*
X74152405Y32075388D01*
X74167126Y32100885D01*
X74233807Y32189961D01*
X74233808Y32189962D01*
X74370908Y32441042D01*
X74470890Y32709105D01*
X74531699Y32988638D01*
X74552108Y33273999D01*
X74552108Y33274002D01*
X74531699Y33559363D01*
X74470890Y33838896D01*
X74370908Y34106959D01*
X74233808Y34358039D01*
X74233807Y34358040D01*
X74127115Y34500564D01*
X73298232Y33671681D01*
X73254684Y33753822D01*
X73134991Y33894735D01*
X72987805Y34006623D01*
X72945596Y34026151D01*
X73773562Y34854117D01*
X73773561Y34854118D01*
X73631046Y34960804D01*
X73631038Y34960809D01*
X73379957Y35097909D01*
X73379958Y35097909D01*
X73111895Y35197891D01*
X72832362Y35258700D01*
X72547001Y35279109D01*
X72546999Y35279109D01*
X72261637Y35258700D01*
X71982104Y35197891D01*
X71714041Y35097909D01*
X71462961Y34960809D01*
X71462953Y34960804D01*
X71320437Y34854118D01*
X71320436Y34854117D01*
X72148391Y34026163D01*
X72029569Y33954669D01*
X71895342Y33827523D01*
X71792138Y33675309D01*
X70966883Y34500564D01*
X70966882Y34500563D01*
X70860196Y34358047D01*
X70860191Y34358039D01*
X70723091Y34106959D01*
X70623109Y33838896D01*
X70562300Y33559363D01*
X70541891Y33274002D01*
X70541891Y33273999D01*
X70562300Y32988638D01*
X70623109Y32709105D01*
X70723091Y32441042D01*
X70860191Y32189962D01*
X70860196Y32189954D01*
X70966882Y32047439D01*
X70966883Y32047438D01*
X71795766Y32876321D01*
X71839316Y32794178D01*
X71959009Y32653265D01*
X72106195Y32541377D01*
X72148402Y32521850D01*
X71320436Y31693885D01*
X71462960Y31587193D01*
X71462961Y31587192D01*
X71714042Y31450092D01*
X71714041Y31450092D01*
X71982104Y31350110D01*
X72261637Y31289301D01*
X72516308Y31271087D01*
X72581772Y31246670D01*
X72623644Y31190737D01*
X72628628Y31121045D01*
X72627237Y31115310D01*
X72580793Y30941980D01*
X72580793Y30941976D01*
X72570821Y30827988D01*
X72561723Y30724000D01*
X72580696Y30507127D01*
X72580793Y30506025D01*
X72580793Y30506021D01*
X72637422Y30294678D01*
X72637424Y30294674D01*
X72637425Y30294670D01*
X72678700Y30206155D01*
X72729897Y30096362D01*
X72733382Y30091385D01*
X72855402Y29917123D01*
X73010123Y29762402D01*
X73189360Y29636899D01*
X73189361Y29636898D01*
X73340583Y29566382D01*
X73393022Y29520210D01*
X73412174Y29453016D01*
X73391958Y29386135D01*
X73340583Y29341618D01*
X73189361Y29271102D01*
X73189357Y29271100D01*
X73010121Y29145598D01*
X72855402Y28990879D01*
X72729900Y28811643D01*
X72729898Y28811639D01*
X72637426Y28613332D01*
X72637422Y28613323D01*
X72580793Y28401980D01*
X72580793Y28401977D01*
X72561723Y28184000D01*
X72580696Y27967127D01*
X72580793Y27966025D01*
X72580793Y27966021D01*
X72637422Y27754678D01*
X72637424Y27754674D01*
X72637425Y27754670D01*
X72683661Y27655516D01*
X72729897Y27556362D01*
X72733382Y27551385D01*
X72855402Y27377123D01*
X73010123Y27222402D01*
X73189360Y27096899D01*
X73189361Y27096898D01*
X73340583Y27026382D01*
X73393022Y26980210D01*
X73412174Y26913016D01*
X73391958Y26846135D01*
X73340583Y26801618D01*
X73189361Y26731102D01*
X73189357Y26731100D01*
X73010121Y26605598D01*
X72855402Y26450879D01*
X72729900Y26271643D01*
X72729898Y26271639D01*
X72637426Y26073332D01*
X72637422Y26073323D01*
X72580793Y25861980D01*
X72580793Y25861976D01*
X72561723Y25644003D01*
X72561723Y25643998D01*
X72580793Y25426025D01*
X72580793Y25426021D01*
X72637422Y25214678D01*
X72637424Y25214674D01*
X72637425Y25214670D01*
X72648519Y25190879D01*
X72729897Y25016362D01*
X72733204Y25011639D01*
X72855402Y24837123D01*
X73010123Y24682402D01*
X73177870Y24564944D01*
X73189361Y24556898D01*
X73341175Y24486106D01*
X73393614Y24439934D01*
X73412766Y24372740D01*
X73392550Y24305859D01*
X73341175Y24261342D01*
X73189614Y24190668D01*
X73189612Y24190667D01*
X73127428Y24147125D01*
X73127427Y24147125D01*
X73728767Y23545785D01*
X73682862Y23538865D01*
X73560643Y23480007D01*
X73461202Y23387740D01*
X73393375Y23270260D01*
X73375500Y23191946D01*
X72773875Y23793573D01*
X72773875Y23793572D01*
X72730333Y23731388D01*
X72730332Y23731386D01*
X72637898Y23533160D01*
X72637894Y23533151D01*
X72581289Y23321895D01*
X72581287Y23321885D01*
X72562225Y23104001D01*
X72562225Y23104000D01*
X72581287Y22886116D01*
X72581289Y22886106D01*
X72637894Y22674850D01*
X72637898Y22674841D01*
X72730335Y22476609D01*
X72773873Y22414429D01*
X72773874Y22414428D01*
X73372549Y23013104D01*
X73373327Y23002735D01*
X73422887Y22876459D01*
X73507465Y22770401D01*
X73619547Y22693984D01*
X73727299Y22660747D01*
X73127426Y22060876D01*
X73189611Y22017334D01*
X73189613Y22017333D01*
X73387840Y21924899D01*
X73387849Y21924895D01*
X73599105Y21868290D01*
X73599115Y21868288D01*
X73816999Y21849225D01*
X73817001Y21849225D01*
X74034884Y21868288D01*
X74034894Y21868290D01*
X74246150Y21924895D01*
X74246159Y21924899D01*
X74444387Y22017334D01*
X74506572Y22060876D01*
X73905232Y22662216D01*
X73951138Y22669135D01*
X74073357Y22727993D01*
X74172798Y22820260D01*
X74240625Y22937740D01*
X74258499Y23016053D01*
X74860124Y22414428D01*
X74880925Y22444134D01*
X74935502Y22487759D01*
X75005001Y22494951D01*
X75067355Y22463429D01*
X75102769Y22403199D01*
X75106500Y22373010D01*
X75106499Y21294460D01*
X75106500Y21294447D01*
X75113300Y21227891D01*
X75117008Y21191601D01*
X75172229Y21024953D01*
X75264393Y20875532D01*
X75388532Y20751393D01*
X75537953Y20659229D01*
X75704601Y20604008D01*
X75807454Y20593500D01*
X75807459Y20593500D01*
X76906541Y20593500D01*
X76906546Y20593500D01*
X77009399Y20604008D01*
X77176047Y20659229D01*
X77325468Y20751393D01*
X77449607Y20875532D01*
X77541771Y21024953D01*
X77596992Y21191601D01*
X77607500Y21294454D01*
X77607500Y22393546D01*
X77596992Y22496399D01*
X77541771Y22663047D01*
X77449607Y22812468D01*
X77351256Y22910819D01*
X77317771Y22972142D01*
X77322755Y23041834D01*
X77364627Y23097767D01*
X77430091Y23122184D01*
X77438937Y23122500D01*
X78625500Y23122500D01*
X78692539Y23102815D01*
X78738294Y23050011D01*
X78749500Y22998500D01*
X78749500Y11788500D01*
X78729815Y11721461D01*
X78677011Y11675706D01*
X78625500Y11664500D01*
X77087990Y11664500D01*
X77020951Y11684185D01*
X76975196Y11736989D01*
X76965252Y11806147D01*
X76994277Y11869703D01*
X77016866Y11890075D01*
X77046572Y11910876D01*
X76445232Y12512216D01*
X76491138Y12519135D01*
X76613357Y12577993D01*
X76712798Y12670260D01*
X76780625Y12787740D01*
X76798499Y12866053D01*
X77400124Y12264428D01*
X77443666Y12326613D01*
X77536101Y12524841D01*
X77536105Y12524850D01*
X77592710Y12736106D01*
X77592712Y12736116D01*
X77611775Y12954000D01*
X77611775Y12954001D01*
X77592712Y13171885D01*
X77592710Y13171895D01*
X77536105Y13383151D01*
X77536101Y13383160D01*
X77443668Y13581385D01*
X77400123Y13643572D01*
X76801449Y13044899D01*
X76800673Y13055265D01*
X76751113Y13181541D01*
X76666535Y13287599D01*
X76554453Y13364016D01*
X76446699Y13397254D01*
X77046572Y13997126D01*
X77046571Y13997127D01*
X76984391Y14040665D01*
X76832232Y14111618D01*
X76779793Y14157790D01*
X76760641Y14224984D01*
X76780857Y14291865D01*
X76832232Y14336382D01*
X76984387Y14407334D01*
X77046572Y14450876D01*
X76445232Y15052216D01*
X76491138Y15059135D01*
X76613357Y15117993D01*
X76712798Y15210260D01*
X76780625Y15327740D01*
X76798499Y15406053D01*
X77400124Y14804428D01*
X77443666Y14866613D01*
X77536101Y15064841D01*
X77536105Y15064850D01*
X77592710Y15276106D01*
X77592712Y15276116D01*
X77611775Y15494000D01*
X77611775Y15494001D01*
X77592712Y15711885D01*
X77592710Y15711895D01*
X77536105Y15923151D01*
X77536101Y15923160D01*
X77443668Y16121385D01*
X77400123Y16183572D01*
X76801449Y15584899D01*
X76800673Y15595265D01*
X76751113Y15721541D01*
X76666535Y15827599D01*
X76554453Y15904016D01*
X76446698Y15937254D01*
X77046572Y16537126D01*
X77046571Y16537127D01*
X76984391Y16580665D01*
X76786159Y16673102D01*
X76786150Y16673106D01*
X76574894Y16729711D01*
X76574884Y16729713D01*
X76357001Y16748775D01*
X76356999Y16748775D01*
X76139115Y16729713D01*
X76139105Y16729711D01*
X75927849Y16673106D01*
X75927840Y16673102D01*
X75729614Y16580668D01*
X75729612Y16580667D01*
X75667428Y16537125D01*
X75667427Y16537125D01*
X76268767Y15935785D01*
X76222862Y15928865D01*
X76100643Y15870007D01*
X76001202Y15777740D01*
X75933375Y15660260D01*
X75915500Y15581947D01*
X75313875Y16183573D01*
X75313875Y16183572D01*
X75270333Y16121388D01*
X75270332Y16121386D01*
X75177898Y15923160D01*
X75177894Y15923151D01*
X75121289Y15711895D01*
X75121287Y15711885D01*
X75102225Y15494001D01*
X75102225Y15494000D01*
X75121287Y15276116D01*
X75121289Y15276106D01*
X75177894Y15064850D01*
X75177898Y15064841D01*
X75270335Y14866609D01*
X75313873Y14804429D01*
X75313874Y14804428D01*
X75912549Y15403104D01*
X75913327Y15392735D01*
X75962887Y15266459D01*
X76047465Y15160401D01*
X76159547Y15083984D01*
X76267299Y15050747D01*
X75667426Y14450876D01*
X75729611Y14407334D01*
X75729613Y14407333D01*
X75881767Y14336382D01*
X75934206Y14290210D01*
X75953358Y14223016D01*
X75933142Y14156135D01*
X75881767Y14111618D01*
X75729614Y14040668D01*
X75729612Y14040667D01*
X75667428Y13997125D01*
X75667427Y13997124D01*
X76268766Y13395785D01*
X76222862Y13388865D01*
X76100643Y13330007D01*
X76001202Y13237740D01*
X75933375Y13120260D01*
X75915500Y13041947D01*
X75313875Y13643573D01*
X75313875Y13643572D01*
X75270333Y13581388D01*
X75270332Y13581386D01*
X75177898Y13383160D01*
X75177894Y13383151D01*
X75121289Y13171895D01*
X75121287Y13171885D01*
X75102225Y12954001D01*
X75102225Y12954000D01*
X75121287Y12736116D01*
X75121289Y12736106D01*
X75177894Y12524850D01*
X75177898Y12524841D01*
X75270335Y12326609D01*
X75313873Y12264429D01*
X75313874Y12264428D01*
X75912549Y12863104D01*
X75913327Y12852735D01*
X75962887Y12726459D01*
X76047465Y12620401D01*
X76159547Y12543984D01*
X76267299Y12510747D01*
X75667426Y11910876D01*
X75729611Y11867334D01*
X75729617Y11867331D01*
X75880202Y11797112D01*
X75932642Y11750940D01*
X75951794Y11683747D01*
X75931578Y11616865D01*
X75881599Y11573010D01*
X75821552Y11544093D01*
X75729359Y11501101D01*
X75724670Y11498394D01*
X75724598Y11498519D01*
X75713871Y11492236D01*
X75713031Y11491832D01*
X75630788Y11432081D01*
X75550121Y11375597D01*
X75549241Y11374716D01*
X75534461Y11362094D01*
X75530928Y11359528D01*
X75530921Y11359522D01*
X75463366Y11288866D01*
X75462395Y11287872D01*
X75395402Y11220879D01*
X75392711Y11217035D01*
X75380773Y11202479D01*
X75375368Y11196826D01*
X75351192Y11160202D01*
X75323281Y11117920D01*
X75322353Y11116553D01*
X75269901Y11041643D01*
X75269891Y11041626D01*
X75266457Y11034262D01*
X75257572Y11018372D01*
X75251363Y11008966D01*
X75215498Y10925056D01*
X75214679Y10923222D01*
X75177426Y10843336D01*
X75177424Y10843329D01*
X75174425Y10832140D01*
X75168681Y10815525D01*
X75162899Y10801995D01*
X75162896Y10801986D01*
X75143318Y10716211D01*
X75142760Y10713962D01*
X75120793Y10631978D01*
X75120793Y10631977D01*
X75119112Y10612774D01*
X75117793Y10604375D01*
X75112809Y10582541D01*
X75112809Y10582536D01*
X75109007Y10497912D01*
X75108834Y10495292D01*
X75101722Y10414005D01*
X75101723Y10413997D01*
X75103688Y10391530D01*
X75103862Y10383340D01*
X75102709Y10357676D01*
X75102710Y10357672D01*
X75102710Y10357670D01*
X75107721Y10320670D01*
X75113641Y10276969D01*
X75113966Y10274051D01*
X75120792Y10196028D01*
X75120795Y10196013D01*
X75127482Y10171059D01*
X75129034Y10163330D01*
X75132924Y10134619D01*
X75132926Y10134608D01*
X75157075Y10060287D01*
X75157997Y10057175D01*
X75177423Y9984676D01*
X75177427Y9984664D01*
X75189736Y9958268D01*
X75192512Y9951221D01*
X75202483Y9920536D01*
X75237970Y9854589D01*
X75239558Y9851424D01*
X75269898Y9786361D01*
X75288490Y9759809D01*
X75292303Y9753622D01*
X75309146Y9722322D01*
X75309152Y9722313D01*
X75353792Y9666337D01*
X75356106Y9663242D01*
X75390055Y9614759D01*
X75395402Y9607123D01*
X75395405Y9607120D01*
X75420646Y9581879D01*
X75425283Y9576691D01*
X75449492Y9546334D01*
X75500959Y9501368D01*
X75504008Y9498517D01*
X75550116Y9452408D01*
X75550122Y9452403D01*
X75582055Y9430043D01*
X75587290Y9425943D01*
X75619004Y9398235D01*
X75619012Y9398229D01*
X75663839Y9371448D01*
X75674854Y9364867D01*
X75678612Y9362433D01*
X75725544Y9329571D01*
X75769169Y9274995D01*
X75776363Y9205497D01*
X75744841Y9143142D01*
X75693426Y9110290D01*
X75537953Y9058771D01*
X75537950Y9058770D01*
X75388533Y8966608D01*
X75266257Y8844332D01*
X75204934Y8810848D01*
X75135242Y8815832D01*
X75079309Y8857704D01*
X75054892Y8923168D01*
X75055048Y8942822D01*
X75071775Y9134000D01*
X75071775Y9134001D01*
X75052712Y9351885D01*
X75052710Y9351895D01*
X74996105Y9563151D01*
X74996101Y9563160D01*
X74903668Y9761385D01*
X74860123Y9823573D01*
X74261449Y9224899D01*
X74260673Y9235265D01*
X74211113Y9361541D01*
X74126535Y9467599D01*
X74014453Y9544016D01*
X73906699Y9577254D01*
X74506572Y10177126D01*
X74506571Y10177127D01*
X74444391Y10220665D01*
X74292824Y10291342D01*
X74240385Y10337514D01*
X74221233Y10404708D01*
X74241449Y10471589D01*
X74292822Y10516105D01*
X74444639Y10586898D01*
X74623877Y10712402D01*
X74778598Y10867123D01*
X74904102Y11046361D01*
X74996575Y11244670D01*
X75053207Y11456023D01*
X75072277Y11674000D01*
X75053207Y11891977D01*
X74996575Y12103330D01*
X74904102Y12301638D01*
X74904100Y12301641D01*
X74904099Y12301643D01*
X74778599Y12480876D01*
X74715491Y12543984D01*
X74623877Y12635598D01*
X74444639Y12761102D01*
X74293414Y12831619D01*
X74240977Y12877790D01*
X74221825Y12944984D01*
X74242041Y13011865D01*
X74293414Y13056382D01*
X74444639Y13126898D01*
X74623877Y13252402D01*
X74778598Y13407123D01*
X74904102Y13586361D01*
X74996575Y13784670D01*
X75053207Y13996023D01*
X75072277Y14214000D01*
X75053207Y14431977D01*
X74996575Y14643330D01*
X74904102Y14841638D01*
X74904100Y14841641D01*
X74904099Y14841643D01*
X74778599Y15020876D01*
X74715491Y15083984D01*
X74623877Y15175598D01*
X74444639Y15301102D01*
X74293414Y15371619D01*
X74240977Y15417790D01*
X74221825Y15484984D01*
X74242041Y15551865D01*
X74293414Y15596382D01*
X74444639Y15666898D01*
X74623877Y15792402D01*
X74778598Y15947123D01*
X74904102Y16126361D01*
X74996575Y16324670D01*
X75053207Y16536023D01*
X75072277Y16754000D01*
X75069975Y16780307D01*
X75064737Y16840185D01*
X75053207Y16971977D01*
X75018548Y17101325D01*
X74996577Y17183323D01*
X74996576Y17183324D01*
X74996575Y17183330D01*
X74904102Y17381638D01*
X74904100Y17381641D01*
X74904099Y17381643D01*
X74778599Y17560876D01*
X74722282Y17617193D01*
X74623877Y17715598D01*
X74467164Y17825330D01*
X74444638Y17841103D01*
X74331366Y17893922D01*
X74246330Y17933575D01*
X74246325Y17933577D01*
X74246316Y17933580D01*
X74234298Y17936800D01*
X74174638Y17973165D01*
X74144110Y18036012D01*
X74152405Y18105388D01*
X74167126Y18130885D01*
X74233807Y18219961D01*
X74233808Y18219962D01*
X74370908Y18471042D01*
X74470890Y18739105D01*
X74531699Y19018638D01*
X74552108Y19303999D01*
X74552108Y19304002D01*
X74531699Y19589363D01*
X74470890Y19868896D01*
X74370908Y20136959D01*
X74233808Y20388039D01*
X74233807Y20388040D01*
X74127115Y20530564D01*
X73298232Y19701681D01*
X73254684Y19783822D01*
X73134991Y19924735D01*
X72987805Y20036623D01*
X72945596Y20056151D01*
X73773562Y20884117D01*
X73773561Y20884118D01*
X73631046Y20990804D01*
X73631038Y20990809D01*
X73379957Y21127909D01*
X73379958Y21127909D01*
X73111895Y21227891D01*
X72832362Y21288700D01*
X72547001Y21309109D01*
X72546999Y21309109D01*
X72261637Y21288700D01*
X71982104Y21227891D01*
X71714041Y21127909D01*
X71462961Y20990809D01*
X71462953Y20990804D01*
X71320437Y20884118D01*
X71320436Y20884117D01*
X72148391Y20056163D01*
X72029569Y19984669D01*
X71895342Y19857523D01*
X71792138Y19705309D01*
X70966883Y20530564D01*
X70966882Y20530563D01*
X70860196Y20388047D01*
X70860191Y20388039D01*
X70723091Y20136959D01*
X70623109Y19868896D01*
X70562300Y19589363D01*
X70541891Y19304002D01*
X70541891Y19303999D01*
X70562300Y19018638D01*
X70623109Y18739105D01*
X70723091Y18471042D01*
X70860191Y18219962D01*
X70860196Y18219954D01*
X70966882Y18077439D01*
X70966883Y18077438D01*
X71795766Y18906321D01*
X71839316Y18824178D01*
X71959009Y18683265D01*
X72106195Y18571377D01*
X72148402Y18551850D01*
X71320436Y17723885D01*
X71462960Y17617193D01*
X71462961Y17617192D01*
X71714042Y17480092D01*
X71714041Y17480092D01*
X71982104Y17380110D01*
X72261637Y17319301D01*
X72516308Y17301087D01*
X72581772Y17276670D01*
X72623644Y17220737D01*
X72628628Y17151045D01*
X72627237Y17145310D01*
X72580793Y16971980D01*
X72580793Y16971976D01*
X72561723Y16754003D01*
X72561723Y16753998D01*
X72566206Y16702752D01*
X72580696Y16537127D01*
X72580793Y16536025D01*
X72580793Y16536021D01*
X72637422Y16324678D01*
X72637424Y16324674D01*
X72637425Y16324670D01*
X72683661Y16225516D01*
X72729897Y16126362D01*
X72733382Y16121385D01*
X72855402Y15947123D01*
X73010123Y15792402D01*
X73189360Y15666899D01*
X73189361Y15666898D01*
X73340583Y15596382D01*
X73393022Y15550210D01*
X73412174Y15483016D01*
X73391958Y15416135D01*
X73340583Y15371618D01*
X73189361Y15301102D01*
X73189357Y15301100D01*
X73010121Y15175598D01*
X72855402Y15020879D01*
X72729900Y14841643D01*
X72729898Y14841639D01*
X72637426Y14643332D01*
X72637422Y14643323D01*
X72580793Y14431980D01*
X72580793Y14431976D01*
X72572492Y14337088D01*
X72561723Y14214000D01*
X72580696Y13997127D01*
X72580793Y13996025D01*
X72580793Y13996021D01*
X72637422Y13784678D01*
X72637424Y13784674D01*
X72637425Y13784670D01*
X72683661Y13685516D01*
X72729897Y13586362D01*
X72733382Y13581385D01*
X72855402Y13407123D01*
X73010123Y13252402D01*
X73189360Y13126899D01*
X73189361Y13126898D01*
X73340583Y13056382D01*
X73393022Y13010210D01*
X73412174Y12943016D01*
X73391958Y12876135D01*
X73340583Y12831618D01*
X73189361Y12761102D01*
X73189357Y12761100D01*
X73010121Y12635598D01*
X72855402Y12480879D01*
X72729900Y12301643D01*
X72729898Y12301639D01*
X72637426Y12103332D01*
X72637422Y12103323D01*
X72580793Y11891980D01*
X72580793Y11891976D01*
X72561723Y11674003D01*
X72561723Y11673998D01*
X72568759Y11593575D01*
X72577660Y11491829D01*
X72580793Y11456025D01*
X72580793Y11456021D01*
X72637422Y11244678D01*
X72637424Y11244674D01*
X72637425Y11244670D01*
X72683661Y11145516D01*
X72729897Y11046362D01*
X72733205Y11041638D01*
X72855402Y10867123D01*
X73010123Y10712402D01*
X73189360Y10586899D01*
X73189361Y10586898D01*
X73341175Y10516106D01*
X73393614Y10469934D01*
X73412766Y10402740D01*
X73392550Y10335859D01*
X73341175Y10291342D01*
X73189614Y10220668D01*
X73189612Y10220667D01*
X73127428Y10177125D01*
X73127427Y10177124D01*
X73728766Y9575785D01*
X73682862Y9568865D01*
X73560643Y9510007D01*
X73461202Y9417740D01*
X73393375Y9300260D01*
X73375500Y9221946D01*
X72773875Y9823573D01*
X72773875Y9823572D01*
X72730333Y9761388D01*
X72730332Y9761386D01*
X72637898Y9563160D01*
X72637894Y9563151D01*
X72581289Y9351895D01*
X72581287Y9351885D01*
X72562225Y9134001D01*
X72562225Y9134000D01*
X72581287Y8916116D01*
X72581289Y8916106D01*
X72637894Y8704850D01*
X72637898Y8704841D01*
X72730335Y8506609D01*
X72773873Y8444429D01*
X72773874Y8444428D01*
X73372550Y9043104D01*
X73373327Y9032735D01*
X73422887Y8906459D01*
X73507465Y8800401D01*
X73619547Y8723984D01*
X73727299Y8690747D01*
X73127426Y8090876D01*
X73189611Y8047334D01*
X73189613Y8047333D01*
X73387840Y7954899D01*
X73387849Y7954895D01*
X73599105Y7898290D01*
X73599115Y7898288D01*
X73816999Y7879225D01*
X73817001Y7879225D01*
X74034884Y7898288D01*
X74034894Y7898290D01*
X74246150Y7954895D01*
X74246159Y7954899D01*
X74444387Y8047334D01*
X74506572Y8090876D01*
X73905232Y8692216D01*
X73951138Y8699135D01*
X74073357Y8757993D01*
X74172798Y8850260D01*
X74240625Y8967740D01*
X74258499Y9046053D01*
X74860124Y8444428D01*
X74880925Y8474134D01*
X74935502Y8517759D01*
X75005001Y8524951D01*
X75067355Y8493429D01*
X75102769Y8433199D01*
X75106500Y8403010D01*
X75106499Y7324460D01*
X75106500Y7324447D01*
X75117008Y7221601D01*
X75172229Y7054953D01*
X75264393Y6905532D01*
X75388532Y6781393D01*
X75537953Y6689229D01*
X75704601Y6634008D01*
X75807454Y6623500D01*
X75807459Y6623500D01*
X76732663Y6623500D01*
X76799702Y6603815D01*
X76845457Y6551011D01*
X76855401Y6481853D01*
X76826376Y6418297D01*
X76820344Y6411819D01*
X73025345Y2616819D01*
X72964022Y2583334D01*
X72937664Y2580500D01*
X45279336Y2580500D01*
X45212297Y2600185D01*
X45191655Y2616819D01*
X42783154Y5025320D01*
X42749669Y5086643D01*
X42754653Y5156335D01*
X42783150Y5200677D01*
X43932473Y6350000D01*
X46592540Y6350000D01*
X46612326Y6161744D01*
X46612327Y6161741D01*
X46670818Y5981723D01*
X46670821Y5981716D01*
X46765467Y5817784D01*
X46892128Y5677112D01*
X46892129Y5677112D01*
X47045265Y5565852D01*
X47045270Y5565849D01*
X47218192Y5488858D01*
X47218197Y5488856D01*
X47403354Y5449500D01*
X47403355Y5449500D01*
X47592644Y5449500D01*
X47592646Y5449500D01*
X47777803Y5488856D01*
X47950730Y5565849D01*
X48103871Y5677112D01*
X48230533Y5817784D01*
X48325179Y5981716D01*
X48383674Y6161744D01*
X48403460Y6350000D01*
X48383674Y6538256D01*
X48325179Y6718284D01*
X48230533Y6882216D01*
X48103871Y7022888D01*
X48103870Y7022889D01*
X47950734Y7134149D01*
X47950729Y7134152D01*
X47777807Y7211143D01*
X47777802Y7211145D01*
X47632000Y7242135D01*
X47592646Y7250500D01*
X47403354Y7250500D01*
X47370897Y7243602D01*
X47218197Y7211145D01*
X47218192Y7211143D01*
X47045270Y7134152D01*
X47045265Y7134149D01*
X46892129Y7022889D01*
X46765466Y6882215D01*
X46670821Y6718285D01*
X46670818Y6718278D01*
X46616470Y6551011D01*
X46612326Y6538256D01*
X46592540Y6350000D01*
X43932473Y6350000D01*
X45202472Y7620000D01*
X53704540Y7620000D01*
X53724326Y7431744D01*
X53724327Y7431741D01*
X53782818Y7251723D01*
X53782821Y7251716D01*
X53877467Y7087784D01*
X53935899Y7022889D01*
X54004129Y6947112D01*
X54157265Y6835852D01*
X54157270Y6835849D01*
X54330192Y6758858D01*
X54330197Y6758856D01*
X54515354Y6719500D01*
X54515355Y6719500D01*
X54704644Y6719500D01*
X54704646Y6719500D01*
X54889803Y6758856D01*
X55062730Y6835849D01*
X55215871Y6947112D01*
X55342533Y7087784D01*
X55437179Y7251716D01*
X55495674Y7431744D01*
X55515460Y7620000D01*
X55495674Y7808256D01*
X55437179Y7988284D01*
X55342533Y8152216D01*
X55215871Y8292888D01*
X55215870Y8292889D01*
X55062734Y8404149D01*
X55062729Y8404152D01*
X54889807Y8481143D01*
X54889802Y8481145D01*
X54744000Y8512135D01*
X54704646Y8520500D01*
X54515354Y8520500D01*
X54490518Y8515221D01*
X54330197Y8481145D01*
X54330192Y8481143D01*
X54157270Y8404152D01*
X54157265Y8404149D01*
X54004129Y8292889D01*
X53877466Y8152215D01*
X53782821Y7988285D01*
X53782818Y7988278D01*
X53747385Y7879225D01*
X53724326Y7808256D01*
X53704540Y7620000D01*
X45202472Y7620000D01*
X45790127Y8207655D01*
X45795287Y8212267D01*
X45825666Y8236492D01*
X45870645Y8287977D01*
X45873462Y8290990D01*
X45881945Y8299471D01*
X45908556Y8331348D01*
X45909353Y8332281D01*
X45973765Y8406004D01*
X45976006Y8409757D01*
X45987274Y8425636D01*
X45990068Y8428981D01*
X46038347Y8514069D01*
X46039018Y8515221D01*
X46089215Y8599236D01*
X46090747Y8603321D01*
X46099003Y8620967D01*
X46101153Y8624755D01*
X46133477Y8717135D01*
X46133916Y8718346D01*
X46168307Y8809976D01*
X46169085Y8814266D01*
X46174055Y8833096D01*
X46175498Y8837218D01*
X46190808Y8933889D01*
X46191038Y8935236D01*
X46208500Y9031451D01*
X46208500Y9035831D01*
X46210027Y9055230D01*
X46210710Y9059540D01*
X46208819Y9143815D01*
X46208516Y9157336D01*
X46208500Y9158727D01*
X46208500Y18542000D01*
X46592540Y18542000D01*
X46612326Y18353744D01*
X46612327Y18353741D01*
X46670818Y18173723D01*
X46670821Y18173716D01*
X46765467Y18009784D01*
X46869790Y17893922D01*
X46892129Y17869112D01*
X47045265Y17757852D01*
X47045270Y17757849D01*
X47218192Y17680858D01*
X47218197Y17680856D01*
X47403354Y17641500D01*
X47403355Y17641500D01*
X47592644Y17641500D01*
X47592646Y17641500D01*
X47777803Y17680856D01*
X47950730Y17757849D01*
X48103871Y17869112D01*
X48230533Y18009784D01*
X48325179Y18173716D01*
X48383674Y18353744D01*
X48403460Y18542000D01*
X48383674Y18730256D01*
X48325179Y18910284D01*
X48230533Y19074216D01*
X48103871Y19214888D01*
X48072096Y19237974D01*
X47950734Y19326149D01*
X47950729Y19326152D01*
X47777807Y19403143D01*
X47777802Y19403145D01*
X47632001Y19434135D01*
X47592646Y19442500D01*
X47403354Y19442500D01*
X47370897Y19435602D01*
X47218197Y19403145D01*
X47218192Y19403143D01*
X47045270Y19326152D01*
X47045265Y19326149D01*
X46892129Y19214889D01*
X46765466Y19074215D01*
X46670821Y18910285D01*
X46670818Y18910278D01*
X46618146Y18748169D01*
X46612326Y18730256D01*
X46592540Y18542000D01*
X46208500Y18542000D01*
X46208500Y19812000D01*
X53704540Y19812000D01*
X53724326Y19623744D01*
X53724327Y19623741D01*
X53782818Y19443723D01*
X53782821Y19443716D01*
X53877467Y19279784D01*
X54004129Y19139112D01*
X54157265Y19027852D01*
X54157270Y19027849D01*
X54330192Y18950858D01*
X54330197Y18950856D01*
X54515354Y18911500D01*
X54515355Y18911500D01*
X54704644Y18911500D01*
X54704646Y18911500D01*
X54889803Y18950856D01*
X55062730Y19027849D01*
X55215871Y19139112D01*
X55342533Y19279784D01*
X55437179Y19443716D01*
X55495674Y19623744D01*
X55515460Y19812000D01*
X55495674Y20000256D01*
X55437179Y20180284D01*
X55342533Y20344216D01*
X55215871Y20484888D01*
X55153005Y20530563D01*
X55062734Y20596149D01*
X55062729Y20596152D01*
X54889807Y20673143D01*
X54889802Y20673145D01*
X54744000Y20704135D01*
X54704646Y20712500D01*
X54515354Y20712500D01*
X54482897Y20705602D01*
X54330197Y20673145D01*
X54330192Y20673143D01*
X54157270Y20596152D01*
X54157265Y20596149D01*
X54004129Y20484889D01*
X53877466Y20344215D01*
X53782821Y20180285D01*
X53782818Y20180278D01*
X53736142Y20036623D01*
X53724326Y20000256D01*
X53704540Y19812000D01*
X46208500Y19812000D01*
X46208500Y30734000D01*
X46592540Y30734000D01*
X46612326Y30545744D01*
X46612327Y30545741D01*
X46670818Y30365723D01*
X46670821Y30365716D01*
X46765467Y30201784D01*
X46837461Y30121827D01*
X46892129Y30061112D01*
X47045265Y29949852D01*
X47045270Y29949849D01*
X47218192Y29872858D01*
X47218197Y29872856D01*
X47403354Y29833500D01*
X47403355Y29833500D01*
X47592644Y29833500D01*
X47592646Y29833500D01*
X47777803Y29872856D01*
X47950730Y29949849D01*
X48103871Y30061112D01*
X48230533Y30201784D01*
X48325179Y30365716D01*
X48383674Y30545744D01*
X48403460Y30734000D01*
X48383674Y30922256D01*
X48325179Y31102284D01*
X48230533Y31266216D01*
X48103871Y31406888D01*
X48044406Y31450092D01*
X47950734Y31518149D01*
X47950729Y31518152D01*
X47777807Y31595143D01*
X47777802Y31595145D01*
X47632000Y31626135D01*
X47592646Y31634500D01*
X47403354Y31634500D01*
X47370897Y31627602D01*
X47218197Y31595145D01*
X47218192Y31595143D01*
X47045270Y31518152D01*
X47045265Y31518149D01*
X46892129Y31406889D01*
X46765466Y31266215D01*
X46670821Y31102285D01*
X46670818Y31102278D01*
X46618733Y30941976D01*
X46612326Y30922256D01*
X46592540Y30734000D01*
X46208500Y30734000D01*
X46208500Y32004000D01*
X53704540Y32004000D01*
X53724326Y31815744D01*
X53724327Y31815741D01*
X53782818Y31635723D01*
X53782821Y31635716D01*
X53877467Y31471784D01*
X53955138Y31385522D01*
X54004129Y31331112D01*
X54157265Y31219852D01*
X54157270Y31219849D01*
X54330192Y31142858D01*
X54330197Y31142856D01*
X54515354Y31103500D01*
X54515355Y31103500D01*
X54704644Y31103500D01*
X54704646Y31103500D01*
X54889803Y31142856D01*
X55062730Y31219849D01*
X55215871Y31331112D01*
X55342533Y31471784D01*
X55437179Y31635716D01*
X55495674Y31815744D01*
X55515460Y32004000D01*
X55495674Y32192256D01*
X55437179Y32372284D01*
X55342533Y32536216D01*
X55215871Y32676888D01*
X55215870Y32676889D01*
X55062734Y32788149D01*
X55062729Y32788152D01*
X54889807Y32865143D01*
X54889802Y32865145D01*
X54744000Y32896135D01*
X54704646Y32904500D01*
X54515354Y32904500D01*
X54482897Y32897602D01*
X54330197Y32865145D01*
X54330192Y32865143D01*
X54157270Y32788152D01*
X54157265Y32788149D01*
X54004129Y32676889D01*
X53877466Y32536215D01*
X53782821Y32372285D01*
X53782818Y32372278D01*
X53724327Y32192260D01*
X53724326Y32192256D01*
X53704540Y32004000D01*
X46208500Y32004000D01*
X46208500Y34228664D01*
X46228185Y34295703D01*
X46244819Y34316345D01*
X52297655Y40369181D01*
X52358978Y40402666D01*
X52385336Y40405500D01*
X59743293Y40405500D01*
X59750231Y40405111D01*
X59788827Y40400762D01*
X59788829Y40400763D01*
X59788830Y40400762D01*
X59806586Y40401960D01*
X59857032Y40405361D01*
X59861188Y40405500D01*
X59873149Y40405500D01*
X59873155Y40405500D01*
X59906146Y40408470D01*
X59914458Y40409218D01*
X59915822Y40409326D01*
X60013412Y40415904D01*
X60017646Y40416972D01*
X60036841Y40420233D01*
X60041188Y40420623D01*
X60135510Y40446656D01*
X60136821Y40447001D01*
X60150448Y40450436D01*
X60231683Y40470904D01*
X60235655Y40472709D01*
X60253962Y40479346D01*
X60258170Y40480507D01*
X60346371Y40522983D01*
X60347499Y40523511D01*
X60436626Y40563993D01*
X60440220Y40566484D01*
X60457035Y40576276D01*
X60460973Y40578171D01*
X60540210Y40635741D01*
X60541150Y40636408D01*
X60621654Y40692180D01*
X60624743Y40695270D01*
X60639545Y40707912D01*
X60643078Y40710478D01*
X60710755Y40781265D01*
X60711602Y40782130D01*
X62093472Y42164000D01*
X66912540Y42164000D01*
X66932326Y41975744D01*
X66932327Y41975741D01*
X66990818Y41795723D01*
X66990821Y41795716D01*
X67085467Y41631784D01*
X67180390Y41526362D01*
X67212129Y41491112D01*
X67365265Y41379852D01*
X67365270Y41379849D01*
X67538192Y41302858D01*
X67538197Y41302856D01*
X67723354Y41263500D01*
X67723355Y41263500D01*
X67912644Y41263500D01*
X67912646Y41263500D01*
X68097803Y41302856D01*
X68270730Y41379849D01*
X68423871Y41491112D01*
X68550533Y41631784D01*
X68645179Y41795716D01*
X68703674Y41975744D01*
X68723460Y42164000D01*
X68703674Y42352256D01*
X68645179Y42532284D01*
X68550533Y42696216D01*
X68423871Y42836888D01*
X68420576Y42839282D01*
X68270734Y42948149D01*
X68270729Y42948152D01*
X68097807Y43025143D01*
X68097802Y43025145D01*
X67943259Y43057993D01*
X67912646Y43064500D01*
X67723354Y43064500D01*
X67692741Y43057993D01*
X67538197Y43025145D01*
X67538192Y43025143D01*
X67365270Y42948152D01*
X67365265Y42948149D01*
X67212129Y42836889D01*
X67085466Y42696215D01*
X66990821Y42532285D01*
X66990818Y42532278D01*
X66938733Y42371976D01*
X66932326Y42352256D01*
X66912540Y42164000D01*
X62093472Y42164000D01*
X62427127Y42497655D01*
X62432287Y42502267D01*
X62462666Y42526492D01*
X62507645Y42577977D01*
X62510462Y42580990D01*
X62518945Y42589471D01*
X62545591Y42621390D01*
X62546345Y42622272D01*
X62610765Y42696004D01*
X62613004Y42699752D01*
X62624266Y42715626D01*
X62627069Y42718982D01*
X62675375Y42804119D01*
X62676045Y42805268D01*
X62726215Y42889236D01*
X62727747Y42893320D01*
X62735999Y42910960D01*
X62738154Y42914755D01*
X62770486Y43007158D01*
X62770924Y43008368D01*
X62805307Y43099976D01*
X62806085Y43104265D01*
X62811057Y43123104D01*
X62812498Y43127218D01*
X62827820Y43223964D01*
X62828023Y43225155D01*
X62845500Y43321453D01*
X62845500Y43325826D01*
X62847027Y43345223D01*
X62847710Y43349536D01*
X62847711Y43349541D01*
X62846018Y43424984D01*
X62845516Y43447362D01*
X62845500Y43448753D01*
X62845500Y47752000D01*
X66912540Y47752000D01*
X66932326Y47563744D01*
X66932327Y47563741D01*
X66990818Y47383723D01*
X66990821Y47383716D01*
X67085467Y47219784D01*
X67212128Y47079113D01*
X67212129Y47079112D01*
X67365265Y46967852D01*
X67365270Y46967849D01*
X67538192Y46890858D01*
X67538197Y46890856D01*
X67723354Y46851500D01*
X67723355Y46851500D01*
X67912644Y46851500D01*
X67912646Y46851500D01*
X68097803Y46890856D01*
X68270730Y46967849D01*
X68423871Y47079112D01*
X68550533Y47219784D01*
X68645179Y47383716D01*
X68703674Y47563744D01*
X68723460Y47752000D01*
X68703674Y47940256D01*
X68645179Y48120284D01*
X68550533Y48284216D01*
X68423871Y48424888D01*
X68392188Y48447907D01*
X68270734Y48536149D01*
X68270729Y48536152D01*
X68097807Y48613143D01*
X68097802Y48613145D01*
X67952001Y48644135D01*
X67912646Y48652500D01*
X67723354Y48652500D01*
X67690897Y48645602D01*
X67538197Y48613145D01*
X67538192Y48613143D01*
X67365270Y48536152D01*
X67365265Y48536149D01*
X67212129Y48424889D01*
X67085466Y48284215D01*
X66990821Y48120285D01*
X66990818Y48120278D01*
X66944142Y47976623D01*
X66932326Y47940256D01*
X66912540Y47752000D01*
X62845500Y47752000D01*
X62845500Y49167891D01*
X62845500Y53594000D01*
X66912540Y53594000D01*
X66932326Y53405744D01*
X66932327Y53405741D01*
X66990818Y53225723D01*
X66990821Y53225716D01*
X67085467Y53061784D01*
X67152931Y52986858D01*
X67212129Y52921112D01*
X67365265Y52809852D01*
X67365270Y52809849D01*
X67538192Y52732858D01*
X67538197Y52732856D01*
X67723354Y52693500D01*
X67723355Y52693500D01*
X67912644Y52693500D01*
X67912646Y52693500D01*
X68097803Y52732856D01*
X68270730Y52809849D01*
X68423871Y52921112D01*
X68550533Y53061784D01*
X68645179Y53225716D01*
X68703674Y53405744D01*
X68722409Y53583998D01*
X72561723Y53583998D01*
X72580793Y53366025D01*
X72580793Y53366021D01*
X72637422Y53154678D01*
X72637424Y53154674D01*
X72637425Y53154670D01*
X72679774Y53063852D01*
X72729897Y52956362D01*
X72754580Y52921112D01*
X72855402Y52777123D01*
X73010123Y52622402D01*
X73189361Y52496899D01*
X73189361Y52496898D01*
X73341175Y52426106D01*
X73393614Y52379934D01*
X73412766Y52312740D01*
X73392550Y52245859D01*
X73341175Y52201342D01*
X73189614Y52130668D01*
X73189612Y52130667D01*
X73127428Y52087125D01*
X73127427Y52087125D01*
X73728768Y51485785D01*
X73682862Y51478865D01*
X73560643Y51420007D01*
X73461202Y51327740D01*
X73393375Y51210260D01*
X73375500Y51131947D01*
X72773875Y51733573D01*
X72773875Y51733572D01*
X72730333Y51671388D01*
X72730332Y51671386D01*
X72637898Y51473160D01*
X72637894Y51473151D01*
X72581289Y51261895D01*
X72581287Y51261885D01*
X72562225Y51044001D01*
X72562225Y51044000D01*
X72581287Y50826116D01*
X72581289Y50826106D01*
X72637894Y50614850D01*
X72637898Y50614841D01*
X72730335Y50416609D01*
X72773873Y50354429D01*
X72773875Y50354428D01*
X73372550Y50953104D01*
X73373327Y50942735D01*
X73422887Y50816459D01*
X73507465Y50710401D01*
X73619547Y50633984D01*
X73727299Y50600747D01*
X73127426Y50000876D01*
X73189611Y49957334D01*
X73189613Y49957333D01*
X73387840Y49864899D01*
X73387849Y49864895D01*
X73599105Y49808290D01*
X73599115Y49808288D01*
X73816999Y49789225D01*
X73817001Y49789225D01*
X74034884Y49808288D01*
X74034894Y49808290D01*
X74246150Y49864895D01*
X74246159Y49864899D01*
X74444387Y49957334D01*
X74506572Y50000876D01*
X73905232Y50602216D01*
X73951138Y50609135D01*
X74073357Y50667993D01*
X74172798Y50760260D01*
X74240625Y50877740D01*
X74258499Y50956053D01*
X74860124Y50354428D01*
X74880925Y50384134D01*
X74935502Y50427759D01*
X75005001Y50434951D01*
X75067355Y50403429D01*
X75102769Y50343199D01*
X75106500Y50313010D01*
X75106499Y49234460D01*
X75106500Y49234447D01*
X75113300Y49167891D01*
X75117008Y49131601D01*
X75172229Y48964953D01*
X75264393Y48815532D01*
X75388532Y48691393D01*
X75537953Y48599229D01*
X75704601Y48544008D01*
X75807454Y48533500D01*
X75807459Y48533500D01*
X76906541Y48533500D01*
X76906546Y48533500D01*
X77009399Y48544008D01*
X77176047Y48599229D01*
X77325468Y48691393D01*
X77449607Y48815532D01*
X77541771Y48964953D01*
X77596992Y49131601D01*
X77607500Y49234454D01*
X77607500Y50333546D01*
X77596992Y50436399D01*
X77541771Y50603047D01*
X77449607Y50752468D01*
X77325468Y50876607D01*
X77176047Y50968771D01*
X77176044Y50968772D01*
X77020574Y51020290D01*
X76963129Y51060063D01*
X76936306Y51124579D01*
X76948621Y51193355D01*
X76988452Y51239569D01*
X77163877Y51362402D01*
X77318598Y51517123D01*
X77444102Y51696361D01*
X77536575Y51894670D01*
X77593207Y52106023D01*
X77612277Y52324000D01*
X77610195Y52347793D01*
X77608569Y52366382D01*
X77593207Y52541977D01*
X77542061Y52732856D01*
X77536577Y52753323D01*
X77536576Y52753324D01*
X77536575Y52753330D01*
X77444102Y52951638D01*
X77444100Y52951641D01*
X77444099Y52951643D01*
X77318599Y53130876D01*
X77274363Y53175112D01*
X77163877Y53285598D01*
X77025978Y53382156D01*
X76984638Y53411103D01*
X76833416Y53481619D01*
X76780977Y53527792D01*
X76761825Y53594985D01*
X76782041Y53661866D01*
X76833414Y53706381D01*
X76984639Y53776898D01*
X77163877Y53902402D01*
X77318598Y54057123D01*
X77444102Y54236361D01*
X77536575Y54434670D01*
X77593207Y54646023D01*
X77612277Y54864000D01*
X77610195Y54887793D01*
X77603320Y54966382D01*
X77593207Y55081977D01*
X77536575Y55293330D01*
X77444102Y55491638D01*
X77444100Y55491641D01*
X77444099Y55491643D01*
X77318599Y55670876D01*
X77294797Y55694678D01*
X77163877Y55825598D01*
X76984639Y55951102D01*
X76984640Y55951102D01*
X76984638Y55951103D01*
X76832824Y56021895D01*
X76780385Y56068068D01*
X76761233Y56135261D01*
X76781449Y56202142D01*
X76832825Y56246659D01*
X76984384Y56317332D01*
X76984386Y56317333D01*
X77046572Y56360876D01*
X76445232Y56962216D01*
X76491138Y56969135D01*
X76613357Y57027993D01*
X76712798Y57120260D01*
X76780625Y57237740D01*
X76798499Y57316053D01*
X77400124Y56714428D01*
X77443666Y56776613D01*
X77536101Y56974841D01*
X77536105Y56974850D01*
X77592710Y57186106D01*
X77592712Y57186116D01*
X77611775Y57404000D01*
X77611775Y57404001D01*
X77592712Y57621885D01*
X77592710Y57621895D01*
X77536105Y57833151D01*
X77536101Y57833160D01*
X77443668Y58031385D01*
X77400123Y58093572D01*
X76801449Y57494899D01*
X76800673Y57505265D01*
X76751113Y57631541D01*
X76666535Y57737599D01*
X76554453Y57814016D01*
X76446699Y57847254D01*
X77046572Y58447126D01*
X77046571Y58447127D01*
X76984391Y58490665D01*
X76786159Y58583102D01*
X76786150Y58583106D01*
X76574894Y58639711D01*
X76574884Y58639713D01*
X76357001Y58658775D01*
X76356999Y58658775D01*
X76139115Y58639713D01*
X76139105Y58639711D01*
X75927849Y58583106D01*
X75927840Y58583102D01*
X75729614Y58490668D01*
X75729612Y58490667D01*
X75667428Y58447125D01*
X75667427Y58447124D01*
X76268766Y57845785D01*
X76222862Y57838865D01*
X76100643Y57780007D01*
X76001202Y57687740D01*
X75933375Y57570260D01*
X75915500Y57491948D01*
X75313875Y58093573D01*
X75313875Y58093572D01*
X75270333Y58031388D01*
X75270332Y58031386D01*
X75177898Y57833160D01*
X75177894Y57833151D01*
X75121289Y57621895D01*
X75121287Y57621885D01*
X75102225Y57404001D01*
X75102225Y57404000D01*
X75121287Y57186116D01*
X75121289Y57186106D01*
X75177894Y56974850D01*
X75177898Y56974841D01*
X75270335Y56776609D01*
X75313873Y56714429D01*
X75313875Y56714428D01*
X75912550Y57313104D01*
X75913327Y57302735D01*
X75962887Y57176459D01*
X76047465Y57070401D01*
X76159547Y56993984D01*
X76267299Y56960747D01*
X75667426Y56360876D01*
X75729611Y56317334D01*
X75729617Y56317331D01*
X75881174Y56246659D01*
X75933614Y56200487D01*
X75952766Y56133294D01*
X75932551Y56066412D01*
X75881176Y56021895D01*
X75729358Y55951100D01*
X75729357Y55951100D01*
X75550121Y55825598D01*
X75395402Y55670879D01*
X75269900Y55491643D01*
X75269898Y55491639D01*
X75177426Y55293332D01*
X75177422Y55293323D01*
X75120793Y55081980D01*
X75120793Y55081976D01*
X75101723Y54864003D01*
X75101723Y54863998D01*
X75120793Y54646025D01*
X75120793Y54646021D01*
X75177422Y54434678D01*
X75177424Y54434674D01*
X75177425Y54434670D01*
X75223661Y54335516D01*
X75269897Y54236362D01*
X75287209Y54211638D01*
X75395402Y54057123D01*
X75550123Y53902402D01*
X75693545Y53801977D01*
X75729361Y53776898D01*
X75880583Y53706382D01*
X75933022Y53660210D01*
X75952174Y53593016D01*
X75931958Y53526135D01*
X75880583Y53481618D01*
X75729361Y53411102D01*
X75729357Y53411100D01*
X75550121Y53285598D01*
X75395402Y53130879D01*
X75269900Y52951643D01*
X75269898Y52951639D01*
X75177426Y52753332D01*
X75177422Y52753323D01*
X75120793Y52541980D01*
X75120793Y52541976D01*
X75101723Y52324003D01*
X75101723Y52323998D01*
X75120793Y52106025D01*
X75120793Y52106021D01*
X75177422Y51894678D01*
X75177424Y51894674D01*
X75177425Y51894670D01*
X75223661Y51795516D01*
X75269897Y51696362D01*
X75269898Y51696361D01*
X75395402Y51517123D01*
X75550123Y51362402D01*
X75725546Y51239569D01*
X75769169Y51184994D01*
X75776362Y51115495D01*
X75744840Y51053141D01*
X75693426Y51020290D01*
X75537953Y50968771D01*
X75537950Y50968770D01*
X75388533Y50876608D01*
X75266257Y50754332D01*
X75204934Y50720848D01*
X75135242Y50725832D01*
X75079309Y50767704D01*
X75054892Y50833168D01*
X75055048Y50852822D01*
X75071775Y51044000D01*
X75071775Y51044001D01*
X75052712Y51261885D01*
X75052710Y51261895D01*
X74996105Y51473151D01*
X74996101Y51473160D01*
X74903668Y51671385D01*
X74860123Y51733573D01*
X74261449Y51134899D01*
X74260673Y51145265D01*
X74211113Y51271541D01*
X74126535Y51377599D01*
X74014453Y51454016D01*
X73906700Y51487253D01*
X74506572Y52087125D01*
X74506571Y52087127D01*
X74444391Y52130665D01*
X74292824Y52201342D01*
X74240385Y52247514D01*
X74221233Y52314708D01*
X74241449Y52381589D01*
X74292822Y52426105D01*
X74444639Y52496898D01*
X74623877Y52622402D01*
X74778598Y52777123D01*
X74904102Y52956361D01*
X74996575Y53154670D01*
X75053207Y53366023D01*
X75072277Y53584000D01*
X75053207Y53801977D01*
X75010253Y53962284D01*
X74996577Y54013323D01*
X74996576Y54013324D01*
X74996575Y54013330D01*
X74904102Y54211638D01*
X74904100Y54211641D01*
X74904099Y54211643D01*
X74778599Y54390876D01*
X74714330Y54455145D01*
X74623877Y54545598D01*
X74444639Y54671102D01*
X74293414Y54741619D01*
X74240977Y54787790D01*
X74221825Y54854984D01*
X74242041Y54921865D01*
X74293414Y54966382D01*
X74444639Y55036898D01*
X74623877Y55162402D01*
X74778598Y55317123D01*
X74904102Y55496361D01*
X74996575Y55694670D01*
X75053207Y55906023D01*
X75070894Y56108192D01*
X75072277Y56123998D01*
X75072277Y56124003D01*
X75065585Y56200487D01*
X75053207Y56341977D01*
X74996575Y56553330D01*
X74904102Y56751638D01*
X74904100Y56751641D01*
X74904099Y56751643D01*
X74778599Y56930876D01*
X74715491Y56993984D01*
X74623877Y57085598D01*
X74444639Y57211102D01*
X74444640Y57211102D01*
X74444638Y57211103D01*
X74292824Y57281895D01*
X74240385Y57328068D01*
X74221233Y57395261D01*
X74241449Y57462142D01*
X74292825Y57506659D01*
X74444384Y57577332D01*
X74444386Y57577333D01*
X74506572Y57620876D01*
X73905232Y58222216D01*
X73951138Y58229135D01*
X74073357Y58287993D01*
X74172798Y58380260D01*
X74240625Y58497740D01*
X74258499Y58576053D01*
X74860124Y57974428D01*
X74903666Y58036613D01*
X74996101Y58234841D01*
X74996105Y58234850D01*
X75052710Y58446106D01*
X75052712Y58446116D01*
X75071775Y58664000D01*
X75071775Y58664001D01*
X75052712Y58881885D01*
X75052710Y58881895D01*
X74996105Y59093151D01*
X74996101Y59093160D01*
X74903668Y59291385D01*
X74860123Y59353573D01*
X74261449Y58754899D01*
X74260673Y58765265D01*
X74211113Y58891541D01*
X74126535Y58997599D01*
X74014453Y59074016D01*
X73906698Y59107254D01*
X74506572Y59707126D01*
X74506571Y59707127D01*
X74444391Y59750665D01*
X74246159Y59843102D01*
X74246150Y59843106D01*
X74122502Y59876237D01*
X80852787Y59876237D01*
X80882413Y59606987D01*
X80882415Y59606976D01*
X80948664Y59353572D01*
X80950928Y59344912D01*
X81056870Y59095610D01*
X81171871Y58907175D01*
X81197979Y58864395D01*
X81197986Y58864385D01*
X81371253Y58656181D01*
X81371259Y58656176D01*
X81452815Y58583102D01*
X81572998Y58475418D01*
X81798910Y58325956D01*
X82044176Y58210980D01*
X82044183Y58210978D01*
X82044185Y58210977D01*
X82303557Y58132943D01*
X82303564Y58132942D01*
X82303569Y58132940D01*
X82571561Y58093500D01*
X82571566Y58093500D01*
X82774629Y58093500D01*
X82774631Y58093500D01*
X82774636Y58093501D01*
X82774648Y58093501D01*
X82812191Y58096250D01*
X82977156Y58108323D01*
X83089758Y58133407D01*
X83241546Y58167218D01*
X83241548Y58167219D01*
X83241553Y58167220D01*
X83494558Y58263986D01*
X83730777Y58396559D01*
X83945177Y58562112D01*
X84133186Y58757119D01*
X84290799Y58977421D01*
X84407369Y59204151D01*
X84414649Y59218310D01*
X84414651Y59218316D01*
X84414656Y59218325D01*
X84502118Y59474695D01*
X84551319Y59741067D01*
X84561212Y60011765D01*
X84531586Y60281018D01*
X84463072Y60543088D01*
X84357130Y60792390D01*
X84216018Y61023610D01*
X84126747Y61130881D01*
X84042746Y61231820D01*
X84042740Y61231825D01*
X83841002Y61412582D01*
X83615092Y61562043D01*
X83615090Y61562044D01*
X83369824Y61677020D01*
X83369819Y61677022D01*
X83369814Y61677024D01*
X83110442Y61755058D01*
X83110428Y61755061D01*
X82994791Y61772079D01*
X82842439Y61794500D01*
X82639369Y61794500D01*
X82639351Y61794500D01*
X82436844Y61779677D01*
X82436831Y61779675D01*
X82172453Y61720783D01*
X82172446Y61720780D01*
X81919439Y61624013D01*
X81683226Y61491443D01*
X81468822Y61325888D01*
X81280822Y61130891D01*
X81280816Y61130884D01*
X81123202Y60910581D01*
X81123199Y60910576D01*
X80999350Y60669691D01*
X80999343Y60669673D01*
X80911884Y60413315D01*
X80911881Y60413301D01*
X80862681Y60146932D01*
X80862680Y60146925D01*
X80852787Y59876237D01*
X74122502Y59876237D01*
X74034894Y59899711D01*
X74034884Y59899713D01*
X73817001Y59918775D01*
X73816999Y59918775D01*
X73599115Y59899713D01*
X73599105Y59899711D01*
X73387849Y59843106D01*
X73387840Y59843102D01*
X73189614Y59750668D01*
X73189612Y59750667D01*
X73127428Y59707125D01*
X73127427Y59707125D01*
X73728767Y59105785D01*
X73682862Y59098865D01*
X73560643Y59040007D01*
X73461202Y58947740D01*
X73393375Y58830260D01*
X73375500Y58751947D01*
X72773875Y59353573D01*
X72773875Y59353572D01*
X72730333Y59291388D01*
X72730332Y59291386D01*
X72637898Y59093160D01*
X72637894Y59093151D01*
X72581289Y58881895D01*
X72581287Y58881885D01*
X72562225Y58664001D01*
X72562225Y58664000D01*
X72581287Y58446116D01*
X72581289Y58446106D01*
X72637894Y58234850D01*
X72637898Y58234841D01*
X72730335Y58036609D01*
X72773873Y57974429D01*
X72773875Y57974428D01*
X73372550Y58573104D01*
X73373327Y58562735D01*
X73422887Y58436459D01*
X73507465Y58330401D01*
X73619547Y58253984D01*
X73727299Y58220747D01*
X73127426Y57620876D01*
X73189611Y57577334D01*
X73189617Y57577331D01*
X73341174Y57506659D01*
X73393614Y57460487D01*
X73412766Y57393294D01*
X73392551Y57326412D01*
X73341176Y57281895D01*
X73189358Y57211100D01*
X73189357Y57211100D01*
X73010121Y57085598D01*
X72855402Y56930879D01*
X72729900Y56751643D01*
X72729898Y56751639D01*
X72637426Y56553332D01*
X72637422Y56553323D01*
X72580793Y56341980D01*
X72580793Y56341976D01*
X72561723Y56124003D01*
X72561723Y56123998D01*
X72580793Y55906025D01*
X72580793Y55906021D01*
X72637422Y55694678D01*
X72637424Y55694674D01*
X72637425Y55694670D01*
X72680639Y55601997D01*
X72729897Y55496362D01*
X72733204Y55491639D01*
X72855402Y55317123D01*
X73010123Y55162402D01*
X73189361Y55036899D01*
X73189361Y55036898D01*
X73340583Y54966382D01*
X73393022Y54920210D01*
X73412174Y54853016D01*
X73391958Y54786135D01*
X73340583Y54741618D01*
X73189361Y54671102D01*
X73189357Y54671100D01*
X73010121Y54545598D01*
X72855402Y54390879D01*
X72729900Y54211643D01*
X72729898Y54211639D01*
X72637426Y54013332D01*
X72637422Y54013323D01*
X72580793Y53801980D01*
X72580793Y53801976D01*
X72561723Y53584003D01*
X72561723Y53583998D01*
X68722409Y53583998D01*
X68723460Y53594000D01*
X68703674Y53782256D01*
X68645179Y53962284D01*
X68550533Y54126216D01*
X68423871Y54266888D01*
X68423870Y54266889D01*
X68270734Y54378149D01*
X68270729Y54378152D01*
X68097807Y54455143D01*
X68097802Y54455145D01*
X67952001Y54486135D01*
X67912646Y54494500D01*
X67723354Y54494500D01*
X67690897Y54487602D01*
X67538197Y54455145D01*
X67538192Y54455143D01*
X67365270Y54378152D01*
X67365265Y54378149D01*
X67212129Y54266889D01*
X67085466Y54126215D01*
X66990821Y53962285D01*
X66990818Y53962278D01*
X66938733Y53801976D01*
X66932326Y53782256D01*
X66912540Y53594000D01*
X62845500Y53594000D01*
X62845500Y54920155D01*
X62830377Y55088188D01*
X62773761Y55293330D01*
X62770496Y55305161D01*
X62770491Y55305174D01*
X62672832Y55507967D01*
X62672828Y55507975D01*
X62540526Y55690073D01*
X62540525Y55690075D01*
X62377823Y55845634D01*
X62189966Y55969637D01*
X61982995Y56058101D01*
X61982982Y56058105D01*
X61763542Y56108190D01*
X61763538Y56108191D01*
X61763537Y56108191D01*
X61763536Y56108192D01*
X61763531Y56108192D01*
X61538674Y56118290D01*
X61538673Y56118290D01*
X61538670Y56118290D01*
X61315613Y56088075D01*
X61315610Y56088075D01*
X61315609Y56088074D01*
X61101534Y56018517D01*
X60903321Y55911854D01*
X60903318Y55911852D01*
X60727336Y55771511D01*
X60579236Y55601997D01*
X60463787Y55408768D01*
X60463786Y55408766D01*
X60384692Y55198024D01*
X60344500Y54976550D01*
X60344500Y44003336D01*
X60324815Y43936297D01*
X60308181Y43915655D01*
X59335345Y42942819D01*
X59274022Y42909334D01*
X59247664Y42906500D01*
X51889707Y42906500D01*
X51882768Y42906890D01*
X51859477Y42909514D01*
X51844176Y42911238D01*
X51844169Y42911239D01*
X51798687Y42908172D01*
X51775962Y42906640D01*
X51771809Y42906500D01*
X51759837Y42906500D01*
X51718593Y42902789D01*
X51717209Y42902680D01*
X51619588Y42896098D01*
X51619581Y42896097D01*
X51615327Y42895025D01*
X51596174Y42891770D01*
X51591811Y42891377D01*
X51591802Y42891376D01*
X51497543Y42865361D01*
X51496198Y42865006D01*
X51401318Y42841097D01*
X51397322Y42839282D01*
X51379059Y42832661D01*
X51374838Y42831496D01*
X51374821Y42831490D01*
X51286663Y42789036D01*
X51285405Y42788447D01*
X51196374Y42748008D01*
X51192772Y42745512D01*
X51175980Y42735733D01*
X51172029Y42733830D01*
X51172020Y42733825D01*
X51092849Y42676304D01*
X51091714Y42675499D01*
X51011345Y42619820D01*
X51008239Y42616714D01*
X50993465Y42604097D01*
X50989928Y42601527D01*
X50989921Y42601522D01*
X50922323Y42530821D01*
X50921351Y42529826D01*
X44125885Y35734361D01*
X44120699Y35729726D01*
X44090337Y35705512D01*
X44090333Y35705508D01*
X44045365Y35654040D01*
X44042521Y35650997D01*
X44034064Y35642539D01*
X44034051Y35642525D01*
X44007483Y35610703D01*
X44006581Y35609647D01*
X43942234Y35535996D01*
X43942230Y35535990D01*
X43939981Y35532226D01*
X43928746Y35516392D01*
X43925932Y35513021D01*
X43877635Y35427905D01*
X43876957Y35426742D01*
X43847724Y35377812D01*
X43826781Y35342758D01*
X43825247Y35338668D01*
X43817008Y35321055D01*
X43814850Y35317253D01*
X43814847Y35317246D01*
X43782532Y35224900D01*
X43782059Y35223593D01*
X43747692Y35132021D01*
X43747689Y35132012D01*
X43746909Y35127712D01*
X43741952Y35108931D01*
X43740503Y35104791D01*
X43740502Y35104784D01*
X43725195Y35008148D01*
X43724962Y35006777D01*
X43707500Y34910553D01*
X43707500Y34906173D01*
X43705973Y34886771D01*
X43705289Y34882460D01*
X43707484Y34784666D01*
X43707500Y34783275D01*
X43707500Y9713336D01*
X43687815Y9646297D01*
X43671181Y9625655D01*
X41014681Y6969155D01*
X40953358Y6935670D01*
X40883666Y6940654D01*
X40839319Y6969155D01*
X31406356Y16402118D01*
X31401719Y16407307D01*
X31377507Y16437668D01*
X31326031Y16482641D01*
X31322997Y16485477D01*
X31314529Y16493945D01*
X31282711Y16520508D01*
X31281663Y16521404D01*
X31208003Y16585760D01*
X31207997Y16585764D01*
X31207996Y16585765D01*
X31204241Y16588009D01*
X31188373Y16599268D01*
X31185019Y16602068D01*
X31185018Y16602069D01*
X31185013Y16602073D01*
X31099943Y16650342D01*
X31098741Y16651042D01*
X31014763Y16701216D01*
X31010669Y16702752D01*
X30993044Y16710998D01*
X30989245Y16713154D01*
X30923341Y16736215D01*
X30896881Y16745474D01*
X30895604Y16745937D01*
X30804030Y16780306D01*
X30804019Y16780309D01*
X30799723Y16781088D01*
X30780918Y16786051D01*
X30776784Y16787498D01*
X30776777Y16787500D01*
X30680161Y16802802D01*
X30678789Y16803035D01*
X30582550Y16820500D01*
X30582547Y16820500D01*
X30578172Y16820500D01*
X30558769Y16822028D01*
X30554460Y16822711D01*
X30456664Y16820516D01*
X30455273Y16820500D01*
X22769336Y16820500D01*
X22702297Y16840185D01*
X22681655Y16856819D01*
X20336819Y19201655D01*
X20303334Y19262978D01*
X20300500Y19289336D01*
X20300500Y30076294D01*
X20300889Y30083233D01*
X20305238Y30121827D01*
X20300639Y30190033D01*
X20300500Y30194188D01*
X20300500Y49540000D01*
X23636073Y49540000D01*
X23656668Y49304597D01*
X23656670Y49304587D01*
X23717826Y49076345D01*
X23717828Y49076341D01*
X23717829Y49076337D01*
X23797736Y48904977D01*
X23817697Y48862170D01*
X23817699Y48862166D01*
X23926013Y48707479D01*
X23953237Y48668599D01*
X24120331Y48501505D01*
X24196867Y48447914D01*
X24313897Y48365968D01*
X24313899Y48365967D01*
X24313902Y48365965D01*
X24528069Y48266097D01*
X24756324Y48204937D01*
X24927051Y48190000D01*
X24991731Y48184341D01*
X24991732Y48184341D01*
X24991733Y48184341D01*
X25056413Y48190000D01*
X25227140Y48204937D01*
X25455395Y48266097D01*
X25669562Y48365965D01*
X25863133Y48501505D01*
X26030227Y48668599D01*
X26160156Y48854158D01*
X26214734Y48897783D01*
X26284232Y48904977D01*
X26346587Y48873454D01*
X26363307Y48854158D01*
X26493232Y48668605D01*
X26493237Y48668599D01*
X26660331Y48501505D01*
X26736867Y48447914D01*
X26853897Y48365968D01*
X26853899Y48365967D01*
X26853902Y48365965D01*
X27068069Y48266097D01*
X27296324Y48204937D01*
X27467051Y48190000D01*
X27531731Y48184341D01*
X27531732Y48184341D01*
X27531733Y48184341D01*
X27596413Y48190000D01*
X27767140Y48204937D01*
X27995395Y48266097D01*
X28209562Y48365965D01*
X28403133Y48501505D01*
X28570227Y48668599D01*
X28700156Y48854158D01*
X28754734Y48897783D01*
X28824232Y48904977D01*
X28886587Y48873454D01*
X28903307Y48854158D01*
X29033232Y48668605D01*
X29033237Y48668599D01*
X29200331Y48501505D01*
X29276867Y48447914D01*
X29393897Y48365968D01*
X29393899Y48365967D01*
X29393902Y48365965D01*
X29608069Y48266097D01*
X29836324Y48204937D01*
X30007051Y48190000D01*
X30071731Y48184341D01*
X30071732Y48184341D01*
X30071733Y48184341D01*
X30136413Y48190000D01*
X30307140Y48204937D01*
X30535395Y48266097D01*
X30749562Y48365965D01*
X30943133Y48501505D01*
X31065449Y48623822D01*
X31126768Y48657304D01*
X31196460Y48652320D01*
X31252394Y48610449D01*
X31269309Y48579472D01*
X31318378Y48447912D01*
X31318381Y48447907D01*
X31404541Y48332813D01*
X31404544Y48332810D01*
X31519638Y48246650D01*
X31519645Y48246646D01*
X31654352Y48196404D01*
X31654359Y48196402D01*
X31713887Y48190001D01*
X31713904Y48190000D01*
X32361732Y48190000D01*
X32361732Y49104499D01*
X32469417Y49055320D01*
X32575969Y49040000D01*
X32647495Y49040000D01*
X32754047Y49055320D01*
X32861732Y49104499D01*
X32861732Y48190000D01*
X33509560Y48190000D01*
X33509576Y48190001D01*
X33569104Y48196402D01*
X33569111Y48196404D01*
X33703818Y48246646D01*
X33703825Y48246650D01*
X33818919Y48332810D01*
X33818922Y48332813D01*
X33905082Y48447907D01*
X33905086Y48447914D01*
X33955328Y48582621D01*
X33955330Y48582628D01*
X33961731Y48642156D01*
X33961732Y48642173D01*
X33961732Y49290000D01*
X33045418Y49290000D01*
X33071225Y49330156D01*
X33111732Y49468111D01*
X33111732Y49611889D01*
X33071225Y49749844D01*
X33045418Y49790000D01*
X33961732Y49790000D01*
X33961732Y50437828D01*
X33961731Y50437845D01*
X33955330Y50497373D01*
X33955328Y50497380D01*
X33905086Y50632087D01*
X33905082Y50632094D01*
X33818922Y50747188D01*
X33818919Y50747191D01*
X33703825Y50833351D01*
X33703818Y50833355D01*
X33569111Y50883597D01*
X33569104Y50883599D01*
X33509576Y50890000D01*
X32861732Y50890000D01*
X32861732Y49975502D01*
X32754047Y50024680D01*
X32647495Y50040000D01*
X32575969Y50040000D01*
X32469417Y50024680D01*
X32361732Y49975502D01*
X32361732Y50890000D01*
X31713887Y50890000D01*
X31654359Y50883599D01*
X31654352Y50883597D01*
X31519645Y50833355D01*
X31519638Y50833351D01*
X31404544Y50747191D01*
X31404541Y50747188D01*
X31318381Y50632094D01*
X31318377Y50632087D01*
X31269310Y50500530D01*
X31227439Y50444596D01*
X31161974Y50420179D01*
X31093701Y50435031D01*
X31065447Y50456181D01*
X31021098Y50500530D01*
X30943133Y50578495D01*
X30943129Y50578498D01*
X30943128Y50578499D01*
X30749566Y50714033D01*
X30749562Y50714035D01*
X30749562Y50714036D01*
X30535395Y50813903D01*
X30535391Y50813904D01*
X30535387Y50813906D01*
X30307145Y50875062D01*
X30307135Y50875064D01*
X30071733Y50895659D01*
X30071731Y50895659D01*
X29836328Y50875064D01*
X29836318Y50875062D01*
X29608076Y50813906D01*
X29608067Y50813902D01*
X29393903Y50714036D01*
X29393901Y50714035D01*
X29200329Y50578495D01*
X29033237Y50411403D01*
X28903307Y50225842D01*
X28848730Y50182217D01*
X28779232Y50175023D01*
X28716877Y50206546D01*
X28700157Y50225842D01*
X28570226Y50411403D01*
X28403134Y50578494D01*
X28403127Y50578499D01*
X28380989Y50594000D01*
X28275317Y50667993D01*
X28209566Y50714033D01*
X28209562Y50714035D01*
X28209560Y50714036D01*
X27995395Y50813903D01*
X27995391Y50813904D01*
X27995387Y50813906D01*
X27767145Y50875062D01*
X27767135Y50875064D01*
X27531733Y50895659D01*
X27531731Y50895659D01*
X27296328Y50875064D01*
X27296318Y50875062D01*
X27068076Y50813906D01*
X27068067Y50813902D01*
X26853903Y50714036D01*
X26853901Y50714035D01*
X26660329Y50578495D01*
X26493237Y50411403D01*
X26363307Y50225842D01*
X26308730Y50182217D01*
X26239232Y50175023D01*
X26176877Y50206546D01*
X26160157Y50225842D01*
X26030226Y50411403D01*
X25863134Y50578494D01*
X25863127Y50578499D01*
X25840989Y50594000D01*
X25735317Y50667993D01*
X25669566Y50714033D01*
X25669562Y50714035D01*
X25669560Y50714036D01*
X25455395Y50813903D01*
X25455391Y50813904D01*
X25455387Y50813906D01*
X25227145Y50875062D01*
X25227135Y50875064D01*
X24991733Y50895659D01*
X24991731Y50895659D01*
X24756328Y50875064D01*
X24756318Y50875062D01*
X24528076Y50813906D01*
X24528067Y50813902D01*
X24313903Y50714036D01*
X24313901Y50714035D01*
X24120329Y50578495D01*
X23953237Y50411403D01*
X23817697Y50217831D01*
X23817696Y50217829D01*
X23717830Y50003665D01*
X23717826Y50003656D01*
X23656670Y49775414D01*
X23656668Y49775404D01*
X23636073Y49540001D01*
X23636073Y49540000D01*
X20300500Y49540000D01*
X20300500Y53012294D01*
X20300889Y53019233D01*
X20305238Y53057827D01*
X20304971Y53061784D01*
X20303518Y53083328D01*
X20300639Y53126038D01*
X20300500Y53130193D01*
X20300500Y53848000D01*
X53450540Y53848000D01*
X53470326Y53659744D01*
X53470327Y53659741D01*
X53528818Y53479723D01*
X53528821Y53479716D01*
X53623467Y53315784D01*
X53688399Y53243670D01*
X53750129Y53175112D01*
X53903265Y53063852D01*
X53903270Y53063849D01*
X54076192Y52986858D01*
X54076197Y52986856D01*
X54261354Y52947500D01*
X54261355Y52947500D01*
X54450644Y52947500D01*
X54450646Y52947500D01*
X54635803Y52986856D01*
X54808730Y53063849D01*
X54961871Y53175112D01*
X55088533Y53315784D01*
X55183179Y53479716D01*
X55241674Y53659744D01*
X55261460Y53848000D01*
X55241674Y54036256D01*
X55183179Y54216284D01*
X55088533Y54380216D01*
X54961871Y54520888D01*
X54941929Y54535377D01*
X54808734Y54632149D01*
X54808729Y54632152D01*
X54635807Y54709143D01*
X54635802Y54709145D01*
X54490001Y54740135D01*
X54450646Y54748500D01*
X54261354Y54748500D01*
X54228976Y54741618D01*
X54076197Y54709145D01*
X54076192Y54709143D01*
X53903270Y54632152D01*
X53903265Y54632149D01*
X53750129Y54520889D01*
X53623466Y54380215D01*
X53528821Y54216285D01*
X53528818Y54216278D01*
X53470327Y54036260D01*
X53470326Y54036256D01*
X53450540Y53848000D01*
X20300500Y53848000D01*
X20300500Y58039000D01*
X36051540Y58039000D01*
X36071326Y57850744D01*
X36071327Y57850741D01*
X36129818Y57670723D01*
X36129821Y57670716D01*
X36224467Y57506784D01*
X36324883Y57395261D01*
X36351129Y57366112D01*
X36504265Y57254852D01*
X36504270Y57254849D01*
X36677192Y57177858D01*
X36677197Y57177856D01*
X36862354Y57138500D01*
X36862355Y57138500D01*
X37051644Y57138500D01*
X37051646Y57138500D01*
X37236803Y57177856D01*
X37409730Y57254849D01*
X37562871Y57366112D01*
X37689533Y57506784D01*
X37784179Y57670716D01*
X37842674Y57850744D01*
X37862460Y58039000D01*
X37842674Y58227256D01*
X37784179Y58407284D01*
X37776837Y58420000D01*
X41258540Y58420000D01*
X41278326Y58231744D01*
X41278327Y58231741D01*
X41336818Y58051723D01*
X41336821Y58051716D01*
X41431467Y57887784D01*
X41528510Y57780007D01*
X41558129Y57747112D01*
X41711265Y57635852D01*
X41711270Y57635849D01*
X41884192Y57558858D01*
X41884197Y57558856D01*
X42069354Y57519500D01*
X42069355Y57519500D01*
X42258644Y57519500D01*
X42258646Y57519500D01*
X42443803Y57558856D01*
X42616730Y57635849D01*
X42769871Y57747112D01*
X42896533Y57887784D01*
X42991179Y58051716D01*
X43049674Y58231744D01*
X43069460Y58420000D01*
X43049674Y58608256D01*
X42991179Y58788284D01*
X42896533Y58952216D01*
X42769871Y59092888D01*
X42766920Y59095032D01*
X42616734Y59204149D01*
X42616729Y59204152D01*
X42443807Y59281143D01*
X42443802Y59281145D01*
X42298000Y59312135D01*
X42258646Y59320500D01*
X42069354Y59320500D01*
X42036897Y59313602D01*
X41884197Y59281145D01*
X41884192Y59281143D01*
X41711270Y59204152D01*
X41711265Y59204149D01*
X41558129Y59092889D01*
X41431466Y58952215D01*
X41336821Y58788285D01*
X41336818Y58788278D01*
X41293896Y58656176D01*
X41278326Y58608256D01*
X41258540Y58420000D01*
X37776837Y58420000D01*
X37689533Y58571216D01*
X37562871Y58711888D01*
X37562870Y58711889D01*
X37409734Y58823149D01*
X37409729Y58823152D01*
X37236807Y58900143D01*
X37236802Y58900145D01*
X37091001Y58931135D01*
X37051646Y58939500D01*
X36862354Y58939500D01*
X36829897Y58932602D01*
X36677197Y58900145D01*
X36677192Y58900143D01*
X36504270Y58823152D01*
X36504265Y58823149D01*
X36351129Y58711889D01*
X36224466Y58571215D01*
X36129821Y58407285D01*
X36129818Y58407278D01*
X36071327Y58227260D01*
X36071326Y58227256D01*
X36051540Y58039000D01*
X20300500Y58039000D01*
X20300500Y58315500D01*
X20320185Y58382539D01*
X20372989Y58428294D01*
X20424500Y58439500D01*
X25669755Y58439500D01*
X25669762Y58439500D01*
X25837795Y58454623D01*
X25837799Y58454624D01*
X26054767Y58514504D01*
X26054769Y58514505D01*
X26054777Y58514507D01*
X26257580Y58612171D01*
X26439685Y58744478D01*
X26595239Y58907175D01*
X26719242Y59095032D01*
X26719490Y59095611D01*
X26807707Y59302005D01*
X26807706Y59302005D01*
X26807710Y59302012D01*
X26857798Y59521463D01*
X26867897Y59746330D01*
X26837682Y59969387D01*
X26768124Y60183464D01*
X26661459Y60381681D01*
X26521115Y60557666D01*
X26351603Y60705765D01*
X26158371Y60821215D01*
X26014806Y60875096D01*
X25947630Y60900308D01*
X25726157Y60940500D01*
X25726154Y60940500D01*
X22464547Y60940500D01*
X19808697Y60940500D01*
X19801758Y60940890D01*
X19774907Y60943915D01*
X19763174Y60945237D01*
X19763168Y60945238D01*
X19717704Y60942172D01*
X19694976Y60940640D01*
X19690823Y60940500D01*
X19678836Y60940500D01*
X19637547Y60936785D01*
X19636163Y60936676D01*
X19538589Y60930097D01*
X19534348Y60929028D01*
X19515175Y60925770D01*
X19510812Y60925378D01*
X19510810Y60925377D01*
X19416482Y60899345D01*
X19415139Y60898991D01*
X19320313Y60875096D01*
X19320312Y60875096D01*
X19316319Y60873282D01*
X19298059Y60866662D01*
X19293850Y60865500D01*
X19293822Y60865490D01*
X19205697Y60823052D01*
X19204439Y60822464D01*
X19115375Y60782009D01*
X19111775Y60779514D01*
X19094971Y60769729D01*
X19091031Y60767832D01*
X19091029Y60767831D01*
X19011898Y60710341D01*
X19010766Y60709538D01*
X18930345Y60653820D01*
X18927239Y60650714D01*
X18912465Y60638097D01*
X18908928Y60635527D01*
X18908921Y60635522D01*
X18841323Y60564821D01*
X18840351Y60563826D01*
X18217885Y59941361D01*
X18212699Y59936726D01*
X18182337Y59912512D01*
X18182333Y59912508D01*
X18137365Y59861040D01*
X18134521Y59857997D01*
X18126064Y59849539D01*
X18126051Y59849525D01*
X18099483Y59817703D01*
X18098581Y59816647D01*
X18034234Y59742996D01*
X18034230Y59742990D01*
X18031981Y59739226D01*
X18020746Y59723392D01*
X18017932Y59720021D01*
X17969635Y59634905D01*
X17968957Y59633742D01*
X17952973Y59606987D01*
X17918781Y59549758D01*
X17917247Y59545668D01*
X17909008Y59528055D01*
X17906850Y59524253D01*
X17906847Y59524246D01*
X17874532Y59431900D01*
X17874059Y59430593D01*
X17839692Y59339021D01*
X17839689Y59339012D01*
X17838909Y59334712D01*
X17833952Y59315931D01*
X17832503Y59311791D01*
X17832502Y59311784D01*
X17817195Y59215148D01*
X17816962Y59213777D01*
X17799500Y59117553D01*
X17799500Y59113173D01*
X17797973Y59093771D01*
X17797289Y59089460D01*
X17799484Y58991666D01*
X17799500Y58990275D01*
X17799500Y54674500D01*
X17779815Y54607461D01*
X17727011Y54561706D01*
X17675500Y54550500D01*
X13288845Y54550500D01*
X13250399Y54547040D01*
X13120813Y54535378D01*
X13120807Y54535377D01*
X12903839Y54475497D01*
X12903826Y54475492D01*
X12701033Y54377833D01*
X12701025Y54377829D01*
X12518927Y54245527D01*
X12518925Y54245526D01*
X12363366Y54082824D01*
X12239363Y53894967D01*
X12150899Y53687996D01*
X12150895Y53687983D01*
X12100810Y53468543D01*
X12100808Y53468532D01*
X12092593Y53285598D01*
X12090710Y53243670D01*
X12120925Y53020613D01*
X12120926Y53020610D01*
X12190483Y52806535D01*
X12297146Y52608322D01*
X12297148Y52608319D01*
X12437489Y52432337D01*
X12437491Y52432336D01*
X12437492Y52432334D01*
X12607004Y52284235D01*
X12800236Y52168785D01*
X13010976Y52089693D01*
X13232450Y52049500D01*
X13232453Y52049500D01*
X17675500Y52049500D01*
X17742539Y52029815D01*
X17788294Y51977011D01*
X17799500Y51925500D01*
X17799500Y31814500D01*
X17779815Y31747461D01*
X17727011Y31701706D01*
X17675500Y31690500D01*
X13288845Y31690500D01*
X13250399Y31687040D01*
X13120813Y31675378D01*
X13120807Y31675377D01*
X12903839Y31615497D01*
X12903826Y31615492D01*
X12701033Y31517833D01*
X12701025Y31517829D01*
X12518927Y31385527D01*
X12518925Y31385526D01*
X12363366Y31222824D01*
X12239363Y31034967D01*
X12150899Y30827996D01*
X12150895Y30827983D01*
X12100810Y30608543D01*
X12100808Y30608532D01*
X12090710Y30383675D01*
X12090710Y30383670D01*
X12120925Y30160613D01*
X12120926Y30160610D01*
X12190483Y29946535D01*
X12297146Y29748322D01*
X12297148Y29748319D01*
X12437489Y29572337D01*
X12437491Y29572336D01*
X12437492Y29572334D01*
X12607004Y29424235D01*
X12800236Y29308785D01*
X12967244Y29246106D01*
X13010976Y29229693D01*
X13232450Y29189500D01*
X13232453Y29189500D01*
X17675500Y29189500D01*
X17742539Y29169815D01*
X17788294Y29117011D01*
X17799500Y29065500D01*
X17799500Y18793707D01*
X17799110Y18786769D01*
X17796792Y18766196D01*
X17794762Y18748177D01*
X17794761Y18748169D01*
X17799359Y18679987D01*
X17799500Y18675814D01*
X17799500Y18663844D01*
X17803215Y18622559D01*
X17803324Y18621173D01*
X17809903Y18523593D01*
X17809903Y18523588D01*
X17810972Y18519348D01*
X17814230Y18500176D01*
X17814623Y18495810D01*
X17840650Y18401505D01*
X17840987Y18400232D01*
X17852701Y18353744D01*
X17864903Y18305319D01*
X17866715Y18301330D01*
X17873340Y18283056D01*
X17874504Y18278838D01*
X17874507Y18278831D01*
X17916959Y18190676D01*
X17917548Y18189416D01*
X17957993Y18100374D01*
X17957994Y18100371D01*
X17960483Y18096779D01*
X17970269Y18079974D01*
X17972166Y18076035D01*
X17972171Y18076027D01*
X18029718Y17996820D01*
X18030438Y17995804D01*
X18046123Y17973165D01*
X18086181Y17915344D01*
X18089273Y17912252D01*
X18101907Y17897461D01*
X18104478Y17893922D01*
X18104482Y17893918D01*
X18175202Y17826303D01*
X18176196Y17825330D01*
X21263642Y14737884D01*
X21268279Y14732696D01*
X21292492Y14702334D01*
X21343967Y14657361D01*
X21347000Y14654526D01*
X21355471Y14646055D01*
X21387278Y14619501D01*
X21388301Y14618628D01*
X21462004Y14554235D01*
X21465753Y14551995D01*
X21481622Y14540736D01*
X21484982Y14537931D01*
X21570129Y14489618D01*
X21571254Y14488962D01*
X21655236Y14438785D01*
X21659326Y14437251D01*
X21676950Y14429005D01*
X21680749Y14426849D01*
X21680751Y14426848D01*
X21680755Y14426846D01*
X21773155Y14394515D01*
X21774394Y14394065D01*
X21865976Y14359693D01*
X21870266Y14358915D01*
X21889094Y14353945D01*
X21893218Y14352502D01*
X21989961Y14337180D01*
X21991168Y14336974D01*
X22061798Y14324156D01*
X22087452Y14319500D01*
X22087453Y14319500D01*
X22091822Y14319500D01*
X22111220Y14317974D01*
X22115541Y14317289D01*
X22213362Y14319484D01*
X22214753Y14319500D01*
X24642453Y14319500D01*
X29900664Y14319500D01*
X29967703Y14299815D01*
X29988345Y14283181D01*
X40021928Y4249598D01*
X40023851Y4247587D01*
X40079906Y4186260D01*
X40079910Y4186256D01*
X40079914Y4186252D01*
X40079917Y4186250D01*
X40079919Y4186248D01*
X40099052Y4171680D01*
X40105340Y4166186D01*
X43773642Y497884D01*
X43778279Y492696D01*
X43802492Y462334D01*
X43853967Y417361D01*
X43857000Y414526D01*
X43865471Y406055D01*
X43897280Y379499D01*
X43898340Y378594D01*
X43972001Y314237D01*
X43975750Y311997D01*
X43991624Y300735D01*
X43994981Y297932D01*
X44075629Y252171D01*
X44080055Y249660D01*
X44081227Y248978D01*
X44086144Y246040D01*
X44111405Y230947D01*
X44158859Y179664D01*
X44171053Y110867D01*
X44144117Y46398D01*
X44086603Y6726D01*
X44047805Y500D01*
X124500Y500D01*
X57461Y20185D01*
X11706Y72989D01*
X500Y124500D01*
X500Y63500000D01*
X42274540Y63500000D01*
X42294326Y63311744D01*
X42294327Y63311741D01*
X42352818Y63131723D01*
X42352821Y63131716D01*
X42447467Y62967784D01*
X42461013Y62952740D01*
X42574129Y62827112D01*
X42727265Y62715852D01*
X42727270Y62715849D01*
X42900192Y62638858D01*
X42900197Y62638856D01*
X43085354Y62599500D01*
X43085355Y62599500D01*
X43274644Y62599500D01*
X43274646Y62599500D01*
X43459803Y62638856D01*
X43632730Y62715849D01*
X43643948Y62723999D01*
X84381891Y62723999D01*
X84402300Y62438638D01*
X84463109Y62159105D01*
X84563091Y61891042D01*
X84700191Y61639962D01*
X84700196Y61639954D01*
X84806882Y61497439D01*
X84806883Y61497438D01*
X85635766Y62326322D01*
X85679316Y62244178D01*
X85799009Y62103265D01*
X85946195Y61991377D01*
X85988402Y61971850D01*
X85160436Y61143885D01*
X85302960Y61037193D01*
X85302961Y61037192D01*
X85554042Y60900092D01*
X85554041Y60900092D01*
X85822104Y60800110D01*
X86101637Y60739301D01*
X86386999Y60718891D01*
X86387001Y60718891D01*
X86672362Y60739301D01*
X86951895Y60800110D01*
X87219958Y60900092D01*
X87471047Y61037197D01*
X87613561Y61143884D01*
X87613562Y61143885D01*
X86785609Y61971839D01*
X86904431Y62043331D01*
X87038658Y62170477D01*
X87141861Y62322692D01*
X87967115Y61497438D01*
X87967116Y61497439D01*
X88073803Y61639953D01*
X88210908Y61891042D01*
X88310890Y62159105D01*
X88371699Y62438638D01*
X88392109Y62723999D01*
X88392109Y62724002D01*
X88371699Y63009363D01*
X88310890Y63288896D01*
X88210908Y63556959D01*
X88073808Y63808039D01*
X88073807Y63808040D01*
X87967115Y63950564D01*
X87138232Y63121682D01*
X87094684Y63203822D01*
X86974991Y63344735D01*
X86827805Y63456623D01*
X86785596Y63476151D01*
X87613562Y64304117D01*
X87613561Y64304118D01*
X87471046Y64410804D01*
X87471038Y64410809D01*
X87219957Y64547909D01*
X87219958Y64547909D01*
X86951895Y64647891D01*
X86672362Y64708700D01*
X86387001Y64729109D01*
X86386999Y64729109D01*
X86101637Y64708700D01*
X85822104Y64647891D01*
X85554041Y64547909D01*
X85302961Y64410809D01*
X85302953Y64410804D01*
X85160437Y64304118D01*
X85160436Y64304117D01*
X85988391Y63476163D01*
X85869569Y63404669D01*
X85735342Y63277523D01*
X85632138Y63125309D01*
X84806883Y63950564D01*
X84806882Y63950564D01*
X84700196Y63808047D01*
X84700191Y63808039D01*
X84563091Y63556959D01*
X84463109Y63288896D01*
X84402300Y63009363D01*
X84381891Y62724002D01*
X84381891Y62723999D01*
X43643948Y62723999D01*
X43785871Y62827112D01*
X43912533Y62967784D01*
X44007179Y63131716D01*
X44065674Y63311744D01*
X44085460Y63500000D01*
X44065674Y63688256D01*
X44007179Y63868284D01*
X43912533Y64032216D01*
X43785871Y64172888D01*
X43785870Y64172889D01*
X43632734Y64284149D01*
X43632729Y64284152D01*
X43459807Y64361143D01*
X43459802Y64361145D01*
X43314001Y64392135D01*
X43274646Y64400500D01*
X43085354Y64400500D01*
X43052897Y64393602D01*
X42900197Y64361145D01*
X42900192Y64361143D01*
X42727270Y64284152D01*
X42727265Y64284149D01*
X42574129Y64172889D01*
X42447466Y64032215D01*
X42352821Y63868285D01*
X42352818Y63868278D01*
X42294327Y63688260D01*
X42294326Y63688256D01*
X42274540Y63500000D01*
X500Y63500000D01*
X500Y68364130D01*
X78609500Y68364130D01*
X78609501Y68364124D01*
X78615908Y68304517D01*
X78666202Y68169672D01*
X78666206Y68169665D01*
X78752452Y68054456D01*
X78752455Y68054453D01*
X78867664Y67968207D01*
X78867671Y67968203D01*
X79002517Y67917909D01*
X79002516Y67917909D01*
X79009444Y67917165D01*
X79062127Y67911500D01*
X80957872Y67911501D01*
X81017483Y67917909D01*
X81152331Y67968204D01*
X81267546Y68054454D01*
X81353796Y68169669D01*
X81404091Y68304517D01*
X81410500Y68364127D01*
X81410500Y69452509D01*
X84410000Y69452509D01*
X84425147Y69274550D01*
X84425148Y69274547D01*
X84485197Y69043922D01*
X84583360Y68826759D01*
X84583362Y68826756D01*
X84716812Y68629312D01*
X84716814Y68629310D01*
X84881706Y68457264D01*
X85073316Y68315550D01*
X85286115Y68208259D01*
X85513987Y68138474D01*
X85513985Y68138474D01*
X85560000Y68132582D01*
X85560000Y69196314D01*
X85571955Y69184359D01*
X85684852Y69126835D01*
X85810000Y69107014D01*
X85935148Y69126835D01*
X86048045Y69184359D01*
X86060000Y69196315D01*
X86060000Y68133736D01*
X86221434Y68168527D01*
X86442562Y68257384D01*
X86645494Y68382334D01*
X86824389Y68539781D01*
X86824396Y68539787D01*
X86974102Y68725195D01*
X86974109Y68725205D01*
X87090331Y68933249D01*
X87169722Y69157948D01*
X87169726Y69157962D01*
X87209999Y69392833D01*
X87210000Y69392844D01*
X87210000Y70362000D01*
X86210000Y70362000D01*
X86210000Y70862000D01*
X87210000Y70862000D01*
X87210000Y71771473D01*
X87209999Y71771492D01*
X87194852Y71949451D01*
X87194851Y71949454D01*
X87134802Y72180079D01*
X87036639Y72397242D01*
X87036637Y72397245D01*
X86903187Y72594689D01*
X86903185Y72594691D01*
X86738293Y72766737D01*
X86546683Y72908451D01*
X86333884Y73015743D01*
X86106020Y73085525D01*
X86060000Y73091419D01*
X86060000Y72027686D01*
X86048045Y72039641D01*
X85935148Y72097165D01*
X85810000Y72116986D01*
X85684852Y72097165D01*
X85571955Y72039641D01*
X85560000Y72027687D01*
X85560000Y73090266D01*
X85559999Y73090266D01*
X85398566Y73055475D01*
X85177437Y72966617D01*
X84974505Y72841667D01*
X84795610Y72684220D01*
X84795603Y72684214D01*
X84645897Y72498806D01*
X84645890Y72498796D01*
X84529668Y72290752D01*
X84450277Y72066053D01*
X84450273Y72066039D01*
X84410000Y71831168D01*
X84410000Y70862000D01*
X85410000Y70862000D01*
X85410000Y70362000D01*
X84410000Y70362000D01*
X84410000Y69452509D01*
X81410500Y69452509D01*
X81410499Y72859872D01*
X81404091Y72919483D01*
X81386511Y72966617D01*
X81353797Y73054329D01*
X81353793Y73054336D01*
X81267547Y73169545D01*
X81267544Y73169548D01*
X81152335Y73255794D01*
X81152328Y73255798D01*
X81017482Y73306092D01*
X81017483Y73306092D01*
X80957883Y73312499D01*
X80957881Y73312500D01*
X80957873Y73312500D01*
X80957864Y73312500D01*
X79062129Y73312500D01*
X79062123Y73312499D01*
X79002516Y73306092D01*
X78867671Y73255798D01*
X78867664Y73255794D01*
X78752455Y73169548D01*
X78752452Y73169545D01*
X78666206Y73054336D01*
X78666202Y73054329D01*
X78615908Y72919483D01*
X78609501Y72859884D01*
X78609501Y72859877D01*
X78609500Y72859865D01*
X78609500Y68364130D01*
X500Y68364130D01*
X500Y75471654D01*
X80505702Y75471654D01*
X80515819Y75233472D01*
X80515819Y75233468D01*
X80566045Y75000420D01*
X80654935Y74779212D01*
X80654936Y74779210D01*
X80779931Y74576205D01*
X80937436Y74397245D01*
X81122920Y74247477D01*
X81331046Y74131210D01*
X81456951Y74086725D01*
X81555829Y74051789D01*
X81790790Y74011501D01*
X81790798Y74011501D01*
X81790800Y74011500D01*
X81790801Y74011500D01*
X84169496Y74011500D01*
X84169497Y74011500D01*
X84169498Y74011501D01*
X84169515Y74011501D01*
X84347536Y74026653D01*
X84347539Y74026654D01*
X84347541Y74026654D01*
X84578249Y74086725D01*
X84710973Y74146721D01*
X84795480Y74184920D01*
X84795481Y74184922D01*
X84795486Y74184923D01*
X84993003Y74318421D01*
X85165118Y74483379D01*
X85306879Y74675053D01*
X85414207Y74887926D01*
X85484016Y75115877D01*
X85514298Y75352346D01*
X85504180Y75590532D01*
X85453954Y75823581D01*
X85365064Y76044790D01*
X85240069Y76247795D01*
X85082564Y76426755D01*
X84897080Y76576523D01*
X84783130Y76640180D01*
X84688955Y76692790D01*
X84464170Y76772212D01*
X84229209Y76812500D01*
X84229200Y76812500D01*
X81850503Y76812500D01*
X81850484Y76812500D01*
X81672463Y76797348D01*
X81441751Y76737276D01*
X81224519Y76639081D01*
X81224511Y76639076D01*
X81027006Y76505587D01*
X81026997Y76505579D01*
X80854881Y76340621D01*
X80713123Y76148950D01*
X80713120Y76148946D01*
X80605796Y75936080D01*
X80605793Y75936074D01*
X80535983Y75708122D01*
X80505702Y75471654D01*
X500Y75471654D01*
X500Y76962000D01*
X30336540Y76962000D01*
X30356326Y76773744D01*
X30356327Y76773741D01*
X30414818Y76593723D01*
X30414821Y76593716D01*
X30509467Y76429784D01*
X30589750Y76340621D01*
X30636129Y76289112D01*
X30789265Y76177852D01*
X30789270Y76177849D01*
X30962192Y76100858D01*
X30962197Y76100856D01*
X31147354Y76061500D01*
X31147355Y76061500D01*
X31336644Y76061500D01*
X31336646Y76061500D01*
X31521803Y76100856D01*
X31694730Y76177849D01*
X31847871Y76289112D01*
X31974533Y76429784D01*
X32069179Y76593716D01*
X32127674Y76773744D01*
X32147460Y76962000D01*
X33892540Y76962000D01*
X33912326Y76773744D01*
X33912327Y76773741D01*
X33970818Y76593723D01*
X33970821Y76593716D01*
X34065467Y76429784D01*
X34145750Y76340621D01*
X34192129Y76289112D01*
X34345265Y76177852D01*
X34345270Y76177849D01*
X34518192Y76100858D01*
X34518197Y76100856D01*
X34703354Y76061500D01*
X34703355Y76061500D01*
X34892644Y76061500D01*
X34892646Y76061500D01*
X35077803Y76100856D01*
X35250730Y76177849D01*
X35403871Y76289112D01*
X35530533Y76429784D01*
X35625179Y76593716D01*
X35683674Y76773744D01*
X35703460Y76962000D01*
X37702540Y76962000D01*
X37722326Y76773744D01*
X37722327Y76773741D01*
X37780818Y76593723D01*
X37780821Y76593716D01*
X37875467Y76429784D01*
X37955750Y76340621D01*
X38002129Y76289112D01*
X38155265Y76177852D01*
X38155270Y76177849D01*
X38328192Y76100858D01*
X38328197Y76100856D01*
X38513354Y76061500D01*
X38513355Y76061500D01*
X38702644Y76061500D01*
X38702646Y76061500D01*
X38887803Y76100856D01*
X39060730Y76177849D01*
X39213871Y76289112D01*
X39340533Y76429784D01*
X39435179Y76593716D01*
X39493674Y76773744D01*
X39513460Y76962000D01*
X41512540Y76962000D01*
X41532326Y76773744D01*
X41532327Y76773741D01*
X41590818Y76593723D01*
X41590821Y76593716D01*
X41685467Y76429784D01*
X41765750Y76340621D01*
X41812129Y76289112D01*
X41965265Y76177852D01*
X41965270Y76177849D01*
X42138192Y76100858D01*
X42138197Y76100856D01*
X42323354Y76061500D01*
X42323355Y76061500D01*
X42512644Y76061500D01*
X42512646Y76061500D01*
X42697803Y76100856D01*
X42870730Y76177849D01*
X43023871Y76289112D01*
X43150533Y76429784D01*
X43245179Y76593716D01*
X43303674Y76773744D01*
X43323460Y76962000D01*
X45322540Y76962000D01*
X45342326Y76773744D01*
X45342327Y76773741D01*
X45400818Y76593723D01*
X45400821Y76593716D01*
X45495467Y76429784D01*
X45575750Y76340621D01*
X45622129Y76289112D01*
X45775265Y76177852D01*
X45775270Y76177849D01*
X45948192Y76100858D01*
X45948197Y76100856D01*
X46133354Y76061500D01*
X46133355Y76061500D01*
X46322644Y76061500D01*
X46322646Y76061500D01*
X46507803Y76100856D01*
X46680730Y76177849D01*
X46833871Y76289112D01*
X46960533Y76429784D01*
X47055179Y76593716D01*
X47113674Y76773744D01*
X47133460Y76962000D01*
X49132540Y76962000D01*
X49152326Y76773744D01*
X49152327Y76773741D01*
X49210818Y76593723D01*
X49210821Y76593716D01*
X49305467Y76429784D01*
X49385750Y76340621D01*
X49432129Y76289112D01*
X49585265Y76177852D01*
X49585270Y76177849D01*
X49758192Y76100858D01*
X49758197Y76100856D01*
X49943354Y76061500D01*
X49943355Y76061500D01*
X50132644Y76061500D01*
X50132646Y76061500D01*
X50317803Y76100856D01*
X50490730Y76177849D01*
X50643871Y76289112D01*
X50770533Y76429784D01*
X50865179Y76593716D01*
X50923674Y76773744D01*
X50943460Y76962000D01*
X52688540Y76962000D01*
X52708326Y76773744D01*
X52708327Y76773741D01*
X52766818Y76593723D01*
X52766821Y76593716D01*
X52861467Y76429784D01*
X52941750Y76340621D01*
X52988129Y76289112D01*
X53141265Y76177852D01*
X53141270Y76177849D01*
X53314192Y76100858D01*
X53314197Y76100856D01*
X53499354Y76061500D01*
X53499355Y76061500D01*
X53688644Y76061500D01*
X53688646Y76061500D01*
X53873803Y76100856D01*
X54046730Y76177849D01*
X54199871Y76289112D01*
X54326533Y76429784D01*
X54421179Y76593716D01*
X54479674Y76773744D01*
X54499460Y76962000D01*
X54479674Y77150256D01*
X54421179Y77330284D01*
X54326533Y77494216D01*
X54199871Y77634888D01*
X54199870Y77634889D01*
X54046734Y77746149D01*
X54046729Y77746152D01*
X53873807Y77823143D01*
X53873802Y77823145D01*
X53728000Y77854135D01*
X53688646Y77862500D01*
X53499354Y77862500D01*
X53466897Y77855602D01*
X53314197Y77823145D01*
X53314192Y77823143D01*
X53141270Y77746152D01*
X53141265Y77746149D01*
X52988129Y77634889D01*
X52861466Y77494215D01*
X52766821Y77330285D01*
X52766818Y77330278D01*
X52708327Y77150260D01*
X52708326Y77150256D01*
X52688540Y76962000D01*
X50943460Y76962000D01*
X50923674Y77150256D01*
X50865179Y77330284D01*
X50770533Y77494216D01*
X50643871Y77634888D01*
X50643870Y77634889D01*
X50490734Y77746149D01*
X50490729Y77746152D01*
X50317807Y77823143D01*
X50317802Y77823145D01*
X50172000Y77854135D01*
X50132646Y77862500D01*
X49943354Y77862500D01*
X49910897Y77855602D01*
X49758197Y77823145D01*
X49758192Y77823143D01*
X49585270Y77746152D01*
X49585265Y77746149D01*
X49432129Y77634889D01*
X49305466Y77494215D01*
X49210821Y77330285D01*
X49210818Y77330278D01*
X49152327Y77150260D01*
X49152326Y77150256D01*
X49132540Y76962000D01*
X47133460Y76962000D01*
X47113674Y77150256D01*
X47055179Y77330284D01*
X46960533Y77494216D01*
X46833871Y77634888D01*
X46833870Y77634889D01*
X46680734Y77746149D01*
X46680729Y77746152D01*
X46507807Y77823143D01*
X46507802Y77823145D01*
X46362001Y77854135D01*
X46322646Y77862500D01*
X46133354Y77862500D01*
X46100897Y77855602D01*
X45948197Y77823145D01*
X45948192Y77823143D01*
X45775270Y77746152D01*
X45775265Y77746149D01*
X45622129Y77634889D01*
X45495466Y77494215D01*
X45400821Y77330285D01*
X45400818Y77330278D01*
X45342327Y77150260D01*
X45342326Y77150256D01*
X45322540Y76962000D01*
X43323460Y76962000D01*
X43303674Y77150256D01*
X43245179Y77330284D01*
X43150533Y77494216D01*
X43023871Y77634888D01*
X43023870Y77634889D01*
X42870734Y77746149D01*
X42870729Y77746152D01*
X42697807Y77823143D01*
X42697802Y77823145D01*
X42552001Y77854135D01*
X42512646Y77862500D01*
X42323354Y77862500D01*
X42290897Y77855602D01*
X42138197Y77823145D01*
X42138192Y77823143D01*
X41965270Y77746152D01*
X41965265Y77746149D01*
X41812129Y77634889D01*
X41685466Y77494215D01*
X41590821Y77330285D01*
X41590818Y77330278D01*
X41532327Y77150260D01*
X41532326Y77150256D01*
X41512540Y76962000D01*
X39513460Y76962000D01*
X39493674Y77150256D01*
X39435179Y77330284D01*
X39340533Y77494216D01*
X39213871Y77634888D01*
X39213870Y77634889D01*
X39060734Y77746149D01*
X39060729Y77746152D01*
X38887807Y77823143D01*
X38887802Y77823145D01*
X38742001Y77854135D01*
X38702646Y77862500D01*
X38513354Y77862500D01*
X38480897Y77855602D01*
X38328197Y77823145D01*
X38328192Y77823143D01*
X38155270Y77746152D01*
X38155265Y77746149D01*
X38002129Y77634889D01*
X37875466Y77494215D01*
X37780821Y77330285D01*
X37780818Y77330278D01*
X37722327Y77150260D01*
X37722326Y77150256D01*
X37702540Y76962000D01*
X35703460Y76962000D01*
X35683674Y77150256D01*
X35625179Y77330284D01*
X35530533Y77494216D01*
X35403871Y77634888D01*
X35403870Y77634889D01*
X35250734Y77746149D01*
X35250729Y77746152D01*
X35077807Y77823143D01*
X35077802Y77823145D01*
X34932001Y77854135D01*
X34892646Y77862500D01*
X34703354Y77862500D01*
X34670897Y77855602D01*
X34518197Y77823145D01*
X34518192Y77823143D01*
X34345270Y77746152D01*
X34345265Y77746149D01*
X34192129Y77634889D01*
X34065466Y77494215D01*
X33970821Y77330285D01*
X33970818Y77330278D01*
X33912327Y77150260D01*
X33912326Y77150256D01*
X33892540Y76962000D01*
X32147460Y76962000D01*
X32127674Y77150256D01*
X32069179Y77330284D01*
X31974533Y77494216D01*
X31847871Y77634888D01*
X31847870Y77634889D01*
X31694734Y77746149D01*
X31694729Y77746152D01*
X31521807Y77823143D01*
X31521802Y77823145D01*
X31376001Y77854135D01*
X31336646Y77862500D01*
X31147354Y77862500D01*
X31114897Y77855602D01*
X30962197Y77823145D01*
X30962192Y77823143D01*
X30789270Y77746152D01*
X30789265Y77746149D01*
X30636129Y77634889D01*
X30509466Y77494215D01*
X30414821Y77330285D01*
X30414818Y77330278D01*
X30356327Y77150260D01*
X30356326Y77150256D01*
X30336540Y76962000D01*
X500Y76962000D01*
X500Y78615500D01*
X20185Y78682539D01*
X72989Y78728294D01*
X124500Y78739500D01*
X93855500Y78739500D01*
X93922539Y78719815D01*
G37*
%TD.AperFunction*%
%TD*%
M02*
