%TF.GenerationSoftware,KiCad,Pcbnew,7.0.5-0*%
%TF.CreationDate,2024-01-05T10:03:26+01:00*%
%TF.ProjectId,mollusc_motion_board,6d6f6c6c-7573-4635-9f6d-6f74696f6e5f,rev?*%
%TF.SameCoordinates,Original*%
%TF.FileFunction,Copper,L4,Bot*%
%TF.FilePolarity,Positive*%
%FSLAX46Y46*%
G04 Gerber Fmt 4.6, Leading zero omitted, Abs format (unit mm)*
G04 Created by KiCad (PCBNEW 7.0.5-0) date 2024-01-05 10:03:26*
%MOMM*%
%LPD*%
G01*
G04 APERTURE LIST*
G04 Aperture macros list*
%AMRoundRect*
0 Rectangle with rounded corners*
0 $1 Rounding radius*
0 $2 $3 $4 $5 $6 $7 $8 $9 X,Y pos of 4 corners*
0 Add a 4 corners polygon primitive as box body*
4,1,4,$2,$3,$4,$5,$6,$7,$8,$9,$2,$3,0*
0 Add four circle primitives for the rounded corners*
1,1,$1+$1,$2,$3*
1,1,$1+$1,$4,$5*
1,1,$1+$1,$6,$7*
1,1,$1+$1,$8,$9*
0 Add four rect primitives between the rounded corners*
20,1,$1+$1,$2,$3,$4,$5,0*
20,1,$1+$1,$4,$5,$6,$7,0*
20,1,$1+$1,$6,$7,$8,$9,0*
20,1,$1+$1,$8,$9,$2,$3,0*%
%AMHorizOval*
0 Thick line with rounded ends*
0 $1 width*
0 $2 $3 position (X,Y) of the first rounded end (center of the circle)*
0 $4 $5 position (X,Y) of the second rounded end (center of the circle)*
0 Add line between two ends*
20,1,$1,$2,$3,$4,$5,0*
0 Add two circle primitives to create the rounded ends*
1,1,$1,$2,$3*
1,1,$1,$4,$5*%
%AMRotRect*
0 Rectangle, with rotation*
0 The origin of the aperture is its center*
0 $1 length*
0 $2 width*
0 $3 Rotation angle, in degrees counterclockwise*
0 Add horizontal line*
21,1,$1,$2,0,0,$3*%
G04 Aperture macros list end*
%TA.AperFunction,ComponentPad*%
%ADD10R,2.500000X2.500000*%
%TD*%
%TA.AperFunction,ComponentPad*%
%ADD11C,3.600000*%
%TD*%
%TA.AperFunction,ConnectorPad*%
%ADD12C,5.600000*%
%TD*%
%TA.AperFunction,ComponentPad*%
%ADD13RotRect,2.000000X2.000000X45.000000*%
%TD*%
%TA.AperFunction,ComponentPad*%
%ADD14C,2.000000*%
%TD*%
%TA.AperFunction,ComponentPad*%
%ADD15RotRect,1.700000X1.700000X135.000000*%
%TD*%
%TA.AperFunction,ComponentPad*%
%ADD16HorizOval,1.700000X0.000000X0.000000X0.000000X0.000000X0*%
%TD*%
%TA.AperFunction,ComponentPad*%
%ADD17R,1.700000X1.700000*%
%TD*%
%TA.AperFunction,ComponentPad*%
%ADD18O,1.700000X1.700000*%
%TD*%
%TA.AperFunction,ComponentPad*%
%ADD19C,2.040000*%
%TD*%
%TA.AperFunction,ComponentPad*%
%ADD20R,2.040000X2.040000*%
%TD*%
%TA.AperFunction,ComponentPad*%
%ADD21R,1.600000X1.600000*%
%TD*%
%TA.AperFunction,ComponentPad*%
%ADD22C,1.600000*%
%TD*%
%TA.AperFunction,ComponentPad*%
%ADD23R,1.300000X1.300000*%
%TD*%
%TA.AperFunction,ComponentPad*%
%ADD24C,1.300000*%
%TD*%
%TA.AperFunction,ComponentPad*%
%ADD25R,2.200000X2.200000*%
%TD*%
%TA.AperFunction,ComponentPad*%
%ADD26O,2.200000X2.200000*%
%TD*%
%TA.AperFunction,ComponentPad*%
%ADD27RotRect,1.350000X1.350000X225.000000*%
%TD*%
%TA.AperFunction,ComponentPad*%
%ADD28HorizOval,1.350000X0.000000X0.000000X0.000000X0.000000X0*%
%TD*%
%TA.AperFunction,ComponentPad*%
%ADD29R,4.400000X1.800000*%
%TD*%
%TA.AperFunction,ComponentPad*%
%ADD30O,4.000000X1.800000*%
%TD*%
%TA.AperFunction,ComponentPad*%
%ADD31O,1.800000X4.000000*%
%TD*%
%TA.AperFunction,WasherPad*%
%ADD32C,3.250000*%
%TD*%
%TA.AperFunction,ComponentPad*%
%ADD33RoundRect,0.250500X0.499500X-0.499500X0.499500X0.499500X-0.499500X0.499500X-0.499500X-0.499500X0*%
%TD*%
%TA.AperFunction,ComponentPad*%
%ADD34C,1.500000*%
%TD*%
%TA.AperFunction,ComponentPad*%
%ADD35C,3.000000*%
%TD*%
%TA.AperFunction,ComponentPad*%
%ADD36RoundRect,0.250500X-0.706400X0.000000X0.000000X-0.706400X0.706400X0.000000X0.000000X0.706400X0*%
%TD*%
%TA.AperFunction,ComponentPad*%
%ADD37C,2.500000*%
%TD*%
%TA.AperFunction,ComponentPad*%
%ADD38RotRect,2.000000X2.000000X225.000000*%
%TD*%
%TA.AperFunction,ViaPad*%
%ADD39C,0.800000*%
%TD*%
%TA.AperFunction,Conductor*%
%ADD40C,2.000000*%
%TD*%
%TA.AperFunction,Conductor*%
%ADD41C,0.250000*%
%TD*%
%TA.AperFunction,Conductor*%
%ADD42C,0.200000*%
%TD*%
G04 APERTURE END LIST*
D10*
%TO.P,TP1,1,1*%
%TO.N,/Vin*%
X16475000Y-33006000D03*
%TD*%
%TO.P,TP2,1,1*%
%TO.N,GND*%
X16475000Y-39370000D03*
%TD*%
D11*
%TO.P,H3,1*%
%TO.N,N/C*%
X-157480000Y66675000D03*
D12*
X-157480000Y66675000D03*
%TD*%
D13*
%TO.P,C15,1*%
%TO.N,+5V*%
X-26099136Y31730992D03*
D14*
%TO.P,C15,2*%
%TO.N,GND*%
X-22563602Y35266526D03*
%TD*%
D11*
%TO.P,H1,1*%
%TO.N,N/C*%
X-168910000Y76073000D03*
D12*
X-168910000Y76073000D03*
%TD*%
D15*
%TO.P,J1,1,Pin_1*%
%TO.N,GND*%
X-24414329Y20843440D03*
D16*
%TO.P,J1,2,Pin_2*%
%TO.N,Net-(J1-Pin_2)*%
X-22618278Y22639491D03*
%TO.P,J1,3,Pin_3*%
%TO.N,+5V*%
X-20822227Y24435542D03*
%TD*%
D11*
%TO.P,H2,1*%
%TO.N,N/C*%
X-167894000Y65405000D03*
D12*
X-167894000Y65405000D03*
%TD*%
D17*
%TO.P,J_I2C1,1,Pin_1*%
%TO.N,GND*%
X-100340000Y26924000D03*
D18*
%TO.P,J_I2C1,2,Pin_2*%
%TO.N,+5V*%
X-102880000Y26924000D03*
%TO.P,J_I2C1,3,Pin_3*%
%TO.N,/I2C_SCL*%
X-105420000Y26924000D03*
%TO.P,J_I2C1,4,Pin_4*%
%TO.N,/I2C_SDA*%
X-107960000Y26924000D03*
%TD*%
D19*
%TO.P,J6,1,Vout*%
%TO.N,+5V*%
X-7655000Y-38086000D03*
X-7655000Y-40626000D03*
D20*
%TO.P,J6,2,GND*%
%TO.N,GND*%
X-5115000Y-38086000D03*
X-5115000Y-40626000D03*
X-2575000Y-38086000D03*
X-2575000Y-40626000D03*
D19*
%TO.P,J6,3,Vin*%
%TO.N,/Vin*%
X-35000Y-38086000D03*
X-35000Y-40626000D03*
%TO.P,J6,4,Vrp*%
%TO.N,+12V*%
X2505000Y-38086000D03*
X2505000Y-40626000D03*
%TO.P,J6,5,PG*%
%TO.N,unconnected-(J6-PG-Pad5)*%
X5045000Y-38086000D03*
%TO.P,J6,6,EN*%
%TO.N,unconnected-(J6-EN-Pad6)*%
X5045000Y-40626000D03*
%TD*%
D21*
%TO.P,U9,1,GND*%
%TO.N,GND*%
X-55880000Y-7620000D03*
D22*
%TO.P,U9,2,0_RX1_CRX2_CS1*%
%TO.N,/STEPPER_03_DIR*%
X-53340000Y-7620000D03*
%TO.P,U9,3,1_TX1_CTX2_MISO1*%
%TO.N,/STEPPER_03_PULSE*%
X-50800000Y-7620000D03*
%TO.P,U9,4,2_OUT2*%
%TO.N,/STEPPER_02_DIR*%
X-48260000Y-7620000D03*
%TO.P,U9,5,3_LRCLK2*%
%TO.N,/STEPPER_02_PULSE*%
X-45720000Y-7620000D03*
%TO.P,U9,6,4_BCLK2*%
%TO.N,/STEPPER_01_DIR*%
X-43180000Y-7620000D03*
%TO.P,U9,7,5_IN2*%
%TO.N,/STEPPER_01_PULSE*%
X-40640000Y-7620000D03*
%TO.P,U9,8,6_OUT1D*%
%TO.N,/STEPPER_01_END*%
X-38100000Y-7620000D03*
%TO.P,U9,9,7_RX2_OUT1A*%
%TO.N,/STEPPER_02_END*%
X-35560000Y-7620000D03*
%TO.P,U9,10,8_TX2_IN1*%
%TO.N,/STEPPER_03_END*%
X-33020000Y-7620000D03*
%TO.P,U9,11,9_OUT1C*%
%TO.N,/TEENSY_STEPPER_ENABLE*%
X-30480000Y-7620000D03*
%TO.P,U9,12,10_CS_MQSR*%
%TO.N,unconnected-(U9-10_CS_MQSR-Pad12)*%
X-27940000Y-7620000D03*
%TO.P,U9,13,11_MOSI_CTX1*%
%TO.N,unconnected-(U9-11_MOSI_CTX1-Pad13)*%
X-25400000Y-7620000D03*
%TO.P,U9,14,12_MISO_MQSL*%
%TO.N,unconnected-(U9-12_MISO_MQSL-Pad14)*%
X-22860000Y-7620000D03*
%TO.P,U9,15,3V3*%
%TO.N,unconnected-(U9-3V3-Pad15)*%
X-20320000Y-7620000D03*
%TO.P,U9,16,24_A10_TX6_SCL2*%
%TO.N,/NEOPIXEL_SIG*%
X-17780000Y-7620000D03*
%TO.P,U9,17,25_A11_RX6_SDA2*%
%TO.N,unconnected-(U9-25_A11_RX6_SDA2-Pad17)*%
X-15240000Y-7620000D03*
%TO.P,U9,18,26_A12_MOSI1*%
%TO.N,unconnected-(U9-26_A12_MOSI1-Pad18)*%
X-12700000Y-7620000D03*
%TO.P,U9,19,27_A13_SCK1*%
%TO.N,unconnected-(U9-27_A13_SCK1-Pad19)*%
X-10160000Y-7620000D03*
%TO.P,U9,20,28_RX7*%
%TO.N,unconnected-(U9-28_RX7-Pad20)*%
X-7620000Y-7620000D03*
%TO.P,U9,21,29_TX7*%
%TO.N,unconnected-(U9-29_TX7-Pad21)*%
X-5080000Y-7620000D03*
%TO.P,U9,22,30_CRX3*%
%TO.N,unconnected-(U9-30_CRX3-Pad22)*%
X-2540000Y-7620000D03*
%TO.P,U9,23,31_CTX3*%
%TO.N,unconnected-(U9-31_CTX3-Pad23)*%
X0Y-7620000D03*
%TO.P,U9,24,32_OUT1B*%
%TO.N,unconnected-(U9-32_OUT1B-Pad24)*%
X2540000Y-7620000D03*
%TO.P,U9,25,33_MCLK2*%
%TO.N,unconnected-(U9-33_MCLK2-Pad25)*%
X2540000Y7620000D03*
%TO.P,U9,26,34_RX8*%
%TO.N,unconnected-(U9-34_RX8-Pad26)*%
X0Y7620000D03*
%TO.P,U9,27,35_TX8*%
%TO.N,unconnected-(U9-35_TX8-Pad27)*%
X-2540000Y7620000D03*
%TO.P,U9,28,36_CS*%
%TO.N,unconnected-(U9-36_CS-Pad28)*%
X-5080000Y7620000D03*
%TO.P,U9,29,37_CS*%
%TO.N,unconnected-(U9-37_CS-Pad29)*%
X-7620000Y7620000D03*
%TO.P,U9,30,38_CS1_IN1*%
%TO.N,unconnected-(U9-38_CS1_IN1-Pad30)*%
X-10160000Y7620000D03*
%TO.P,U9,31,39_MISO1_OUT1A*%
%TO.N,unconnected-(U9-39_MISO1_OUT1A-Pad31)*%
X-12700000Y7620000D03*
%TO.P,U9,32,40_A16*%
%TO.N,unconnected-(U9-40_A16-Pad32)*%
X-15240000Y7620000D03*
%TO.P,U9,33,41_A17*%
%TO.N,unconnected-(U9-41_A17-Pad33)*%
X-17780000Y7620000D03*
%TO.P,U9,34,GND*%
%TO.N,GND*%
X-20320000Y7620000D03*
%TO.P,U9,35,13_SCK_LED*%
%TO.N,unconnected-(U9-13_SCK_LED-Pad35)*%
X-22860000Y7620000D03*
%TO.P,U9,36,14_A0_TX3_SPDIF_OUT*%
%TO.N,Net-(U9-14_A0_TX3_SPDIF_OUT)*%
X-25400000Y7620000D03*
%TO.P,U9,37,15_A1_RX3_SPDIF_IN*%
%TO.N,unconnected-(U9-15_A1_RX3_SPDIF_IN-Pad37)*%
X-27940000Y7620000D03*
%TO.P,U9,38,16_A2_RX4_SCL1*%
%TO.N,unconnected-(U9-16_A2_RX4_SCL1-Pad38)*%
X-30480000Y7620000D03*
%TO.P,U9,39,17_A3_TX4_SDA1*%
%TO.N,Net-(U9-17_A3_TX4_SDA1)*%
X-33020000Y7620000D03*
%TO.P,U9,40,18_A4_SDA*%
%TO.N,/I2C_SDA*%
X-35560000Y7620000D03*
%TO.P,U9,41,19_A5_SCL*%
%TO.N,/I2C_SCL*%
X-38100000Y7620000D03*
%TO.P,U9,42,20_A6_TX5_LRCLK1*%
%TO.N,/DYN_TX*%
X-40640000Y7620000D03*
%TO.P,U9,43,21_A7_RX5_BCLK1*%
%TO.N,/DYN_RX*%
X-43180000Y7620000D03*
%TO.P,U9,44,22_A8_CTX1*%
%TO.N,/DYN_DIRECTION*%
X-45720000Y7620000D03*
%TO.P,U9,45,23_A9_CRX1_MCLK1*%
%TO.N,unconnected-(U9-23_A9_CRX1_MCLK1-Pad45)*%
X-48260000Y7620000D03*
%TO.P,U9,46,3V3*%
%TO.N,+3.3V*%
X-50800000Y7620000D03*
%TO.P,U9,47,GND*%
%TO.N,GND*%
X-53340000Y7620000D03*
%TO.P,U9,48,VIN*%
%TO.N,+5V*%
X-55880000Y7620000D03*
%TO.P,U9,49,VUSB*%
%TO.N,unconnected-(U9-VUSB-Pad49)*%
X-53340000Y5080000D03*
%TO.P,U9,50,VBAT*%
%TO.N,Net-(BT1-+)*%
X-10160000Y-5080000D03*
%TO.P,U9,51,3V3*%
%TO.N,unconnected-(U9-3V3-Pad51)*%
X-10160000Y-2540000D03*
%TO.P,U9,52,GND*%
%TO.N,Net-(BT1--)*%
X-10160000Y0D03*
%TO.P,U9,53,PROGRAM*%
%TO.N,unconnected-(U9-PROGRAM-Pad53)*%
X-10160000Y2540000D03*
%TO.P,U9,54,ON_OFF*%
%TO.N,unconnected-(U9-ON_OFF-Pad54)*%
X-10160000Y5080000D03*
D21*
%TO.P,U9,55,5V*%
%TO.N,unconnected-(U9-5V-Pad55)*%
X-49580800Y-4569200D03*
D22*
%TO.P,U9,56,D-*%
%TO.N,unconnected-(U9-D--Pad56)*%
X-47040800Y-4569200D03*
%TO.P,U9,57,D+*%
%TO.N,unconnected-(U9-D+-Pad57)*%
X-44500800Y-4569200D03*
%TO.P,U9,58,GND*%
%TO.N,unconnected-(U9-GND-Pad58)*%
X-41960800Y-4569200D03*
%TO.P,U9,59,GND*%
%TO.N,unconnected-(U9-GND-Pad59)*%
X-39420800Y-4569200D03*
D23*
%TO.P,U9,60,R+*%
%TO.N,unconnected-(U9-R+-Pad60)*%
X-42910000Y5181600D03*
D24*
%TO.P,U9,61,LED*%
%TO.N,unconnected-(U9-LED-Pad61)*%
X-42910000Y3181600D03*
%TO.P,U9,62,T-*%
%TO.N,unconnected-(U9-T--Pad62)*%
X-42910000Y1181600D03*
%TO.P,U9,63,T+*%
%TO.N,unconnected-(U9-T+-Pad63)*%
X-40910000Y1181600D03*
%TO.P,U9,64,GND*%
%TO.N,unconnected-(U9-GND-Pad64)*%
X-40910000Y3181600D03*
%TO.P,U9,65,R-*%
%TO.N,unconnected-(U9-R--Pad65)*%
X-40910000Y5181600D03*
%TO.P,U9,66,D-*%
%TO.N,unconnected-(U9-D--Pad66)*%
X-55150000Y1270000D03*
%TO.P,U9,67,D+*%
%TO.N,unconnected-(U9-D+-Pad67)*%
X-55150000Y-1270000D03*
%TD*%
D25*
%TO.P,D4,1,K*%
%TO.N,unconnected-(D4-K-Pad1)*%
X43180000Y52070000D03*
D26*
%TO.P,D4,2,A*%
%TO.N,unconnected-(D4-A-Pad2)*%
X53340000Y52070000D03*
%TD*%
D27*
%TO.P,J5,1,Pin_1*%
%TO.N,/ETH_TX+*%
X-24961031Y-22535656D03*
D28*
%TO.P,J5,2,Pin_2*%
%TO.N,/ETH_TX-*%
X-26375245Y-23949870D03*
%TO.P,J5,3,Pin_3*%
%TO.N,GND*%
X-26375245Y-21121442D03*
%TO.P,J5,4,Pin_4*%
%TO.N,Net-(J5-Pin_4)*%
X-27789458Y-22535656D03*
%TO.P,J5,5,Pin_5*%
%TO.N,/ETH_RX-*%
X-27789458Y-19707229D03*
%TO.P,J5,6,Pin_6*%
%TO.N,/ETH_RX+*%
X-29203672Y-21121442D03*
%TD*%
D29*
%TO.P,J2,1*%
%TO.N,/Vin*%
X0Y-45706000D03*
D30*
%TO.P,J2,2*%
%TO.N,GND*%
X0Y-51506000D03*
D31*
%TO.P,J2,3*%
%TO.N,unconnected-(J2-Pad3)*%
X4800000Y-48706000D03*
%TD*%
D11*
%TO.P,H4,1*%
%TO.N,N/C*%
X-156210000Y76073000D03*
D12*
X-156210000Y76073000D03*
%TD*%
D10*
%TO.P,TP4,1,1*%
%TO.N,+3.3V*%
X16475000Y-20320000D03*
%TD*%
D17*
%TO.P,J7,1,Pin_1*%
%TO.N,/STEPPER_01_END*%
X7858973Y-7747000D03*
D18*
%TO.P,J7,2,Pin_2*%
%TO.N,/STEPPER_02_END*%
X10398973Y-7747000D03*
%TO.P,J7,3,Pin_3*%
%TO.N,/STEPPER_03_END*%
X12938973Y-7747000D03*
%TD*%
D32*
%TO.P,J4,*%
%TO.N,*%
X47157000Y-26660000D03*
X47157000Y26680000D03*
D33*
%TO.P,J4,A1*%
%TO.N,/DynamixelConnection/DYN_DATA*%
X40807000Y-25390000D03*
D34*
%TO.P,J4,A2*%
%TO.N,GND*%
X38267000Y-24130000D03*
%TO.P,J4,A3*%
%TO.N,+12V*%
X40807000Y-22850000D03*
%TO.P,J4,A4*%
X38267000Y-21590000D03*
%TO.P,J4,A5*%
X40807000Y-20310000D03*
%TO.P,J4,A6*%
X38267000Y-19050000D03*
%TO.P,J4,A7*%
%TO.N,GND*%
X40807000Y-17770000D03*
%TO.P,J4,A8*%
X38267000Y-16510000D03*
D33*
%TO.P,J4,B1*%
%TO.N,/Stepper03/SIG*%
X40807000Y-11420000D03*
D34*
%TO.P,J4,B2*%
%TO.N,GND*%
X38267000Y-10160000D03*
%TO.P,J4,B3*%
%TO.N,+3.3V*%
X40807000Y-8880000D03*
%TO.P,J4,B4*%
%TO.N,/Stepper03/ENA+*%
X38267000Y-7620000D03*
%TO.P,J4,B5*%
%TO.N,GND*%
X40807000Y-6340000D03*
%TO.P,J4,B6*%
%TO.N,/Stepper03/DIR+*%
X38267000Y-5080000D03*
%TO.P,J4,B7*%
%TO.N,GND*%
X40807000Y-3800000D03*
%TO.P,J4,B8*%
%TO.N,/Stepper03/PUL+*%
X38267000Y-2540000D03*
D33*
%TO.P,J4,C1*%
%TO.N,/Stepper02/SIG*%
X40807000Y2550000D03*
D34*
%TO.P,J4,C2*%
%TO.N,GND*%
X38267000Y3810000D03*
%TO.P,J4,C3*%
%TO.N,+3.3V*%
X40807000Y5090000D03*
%TO.P,J4,C4*%
%TO.N,/Stepper02/ENA+*%
X38267000Y6350000D03*
%TO.P,J4,C5*%
%TO.N,GND*%
X40807000Y7630000D03*
%TO.P,J4,C6*%
%TO.N,/Stepper02/DIR+*%
X38267000Y8890000D03*
%TO.P,J4,C7*%
%TO.N,GND*%
X40807000Y10170000D03*
%TO.P,J4,C8*%
%TO.N,/Stepper02/PUL+*%
X38267000Y11430000D03*
D33*
%TO.P,J4,D1*%
%TO.N,/Stepper01/SIG*%
X40807000Y16520000D03*
D34*
%TO.P,J4,D2*%
%TO.N,GND*%
X38267000Y17780000D03*
%TO.P,J4,D3*%
%TO.N,+3.3V*%
X40807000Y19060000D03*
%TO.P,J4,D4*%
%TO.N,/Stepper01/ENA+*%
X38267000Y20320000D03*
%TO.P,J4,D5*%
%TO.N,GND*%
X40807000Y21600000D03*
%TO.P,J4,D6*%
%TO.N,/Stepper01/DIR+*%
X38267000Y22860000D03*
%TO.P,J4,D7*%
%TO.N,GND*%
X40807000Y24140000D03*
%TO.P,J4,D8*%
%TO.N,/Stepper01/PUL+*%
X38267000Y25400000D03*
D35*
%TO.P,J4,GND,GND*%
%TO.N,GND*%
X50837000Y-29440000D03*
X36997000Y-13960000D03*
X36997000Y10000D03*
X36997000Y13980000D03*
X50837000Y29460000D03*
%TD*%
D10*
%TO.P,TP3,1,1*%
%TO.N,+5V*%
X16510000Y-26670000D03*
%TD*%
D36*
%TO.P,J3,1*%
%TO.N,/ETH_TX+*%
X-34072102Y-26887898D03*
D34*
%TO.P,J3,2*%
%TO.N,Net-(C19-Pad1)*%
X-31378025Y-25989872D03*
%TO.P,J3,3*%
%TO.N,/ETH_TX-*%
X-32276051Y-28683949D03*
%TO.P,J3,4*%
%TO.N,/ETH_RX+*%
X-29581974Y-27785924D03*
%TO.P,J3,5*%
%TO.N,Net-(C19-Pad1)*%
X-30480000Y-30480000D03*
%TO.P,J3,6*%
%TO.N,/ETH_RX-*%
X-27785923Y-29581975D03*
%TO.P,J3,7*%
%TO.N,unconnected-(J3-Pad7)*%
X-28683948Y-32276052D03*
%TO.P,J3,8*%
%TO.N,GND*%
X-25989871Y-31378026D03*
%TO.P,J3,9*%
X-43483693Y-33640768D03*
%TO.P,J3,10*%
%TO.N,Net-(J5-Pin_4)*%
X-40485561Y-34234737D03*
%TO.P,J3,11*%
%TO.N,unconnected-(J3-Pad11)*%
X-36334844Y-40789617D03*
%TO.P,J3,12*%
%TO.N,unconnected-(J3-Pad12)*%
X-33336711Y-41383587D03*
D37*
%TO.P,J3,13*%
%TO.N,GND*%
X-38830931Y-26795974D03*
X-27693999Y-37932906D03*
%TD*%
D38*
%TO.P,C18,1*%
%TO.N,+5V*%
X-31730992Y26099136D03*
D14*
%TO.P,C18,2*%
%TO.N,GND*%
X-35266526Y22563602D03*
%TD*%
D39*
%TO.N,+5V*%
X-92710000Y-24765000D03*
X15885000Y-10150000D03*
X15885000Y17888441D03*
X15885000Y3820000D03*
X-98933000Y-30226000D03*
%TO.N,GND*%
X24013000Y25508441D03*
X-94234000Y-24765000D03*
X24013000Y-3165000D03*
X-94361000Y-36195000D03*
X-94361000Y-40005000D03*
X24013000Y11440000D03*
X24013000Y21698441D03*
%TO.N,+3.3V*%
X47625000Y27940000D03*
X48895000Y27940000D03*
X37632000Y27940000D03*
%TO.N,/TEENSY_STEPPER_ENABLE*%
X22997000Y5090000D03*
X22997000Y-8880000D03*
X22997000Y19158441D03*
%TO.N,/NEOPIXEL_SIG*%
X-18196511Y20236264D03*
%TO.N,Net-(J5-Pin_4)*%
X-32077354Y-22558284D03*
%TD*%
D40*
%TO.N,+5V*%
X-31730992Y26099136D02*
X-26099136Y31730992D01*
X-23056684Y26670000D02*
X-20822228Y24435543D01*
X-26670000Y26670000D02*
X-23056684Y26670000D01*
X-28915064Y28915064D02*
X-26670000Y26670000D01*
D41*
%TO.N,/TEENSY_STEPPER_ENABLE*%
X22997000Y-10023000D02*
X20320000Y-12700000D01*
X20320000Y-12700000D02*
X-33020000Y-12700000D01*
X22997000Y-8880000D02*
X22997000Y19158441D01*
X22997000Y-8880000D02*
X22997000Y-10023000D01*
D42*
%TO.N,/ETH_TX+*%
X-34072102Y-31298831D02*
X-30194894Y-35176039D01*
X-26775608Y-35176039D02*
X-23590517Y-31990947D01*
X-34072102Y-26887898D02*
X-34072102Y-31298831D01*
X-24245085Y-23251603D02*
X-24961031Y-22535656D01*
X-24245085Y-24347618D02*
X-24245085Y-23251603D01*
X-30194894Y-35176039D02*
X-26775608Y-35176039D01*
X-23590517Y-31990947D02*
X-23590517Y-25002186D01*
X-23590517Y-25002186D02*
X-24245085Y-24347618D01*
%TO.N,/ETH_TX-*%
X-28426042Y-34426034D02*
X-28426042Y-34426035D01*
X-29326041Y-34726035D02*
X-30008501Y-34726036D01*
X-24563283Y-24665816D02*
X-24040519Y-25188579D01*
X-24040519Y-31804553D02*
X-26962002Y-34726036D01*
X-31909330Y-32153991D02*
X-32032806Y-32277466D01*
X-32457070Y-32277466D02*
X-33622101Y-31112435D01*
X-31608542Y-32701730D02*
X-31485066Y-32578255D01*
X-31060811Y-33002527D02*
X-31184278Y-33125995D01*
X-29326041Y-34726034D02*
X-29326041Y-34726035D01*
X-28426042Y-34426035D02*
X-28426042Y-34251401D01*
X-26962002Y-34726036D02*
X-28126041Y-34726036D01*
X-33622101Y-31112435D02*
X-33622101Y-30030000D01*
X-30760014Y-33550259D02*
X-30636547Y-33426791D01*
X-25659298Y-24665816D02*
X-24563283Y-24665816D01*
X-26375245Y-23949870D02*
X-25659298Y-24665816D01*
X-24040519Y-25188579D02*
X-24040519Y-31804553D01*
X-33622101Y-30030000D02*
X-32276051Y-28683950D01*
X-29026042Y-34251401D02*
X-29026042Y-34426034D01*
X-30008501Y-34726036D02*
X-30760014Y-33974523D01*
X-31608504Y-32701768D02*
G75*
G03*
X-31608541Y-33125994I212104J-212132D01*
G01*
X-31485089Y-32578232D02*
G75*
G03*
X-31485066Y-32153991I-212111J212132D01*
G01*
X-30636507Y-33426831D02*
G75*
G03*
X-30636548Y-33002528I-212193J212131D01*
G01*
X-32457069Y-32277465D02*
G75*
G03*
X-32032807Y-32277465I212131J212131D01*
G01*
X-28726042Y-33951358D02*
G75*
G03*
X-29026042Y-34251401I42J-300042D01*
G01*
X-31608542Y-33125995D02*
G75*
G03*
X-31184278Y-33125995I212132J212135D01*
G01*
X-29326041Y-34725958D02*
G75*
G03*
X-29026042Y-34426034I41J299958D01*
G01*
X-28426036Y-34426034D02*
G75*
G03*
X-28126041Y-34726036I300036J34D01*
G01*
X-31485067Y-32153992D02*
G75*
G03*
X-31909329Y-32153992I-212131J-212131D01*
G01*
X-30760004Y-33550269D02*
G75*
G03*
X-30760013Y-33974522I212104J-212131D01*
G01*
X-28426001Y-34251401D02*
G75*
G03*
X-28726042Y-33951401I-299999J1D01*
G01*
X-30636548Y-33002528D02*
G75*
G03*
X-31060810Y-33002528I-212131J-212131D01*
G01*
%TO.N,/ETH_RX+*%
X-29240764Y-25797095D02*
X-29281974Y-25797093D01*
X-29581974Y-26097093D02*
X-29581974Y-26097094D01*
X-30123184Y-25197095D02*
X-29240764Y-25197092D01*
X-29881975Y-23397099D02*
X-29881974Y-23397099D01*
X-29240766Y-25797095D02*
X-29240764Y-25797095D01*
X-29381974Y-24097099D02*
X-29381974Y-24497098D01*
X-30149928Y-23997098D02*
X-29481974Y-23997095D01*
X-30149927Y-23997098D02*
X-30149928Y-23997098D01*
X-29203672Y-21121443D02*
X-29581974Y-21499745D01*
X-29581974Y-21499745D02*
X-29581974Y-23097099D01*
X-29481974Y-24597098D02*
X-30123184Y-24597095D01*
X-29881974Y-23397099D02*
X-30149928Y-23397098D01*
X-29481973Y-24095124D02*
X-29481974Y-24095126D01*
X-29581974Y-26097094D02*
X-29581974Y-27785924D01*
X-30123183Y-25197095D02*
X-30123184Y-25197095D01*
X-29481973Y-24597098D02*
X-29481974Y-24597098D01*
X-29381995Y-24097099D02*
G75*
G03*
X-29481974Y-23997095I-100005J-1D01*
G01*
X-29481973Y-24597126D02*
G75*
G03*
X-29381974Y-24497098I-27J100026D01*
G01*
X-29240766Y-25797136D02*
G75*
G03*
X-28940764Y-25497095I-34J300036D01*
G01*
X-29281974Y-25797126D02*
G75*
G03*
X-29581974Y-26097093I-26J-299974D01*
G01*
X-30423195Y-24897095D02*
G75*
G03*
X-30123183Y-25197095I299995J-5D01*
G01*
X-30149928Y-23397072D02*
G75*
G03*
X-30449928Y-23697098I28J-300028D01*
G01*
X-30123184Y-24597116D02*
G75*
G03*
X-30423184Y-24897095I-16J-299984D01*
G01*
X-30449898Y-23697098D02*
G75*
G03*
X-30149927Y-23997098I299998J-2D01*
G01*
X-28940792Y-25497095D02*
G75*
G03*
X-29240764Y-25197092I-300008J-5D01*
G01*
X-29881975Y-23397126D02*
G75*
G03*
X-29581974Y-23097099I-25J300026D01*
G01*
%TO.N,/ETH_RX-*%
X-27789458Y-21144070D02*
X-27789458Y-19707229D01*
X-28844461Y-22199073D02*
X-27789458Y-21144070D01*
X-27766831Y-25791176D02*
X-28844461Y-24713545D01*
X-27785923Y-26169478D02*
X-27766831Y-26150386D01*
X-27766831Y-26150386D02*
X-27766831Y-25791176D01*
X-27785923Y-29581975D02*
X-27785923Y-26169478D01*
X-28844461Y-24713545D02*
X-28844461Y-22199073D01*
D41*
%TO.N,Net-(J5-Pin_4)*%
X-40485560Y-34234738D02*
X-37647234Y-34234738D01*
X-36208271Y-26689201D02*
X-32077354Y-22558284D01*
X-36208271Y-32795776D02*
X-36208271Y-26689201D01*
X-37647234Y-34234738D02*
X-36208271Y-32795776D01*
%TD*%
M02*
