%TF.GenerationSoftware,KiCad,Pcbnew,7.0.5-0*%
%TF.CreationDate,2024-01-02T16:13:28+01:00*%
%TF.ProjectId,mollusc_motion_board,6d6f6c6c-7573-4635-9f6d-6f74696f6e5f,rev?*%
%TF.SameCoordinates,Original*%
%TF.FileFunction,Soldermask,Bot*%
%TF.FilePolarity,Negative*%
%FSLAX46Y46*%
G04 Gerber Fmt 4.6, Leading zero omitted, Abs format (unit mm)*
G04 Created by KiCad (PCBNEW 7.0.5-0) date 2024-01-02 16:13:28*
%MOMM*%
%LPD*%
G01*
G04 APERTURE LIST*
G04 Aperture macros list*
%AMRoundRect*
0 Rectangle with rounded corners*
0 $1 Rounding radius*
0 $2 $3 $4 $5 $6 $7 $8 $9 X,Y pos of 4 corners*
0 Add a 4 corners polygon primitive as box body*
4,1,4,$2,$3,$4,$5,$6,$7,$8,$9,$2,$3,0*
0 Add four circle primitives for the rounded corners*
1,1,$1+$1,$2,$3*
1,1,$1+$1,$4,$5*
1,1,$1+$1,$6,$7*
1,1,$1+$1,$8,$9*
0 Add four rect primitives between the rounded corners*
20,1,$1+$1,$2,$3,$4,$5,0*
20,1,$1+$1,$4,$5,$6,$7,0*
20,1,$1+$1,$6,$7,$8,$9,0*
20,1,$1+$1,$8,$9,$2,$3,0*%
G04 Aperture macros list end*
%ADD10C,5.600000*%
%ADD11C,3.600000*%
%ADD12R,2.000000X2.000000*%
%ADD13C,2.000000*%
%ADD14R,1.700000X1.700000*%
%ADD15O,1.700000X1.700000*%
%ADD16R,1.600000X1.600000*%
%ADD17C,1.600000*%
%ADD18R,1.300000X1.300000*%
%ADD19C,1.300000*%
%ADD20R,1.350000X1.350000*%
%ADD21O,1.350000X1.350000*%
%ADD22R,1.800000X4.400000*%
%ADD23O,1.800000X4.000000*%
%ADD24O,4.000000X1.800000*%
%ADD25C,3.250000*%
%ADD26RoundRect,0.250500X0.499500X-0.499500X0.499500X0.499500X-0.499500X0.499500X-0.499500X-0.499500X0*%
%ADD27C,1.500000*%
%ADD28C,3.000000*%
%ADD29RoundRect,0.250500X-0.499500X0.499500X-0.499500X-0.499500X0.499500X-0.499500X0.499500X0.499500X0*%
%ADD30C,2.500000*%
G04 APERTURE END LIST*
D10*
%TO.C,H4*%
X-9144000Y118618000D03*
D11*
X-9144000Y118618000D03*
%TD*%
D10*
%TO.C,H3*%
X-10414000Y109220000D03*
D11*
X-10414000Y109220000D03*
%TD*%
D10*
%TO.C,H2*%
X-20828000Y107950000D03*
D11*
X-20828000Y107950000D03*
%TD*%
D10*
%TO.C,H1*%
X-21844000Y118618000D03*
D11*
X-21844000Y118618000D03*
%TD*%
D12*
%TO.C,C15*%
X47498000Y110316000D03*
D13*
X47498000Y115316000D03*
%TD*%
D14*
%TO.C,J1*%
X39116000Y115316000D03*
D15*
X39116000Y112776000D03*
X39116000Y110236000D03*
%TD*%
D14*
%TO.C,J_I2C1*%
X32611732Y49540000D03*
D15*
X30071732Y49540000D03*
X27531732Y49540000D03*
X24991732Y49540000D03*
%TD*%
D16*
%TO.C,U9*%
X-14986000Y11684000D03*
D17*
X-14986000Y14224000D03*
X-14986000Y16764000D03*
X-14986000Y19304000D03*
X-14986000Y21844000D03*
X-14986000Y24384000D03*
X-14986000Y26924000D03*
X-14986000Y29464000D03*
X-14986000Y32004000D03*
X-14986000Y34544000D03*
X-14986000Y37084000D03*
X-14986000Y39624000D03*
X-14986000Y42164000D03*
X-14986000Y44704000D03*
X-14986000Y47244000D03*
X-14986000Y49784000D03*
X-14986000Y52324000D03*
X-14986000Y54864000D03*
X-14986000Y57404000D03*
X-14986000Y59944000D03*
X-14986000Y62484000D03*
X-14986000Y65024000D03*
X-14986000Y67564000D03*
X-14986000Y70104000D03*
X-30226000Y70104000D03*
X-30226000Y67564000D03*
X-30226000Y65024000D03*
X-30226000Y62484000D03*
X-30226000Y59944000D03*
X-30226000Y57404000D03*
X-30226000Y54864000D03*
X-30226000Y52324000D03*
X-30226000Y49784000D03*
X-30226000Y47244000D03*
X-30226000Y44704000D03*
X-30226000Y42164000D03*
X-30226000Y39624000D03*
X-30226000Y37084000D03*
X-30226000Y34544000D03*
X-30226000Y32004000D03*
X-30226000Y29464000D03*
X-30226000Y26924000D03*
X-30226000Y24384000D03*
X-30226000Y21844000D03*
X-30226000Y19304000D03*
X-30226000Y16764000D03*
X-30226000Y14224000D03*
X-30226000Y11684000D03*
X-27686000Y14224000D03*
X-17526000Y57404000D03*
X-20066000Y57404000D03*
X-22606000Y57404000D03*
X-25146000Y57404000D03*
X-27686000Y57404000D03*
D16*
X-18036800Y17983200D03*
D17*
X-18036800Y20523200D03*
X-18036800Y23063200D03*
X-18036800Y25603200D03*
X-18036800Y28143200D03*
D18*
X-27787600Y24654000D03*
D19*
X-25787600Y24654000D03*
X-23787600Y24654000D03*
X-23787600Y26654000D03*
X-25787600Y26654000D03*
X-27787600Y26654000D03*
X-23876000Y12414000D03*
X-21336000Y12414000D03*
%TD*%
D20*
%TO.C,J5*%
X-85630000Y97600000D03*
D21*
X-87630000Y97600000D03*
X-85630000Y99600000D03*
X-87630000Y99600000D03*
X-85630000Y101600000D03*
X-87630000Y101600000D03*
%TD*%
D22*
%TO.C,J2*%
X80010000Y70612000D03*
D23*
X85810000Y70612000D03*
D24*
X83010000Y75412000D03*
%TD*%
D25*
%TO.C,J4*%
X82707000Y6604000D03*
X82707000Y59944000D03*
D26*
X76357000Y7874000D03*
D27*
X73817000Y9134000D03*
X76357000Y10414000D03*
X73817000Y11674000D03*
X76357000Y12954000D03*
X73817000Y14214000D03*
X76357000Y15494000D03*
X73817000Y16754000D03*
D26*
X76357000Y21844000D03*
D27*
X73817000Y23104000D03*
X76357000Y24384000D03*
X73817000Y25644000D03*
X76357000Y26924000D03*
X73817000Y28184000D03*
X76357000Y29464000D03*
X73817000Y30724000D03*
D26*
X76357000Y35814000D03*
D27*
X73817000Y37074000D03*
X76357000Y38354000D03*
X73817000Y39614000D03*
X76357000Y40894000D03*
X73817000Y42154000D03*
X76357000Y43434000D03*
X73817000Y44694000D03*
D26*
X76357000Y49784000D03*
D27*
X73817000Y51044000D03*
X76357000Y52324000D03*
X73817000Y53584000D03*
X76357000Y54864000D03*
X73817000Y56124000D03*
X76357000Y57404000D03*
X73817000Y58664000D03*
D28*
X86387000Y3824000D03*
X72547000Y19304000D03*
X72547000Y33274000D03*
X72547000Y47244000D03*
X86387000Y62724000D03*
%TD*%
D25*
%TO.C,J3*%
X-101500000Y102235000D03*
X-101500000Y90805000D03*
D29*
X-95150000Y100965000D03*
D27*
X-92610000Y99695000D03*
X-95150000Y98425000D03*
X-92610000Y97155000D03*
X-95150000Y95885000D03*
X-92610000Y94615000D03*
X-95150000Y93345000D03*
X-92610000Y92075000D03*
X-106580000Y102845000D03*
X-104880000Y100305000D03*
X-106580000Y92735000D03*
X-104880000Y90195000D03*
D30*
X-98450000Y104395000D03*
X-98450000Y88645000D03*
%TD*%
D12*
%TO.C,C18*%
X-63420000Y111760000D03*
D13*
X-58420000Y111760000D03*
%TD*%
M02*
