<?xml version="1.0" encoding="UTF-8" standalone="no"?><!DOCTYPE svg PUBLIC "-//W3C//DTD SVG 1.1//EN" "http://www.w3.org/Graphics/SVG/1.1/DTD/svg11.dtd"><svg width="100%" height="100%" viewBox="0 0 293 226" version="1.1" xmlns="http://www.w3.org/2000/svg" xmlns:xlink="http://www.w3.org/1999/xlink" xml:space="preserve" xmlns:serif="http://www.serif.com/" style="fill-rule:evenodd;clip-rule:evenodd;stroke-linecap:round;stroke-linejoin:round;"><g transform="matrix(1,0,0,1,-242.233,-177.445)"><g transform="matrix(1,0,0,1,-25.526,-5.50266)"><g transform="matrix(0.712181,0,0,0.712181,193.044,57.5672)"><path d="M317.236,178.483L317.236,198.007C317.236,199.349 316.146,200.439 314.804,200.439L295.28,200.439C293.938,200.439 292.848,199.349 292.848,198.007L292.848,178.483C292.848,177.141 293.938,176.051 295.28,176.051L314.804,176.051C316.146,176.051 317.236,177.141 317.236,178.483ZM307.752,196.469L307.752,195.587L303.532,195.587L306.966,191.202C307.503,190.513 307.752,190.003 307.752,189.217C307.752,187.603 306.662,186.569 305.049,186.569C303.408,186.569 302.347,187.686 302.347,189.23L303.339,189.23C303.339,187.962 304.139,187.452 305.049,187.452C306.125,187.452 306.759,188.155 306.759,189.217C306.759,189.754 306.58,190.182 306.207,190.664L302.333,195.587L302.333,196.469L307.752,196.469ZM306.073,182.367C306.073,181.877 306.01,181.356 305.691,181.037C305.526,180.872 305.246,180.764 304.928,180.764C304.584,180.764 304.298,180.84 304.043,181.171L304.043,180.802L303.585,180.802L303.585,185.333L304.043,185.333L304.043,183.564C304.298,183.888 304.584,183.971 304.928,183.971C305.246,183.971 305.526,183.863 305.691,183.697C306.01,183.379 306.073,182.857 306.073,182.367ZM305.615,182.367C305.615,182.978 305.513,183.564 304.832,183.564C304.151,183.564 304.043,182.978 304.043,182.367C304.043,181.756 304.151,181.171 304.832,181.171C305.513,181.171 305.615,181.756 305.615,182.367ZM297.221,182.686C297.221,182.31 297.088,181.998 296.84,181.788C296.649,181.623 296.439,181.534 296.012,181.47L295.516,181.394C295.28,181.356 295.045,181.266 294.905,181.146C294.765,181.025 294.701,180.846 294.701,180.624C294.701,180.121 295.051,179.784 295.656,179.784C296.133,179.784 296.432,179.917 296.712,180.172L297.024,179.86C296.636,179.51 296.254,179.364 295.675,179.364C294.778,179.364 294.224,179.873 294.224,180.643C294.224,181.006 294.339,181.286 294.568,181.489C294.765,181.661 295.045,181.776 295.401,181.833L295.93,181.916C296.26,181.966 296.375,182.005 296.521,182.132C296.668,182.259 296.738,182.463 296.738,182.698C296.738,183.226 296.33,183.538 295.669,183.538C295.16,183.538 294.81,183.417 294.434,183.042L294.103,183.373C294.53,183.799 294.975,183.971 295.656,183.971C296.598,183.971 297.221,183.481 297.221,182.686ZM309.541,182.367C309.541,181.877 309.478,181.356 309.16,181.037C308.994,180.872 308.714,180.764 308.396,180.764C308.052,180.764 307.766,180.84 307.511,181.171L307.511,180.802L307.053,180.802L307.053,185.333L307.511,185.333L307.511,183.564C307.766,183.888 308.052,183.971 308.396,183.971C308.714,183.971 308.994,183.863 309.16,183.697C309.283,183.574 309.369,183.419 309.427,183.247C309.518,182.978 309.541,182.667 309.541,182.367ZM309.083,182.367C309.083,182.978 308.981,183.564 308.3,183.564C307.62,183.564 307.511,182.978 307.511,182.367C307.511,181.756 307.62,181.171 308.3,181.171C308.981,181.171 309.083,181.756 309.083,182.367ZM302.611,182.488L302.611,182.278C302.611,181.349 302.134,180.764 301.326,180.764C300.53,180.764 300.04,181.356 300.04,182.367C300.04,183.475 300.581,183.971 301.409,183.971C301.943,183.971 302.236,183.806 302.554,183.487L302.242,183.214C301.994,183.462 301.784,183.57 301.421,183.57C300.823,183.57 300.499,183.176 300.499,182.488L302.611,182.488ZM302.153,182.145L300.499,182.145C300.511,181.89 300.524,181.795 300.594,181.623C300.715,181.336 300.995,181.152 301.326,181.152C301.657,181.152 301.937,181.336 302.058,181.623C302.128,181.795 302.14,181.89 302.153,182.145ZM299.353,183.933L299.353,183.538L299.111,183.538C298.819,183.538 298.685,183.366 298.685,183.08L298.685,181.171L299.353,181.171L299.353,180.821L298.685,180.821L298.685,179.841L298.227,179.841L298.227,180.821L297.832,180.821L297.832,181.171L298.227,181.171L298.227,183.093C298.227,183.557 298.494,183.933 299.029,183.933L299.353,183.933ZM315.981,181.056C315.759,180.834 315.53,180.764 315.23,180.764C314.868,180.764 314.524,180.923 314.352,181.184L314.352,180.802L313.894,180.802L313.894,183.933L314.352,183.933L314.352,182.011C314.352,181.534 314.645,181.171 315.103,181.171C315.345,181.171 315.472,181.228 315.644,181.4L315.981,181.056ZM312.92,182.488L312.92,182.278C312.92,181.349 312.443,180.764 311.635,180.764C310.84,180.764 310.35,181.356 310.35,182.367C310.35,183.475 310.89,183.971 311.718,183.971C312.252,183.971 312.545,183.806 312.863,183.487L312.551,183.214C312.303,183.462 312.093,183.57 311.73,183.57C311.132,183.57 310.808,183.176 310.808,182.488L312.92,182.488ZM312.462,182.145L310.808,182.145C310.82,181.89 310.833,181.795 310.903,181.623C311.024,181.336 311.304,181.152 311.635,181.152C311.966,181.152 312.246,181.336 312.367,181.623C312.437,181.795 312.45,181.89 312.462,182.145Z" style="fill:white;"/></g><g transform="matrix(0.712181,0,0,0.712181,153.607,57.5672)"><path d="M317.236,178.49L317.236,198C317.236,199.346 316.143,200.439 314.797,200.439L295.287,200.439C293.941,200.439 292.848,199.346 292.848,198L292.848,178.49C292.848,177.144 293.941,176.051 295.287,176.051L314.797,176.051C316.143,176.051 317.236,177.144 317.236,178.49ZM299.353,183.933L299.353,183.538L299.111,183.538C298.819,183.538 298.685,183.366 298.685,183.08L298.685,181.171L299.353,181.171L299.353,180.821L298.685,180.821L298.685,179.841L298.227,179.841L298.227,180.821L297.832,180.821L297.832,181.171L298.227,181.171L298.227,183.093C298.227,183.557 298.494,183.933 299.029,183.933L299.353,183.933ZM306.073,182.367C306.073,181.877 306.01,181.356 305.691,181.037C305.526,180.872 305.246,180.764 304.928,180.764C304.584,180.764 304.298,180.84 304.043,181.171L304.043,180.802L303.585,180.802L303.585,185.333L304.043,185.333L304.043,183.564C304.298,183.888 304.584,183.971 304.928,183.971C305.246,183.971 305.526,183.863 305.691,183.697C306.01,183.379 306.073,182.857 306.073,182.367ZM305.615,182.367C305.615,182.978 305.513,183.564 304.832,183.564C304.151,183.564 304.043,182.978 304.043,182.367C304.043,181.756 304.151,181.171 304.832,181.171C305.513,181.171 305.615,181.756 305.615,182.367ZM309.541,182.367C309.541,181.877 309.478,181.356 309.16,181.037C308.994,180.872 308.714,180.764 308.396,180.764C308.052,180.764 307.766,180.84 307.511,181.171L307.511,180.802L307.053,180.802L307.053,185.333L307.511,185.333L307.511,183.564C307.766,183.888 308.052,183.971 308.396,183.971C308.714,183.971 308.994,183.863 309.16,183.697C309.478,183.379 309.541,182.857 309.541,182.367ZM309.083,182.367C309.083,182.978 308.981,183.564 308.3,183.564C307.62,183.564 307.511,182.978 307.511,182.367C307.511,181.756 307.62,181.171 308.3,181.171C308.981,181.171 309.083,181.756 309.083,182.367ZM312.92,182.488L312.92,182.278C312.92,181.349 312.443,180.764 311.635,180.764C310.84,180.764 310.35,181.356 310.35,182.367C310.35,183.475 310.89,183.971 311.718,183.971C312.252,183.971 312.545,183.806 312.863,183.487L312.551,183.214C312.303,183.462 312.093,183.57 311.73,183.57C311.132,183.57 310.808,183.176 310.808,182.488L312.92,182.488ZM312.462,182.145L310.808,182.145C310.82,181.89 310.833,181.795 310.903,181.623C311.024,181.336 311.304,181.152 311.635,181.152C311.966,181.152 312.246,181.336 312.367,181.623C312.437,181.795 312.45,181.89 312.462,182.145ZM315.981,181.056C315.759,180.834 315.53,180.764 315.23,180.764C314.868,180.764 314.524,180.923 314.352,181.184L314.352,180.802L313.894,180.802L313.894,183.933L314.352,183.933L314.352,182.011C314.352,181.534 314.645,181.171 315.103,181.171C315.345,181.171 315.472,181.228 315.644,181.4L315.981,181.056ZM306.456,196.412L306.456,186.595L305.463,186.595L303.629,188.181L303.629,189.311L305.463,187.698L305.463,196.412L306.456,196.412ZM297.221,182.686C297.221,182.31 297.088,181.998 296.84,181.788C296.649,181.623 296.439,181.534 296.012,181.47L295.516,181.394C295.28,181.356 295.045,181.266 294.905,181.146C294.765,181.025 294.701,180.846 294.701,180.624C294.701,180.121 295.051,179.784 295.656,179.784C296.133,179.784 296.432,179.917 296.712,180.172L297.024,179.86C296.636,179.51 296.254,179.364 295.675,179.364C294.778,179.364 294.224,179.873 294.224,180.643C294.224,181.006 294.339,181.286 294.568,181.489C294.765,181.661 295.045,181.776 295.401,181.833L295.93,181.916C296.26,181.966 296.375,182.005 296.521,182.132C296.668,182.259 296.738,182.463 296.738,182.698C296.738,183.226 296.33,183.538 295.669,183.538C295.16,183.538 294.81,183.417 294.434,183.042L294.103,183.373C294.53,183.799 294.975,183.971 295.656,183.971C296.598,183.971 297.221,183.481 297.221,182.686ZM302.611,182.488L302.611,182.278C302.611,181.349 302.134,180.764 301.326,180.764C300.53,180.764 300.04,181.356 300.04,182.367C300.04,183.475 300.581,183.971 301.409,183.971C301.943,183.971 302.236,183.806 302.554,183.487L302.242,183.214C301.994,183.462 301.784,183.57 301.421,183.57C300.823,183.57 300.499,183.176 300.499,182.488L302.611,182.488ZM302.153,182.145L300.499,182.145C300.511,181.89 300.524,181.795 300.594,181.623C300.715,181.336 300.995,181.152 301.326,181.152C301.657,181.152 301.937,181.336 302.058,181.623C302.128,181.795 302.14,181.89 302.153,182.145Z" style="fill:white;"/></g><g transform="matrix(0.712181,0,0,0.712181,232.482,57.5672)"><path d="M317.236,178.49L317.236,198C317.236,199.346 316.143,200.439 314.797,200.439L295.287,200.439C293.941,200.439 292.848,199.346 292.848,198L292.848,178.49C292.848,177.144 293.941,176.051 295.287,176.051L314.797,176.051C316.143,176.051 317.236,177.144 317.236,178.49ZM311.901,185.751L311.104,184.553L311.867,183.403L311.452,183.403L310.922,184.272L310.383,183.403L309.968,183.403L310.731,184.553L309.934,185.751L310.35,185.751L310.922,184.84L311.485,185.751L311.901,185.751ZM308.164,185.751L308.164,184.248C308.164,183.976 308.078,183.756 307.911,183.594C307.768,183.456 307.558,183.374 307.305,183.374C306.975,183.374 306.713,183.508 306.531,183.766C306.388,183.508 306.135,183.374 305.811,183.374C305.548,183.374 305.314,183.47 305.147,183.661L305.147,183.403L304.804,183.403L304.804,185.751L305.147,185.751L305.147,184.305C305.147,183.895 305.381,183.68 305.734,183.68C306.088,183.68 306.312,183.89 306.312,184.305L306.312,185.751L306.655,185.751L306.655,184.267C306.655,183.895 306.899,183.68 307.243,183.68C307.596,183.68 307.82,183.89 307.82,184.305L307.82,185.751L308.164,185.751ZM310.861,190.613C310.861,190.129 310.797,189.69 310.479,189.366C310.263,189.149 309.964,189.009 309.582,189.009C309.2,189.009 308.901,189.149 308.685,189.366C308.366,189.69 308.303,190.129 308.303,190.613C308.303,191.097 308.366,191.536 308.685,191.86C308.901,192.077 309.2,192.217 309.582,192.217C309.964,192.217 310.263,192.077 310.479,191.86C310.797,191.536 310.861,191.097 310.861,190.613ZM310.403,190.613C310.403,190.963 310.384,191.351 310.155,191.58C310.008,191.727 309.805,191.809 309.582,191.809C309.359,191.809 309.162,191.727 309.016,191.58C308.786,191.351 308.761,190.963 308.761,190.613C308.761,190.263 308.786,189.875 309.016,189.646C309.162,189.499 309.359,189.417 309.582,189.417C309.805,189.417 310.008,189.499 310.155,189.646C310.384,189.875 310.403,190.263 310.403,190.613ZM296.685,184.014C296.685,183.541 296.704,183.021 296.351,182.668C296.146,182.463 295.845,182.353 295.492,182.353L294.327,182.353L294.327,185.751L295.492,185.751C295.845,185.751 296.146,185.641 296.351,185.436C296.704,185.083 296.685,184.486 296.685,184.014ZM296.322,184.014C296.322,184.429 296.332,184.935 296.098,185.178C295.922,185.36 295.692,185.427 295.43,185.427L294.69,185.427L294.69,182.678L295.43,182.678C295.692,182.678 295.922,182.744 296.098,182.926C296.332,183.169 296.322,183.599 296.322,184.014ZM309.366,182.735L309.366,182.348L308.98,182.348L308.98,182.735L309.366,182.735ZM299.129,183.403L298.757,183.403L298.117,185.288L297.473,183.403L297.1,183.403L297.945,185.703L297.778,186.162C297.702,186.376 297.63,186.453 297.392,186.453L297.287,186.453L297.287,186.758L297.435,186.758C297.602,186.758 297.769,186.715 297.893,186.596C297.96,186.534 298.012,186.448 298.06,186.319L299.129,183.403ZM301.458,185.751L301.458,184.248C301.458,183.976 301.382,183.756 301.215,183.594C301.071,183.451 300.866,183.374 300.613,183.374C300.351,183.374 300.122,183.47 299.955,183.661L299.955,183.403L299.611,183.403L299.611,185.751L299.955,185.751L299.955,184.305C299.955,183.895 300.184,183.68 300.537,183.68C300.89,183.68 301.114,183.89 301.114,184.305L301.114,185.751L301.458,185.751ZM309.343,185.751L309.343,183.403L308.999,183.403L308.999,185.751L309.343,185.751ZM307.889,189.048L307.393,189.048L306.534,191.561L305.681,189.048L305.185,189.048L306.33,192.178L306.737,192.178L307.889,189.048ZM314.1,191.262C314.1,190.677 313.725,190.467 313.177,190.416L312.675,190.371C312.28,190.339 312.127,190.18 312.127,189.913C312.127,189.595 312.369,189.398 312.827,189.398C313.152,189.398 313.438,189.474 313.661,189.646L313.96,189.347C313.68,189.118 313.279,189.009 312.834,189.009C312.166,189.009 311.682,189.353 311.682,189.926C311.682,190.441 312.006,190.715 312.617,190.766L313.133,190.81C313.496,190.842 313.655,190.995 313.655,191.268C313.655,191.638 313.336,191.822 312.821,191.822C312.433,191.822 312.096,191.72 311.847,191.459L311.542,191.765C311.886,192.096 312.299,192.217 312.827,192.217C313.585,192.217 314.1,191.867 314.1,191.262ZM302.035,190.734L302.035,190.524C302.035,189.595 301.557,189.009 300.749,189.009C299.954,189.009 299.464,189.601 299.464,190.613C299.464,191.72 300.005,192.217 300.832,192.217C301.366,192.217 301.659,192.051 301.977,191.733L301.666,191.459C301.417,191.708 301.207,191.816 300.845,191.816C300.246,191.816 299.922,191.421 299.922,190.734L302.035,190.734ZM301.576,190.39L299.922,190.39C299.935,190.136 299.947,190.04 300.017,189.868C300.138,189.582 300.418,189.398 300.749,189.398C301.08,189.398 301.36,189.582 301.481,189.868C301.551,190.04 301.564,190.136 301.576,190.39ZM298.706,190.931C298.706,190.556 298.573,190.244 298.325,190.034C298.134,189.868 297.924,189.779 297.497,189.716L297.001,189.639C296.766,189.601 296.53,189.512 296.39,189.391C296.25,189.27 296.186,189.092 296.186,188.869C296.186,188.367 296.536,188.029 297.141,188.029C297.618,188.029 297.917,188.163 298.197,188.418L298.509,188.106C298.121,187.756 297.739,187.609 297.16,187.609C296.263,187.609 295.709,188.118 295.709,188.888C295.709,189.251 295.824,189.531 296.053,189.735C296.25,189.907 296.53,190.021 296.886,190.078L297.415,190.161C297.746,190.212 297.86,190.25 298.006,190.378C298.153,190.505 298.223,190.708 298.223,190.944C298.223,191.472 297.816,191.784 297.154,191.784C296.645,191.784 296.295,191.663 295.919,191.288L295.588,191.618C296.015,192.045 296.46,192.217 297.141,192.217C298.083,192.217 298.706,191.727 298.706,190.931ZM314.192,184.668L314.192,184.51C314.192,183.813 313.834,183.374 313.228,183.374C312.631,183.374 312.263,183.818 312.263,184.577C312.263,185.408 312.669,185.78 313.29,185.78C313.69,185.78 313.91,185.656 314.149,185.417L313.915,185.212C313.729,185.398 313.571,185.479 313.299,185.479C312.85,185.479 312.607,185.183 312.607,184.668L314.192,184.668ZM313.848,184.41L312.607,184.41C312.617,184.219 312.626,184.148 312.679,184.019C312.769,183.804 312.979,183.666 313.228,183.666C313.476,183.666 313.686,183.804 313.776,184.019C313.829,184.148 313.838,184.219 313.848,184.41ZM303.968,185.751L303.968,184.157C303.968,183.646 303.658,183.374 303.028,183.374C302.646,183.374 302.408,183.451 302.198,183.723L302.432,183.938C302.57,183.742 302.723,183.67 303.023,183.67C303.453,183.67 303.625,183.842 303.625,184.186L303.625,184.41L302.918,184.41C302.393,184.41 302.107,184.677 302.107,185.088C302.107,185.274 302.169,185.451 302.284,185.565C302.432,185.718 302.622,185.78 302.947,185.78C303.262,185.78 303.434,185.718 303.625,185.527L303.625,185.751L303.968,185.751ZM303.625,184.921C303.625,185.116 303.587,185.25 303.505,185.326C303.357,185.47 303.181,185.484 302.98,185.484C302.608,185.484 302.441,185.355 302.441,185.083C302.441,184.811 302.613,184.668 302.966,184.668L303.625,184.668L303.625,184.921ZM315.757,185.751L315.757,185.455L315.571,185.455C315.332,185.455 315.256,185.341 315.256,185.112L315.256,182.353L314.912,182.353L314.912,185.126C314.912,185.484 315.098,185.751 315.509,185.751L315.757,185.751ZM305.096,189.302C304.873,189.079 304.644,189.009 304.345,189.009C303.982,189.009 303.638,189.168 303.466,189.429L303.466,189.048L303.008,189.048L303.008,192.178L303.466,192.178L303.466,190.257C303.466,189.779 303.759,189.417 304.217,189.417C304.459,189.417 304.586,189.474 304.758,189.646L305.096,189.302Z" style="fill:white;"/></g><g transform="matrix(0.712181,0,0,0.712181,114.17,57.5672)"><path d="M317.236,178.49L317.236,198C317.236,199.346 316.143,200.439 314.797,200.439L295.287,200.439C293.941,200.439 292.848,199.346 292.848,198L292.848,178.49C292.848,177.144 293.941,176.051 295.287,176.051L314.797,176.051C316.143,176.051 317.236,177.144 317.236,178.49ZM302.611,182.545L302.611,182.335C302.611,181.406 302.134,180.821 301.326,180.821C300.53,180.821 300.04,181.413 300.04,182.424C300.04,183.532 300.581,184.028 301.409,184.028C301.943,184.028 302.236,183.863 302.554,183.544L302.242,183.271C301.994,183.519 301.784,183.627 301.421,183.627C300.823,183.627 300.499,183.233 300.499,182.545L302.611,182.545ZM302.153,182.202L300.499,182.202C300.511,181.947 300.524,181.852 300.594,181.68C300.715,181.393 300.995,181.209 301.326,181.209C301.657,181.209 301.937,181.393 302.058,181.68C302.128,181.852 302.14,181.947 302.153,182.202ZM309.541,182.424C309.541,181.934 309.478,181.413 309.16,181.094C308.994,180.929 308.714,180.821 308.396,180.821C308.052,180.821 307.766,180.897 307.511,181.228L307.511,180.859L307.053,180.859L307.053,185.39L307.511,185.39L307.511,183.621C307.766,183.945 308.052,184.028 308.396,184.028C308.714,184.028 308.994,183.92 309.16,183.754C309.478,183.436 309.541,182.914 309.541,182.424ZM309.083,182.424C309.083,183.035 308.981,183.621 308.3,183.621C307.62,183.621 307.511,183.035 307.511,182.424C307.511,181.813 307.62,181.228 308.3,181.228C308.981,181.228 309.083,181.813 309.083,182.424ZM297.221,182.743C297.221,182.367 297.088,182.055 296.84,181.845C296.649,181.68 296.439,181.591 296.012,181.527L295.516,181.451C295.28,181.413 295.045,181.323 294.905,181.203C294.765,181.082 294.701,180.903 294.701,180.681C294.701,180.178 295.051,179.841 295.656,179.841C296.133,179.841 296.432,179.974 296.712,180.229L297.024,179.917C296.636,179.567 296.254,179.421 295.675,179.421C294.778,179.421 294.224,179.93 294.224,180.7C294.224,181.063 294.339,181.343 294.568,181.546C294.765,181.718 295.045,181.833 295.401,181.89L295.93,181.973C296.26,182.023 296.375,182.062 296.521,182.189C296.668,182.316 296.738,182.52 296.738,182.755C296.738,183.283 296.33,183.595 295.669,183.595C295.16,183.595 294.81,183.474 294.434,183.099L294.103,183.43C294.53,183.856 294.975,184.028 295.656,184.028C296.598,184.028 297.221,183.538 297.221,182.743ZM299.353,183.99L299.353,183.595L299.111,183.595C298.819,183.595 298.685,183.423 298.685,183.137L298.685,181.228L299.353,181.228L299.353,180.878L298.685,180.878L298.685,179.898L298.227,179.898L298.227,180.878L297.832,180.878L297.832,181.228L298.227,181.228L298.227,183.15C298.227,183.614 298.494,183.99 299.029,183.99L299.353,183.99ZM307.731,193.875L307.731,189.298C307.731,187.671 306.573,186.595 305.042,186.595C303.512,186.595 302.354,187.671 302.354,189.298L302.354,193.875C302.354,195.502 303.512,196.578 305.042,196.578C306.573,196.578 307.731,195.502 307.731,193.875ZM306.738,193.82C306.738,194.896 306.132,195.695 305.042,195.695C303.953,195.695 303.346,194.896 303.346,193.82L303.346,189.353C303.346,188.277 303.953,187.478 305.042,187.478C306.132,187.478 306.738,188.277 306.738,189.353L306.738,193.82ZM315.981,181.113C315.759,180.891 315.53,180.821 315.23,180.821C314.868,180.821 314.524,180.98 314.352,181.241L314.352,180.859L313.894,180.859L313.894,183.99L314.352,183.99L314.352,182.068C314.352,181.591 314.645,181.228 315.103,181.228C315.345,181.228 315.472,181.285 315.644,181.457L315.981,181.113ZM306.073,182.424C306.073,181.934 306.01,181.413 305.691,181.094C305.526,180.929 305.246,180.821 304.928,180.821C304.584,180.821 304.298,180.897 304.043,181.228L304.043,180.859L303.585,180.859L303.585,185.39L304.043,185.39L304.043,183.621C304.298,183.945 304.584,184.028 304.928,184.028C305.246,184.028 305.526,183.92 305.691,183.754C306.01,183.436 306.073,182.914 306.073,182.424ZM305.615,182.424C305.615,183.035 305.513,183.621 304.832,183.621C304.151,183.621 304.043,183.035 304.043,182.424C304.043,181.813 304.151,181.228 304.832,181.228C305.513,181.228 305.615,181.813 305.615,182.424ZM312.92,182.545L312.92,182.335C312.92,181.406 312.443,180.821 311.635,180.821C310.84,180.821 310.35,181.413 310.35,182.424C310.35,183.532 310.89,184.028 311.718,184.028C312.252,184.028 312.545,183.863 312.863,183.544L312.551,183.271C312.303,183.519 312.093,183.627 311.73,183.627C311.132,183.627 310.808,183.233 310.808,182.545L312.92,182.545ZM312.462,182.202L310.808,182.202C310.82,181.947 310.833,181.852 310.903,181.68C311.024,181.393 311.304,181.209 311.635,181.209C311.966,181.209 312.246,181.393 312.367,181.68C312.437,181.852 312.45,181.947 312.462,182.202Z" style="fill:white;"/></g><g transform="matrix(0.40374,0,0,0.40374,308.857,197.475)"><path d="M616.199,307.305L619.621,307.305L619.621,309.015L616.199,309.015L616.199,312.437L614.488,312.437L614.488,309.015L611.066,309.015L611.066,307.305L614.47,307.287L614.479,305.585L614.489,303.883L616.199,303.883L616.199,307.305Z" style="fill:white;stroke:rgb(242,237,161);stroke-width:0.03px;"/></g><g transform="matrix(0.40374,0,0,0.40374,308.857,197.475)"><rect x="559.775" y="307.305" width="8.554" height="1.711" style="fill:white;stroke:rgb(242,237,161);stroke-width:0.03px;"/></g><g transform="matrix(0.40374,0,0,0.40374,308.857,197.475)"><path d="M615.688,299.615L615.997,299.627L616.148,299.638L616.908,299.741L617.654,299.909L618.38,300.14L619.078,300.429L619.744,300.775L620.37,301.175L620.868,301.558L621.433,302.076L621.944,302.64L622.4,303.247L622.799,303.893L623.139,304.576L623.416,305.291L623.595,305.897L623.748,306.619L623.842,307.361L623.878,308.11L623.854,308.855L623.772,309.581L623.681,310.063L623.478,310.825L623.213,311.554L622.889,312.247L622.507,312.902L622.069,313.515L621.577,314.086L621.032,314.61L620.437,315.085L620.186,315.26L619.529,315.66L618.843,315.994L618.127,316.265L617.378,316.473L616.652,316.61L616.469,316.632L616.244,316.653L615.99,316.671L615.724,316.685L615.461,316.697L615.214,316.703L615.001,316.704L614.836,316.699L614.773,316.694L614.685,316.684L614.547,316.67L614.383,316.652L614.274,316.641L613.57,316.533L612.864,316.359L612.168,316.123L611.491,315.829L610.844,315.482L610.237,315.086L609.872,314.807L609.64,314.607L609.385,314.37L609.127,314.114L608.886,313.859L608.68,313.625L608.656,313.596L608.24,313.033L607.869,312.421L607.546,311.768L607.276,311.081L607.061,310.37L606.906,309.642L606.876,309.452L606.812,309.015L599.371,309.015L598.604,309.016L597.904,309.016L597.268,309.017L596.692,309.018L596.175,309.019L595.714,309.021L595.306,309.022L594.948,309.024L594.639,309.027L594.375,309.029L594.154,309.033L593.974,309.036L593.831,309.04L593.724,309.044L593.649,309.049L593.604,309.054L593.586,309.059L593.586,309.06L593.442,309.51L593.283,309.903L593.102,310.25L592.892,310.565L592.645,310.861L592.533,310.977L592.15,311.316L591.732,311.596L591.286,311.819L590.819,311.983L590.336,312.089L589.846,312.137L589.353,312.127L588.864,312.058L588.387,311.932L587.928,311.747L587.493,311.504L587.087,311.203L586.853,310.985L586.507,310.593L586.227,310.179L586.008,309.738L585.92,309.5L585.782,308.985L585.71,308.467L585.706,308.172L608.678,308.172L608.708,308.862L608.8,309.52L608.956,310.155L609.176,310.774L609.337,311.136L609.659,311.725L610.035,312.27L610.462,312.769L610.935,313.219L611.452,313.619L612.009,313.965L612.601,314.256L613.225,314.488L613.877,314.66L614.554,314.769L614.951,314.802L615.08,314.809L615.192,314.815L615.236,314.818L615.304,314.818L615.427,314.813L615.588,314.804L615.772,314.793L615.813,314.79L616.512,314.705L617.184,314.558L617.824,314.349L618.43,314.081L619,313.757L619.529,313.38L620.015,312.951L620.456,312.474L620.847,311.951L621.188,311.384L621.474,310.776L621.702,310.13L621.85,309.55L621.895,309.283L621.931,308.964L621.956,308.615L621.97,308.254L621.972,307.902L621.962,307.579L621.939,307.314L621.82,306.616L621.637,305.951L621.393,305.319L621.089,304.724L620.724,304.166L620.302,303.648L619.822,303.172L619.286,302.739L619.05,302.573L618.505,302.251L617.922,301.984L617.308,301.774L616.671,301.621L616.018,301.527L615.356,301.493L614.693,301.519L614.037,301.607L613.394,301.757L613.134,301.837L612.5,302.084L611.905,302.389L611.352,302.749L610.842,303.16L610.379,303.62L609.965,304.125L609.603,304.672L609.295,305.257L609.045,305.877L608.855,306.529L608.728,307.209L608.715,307.304L608.702,307.45L608.691,307.646L608.683,307.868L608.678,308.096L608.678,308.172L585.706,308.172L585.703,307.951L585.759,307.443L585.875,306.95L586.051,306.477L586.284,306.031L586.572,305.619L586.915,305.245L587.231,304.975L587.66,304.692L588.119,304.47L588.601,304.308L589.1,304.207L589.608,304.168L590.118,304.19L590.622,304.273L591.114,304.417L591.587,304.624L591.979,304.856L592.097,304.944L592.242,305.063L592.394,305.198L592.487,305.285L592.795,305.618L593.054,305.976L593.27,306.368L593.449,306.806L593.587,307.26L593.601,307.266L593.643,307.271L593.714,307.276L593.817,307.28L593.955,307.284L594.131,307.287L594.347,307.29L594.605,307.293L594.909,307.295L595.26,307.297L595.662,307.299L596.116,307.301L596.626,307.302L597.195,307.303L597.823,307.304L598.515,307.304L599.273,307.305L606.817,307.305L606.842,307.082L606.907,306.635L607.006,306.155L607.132,305.668L607.279,305.2L607.416,304.831L607.74,304.128L608.121,303.468L608.555,302.85L609.04,302.28L609.572,301.757L610.15,301.285L610.769,300.866L611.427,300.503L612.121,300.197L612.848,299.951L613.604,299.767L614.038,299.692L614.311,299.66L614.633,299.636L614.984,299.62L615.343,299.612L615.688,299.615Z" style="fill:white;stroke:rgb(242,237,161);stroke-width:0.03px;"/></g><g transform="matrix(0.40374,0,0,0.40374,308.857,197.475)"><path d="M590.486,299.653L591.232,299.755L591.968,299.925L592.549,300.111L593.275,300.411L593.967,300.773L594.623,301.195L595.239,301.674L595.812,302.208L596.338,302.794L596.606,303.137L596.701,303.265L595.963,303.779L595.76,303.919L595.575,304.045L595.416,304.151L595.292,304.231L595.211,304.28L595.183,304.293L595.142,304.266L595.075,304.196L594.997,304.1L594.592,303.618L594.131,303.173L593.623,302.769L593.076,302.411L592.5,302.105L591.901,301.857L591.289,301.671L590.977,301.603L590.295,301.508L589.615,301.482L588.941,301.524L588.279,301.632L587.633,301.804L587.008,302.039L586.409,302.336L585.841,302.693L585.308,303.109L584.975,303.419L584.505,303.935L584.097,304.485L583.753,305.07L583.47,305.688L583.25,306.342L583.091,307.031L583.063,307.198L583.031,307.472L583.011,307.794L583.004,308.139L583.01,308.486L583.028,308.81L583.059,309.09L583.063,309.118L583.205,309.806L583.411,310.465L583.677,311.094L584.002,311.687L584.382,312.241L584.816,312.753L585.302,313.218L585.836,313.634L585.973,313.727L586.568,314.079L587.187,314.366L587.826,314.587L588.48,314.743L589.144,314.831L589.813,314.853L590.483,314.806L591.149,314.69L591.763,314.52L592.408,314.27L593.021,313.958L593.595,313.587L594.128,313.161L594.616,312.68L594.91,312.338L595.174,312.007L595.341,312.126L595.423,312.184L595.552,312.274L595.714,312.387L595.896,312.514L596.087,312.647L596.264,312.771L596.42,312.881L596.544,312.972L596.629,313.037L596.665,313.068L596.666,313.07L596.643,313.119L596.58,313.21L596.485,313.334L596.366,313.482L596.231,313.643L596.088,313.809L595.945,313.968L595.809,314.113L595.759,314.165L595.181,314.7L594.567,315.173L593.921,315.585L593.243,315.934L592.539,316.219L591.809,316.437L591.058,316.59L590.287,316.674L589.716,316.692L588.989,316.667L588.302,316.59L587.641,316.458L586.994,316.268L586.348,316.018L585.857,315.788L585.181,315.41L584.546,314.976L583.954,314.487L583.41,313.947L582.917,313.359L582.477,312.727L582.094,312.055L581.774,311.354L581.521,310.644L581.335,309.915L581.26,309.512L581.18,309.015L572.553,309.033L572.526,309.283L572.433,309.887L572.284,310.51L572.086,311.136L571.844,311.746L571.565,312.325L571.271,312.829L570.994,313.23L570.677,313.635L570.334,314.028L569.979,314.394L569.628,314.717L569.46,314.855L568.821,315.314L568.155,315.708L567.461,316.035L566.739,316.297L565.991,316.494L565.215,316.624L564.413,316.689L564.248,316.693L564.031,316.697L563.828,316.699L563.654,316.699L563.526,316.697L563.464,316.694L562.981,316.639L562.551,316.577L562.156,316.503L561.779,316.414L561.402,316.306L561.219,316.248L560.509,315.978L559.833,315.647L559.195,315.259L558.598,314.817L558.044,314.324L557.536,313.783L557.078,313.198L556.672,312.571L556.321,311.906L556.029,311.206L555.798,310.475L555.751,310.291L555.677,309.976L555.62,309.693L555.578,309.425L555.548,309.155L555.53,308.866L555.52,308.54L555.517,308.16L555.517,308.142L557.387,308.142L557.42,308.85L557.519,309.537L557.682,310.198L557.91,310.831L558.199,311.435L558.551,312.004L558.701,312.212L559.133,312.725L559.612,313.188L560.135,313.598L560.696,313.952L561.292,314.249L561.916,314.484L562.565,314.657L563.234,314.764L563.5,314.788L563.666,314.799L563.812,314.81L563.919,314.817L563.963,314.82L564.024,314.819L564.14,314.814L564.297,314.805L564.479,314.793L564.532,314.789L565.224,314.705L565.89,314.558L566.525,314.35L567.127,314.085L567.692,313.765L568.218,313.393L568.702,312.973L569.14,312.506L569.53,311.997L569.869,311.448L570.154,310.863L570.382,310.243L570.549,309.593L570.654,308.915L570.677,308.641L570.69,307.935L570.638,307.247L570.522,306.58L570.344,305.938L570.106,305.324L569.811,304.742L569.46,304.195L569.055,303.687L568.598,303.222L568.091,302.803L567.536,302.433L567.099,302.194L566.479,301.925L565.834,301.721L565.172,301.58L564.499,301.504L563.821,301.493L563.146,301.546L562.478,301.664L561.826,301.846L561.196,302.093L561.066,302.154L560.472,302.477L559.923,302.854L559.422,303.28L558.971,303.752L558.571,304.266L558.226,304.82L557.937,305.409L557.707,306.03L557.537,306.679L557.43,307.354L557.387,308.049L557.387,308.142L555.517,308.142L555.52,307.781L555.53,307.455L555.548,307.166L555.578,306.895L555.619,306.627L555.675,306.342L555.736,306.075L555.946,305.332L556.218,304.622L556.55,303.946L556.938,303.309L557.379,302.711L557.871,302.157L558.41,301.65L558.994,301.192L559.619,300.786L560.284,300.435L560.983,300.142L561.717,299.91L562.056,299.826L562.349,299.763L562.608,299.714L562.851,299.678L563.093,299.652L563.353,299.636L563.646,299.627L563.991,299.624L564.07,299.624L564.452,299.628L564.78,299.639L565.073,299.659L565.349,299.69L565.624,299.735L565.917,299.795L566.118,299.84L566.813,300.038L567.499,300.296L568.161,300.611L568.788,300.976L569.333,301.359L569.592,301.572L569.871,301.822L570.152,302.092L570.415,302.364L570.643,302.62L570.699,302.689L571.128,303.271L571.508,303.896L571.837,304.555L572.109,305.236L572.321,305.931L572.468,306.629L572.499,306.841L572.52,306.99L572.539,307.121L572.553,307.209L572.556,307.224L572.572,307.305L581.197,307.305L581.197,307.22L581.204,307.128L581.225,306.982L581.255,306.799L581.293,306.593L581.335,306.382L581.379,306.18L581.42,306.003L581.428,305.972L581.647,305.268L581.933,304.581L582.28,303.917L582.685,303.282L583.144,302.683L583.651,302.125L584.204,301.614L584.763,301.182L585.408,300.769L586.083,300.418L586.783,300.13L587.503,299.905L588.239,299.744L588.984,299.648L589.735,299.617L590.486,299.653Z" style="fill:white;stroke:rgb(242,237,161);stroke-width:0.03px;"/></g><g transform="matrix(0.329484,0.329484,-0.329484,0.329484,451.077,78.9178)"><g transform="matrix(14,0,0,14,496.832,345.651)"><path d="M0.545,-0L0.545,-0.068L0.179,-0.068L0.179,-0.325L0.491,-0.325L0.491,-0.393L0.179,-0.393L0.179,-0.644L0.545,-0.644L0.545,-0.712L0.103,-0.712L0.103,-0L0.545,-0Z" style="fill:white;fill-rule:nonzero;"/></g><g transform="matrix(14,0,0,14,505.232,345.651)"><path d="M0.279,-0L0.279,-0.062L0.241,-0.062C0.195,-0.062 0.174,-0.089 0.174,-0.134L0.174,-0.434L0.279,-0.434L0.279,-0.489L0.174,-0.489L0.174,-0.643L0.102,-0.643L0.102,-0.489L0.04,-0.489L0.04,-0.434L0.102,-0.434L0.102,-0.132C0.102,-0.059 0.144,-0 0.228,-0L0.279,-0Z" style="fill:white;fill-rule:nonzero;"/></g><g transform="matrix(14,0,0,14,509.88,345.651)"><path d="M0.477,-0L0.477,-0.316C0.477,-0.427 0.411,-0.498 0.3,-0.498C0.245,-0.498 0.198,-0.479 0.162,-0.438L0.162,-0.712L0.09,-0.712L0.09,-0L0.162,-0L0.162,-0.304C0.162,-0.389 0.211,-0.434 0.285,-0.434C0.359,-0.434 0.405,-0.39 0.405,-0.304L0.405,-0L0.477,-0Z" style="fill:white;fill-rule:nonzero;"/></g><g transform="matrix(14,0,0,14,517.748,345.651)"><path d="M0.467,-0.227L0.467,-0.26C0.467,-0.406 0.392,-0.498 0.265,-0.498C0.14,-0.498 0.063,-0.405 0.063,-0.246C0.063,-0.072 0.148,0.006 0.278,0.006C0.362,0.006 0.408,-0.02 0.458,-0.07L0.409,-0.113C0.37,-0.074 0.337,-0.057 0.28,-0.057C0.186,-0.057 0.135,-0.119 0.135,-0.227L0.467,-0.227ZM0.395,-0.281L0.135,-0.281C0.137,-0.321 0.139,-0.336 0.15,-0.363C0.169,-0.408 0.213,-0.437 0.265,-0.437C0.317,-0.437 0.361,-0.408 0.38,-0.363C0.391,-0.336 0.393,-0.321 0.395,-0.281Z" style="fill:white;fill-rule:nonzero;"/></g><g transform="matrix(14,0,0,14,525.168,345.651)"><path d="M0.418,-0.452C0.383,-0.487 0.347,-0.498 0.3,-0.498C0.243,-0.498 0.189,-0.473 0.162,-0.432L0.162,-0.492L0.09,-0.492L0.09,-0L0.162,-0L0.162,-0.302C0.162,-0.377 0.208,-0.434 0.28,-0.434C0.318,-0.434 0.338,-0.425 0.365,-0.398L0.418,-0.452Z" style="fill:white;fill-rule:nonzero;"/></g><g transform="matrix(14,0,0,14,531.062,345.651)"><path d="M0.477,-0L0.477,-0.315C0.477,-0.372 0.461,-0.418 0.426,-0.452C0.396,-0.482 0.353,-0.498 0.3,-0.498C0.245,-0.498 0.197,-0.478 0.162,-0.438L0.162,-0.492L0.09,-0.492L0.09,-0L0.162,-0L0.162,-0.303C0.162,-0.389 0.21,-0.434 0.284,-0.434C0.358,-0.434 0.405,-0.39 0.405,-0.303L0.405,-0L0.477,-0Z" style="fill:white;fill-rule:nonzero;"/></g><g transform="matrix(14,0,0,14,538.93,345.651)"><path d="M0.467,-0.227L0.467,-0.26C0.467,-0.406 0.392,-0.498 0.265,-0.498C0.14,-0.498 0.063,-0.405 0.063,-0.246C0.063,-0.072 0.148,0.006 0.278,0.006C0.362,0.006 0.408,-0.02 0.458,-0.07L0.409,-0.113C0.37,-0.074 0.337,-0.057 0.28,-0.057C0.186,-0.057 0.135,-0.119 0.135,-0.227L0.467,-0.227ZM0.395,-0.281L0.135,-0.281C0.137,-0.321 0.139,-0.336 0.15,-0.363C0.169,-0.408 0.213,-0.437 0.265,-0.437C0.317,-0.437 0.361,-0.408 0.38,-0.363C0.391,-0.336 0.393,-0.321 0.395,-0.281Z" style="fill:white;fill-rule:nonzero;"/></g><g transform="matrix(14,0,0,14,546.35,345.651)"><path d="M0.279,-0L0.279,-0.062L0.241,-0.062C0.195,-0.062 0.174,-0.089 0.174,-0.134L0.174,-0.434L0.279,-0.434L0.279,-0.489L0.174,-0.489L0.174,-0.643L0.102,-0.643L0.102,-0.489L0.04,-0.489L0.04,-0.434L0.102,-0.434L0.102,-0.132C0.102,-0.059 0.144,-0 0.228,-0L0.279,-0Z" style="fill:white;fill-rule:nonzero;"/></g></g><g transform="matrix(2.85319e-17,-0.46596,0.46596,2.85319e-17,194.222,558.887)"><g transform="matrix(9.65747,0,0,9.65747,522.789,345.651)"><path d="M0.518,-0.644L0.518,-0.712L0.03,-0.712L0.03,-0.644L0.236,-0.644L0.236,-0L0.312,-0L0.312,-0.644L0.518,-0.644Z" style="fill:white;fill-rule:nonzero;"/></g><g transform="matrix(9.65747,0,0,9.65747,527.348,345.651)"><path d="M0.467,-0.227L0.467,-0.26C0.467,-0.406 0.392,-0.498 0.265,-0.498C0.14,-0.498 0.063,-0.405 0.063,-0.246C0.063,-0.072 0.148,0.006 0.278,0.006C0.362,0.006 0.408,-0.02 0.458,-0.07L0.409,-0.113C0.37,-0.074 0.337,-0.057 0.28,-0.057C0.186,-0.057 0.135,-0.119 0.135,-0.227L0.467,-0.227ZM0.395,-0.281L0.135,-0.281C0.137,-0.321 0.139,-0.336 0.15,-0.363C0.169,-0.408 0.213,-0.437 0.265,-0.437C0.317,-0.437 0.361,-0.408 0.38,-0.363C0.391,-0.336 0.393,-0.321 0.395,-0.281Z" style="fill:white;fill-rule:nonzero;"/></g><g transform="matrix(9.65747,0,0,9.65747,532.466,345.651)"><path d="M0.445,-0.144C0.445,-0.236 0.386,-0.269 0.3,-0.277L0.221,-0.284C0.159,-0.289 0.135,-0.314 0.135,-0.356C0.135,-0.406 0.173,-0.437 0.245,-0.437C0.296,-0.437 0.341,-0.425 0.376,-0.398L0.423,-0.445C0.379,-0.481 0.316,-0.498 0.246,-0.498C0.141,-0.498 0.065,-0.444 0.065,-0.354C0.065,-0.273 0.116,-0.23 0.212,-0.222L0.293,-0.215C0.35,-0.21 0.375,-0.186 0.375,-0.143C0.375,-0.085 0.325,-0.056 0.244,-0.056C0.183,-0.056 0.13,-0.072 0.091,-0.113L0.043,-0.065C0.097,-0.013 0.162,0.006 0.245,0.006C0.364,0.006 0.445,-0.049 0.445,-0.144Z" style="fill:white;fill-rule:nonzero;"/></g><g transform="matrix(9.65747,0,0,9.65747,537.16,345.651)"><path d="M0.279,-0L0.279,-0.062L0.241,-0.062C0.195,-0.062 0.174,-0.089 0.174,-0.134L0.174,-0.434L0.279,-0.434L0.279,-0.489L0.174,-0.489L0.174,-0.643L0.102,-0.643L0.102,-0.489L0.04,-0.489L0.04,-0.434L0.102,-0.434L0.102,-0.132C0.102,-0.059 0.144,-0 0.228,-0L0.279,-0Z" style="fill:white;fill-rule:nonzero;"/></g><g transform="matrix(9.65747,0,0,9.65747,540.366,345.651)"><path d="M0.481,-0.246C0.481,-0.323 0.471,-0.405 0.421,-0.455C0.395,-0.481 0.351,-0.498 0.301,-0.498C0.247,-0.498 0.202,-0.486 0.162,-0.434L0.162,-0.492L0.09,-0.492L0.09,0.22L0.162,0.22L0.162,-0.058C0.202,-0.007 0.247,0.006 0.301,0.006C0.351,0.006 0.395,-0.011 0.421,-0.037C0.471,-0.087 0.481,-0.169 0.481,-0.246ZM0.409,-0.246C0.409,-0.15 0.393,-0.058 0.286,-0.058C0.179,-0.058 0.162,-0.15 0.162,-0.246C0.162,-0.342 0.179,-0.434 0.286,-0.434C0.393,-0.434 0.409,-0.342 0.409,-0.246Z" style="fill:white;fill-rule:nonzero;"/></g><g transform="matrix(9.65747,0,0,9.65747,545.629,345.651)"><path d="M0.466,-0.246C0.466,-0.322 0.456,-0.391 0.406,-0.442C0.372,-0.476 0.325,-0.498 0.265,-0.498C0.205,-0.498 0.158,-0.476 0.124,-0.442C0.074,-0.391 0.064,-0.322 0.064,-0.246C0.064,-0.17 0.074,-0.101 0.124,-0.05C0.158,-0.016 0.205,0.006 0.265,0.006C0.325,0.006 0.372,-0.016 0.406,-0.05C0.456,-0.101 0.466,-0.17 0.466,-0.246ZM0.394,-0.246C0.394,-0.191 0.391,-0.13 0.355,-0.094C0.332,-0.071 0.3,-0.058 0.265,-0.058C0.23,-0.058 0.199,-0.071 0.176,-0.094C0.14,-0.13 0.136,-0.191 0.136,-0.246C0.136,-0.301 0.14,-0.362 0.176,-0.398C0.199,-0.421 0.23,-0.434 0.265,-0.434C0.3,-0.434 0.332,-0.421 0.355,-0.398C0.391,-0.362 0.394,-0.301 0.394,-0.246Z" style="fill:white;fill-rule:nonzero;"/></g><g transform="matrix(9.65747,0,0,9.65747,550.748,345.651)"><path d="M0.162,-0L0.162,-0.492L0.09,-0.492L0.09,-0L0.162,-0ZM0.167,-0.632L0.167,-0.713L0.086,-0.713L0.086,-0.632L0.167,-0.632Z" style="fill:white;fill-rule:nonzero;"/></g><g transform="matrix(9.65747,0,0,9.65747,553.191,345.651)"><path d="M0.477,-0L0.477,-0.315C0.477,-0.372 0.461,-0.418 0.426,-0.452C0.396,-0.482 0.353,-0.498 0.3,-0.498C0.245,-0.498 0.197,-0.478 0.162,-0.438L0.162,-0.492L0.09,-0.492L0.09,-0L0.162,-0L0.162,-0.303C0.162,-0.389 0.21,-0.434 0.284,-0.434C0.358,-0.434 0.405,-0.39 0.405,-0.303L0.405,-0L0.477,-0Z" style="fill:white;fill-rule:nonzero;"/></g><g transform="matrix(9.65747,0,0,9.65747,558.618,345.651)"><path d="M0.279,-0L0.279,-0.062L0.241,-0.062C0.195,-0.062 0.174,-0.089 0.174,-0.134L0.174,-0.434L0.279,-0.434L0.279,-0.489L0.174,-0.489L0.174,-0.643L0.102,-0.643L0.102,-0.489L0.04,-0.489L0.04,-0.434L0.102,-0.434L0.102,-0.132C0.102,-0.059 0.144,-0 0.228,-0L0.279,-0Z" style="fill:white;fill-rule:nonzero;"/></g><g transform="matrix(9.65747,0,0,9.65747,561.825,345.651)"><path d="M0.445,-0.144C0.445,-0.236 0.386,-0.269 0.3,-0.277L0.221,-0.284C0.159,-0.289 0.135,-0.314 0.135,-0.356C0.135,-0.406 0.173,-0.437 0.245,-0.437C0.296,-0.437 0.341,-0.425 0.376,-0.398L0.423,-0.445C0.379,-0.481 0.316,-0.498 0.246,-0.498C0.141,-0.498 0.065,-0.444 0.065,-0.354C0.065,-0.273 0.116,-0.23 0.212,-0.222L0.293,-0.215C0.35,-0.21 0.375,-0.186 0.375,-0.143C0.375,-0.085 0.325,-0.056 0.244,-0.056C0.183,-0.056 0.13,-0.072 0.091,-0.113L0.043,-0.065C0.097,-0.013 0.162,0.006 0.245,0.006C0.364,0.006 0.445,-0.049 0.445,-0.144Z" style="fill:white;fill-rule:nonzero;"/></g><g transform="matrix(9.65747,0,0,9.65747,507.704,355.405)"><path d="M0.545,-0L0.545,-0.068L0.179,-0.068L0.179,-0.325L0.491,-0.325L0.491,-0.393L0.179,-0.393L0.179,-0.644L0.545,-0.644L0.545,-0.712L0.103,-0.712L0.103,-0L0.545,-0Z" style="fill:white;fill-rule:nonzero;"/></g><g transform="matrix(9.65747,0,0,9.65747,513.499,355.405)"><path d="M0.477,-0L0.477,-0.315C0.477,-0.372 0.461,-0.418 0.426,-0.452C0.396,-0.482 0.353,-0.498 0.3,-0.498C0.245,-0.498 0.197,-0.478 0.162,-0.438L0.162,-0.492L0.09,-0.492L0.09,-0L0.162,-0L0.162,-0.303C0.162,-0.389 0.21,-0.434 0.284,-0.434C0.358,-0.434 0.405,-0.39 0.405,-0.303L0.405,-0L0.477,-0Z" style="fill:white;fill-rule:nonzero;"/></g><g transform="matrix(9.65747,0,0,9.65747,518.926,355.405)"><path d="M0.455,-0L0.455,-0.712L0.383,-0.712L0.383,-0.435C0.343,-0.486 0.298,-0.498 0.244,-0.498C0.194,-0.498 0.15,-0.481 0.124,-0.455C0.074,-0.405 0.064,-0.323 0.064,-0.246C0.064,-0.169 0.074,-0.087 0.124,-0.037C0.15,-0.011 0.194,0.006 0.244,0.006C0.298,0.006 0.344,-0.007 0.384,-0.059L0.384,-0L0.455,-0ZM0.383,-0.246C0.383,-0.15 0.367,-0.058 0.26,-0.058C0.153,-0.058 0.136,-0.15 0.136,-0.246C0.136,-0.342 0.153,-0.434 0.26,-0.434C0.367,-0.434 0.383,-0.342 0.383,-0.246Z" style="fill:white;fill-rule:nonzero;"/></g><g transform="matrix(9.65747,0,0,9.65747,524.19,355.405)"><rect x="0.076" y="-0.303" width="0.274" height="0.067" style="fill:white;fill-rule:nonzero;"/></g><g transform="matrix(9.65747,0,0,9.65747,528.304,355.405)"><path d="M0.532,-0.196C0.532,-0.255 0.511,-0.304 0.472,-0.337C0.442,-0.363 0.409,-0.377 0.342,-0.387L0.264,-0.399C0.227,-0.405 0.19,-0.419 0.168,-0.438C0.146,-0.457 0.136,-0.485 0.136,-0.52C0.136,-0.599 0.191,-0.652 0.286,-0.652C0.361,-0.652 0.408,-0.631 0.452,-0.591L0.501,-0.64C0.44,-0.695 0.38,-0.718 0.289,-0.718C0.148,-0.718 0.061,-0.638 0.061,-0.517C0.061,-0.46 0.079,-0.416 0.115,-0.384C0.146,-0.357 0.19,-0.339 0.246,-0.33L0.329,-0.317C0.381,-0.309 0.399,-0.303 0.422,-0.283C0.445,-0.263 0.456,-0.231 0.456,-0.194C0.456,-0.111 0.392,-0.062 0.288,-0.062C0.208,-0.062 0.153,-0.081 0.094,-0.14L0.042,-0.088C0.109,-0.021 0.179,0.006 0.286,0.006C0.434,0.006 0.532,-0.071 0.532,-0.196Z" style="fill:white;fill-rule:nonzero;"/></g><g transform="matrix(9.65747,0,0,9.65747,533.982,355.405)"><path d="M0.713,-0.492L0.635,-0.492L0.523,-0.097L0.393,-0.492L0.331,-0.492L0.202,-0.097L0.089,-0.492L0.011,-0.492L0.167,-0L0.234,-0L0.362,-0.382L0.491,-0L0.558,-0L0.713,-0.492Z" style="fill:white;fill-rule:nonzero;"/></g><g transform="matrix(9.65747,0,0,9.65747,540.974,355.405)"><path d="M0.162,-0L0.162,-0.492L0.09,-0.492L0.09,-0L0.162,-0ZM0.167,-0.632L0.167,-0.713L0.086,-0.713L0.086,-0.632L0.167,-0.632Z" style="fill:white;fill-rule:nonzero;"/></g><g transform="matrix(9.65747,0,0,9.65747,543.418,355.405)"><path d="M0.279,-0L0.279,-0.062L0.241,-0.062C0.195,-0.062 0.174,-0.089 0.174,-0.134L0.174,-0.434L0.279,-0.434L0.279,-0.489L0.174,-0.489L0.174,-0.643L0.102,-0.643L0.102,-0.489L0.04,-0.489L0.04,-0.434L0.102,-0.434L0.102,-0.132C0.102,-0.059 0.144,-0 0.228,-0L0.279,-0Z" style="fill:white;fill-rule:nonzero;"/></g><g transform="matrix(9.65747,0,0,9.65747,546.547,355.405)"><path d="M0.443,-0.067L0.394,-0.114C0.357,-0.073 0.328,-0.058 0.281,-0.058C0.233,-0.058 0.193,-0.077 0.167,-0.114C0.144,-0.146 0.135,-0.184 0.135,-0.246C0.135,-0.308 0.144,-0.346 0.167,-0.378C0.193,-0.415 0.233,-0.434 0.281,-0.434C0.328,-0.434 0.357,-0.42 0.394,-0.379L0.443,-0.425C0.392,-0.48 0.349,-0.498 0.281,-0.498C0.157,-0.498 0.063,-0.414 0.063,-0.246C0.063,-0.078 0.157,0.006 0.281,0.006C0.349,0.006 0.392,-0.012 0.443,-0.067Z" style="fill:white;fill-rule:nonzero;"/></g><g transform="matrix(9.65747,0,0,9.65747,551.279,355.405)"><path d="M0.477,-0L0.477,-0.316C0.477,-0.427 0.411,-0.498 0.3,-0.498C0.245,-0.498 0.198,-0.479 0.162,-0.438L0.162,-0.712L0.09,-0.712L0.09,-0L0.162,-0L0.162,-0.304C0.162,-0.389 0.211,-0.434 0.285,-0.434C0.359,-0.434 0.405,-0.39 0.405,-0.304L0.405,-0L0.477,-0Z" style="fill:white;fill-rule:nonzero;"/></g><g transform="matrix(9.65747,0,0,9.65747,556.706,355.405)"><path d="M0.467,-0.227L0.467,-0.26C0.467,-0.406 0.392,-0.498 0.265,-0.498C0.14,-0.498 0.063,-0.405 0.063,-0.246C0.063,-0.072 0.148,0.006 0.278,0.006C0.362,0.006 0.408,-0.02 0.458,-0.07L0.409,-0.113C0.37,-0.074 0.337,-0.057 0.28,-0.057C0.186,-0.057 0.135,-0.119 0.135,-0.227L0.467,-0.227ZM0.395,-0.281L0.135,-0.281C0.137,-0.321 0.139,-0.336 0.15,-0.363C0.169,-0.408 0.213,-0.437 0.265,-0.437C0.317,-0.437 0.361,-0.408 0.38,-0.363C0.391,-0.336 0.393,-0.321 0.395,-0.281Z" style="fill:white;fill-rule:nonzero;"/></g><g transform="matrix(9.65747,0,0,9.65747,561.825,355.405)"><path d="M0.445,-0.144C0.445,-0.236 0.386,-0.269 0.3,-0.277L0.221,-0.284C0.159,-0.289 0.135,-0.314 0.135,-0.356C0.135,-0.406 0.173,-0.437 0.245,-0.437C0.296,-0.437 0.341,-0.425 0.376,-0.398L0.423,-0.445C0.379,-0.481 0.316,-0.498 0.246,-0.498C0.141,-0.498 0.065,-0.444 0.065,-0.354C0.065,-0.273 0.116,-0.23 0.212,-0.222L0.293,-0.215C0.35,-0.21 0.375,-0.186 0.375,-0.143C0.375,-0.085 0.325,-0.056 0.244,-0.056C0.183,-0.056 0.13,-0.072 0.091,-0.113L0.043,-0.065C0.097,-0.013 0.162,0.006 0.245,0.006C0.364,0.006 0.445,-0.049 0.445,-0.144Z" style="fill:white;fill-rule:nonzero;"/></g></g><g transform="matrix(2.85319e-17,-0.46596,0.46596,2.85319e-17,197.989,633.399)"><g transform="matrix(14,0,0,14,546.441,345.651)"><rect x="0.103" y="-0.712" width="0.076" height="0.712" style="fill:white;fill-rule:nonzero;"/></g><g transform="matrix(14,0,0,14,550.389,345.651)"><path d="M0.461,-0L0.461,-0.064L0.155,-0.064L0.404,-0.382C0.443,-0.432 0.461,-0.469 0.461,-0.526C0.461,-0.643 0.382,-0.718 0.265,-0.718C0.146,-0.718 0.069,-0.637 0.069,-0.525L0.141,-0.525C0.141,-0.617 0.199,-0.654 0.265,-0.654C0.343,-0.654 0.389,-0.603 0.389,-0.526C0.389,-0.487 0.376,-0.456 0.349,-0.421L0.068,-0.064L0.068,-0L0.461,-0Z" style="fill:white;fill-rule:nonzero;"/></g><g transform="matrix(14,0,0,14,557.697,345.651)"><path d="M0.572,-0.206L0.496,-0.206C0.477,-0.119 0.414,-0.062 0.325,-0.062C0.278,-0.062 0.233,-0.08 0.202,-0.112C0.157,-0.158 0.152,-0.207 0.152,-0.356C0.152,-0.505 0.157,-0.554 0.202,-0.6C0.233,-0.632 0.278,-0.65 0.325,-0.65C0.414,-0.65 0.475,-0.593 0.494,-0.506L0.572,-0.506C0.548,-0.64 0.453,-0.718 0.325,-0.718C0.255,-0.718 0.191,-0.692 0.143,-0.644C0.076,-0.577 0.076,-0.507 0.076,-0.356C0.076,-0.205 0.076,-0.135 0.143,-0.068C0.191,-0.02 0.255,0.006 0.325,0.006C0.452,0.006 0.549,-0.072 0.572,-0.206Z" style="fill:white;fill-rule:nonzero;"/></g></g><g transform="matrix(0.329484,0.329484,-0.329484,0.329484,245.357,38.0402)"><g transform="matrix(14,0,0,14,504.231,345.651)"><path d="M0.629,-0L0.629,-0.712L0.553,-0.712L0.553,-0.143L0.175,-0.712L0.103,-0.712L0.103,-0L0.179,-0L0.179,-0.571L0.557,-0L0.629,-0Z" style="fill:white;fill-rule:nonzero;"/></g><g transform="matrix(14,0,0,14,514.479,345.651)"><path d="M0.467,-0.227L0.467,-0.26C0.467,-0.406 0.392,-0.498 0.265,-0.498C0.14,-0.498 0.063,-0.405 0.063,-0.246C0.063,-0.072 0.148,0.006 0.278,0.006C0.362,0.006 0.408,-0.02 0.458,-0.07L0.409,-0.113C0.37,-0.074 0.337,-0.057 0.28,-0.057C0.186,-0.057 0.135,-0.119 0.135,-0.227L0.467,-0.227ZM0.395,-0.281L0.135,-0.281C0.137,-0.321 0.139,-0.336 0.15,-0.363C0.169,-0.408 0.213,-0.437 0.265,-0.437C0.317,-0.437 0.361,-0.408 0.38,-0.363C0.391,-0.336 0.393,-0.321 0.395,-0.281Z" style="fill:white;fill-rule:nonzero;"/></g><g transform="matrix(14,0,0,14,521.899,345.651)"><path d="M0.466,-0.246C0.466,-0.322 0.456,-0.391 0.406,-0.442C0.372,-0.476 0.325,-0.498 0.265,-0.498C0.205,-0.498 0.158,-0.476 0.124,-0.442C0.074,-0.391 0.064,-0.322 0.064,-0.246C0.064,-0.17 0.074,-0.101 0.124,-0.05C0.158,-0.016 0.205,0.006 0.265,0.006C0.325,0.006 0.372,-0.016 0.406,-0.05C0.456,-0.101 0.466,-0.17 0.466,-0.246ZM0.394,-0.246C0.394,-0.191 0.391,-0.13 0.355,-0.094C0.332,-0.071 0.3,-0.058 0.265,-0.058C0.23,-0.058 0.199,-0.071 0.176,-0.094C0.14,-0.13 0.136,-0.191 0.136,-0.246C0.136,-0.301 0.14,-0.362 0.176,-0.398C0.199,-0.421 0.23,-0.434 0.265,-0.434C0.3,-0.434 0.332,-0.421 0.355,-0.398C0.391,-0.362 0.394,-0.301 0.394,-0.246Z" style="fill:white;fill-rule:nonzero;"/></g><g transform="matrix(14,0,0,14,529.319,345.651)"><path d="M0.588,-0.503C0.588,-0.631 0.498,-0.712 0.368,-0.712L0.103,-0.712L0.103,-0L0.179,-0L0.179,-0.293L0.368,-0.293C0.498,-0.293 0.588,-0.375 0.588,-0.503ZM0.512,-0.503C0.512,-0.409 0.45,-0.361 0.361,-0.361L0.179,-0.361L0.179,-0.644L0.361,-0.644C0.45,-0.644 0.512,-0.597 0.512,-0.503Z" style="fill:white;fill-rule:nonzero;"/></g><g transform="matrix(14,0,0,14,538.139,345.651)"><path d="M0.162,-0L0.162,-0.492L0.09,-0.492L0.09,-0L0.162,-0ZM0.167,-0.632L0.167,-0.713L0.086,-0.713L0.086,-0.632L0.167,-0.632Z" style="fill:white;fill-rule:nonzero;"/></g><g transform="matrix(14,0,0,14,541.681,345.651)"><path d="M0.445,-0L0.278,-0.251L0.438,-0.492L0.351,-0.492L0.24,-0.31L0.127,-0.492L0.04,-0.492L0.2,-0.251L0.033,-0L0.12,-0L0.24,-0.191L0.358,-0L0.445,-0Z" style="fill:white;fill-rule:nonzero;"/></g><g transform="matrix(14,0,0,14,548.093,345.651)"><path d="M0.467,-0.227L0.467,-0.26C0.467,-0.406 0.392,-0.498 0.265,-0.498C0.14,-0.498 0.063,-0.405 0.063,-0.246C0.063,-0.072 0.148,0.006 0.278,0.006C0.362,0.006 0.408,-0.02 0.458,-0.07L0.409,-0.113C0.37,-0.074 0.337,-0.057 0.28,-0.057C0.186,-0.057 0.135,-0.119 0.135,-0.227L0.467,-0.227ZM0.395,-0.281L0.135,-0.281C0.137,-0.321 0.139,-0.336 0.15,-0.363C0.169,-0.408 0.213,-0.437 0.265,-0.437C0.317,-0.437 0.361,-0.408 0.38,-0.363C0.391,-0.336 0.393,-0.321 0.395,-0.281Z" style="fill:white;fill-rule:nonzero;"/></g><g transform="matrix(14,0,0,14,555.513,345.651)"><path d="M0.265,-0L0.265,-0.062L0.226,-0.062C0.176,-0.062 0.16,-0.086 0.16,-0.134L0.16,-0.712L0.088,-0.712L0.088,-0.131C0.088,-0.056 0.127,-0 0.213,-0L0.265,-0Z" style="fill:white;fill-rule:nonzero;"/></g><g transform="matrix(14,0,0,14,559.671,345.651)"><path d="M0.445,-0.144C0.445,-0.236 0.386,-0.269 0.3,-0.277L0.221,-0.284C0.159,-0.289 0.135,-0.314 0.135,-0.356C0.135,-0.406 0.173,-0.437 0.245,-0.437C0.296,-0.437 0.341,-0.425 0.376,-0.398L0.423,-0.445C0.379,-0.481 0.316,-0.498 0.246,-0.498C0.141,-0.498 0.065,-0.444 0.065,-0.354C0.065,-0.273 0.116,-0.23 0.212,-0.222L0.293,-0.215C0.35,-0.21 0.375,-0.186 0.375,-0.143C0.375,-0.085 0.325,-0.056 0.244,-0.056C0.183,-0.056 0.13,-0.072 0.091,-0.113L0.043,-0.065C0.097,-0.013 0.162,0.006 0.245,0.006C0.364,0.006 0.445,-0.049 0.445,-0.144Z" style="fill:white;fill-rule:nonzero;"/></g></g><g transform="matrix(2.85319e-17,-0.46596,0.46596,2.85319e-17,203.708,545.079)"><g transform="matrix(14,0,0,14,559.307,345.651)"><path d="M0.33,-0L0.33,-0.712L0.258,-0.712L0.125,-0.597L0.125,-0.515L0.258,-0.632L0.258,-0L0.33,-0Z" style="fill:white;fill-rule:nonzero;"/></g></g><g transform="matrix(2.85319e-17,-0.46596,0.46596,2.85319e-17,203.708,552.188)"><g transform="matrix(14,0,0,14,559.307,345.651)"><path d="M0.456,-0.19L0.456,-0.522C0.456,-0.64 0.372,-0.718 0.261,-0.718C0.15,-0.718 0.066,-0.64 0.066,-0.522L0.066,-0.19C0.066,-0.072 0.15,0.006 0.261,0.006C0.372,0.006 0.456,-0.072 0.456,-0.19ZM0.384,-0.194C0.384,-0.116 0.34,-0.058 0.261,-0.058C0.182,-0.058 0.138,-0.116 0.138,-0.194L0.138,-0.518C0.138,-0.596 0.182,-0.654 0.261,-0.654C0.34,-0.654 0.384,-0.596 0.384,-0.518L0.384,-0.194Z" style="fill:white;fill-rule:nonzero;"/></g></g><g transform="matrix(2.85319e-17,-0.46596,0.46596,2.85319e-17,203.708,538.029)"><g transform="matrix(14,0,0,14,559.307,345.651)"><path d="M0.461,-0L0.461,-0.064L0.155,-0.064L0.404,-0.382C0.443,-0.432 0.461,-0.469 0.461,-0.526C0.461,-0.643 0.382,-0.718 0.265,-0.718C0.146,-0.718 0.069,-0.637 0.069,-0.525L0.141,-0.525C0.141,-0.617 0.199,-0.654 0.265,-0.654C0.343,-0.654 0.389,-0.603 0.389,-0.526C0.389,-0.487 0.376,-0.456 0.349,-0.421L0.068,-0.064L0.068,-0L0.461,-0Z" style="fill:white;fill-rule:nonzero;"/></g></g><g transform="matrix(1,0,0,1,53.3809,-39.8228)"><g transform="matrix(10,0,0,10,491.54,345.651)"><path d="M0.33,-0L0.33,-0.712L0.258,-0.712L0.125,-0.597L0.125,-0.515L0.258,-0.632L0.258,-0L0.33,-0Z" style="fill:white;fill-rule:nonzero;"/></g><g transform="matrix(10,0,0,10,496.76,345.651)"><path d="M0.461,-0L0.461,-0.064L0.155,-0.064L0.404,-0.382C0.443,-0.432 0.461,-0.469 0.461,-0.526C0.461,-0.643 0.382,-0.718 0.265,-0.718C0.146,-0.718 0.069,-0.637 0.069,-0.525L0.141,-0.525C0.141,-0.617 0.199,-0.654 0.265,-0.654C0.343,-0.654 0.389,-0.603 0.389,-0.526C0.389,-0.487 0.376,-0.456 0.349,-0.421L0.068,-0.064L0.068,-0L0.461,-0Z" style="fill:white;fill-rule:nonzero;"/></g><g transform="matrix(10,0,0,10,501.98,345.651)"><path d="M0.538,-0.712L0.458,-0.712L0.273,-0.136L0.088,-0.712L0.008,-0.712L0.242,-0L0.304,-0L0.538,-0.712Z" style="fill:white;fill-rule:nonzero;"/></g></g><g transform="matrix(0.329484,0.329484,-0.329484,0.329484,219.581,106.314)"><g transform="matrix(27.8994,0,0,27.8994,491.54,345.651)"><path d="M0.599,-0L0.338,-0.712L0.274,-0.712L0.012,-0L0.093,-0L0.15,-0.161L0.461,-0.161L0.518,-0L0.599,-0ZM0.439,-0.227L0.173,-0.227L0.307,-0.603L0.439,-0.227Z" style="fill:white;fill-rule:nonzero;"/></g></g><g transform="matrix(0.329484,0.329484,-0.329484,0.329484,239.97,126.703)"><g transform="matrix(27.8994,0,0,27.8994,491.54,345.651)"><path d="M0.592,-0.197C0.592,-0.282 0.544,-0.341 0.476,-0.366C0.536,-0.388 0.581,-0.447 0.581,-0.522C0.581,-0.641 0.495,-0.712 0.371,-0.712L0.103,-0.712L0.103,-0L0.38,-0C0.506,-0 0.592,-0.068 0.592,-0.197ZM0.516,-0.199C0.516,-0.119 0.461,-0.068 0.373,-0.068L0.179,-0.068L0.179,-0.329L0.373,-0.329C0.461,-0.329 0.516,-0.279 0.516,-0.199ZM0.505,-0.521C0.505,-0.436 0.444,-0.397 0.365,-0.397L0.179,-0.397L0.179,-0.644L0.365,-0.644C0.444,-0.644 0.505,-0.606 0.505,-0.521Z" style="fill:white;fill-rule:nonzero;"/></g></g></g></g></svg>