<?xml version="1.0" encoding="UTF-8" standalone="no"?>
<!DOCTYPE svg PUBLIC "-//W3C//DTD SVG 1.1//EN" "http://www.w3.org/Graphics/SVG/1.1/DTD/svg11.dtd">
<svg width="100%" height="100%" viewBox="0 0 57 67" version="1.1" xmlns="http://www.w3.org/2000/svg" xmlns:xlink="http://www.w3.org/1999/xlink" xml:space="preserve" xmlns:serif="http://www.serif.com/" style="fill-rule:evenodd;clip-rule:evenodd;stroke-linejoin:round;stroke-miterlimit:2;">
    <g transform="matrix(1,0,0,1,-401.604,-375.327)">
        <g transform="matrix(0.246279,0.246279,-0.246279,0.246279,376.494,175.456)">
            <path d="M500.253,345.651L500.253,336.607C500.253,334.97 499.736,333.649 498.731,332.673C497.87,331.841 496.606,331.352 495.085,331.352C493.104,331.352 491.524,332.156 490.433,333.707C489.572,332.156 488.05,331.352 486.098,331.352C484.519,331.352 483.112,331.927 482.107,333.075L482.107,331.525L480.04,331.525L480.04,345.651L482.107,345.651L482.107,336.951C482.107,334.482 483.514,333.19 485.639,333.19C487.763,333.19 489.113,334.453 489.113,336.951L489.113,345.651L491.18,345.651L491.18,336.722C491.18,334.482 492.644,333.19 494.711,333.19C496.836,333.19 498.186,334.453 498.186,336.951L498.186,345.651L500.253,345.651Z" style="fill:white;fill-rule:nonzero;"/>
            <path d="M516.073,338.588C516.073,336.406 515.786,334.425 514.35,332.96C513.374,331.984 512.025,331.352 510.302,331.352C508.579,331.352 507.23,331.984 506.254,332.96C504.818,334.425 504.531,336.406 504.531,338.588C504.531,340.77 504.818,342.751 506.254,344.215C507.23,345.191 508.579,345.823 510.302,345.823C512.025,345.823 513.374,345.191 514.35,344.215C515.786,342.751 516.073,340.77 516.073,338.588ZM514.006,338.588C514.006,340.167 513.92,341.918 512.886,342.952C512.226,343.612 511.307,343.986 510.302,343.986C509.297,343.986 508.407,343.612 507.747,342.952C506.713,341.918 506.598,340.167 506.598,338.588C506.598,337.009 506.713,335.257 507.747,334.224C508.407,333.563 509.297,333.19 510.302,333.19C511.307,333.19 512.226,333.563 512.886,334.224C513.92,335.257 514.006,337.009 514.006,338.588Z" style="fill:white;fill-rule:nonzero;"/>
            <path d="M525.519,345.651L525.519,343.871L524.399,343.871C522.964,343.871 522.504,343.182 522.504,341.803L522.504,325.208L520.437,325.208L520.437,341.89C520.437,344.043 521.557,345.651 524.026,345.651L525.519,345.651Z" style="fill:white;fill-rule:nonzero;"/>
            <path d="M534.046,345.651L534.046,343.871L532.927,343.871C531.491,343.871 531.032,343.182 531.032,341.803L531.032,325.208L528.964,325.208L528.964,341.89C528.964,344.043 530.084,345.651 532.553,345.651L534.046,345.651Z" style="fill:white;fill-rule:nonzero;"/>
            <path d="M548.517,345.651L548.517,331.525L546.45,331.525L546.45,340.224C546.45,342.694 545.043,343.986 542.918,343.986C540.794,343.986 539.473,342.722 539.473,340.224L539.473,331.525L537.406,331.525L537.406,340.54C537.406,342.177 537.836,343.526 538.841,344.502C539.703,345.364 540.966,345.823 542.488,345.823C544.067,345.823 545.474,345.22 546.478,344.072L546.478,345.651L548.517,345.651Z" style="fill:white;fill-rule:nonzero;"/>
            <path d="M563.878,341.516C563.878,338.875 562.184,337.927 559.715,337.698L557.446,337.497C555.666,337.353 554.977,336.635 554.977,335.43C554.977,333.994 556.068,333.104 558.135,333.104C559.6,333.104 560.892,333.448 561.897,334.224L563.246,332.874C561.983,331.841 560.174,331.352 558.164,331.352C555.149,331.352 552.967,332.903 552.967,335.487C552.967,337.813 554.432,339.047 557.188,339.277L559.514,339.478C561.15,339.621 561.868,340.31 561.868,341.545C561.868,343.21 560.432,344.043 558.107,344.043C556.355,344.043 554.834,343.584 553.714,342.406L552.336,343.785C553.886,345.278 555.752,345.823 558.135,345.823C561.552,345.823 563.878,344.244 563.878,341.516Z" style="fill:white;fill-rule:nonzero;"/>
            <path d="M578.061,343.727L576.654,342.378C575.592,343.555 574.759,343.986 573.41,343.986C572.032,343.986 570.883,343.44 570.137,342.378C569.476,341.459 569.218,340.368 569.218,338.588C569.218,336.808 569.476,335.717 570.137,334.798C570.883,333.736 572.032,333.19 573.41,333.19C574.759,333.19 575.592,333.592 576.654,334.769L578.061,333.448C576.597,331.869 575.362,331.352 573.41,331.352C569.85,331.352 567.151,333.764 567.151,338.588C567.151,343.411 569.85,345.823 573.41,345.823C575.362,345.823 576.597,345.306 578.061,343.727Z" style="fill:white;fill-rule:nonzero;"/>
            <path d="M602.208,345.651L602.208,336.607C602.208,334.97 601.691,333.649 600.686,332.673C599.825,331.841 598.561,331.352 597.04,331.352C595.059,331.352 593.479,332.156 592.388,333.707C591.527,332.156 590.005,331.352 588.053,331.352C586.474,331.352 585.067,331.927 584.062,333.075L584.062,331.525L581.995,331.525L581.995,345.651L584.062,345.651L584.062,336.951C584.062,334.482 585.469,333.19 587.593,333.19C589.718,333.19 591.068,334.453 591.068,336.951L591.068,345.651L593.135,345.651L593.135,336.722C593.135,334.482 594.599,333.19 596.666,333.19C598.791,333.19 600.14,334.453 600.14,336.951L600.14,345.651L602.208,345.651Z" style="fill:white;fill-rule:nonzero;"/>
            <path d="M618.028,338.588C618.028,336.406 617.741,334.425 616.305,332.96C615.329,331.984 613.979,331.352 612.257,331.352C610.534,331.352 609.185,331.984 608.208,332.96C606.773,334.425 606.486,336.406 606.486,338.588C606.486,340.77 606.773,342.751 608.208,344.215C609.185,345.191 610.534,345.823 612.257,345.823C613.979,345.823 615.329,345.191 616.305,344.215C617.741,342.751 618.028,340.77 618.028,338.588ZM615.961,338.588C615.961,340.167 615.874,341.918 614.841,342.952C614.18,343.612 613.262,343.986 612.257,343.986C611.252,343.986 610.362,343.612 609.701,342.952C608.668,341.918 608.553,340.167 608.553,338.588C608.553,337.009 608.668,335.257 609.701,334.224C610.362,333.563 611.252,333.19 612.257,333.19C613.262,333.19 614.18,333.563 614.841,334.224C615.874,335.257 615.961,337.009 615.961,338.588Z" style="fill:white;fill-rule:nonzero;"/>
            <path d="M627.876,345.651L627.876,343.871L626.785,343.871C625.464,343.871 624.861,343.096 624.861,341.803L624.861,333.19L627.876,333.19L627.876,331.611L624.861,331.611L624.861,327.189L622.794,327.189L622.794,331.611L621.014,331.611L621.014,333.19L622.794,333.19L622.794,341.861C622.794,343.957 624,345.651 626.412,345.651L627.876,345.651Z" style="fill:white;fill-rule:nonzero;"/>
            <path d="M634.049,345.651L634.049,331.525L631.982,331.525L631.982,345.651L634.049,345.651ZM634.192,327.505L634.192,325.179L631.867,325.179L631.867,327.505L634.192,327.505Z" style="fill:white;fill-rule:nonzero;"/>
            <path d="M650.041,338.588C650.041,336.406 649.754,334.425 648.319,332.96C647.342,331.984 645.993,331.352 644.27,331.352C642.548,331.352 641.198,331.984 640.222,332.96C638.786,334.425 638.499,336.406 638.499,338.588C638.499,340.77 638.786,342.751 640.222,344.215C641.198,345.191 642.548,345.823 644.27,345.823C645.993,345.823 647.342,345.191 648.319,344.215C649.754,342.751 650.041,340.77 650.041,338.588ZM647.974,338.588C647.974,340.167 647.888,341.918 646.854,342.952C646.194,343.612 645.275,343.986 644.27,343.986C643.265,343.986 642.375,343.612 641.715,342.952C640.681,341.918 640.566,340.167 640.566,338.588C640.566,337.009 640.681,335.257 641.715,334.224C642.375,333.563 643.265,333.19 644.27,333.19C645.275,333.19 646.194,333.563 646.854,334.224C647.888,335.257 647.974,337.009 647.974,338.588Z" style="fill:white;fill-rule:nonzero;"/>
            <path d="M665.574,345.651L665.574,336.607C665.574,334.97 665.115,333.649 664.11,332.673C663.249,331.812 662.014,331.352 660.492,331.352C658.913,331.352 657.535,331.927 656.53,333.075L656.53,331.525L654.463,331.525L654.463,345.651L656.53,345.651L656.53,336.951C656.53,334.482 657.908,333.19 660.033,333.19C662.158,333.19 663.507,334.453 663.507,336.951L663.507,345.651L665.574,345.651Z" style="fill:white;fill-rule:nonzero;"/>
            <path d="M497.504,352.903L496.412,352.903L494.522,358.433L492.646,352.903L491.554,352.903L494.074,359.791L494.97,359.791L497.504,352.903Z" style="fill:white;fill-rule:nonzero;"/>
            <path d="M502.278,359.791L502.278,349.823L501.27,349.823L499.408,351.433L499.408,352.581L501.27,350.943L501.27,359.791L502.278,359.791Z" style="fill:white;fill-rule:nonzero;"/>
            <rect x="506.198" y="358.475" width="1.316" height="1.316" style="fill:white;fill-rule:nonzero;"/>
            <path d="M515.2,359.791L515.2,358.895L510.916,358.895L514.402,354.443C514.948,353.743 515.2,353.225 515.2,352.427C515.2,350.789 514.094,349.739 512.456,349.739C510.79,349.739 509.712,350.873 509.712,352.441L510.72,352.441C510.72,351.153 511.532,350.635 512.456,350.635C513.548,350.635 514.192,351.349 514.192,352.427C514.192,352.973 514.01,353.407 513.632,353.897L509.698,358.895L509.698,359.791L515.2,359.791Z" style="fill:white;fill-rule:nonzero;"/>
        </g>
        <g transform="matrix(0.0607946,0.0607946,-0.0607946,0.0607946,420.039,389.426)">
            <path d="M154.476,100.652C197.215,57.13 294.522,26.231 338.249,76.687C381.975,127.144 467.162,149.252 456.109,251.828C445.056,354.403 448.917,456.605 365.342,464.997C281.767,473.389 126.097,450.651 93.309,393.638C60.522,336.626 25.333,223.451 63.536,171.036C101.739,118.62 110.448,145.488 154.476,100.652ZM154.341,349.828C163.102,310.839 182.242,226.876 205.507,184.565C209.959,176.467 214.458,169.989 219.18,166.064C221.92,163.788 224.555,162.364 227.384,163.391C230.944,164.683 233.366,167.609 235.216,171.344C237.708,176.378 239.097,182.767 239.845,189.839C243.747,226.729 229.711,280.784 229.711,280.784C228.587,285.147 231.135,289.613 235.462,290.867C239.79,292.121 244.33,289.708 245.713,285.42C245.713,285.42 262.557,233.007 288.139,197.782C294.574,188.921 301.539,181.161 308.994,175.847C318.422,169.126 328.64,166.585 339.307,172.495C345.918,176.157 349.811,182.197 351.893,189.641C354.343,198.401 354.378,208.941 352.967,220.352C345.843,278 301.747,356.25 301.747,356.25C299.495,360.26 300.923,365.344 304.933,367.596C308.943,369.848 314.028,368.421 316.28,364.41C316.28,364.41 362.069,282.598 369.508,222.396C373.117,193.193 367.294,168.947 347.385,157.916C326.719,146.466 306.829,153.64 289.416,170.634C276.977,182.773 265.851,200.152 256.677,217.508C257.331,207.347 257.386,197.221 256.419,188.086C254.295,168.005 246.69,152.668 233.071,147.724C226.233,145.242 219.419,146.138 212.742,150.213C205.331,154.737 197.831,163.933 190.902,176.535C167.009,219.988 147.077,306.133 138.08,346.174C137.072,350.661 139.896,355.123 144.383,356.131C148.871,357.14 153.333,354.315 154.341,349.828Z" style="fill:white;"/>
        </g>
    </g>
</svg>
