<?xml version="1.0" encoding="UTF-8" standalone="no"?>
<!DOCTYPE svg PUBLIC "-//W3C//DTD SVG 1.1//EN" "http://www.w3.org/Graphics/SVG/1.1/DTD/svg11.dtd">
<svg width="100%" height="100%" viewBox="0 0 71 74" version="1.1" xmlns="http://www.w3.org/2000/svg" xmlns:xlink="http://www.w3.org/1999/xlink" xml:space="preserve" xmlns:serif="http://www.serif.com/" style="fill-rule:evenodd;clip-rule:evenodd;stroke-linejoin:round;stroke-miterlimit:2;">
    <g transform="matrix(1,0,0,1,-388.32,-375.285)">
        <g transform="matrix(0.246279,0.246279,-0.246279,0.246279,376.494,175.456)">
            <text x="477.456px" y="345.651px" style="font-family:'DINPro-Regular', 'DINPro';font-size:28.712px;fill:white;">molluscmotion</text>
            <g transform="matrix(14,0,0,14,516.054,359.791)">
            </g>
            <text x="491.4px" y="359.791px" style="font-family:'DINPro-Regular', 'DINPro';font-size:14px;fill:white;">v1.2</text>
        </g>
        <g id="_20230929_mollusc_motion_logo.afdesign" serif:id="20230929_mollusc_motion_logo.afdesign" transform="matrix(0.0563943,0.0563943,-0.0563943,0.0563943,417.194,419.962)">
            <g transform="matrix(1,0,0,1,-256,-256)">
                <clipPath id="_clip1">
                    <rect x="0" y="0" width="512" height="512"/>
                </clipPath>
                <g clip-path="url(#_clip1)">
                    <g transform="matrix(1.23054,0,0,1.23054,-54.0949,-62.2782)">
                        <path d="M154.476,100.652C197.215,57.13 294.522,26.231 338.249,76.687C381.975,127.144 467.162,149.252 456.109,251.828C445.056,354.403 448.917,456.605 365.342,464.997C281.767,473.389 126.097,450.651 93.309,393.638C60.522,336.626 25.333,223.451 63.536,171.036C101.739,118.62 110.448,145.488 154.476,100.652ZM154.341,349.828C163.102,310.839 182.242,226.876 205.507,184.565C209.959,176.467 214.458,169.989 219.18,166.064C221.92,163.788 224.555,162.364 227.384,163.391C230.944,164.683 233.366,167.609 235.216,171.344C237.708,176.378 239.097,182.767 239.845,189.839C243.747,226.729 229.711,280.784 229.711,280.784C228.587,285.147 231.135,289.613 235.462,290.867C239.79,292.121 244.33,289.708 245.713,285.42C245.713,285.42 262.557,233.007 288.139,197.782C294.574,188.921 301.539,181.161 308.994,175.847C318.422,169.126 328.64,166.585 339.307,172.495C345.918,176.157 349.811,182.197 351.893,189.641C354.343,198.401 354.378,208.941 352.967,220.352C345.843,278 301.747,356.25 301.747,356.25C299.495,360.26 300.923,365.344 304.933,367.596C308.943,369.848 314.028,368.421 316.28,364.41C316.28,364.41 362.069,282.598 369.508,222.396C373.117,193.193 367.294,168.947 347.385,157.916C326.719,146.466 306.829,153.64 289.416,170.634C276.977,182.773 265.851,200.152 256.677,217.508C257.331,207.347 257.386,197.221 256.419,188.086C254.295,168.005 246.69,152.668 233.071,147.724C226.233,145.242 219.419,146.138 212.742,150.213C205.331,154.737 197.831,163.933 190.902,176.535C167.009,219.988 147.077,306.133 138.08,346.174C137.072,350.661 139.896,355.123 144.383,356.131C148.871,357.14 153.333,354.315 154.341,349.828Z" style="fill:white;"/>
                    </g>
                </g>
            </g>
        </g>
    </g>
</svg>
