%TF.GenerationSoftware,KiCad,Pcbnew,7.0.5-0*%
%TF.CreationDate,2024-07-23T14:26:58+02:00*%
%TF.ProjectId,JST_EH_2.5mm_ExtensionBoard,4a53545f-4548-45f3-922e-356d6d5f4578,rev?*%
%TF.SameCoordinates,Original*%
%TF.FileFunction,Copper,L1,Top*%
%TF.FilePolarity,Positive*%
%FSLAX46Y46*%
G04 Gerber Fmt 4.6, Leading zero omitted, Abs format (unit mm)*
G04 Created by KiCad (PCBNEW 7.0.5-0) date 2024-07-23 14:26:58*
%MOMM*%
%LPD*%
G01*
G04 APERTURE LIST*
%TA.AperFunction,SMDPad,CuDef*%
%ADD10R,1.259995X3.610008*%
%TD*%
%TA.AperFunction,ComponentPad*%
%ADD11C,1.397000*%
%TD*%
%TA.AperFunction,Conductor*%
%ADD12C,0.250000*%
%TD*%
%TA.AperFunction,Conductor*%
%ADD13C,1.000000*%
%TD*%
G04 APERTURE END LIST*
D10*
%TO.P,C3,1,1*%
%TO.N,/12V*%
X91186000Y-41648895D03*
%TO.P,C3,2,2*%
%TO.N,/GND*%
X91186000Y-35059105D03*
%TD*%
%TO.P,C1,1,1*%
%TO.N,/12V*%
X91186000Y-70111105D03*
%TO.P,C1,2,2*%
%TO.N,/GND*%
X91186000Y-76700895D03*
%TD*%
D11*
%TO.P,J5,1,1*%
%TO.N,/GND*%
X88726000Y-65278000D03*
%TO.P,J5,2,2*%
%TO.N,/12V*%
X91226000Y-65278000D03*
%TO.P,J5,3,3*%
%TO.N,/DATA*%
X93726000Y-65278000D03*
%TD*%
%TO.P,J4,1,1*%
%TO.N,/GND*%
X88726000Y-60452000D03*
%TO.P,J4,2,2*%
%TO.N,/12V*%
X91226000Y-60452000D03*
%TO.P,J4,3,3*%
%TO.N,/DATA*%
X93726000Y-60452000D03*
%TD*%
%TO.P,J3,1,1*%
%TO.N,/GND*%
X88726000Y-55626000D03*
%TO.P,J3,2,2*%
%TO.N,/12V*%
X91226000Y-55626000D03*
%TO.P,J3,3,3*%
%TO.N,/DATA*%
X93726000Y-55626000D03*
%TD*%
%TO.P,J2,1,1*%
%TO.N,/GND*%
X88726000Y-50800000D03*
%TO.P,J2,2,2*%
%TO.N,/12V*%
X91226000Y-50800000D03*
%TO.P,J2,3,3*%
%TO.N,/DATA*%
X93726000Y-50800000D03*
%TD*%
%TO.P,J1,1,1*%
%TO.N,/GND*%
X88726000Y-46053000D03*
%TO.P,J1,2,2*%
%TO.N,/12V*%
X91226000Y-46053000D03*
%TO.P,J1,3,3*%
%TO.N,/DATA*%
X93726000Y-46053000D03*
%TD*%
D12*
%TO.N,/DATA*%
X93726000Y-46053000D02*
X93726000Y-65278000D01*
D13*
%TO.N,/12V*%
X91186000Y-41648895D02*
X91186000Y-70111105D01*
%TD*%
%TA.AperFunction,Conductor*%
%TO.N,/GND*%
G36*
X90004968Y-33040185D02*
G01*
X90050723Y-33092989D01*
X90061218Y-33157757D01*
X90056002Y-33206259D01*
X90056002Y-34809105D01*
X92315998Y-34809105D01*
X92315998Y-33206273D01*
X92315997Y-33206259D01*
X92310782Y-33157757D01*
X92323186Y-33088997D01*
X92370796Y-33037859D01*
X92434071Y-33020500D01*
X96395500Y-33020500D01*
X96462539Y-33040185D01*
X96508294Y-33092989D01*
X96519500Y-33144500D01*
X96519500Y-78869500D01*
X96499815Y-78936539D01*
X96447011Y-78982294D01*
X96395500Y-78993500D01*
X92323283Y-78993500D01*
X92256244Y-78973815D01*
X92210489Y-78921011D01*
X92200545Y-78851853D01*
X92224017Y-78795189D01*
X92259348Y-78747992D01*
X92259352Y-78747985D01*
X92309594Y-78613278D01*
X92309596Y-78613271D01*
X92315997Y-78553743D01*
X92315998Y-78553726D01*
X92315998Y-76950895D01*
X90056002Y-76950895D01*
X90056002Y-78553743D01*
X90062403Y-78613271D01*
X90062405Y-78613278D01*
X90112647Y-78747985D01*
X90112651Y-78747992D01*
X90147983Y-78795189D01*
X90172401Y-78860653D01*
X90157550Y-78928926D01*
X90108145Y-78978332D01*
X90048717Y-78993500D01*
X85976500Y-78993500D01*
X85909461Y-78973815D01*
X85863706Y-78921011D01*
X85852500Y-78869500D01*
X85852500Y-76450895D01*
X90056002Y-76450895D01*
X90936000Y-76450895D01*
X90936000Y-74395891D01*
X91436000Y-74395891D01*
X91436000Y-76450895D01*
X92315998Y-76450895D01*
X92315998Y-74848063D01*
X92315997Y-74848046D01*
X92309596Y-74788518D01*
X92309594Y-74788511D01*
X92259352Y-74653804D01*
X92259348Y-74653797D01*
X92173188Y-74538703D01*
X92173185Y-74538700D01*
X92058091Y-74452540D01*
X92058084Y-74452536D01*
X91923377Y-74402294D01*
X91923370Y-74402292D01*
X91863842Y-74395891D01*
X91436000Y-74395891D01*
X90936000Y-74395891D01*
X90508157Y-74395891D01*
X90448629Y-74402292D01*
X90448622Y-74402294D01*
X90313915Y-74452536D01*
X90313908Y-74452540D01*
X90198814Y-74538700D01*
X90198811Y-74538703D01*
X90112651Y-74653797D01*
X90112647Y-74653804D01*
X90062405Y-74788511D01*
X90062403Y-74788518D01*
X90056002Y-74848046D01*
X90056002Y-76450895D01*
X85852500Y-76450895D01*
X85852500Y-65278000D01*
X87522366Y-65278000D01*
X87542859Y-65499166D01*
X87542860Y-65499168D01*
X87603643Y-65712798D01*
X87603649Y-65712813D01*
X87702646Y-65911626D01*
X87702651Y-65911634D01*
X87718209Y-65932235D01*
X88286680Y-65363765D01*
X88287749Y-65378028D01*
X88336703Y-65502760D01*
X88420248Y-65607522D01*
X88530960Y-65683004D01*
X88640698Y-65716854D01*
X88073760Y-66283790D01*
X88073761Y-66283791D01*
X88189488Y-66355445D01*
X88189495Y-66355449D01*
X88396607Y-66435684D01*
X88614945Y-66476500D01*
X88837055Y-66476500D01*
X89055392Y-66435684D01*
X89262503Y-66355450D01*
X89262509Y-66355447D01*
X89378237Y-66283791D01*
X89378238Y-66283790D01*
X88809398Y-65714950D01*
X88858499Y-65707550D01*
X88979224Y-65649412D01*
X89077450Y-65558272D01*
X89144447Y-65442228D01*
X89162906Y-65361353D01*
X89733788Y-65932235D01*
X89733789Y-65932235D01*
X89749349Y-65911632D01*
X89749350Y-65911629D01*
X89848350Y-65712813D01*
X89848354Y-65712803D01*
X89856472Y-65684270D01*
X89893750Y-65625176D01*
X89957059Y-65595617D01*
X90026299Y-65604978D01*
X90079486Y-65650286D01*
X90095004Y-65684263D01*
X90103127Y-65712813D01*
X90103177Y-65712986D01*
X90103180Y-65712994D01*
X90172500Y-65852205D01*
X90185500Y-65907477D01*
X90185500Y-67924589D01*
X90165815Y-67991628D01*
X90160767Y-67998899D01*
X90112208Y-68063766D01*
X90112204Y-68063772D01*
X90061910Y-68198618D01*
X90055503Y-68258217D01*
X90055503Y-68258224D01*
X90055502Y-68258236D01*
X90055502Y-71963979D01*
X90055503Y-71963985D01*
X90061910Y-72023592D01*
X90112204Y-72158437D01*
X90112208Y-72158444D01*
X90198454Y-72273653D01*
X90198457Y-72273656D01*
X90313666Y-72359902D01*
X90313673Y-72359906D01*
X90448519Y-72410200D01*
X90448518Y-72410200D01*
X90455446Y-72410944D01*
X90508129Y-72416609D01*
X91863870Y-72416608D01*
X91923481Y-72410200D01*
X92058329Y-72359905D01*
X92173544Y-72273655D01*
X92259794Y-72158440D01*
X92310089Y-72023592D01*
X92316498Y-71963982D01*
X92316497Y-68258229D01*
X92310089Y-68198618D01*
X92259794Y-68063770D01*
X92259514Y-68063396D01*
X92211233Y-67998899D01*
X92186816Y-67933435D01*
X92186500Y-67924589D01*
X92186500Y-66037250D01*
X92206185Y-65970211D01*
X92211546Y-65962523D01*
X92212143Y-65961731D01*
X92249778Y-65911896D01*
X92348824Y-65712984D01*
X92356734Y-65685182D01*
X92394013Y-65626089D01*
X92457323Y-65596532D01*
X92526562Y-65605894D01*
X92579749Y-65651204D01*
X92595266Y-65685183D01*
X92603174Y-65712979D01*
X92603180Y-65712994D01*
X92702222Y-65911896D01*
X92836133Y-66089224D01*
X93000344Y-66238921D01*
X93000346Y-66238923D01*
X93189266Y-66355897D01*
X93189272Y-66355900D01*
X93218206Y-66367109D01*
X93396472Y-66436170D01*
X93614896Y-66477000D01*
X93614899Y-66477000D01*
X93837101Y-66477000D01*
X93837104Y-66477000D01*
X94055528Y-66436170D01*
X94262730Y-66355899D01*
X94451655Y-66238922D01*
X94615868Y-66089222D01*
X94749778Y-65911896D01*
X94848824Y-65712984D01*
X94909634Y-65499260D01*
X94930137Y-65278000D01*
X94909634Y-65056740D01*
X94848824Y-64843016D01*
X94749778Y-64644104D01*
X94615868Y-64466778D01*
X94615866Y-64466775D01*
X94451655Y-64317078D01*
X94451654Y-64317077D01*
X94410221Y-64291422D01*
X94363586Y-64239393D01*
X94351500Y-64185996D01*
X94351500Y-61544002D01*
X94371185Y-61476963D01*
X94410221Y-61438576D01*
X94451655Y-61412922D01*
X94615868Y-61263222D01*
X94749778Y-61085896D01*
X94848824Y-60886984D01*
X94909634Y-60673260D01*
X94930137Y-60452000D01*
X94909634Y-60230740D01*
X94848824Y-60017016D01*
X94749778Y-59818104D01*
X94615868Y-59640778D01*
X94615866Y-59640775D01*
X94451655Y-59491078D01*
X94451654Y-59491077D01*
X94410221Y-59465422D01*
X94363586Y-59413393D01*
X94351500Y-59359996D01*
X94351500Y-56718002D01*
X94371185Y-56650963D01*
X94410221Y-56612576D01*
X94451655Y-56586922D01*
X94615868Y-56437222D01*
X94749778Y-56259896D01*
X94848824Y-56060984D01*
X94909634Y-55847260D01*
X94930137Y-55626000D01*
X94909634Y-55404740D01*
X94848824Y-55191016D01*
X94749778Y-54992104D01*
X94615868Y-54814778D01*
X94615866Y-54814775D01*
X94451655Y-54665078D01*
X94451654Y-54665077D01*
X94410221Y-54639422D01*
X94363586Y-54587393D01*
X94351500Y-54533996D01*
X94351500Y-51892002D01*
X94371185Y-51824963D01*
X94410221Y-51786576D01*
X94451655Y-51760922D01*
X94615868Y-51611222D01*
X94749778Y-51433896D01*
X94848824Y-51234984D01*
X94909634Y-51021260D01*
X94930137Y-50800000D01*
X94909634Y-50578740D01*
X94848824Y-50365016D01*
X94749778Y-50166104D01*
X94615868Y-49988778D01*
X94615866Y-49988775D01*
X94451655Y-49839078D01*
X94451654Y-49839077D01*
X94410221Y-49813422D01*
X94363586Y-49761393D01*
X94351500Y-49707996D01*
X94351500Y-47145002D01*
X94371185Y-47077963D01*
X94410221Y-47039576D01*
X94451655Y-47013922D01*
X94615868Y-46864222D01*
X94749778Y-46686896D01*
X94848824Y-46487984D01*
X94909634Y-46274260D01*
X94930137Y-46053000D01*
X94909634Y-45831740D01*
X94848824Y-45618016D01*
X94749778Y-45419104D01*
X94615868Y-45241778D01*
X94615866Y-45241775D01*
X94451655Y-45092078D01*
X94451653Y-45092076D01*
X94262733Y-44975102D01*
X94262727Y-44975099D01*
X94155080Y-44933397D01*
X94055528Y-44894830D01*
X93837104Y-44854000D01*
X93614896Y-44854000D01*
X93396472Y-44894830D01*
X93346695Y-44914113D01*
X93189272Y-44975099D01*
X93189266Y-44975102D01*
X93000346Y-45092076D01*
X93000344Y-45092078D01*
X92836133Y-45241775D01*
X92702222Y-45419103D01*
X92603180Y-45618005D01*
X92603175Y-45618018D01*
X92595266Y-45645817D01*
X92557986Y-45704910D01*
X92494676Y-45734467D01*
X92425437Y-45725105D01*
X92372251Y-45679794D01*
X92356734Y-45645817D01*
X92350370Y-45623450D01*
X92348824Y-45618016D01*
X92249778Y-45419104D01*
X92249777Y-45419103D01*
X92249776Y-45419100D01*
X92211546Y-45368475D01*
X92186854Y-45303114D01*
X92186500Y-45293749D01*
X92186500Y-43835409D01*
X92206185Y-43768370D01*
X92211227Y-43761106D01*
X92259794Y-43696230D01*
X92310089Y-43561382D01*
X92316498Y-43501772D01*
X92316497Y-39796019D01*
X92310089Y-39736408D01*
X92259794Y-39601560D01*
X92259793Y-39601559D01*
X92259791Y-39601555D01*
X92173545Y-39486346D01*
X92173542Y-39486343D01*
X92058333Y-39400097D01*
X92058326Y-39400093D01*
X91923480Y-39349799D01*
X91923481Y-39349799D01*
X91863881Y-39343392D01*
X91863879Y-39343391D01*
X91863871Y-39343391D01*
X91863862Y-39343391D01*
X90508131Y-39343391D01*
X90508125Y-39343392D01*
X90448518Y-39349799D01*
X90313673Y-39400093D01*
X90313666Y-39400097D01*
X90198457Y-39486343D01*
X90198454Y-39486346D01*
X90112208Y-39601555D01*
X90112204Y-39601562D01*
X90061910Y-39736408D01*
X90055503Y-39796007D01*
X90055503Y-39796014D01*
X90055502Y-39796026D01*
X90055502Y-43501769D01*
X90055503Y-43501775D01*
X90061910Y-43561382D01*
X90112204Y-43696227D01*
X90112206Y-43696230D01*
X90160766Y-43761098D01*
X90185184Y-43826561D01*
X90185500Y-43835409D01*
X90185500Y-45423522D01*
X90172500Y-45478794D01*
X90103180Y-45618005D01*
X90103173Y-45618023D01*
X90095004Y-45646734D01*
X90057724Y-45705827D01*
X89994413Y-45735383D01*
X89925174Y-45726019D01*
X89871989Y-45680708D01*
X89856472Y-45646730D01*
X89848353Y-45618194D01*
X89848350Y-45618186D01*
X89749351Y-45419370D01*
X89749349Y-45419367D01*
X89733788Y-45398762D01*
X89165319Y-45967232D01*
X89164251Y-45952972D01*
X89115297Y-45828240D01*
X89031752Y-45723478D01*
X88921040Y-45647996D01*
X88811301Y-45614145D01*
X89378238Y-45047208D01*
X89262503Y-44975550D01*
X89262504Y-44975550D01*
X89055392Y-44895315D01*
X88837055Y-44854500D01*
X88614945Y-44854500D01*
X88396607Y-44895315D01*
X88189497Y-44975549D01*
X88189494Y-44975551D01*
X88073760Y-45047208D01*
X88642602Y-45616049D01*
X88593501Y-45623450D01*
X88472776Y-45681588D01*
X88374550Y-45772728D01*
X88307553Y-45888772D01*
X88289093Y-45969645D01*
X87718210Y-45398762D01*
X87702651Y-45419367D01*
X87702646Y-45419374D01*
X87603649Y-45618186D01*
X87603643Y-45618201D01*
X87542860Y-45831831D01*
X87542859Y-45831833D01*
X87522366Y-46052999D01*
X87522366Y-46053000D01*
X87542859Y-46274166D01*
X87542860Y-46274168D01*
X87603643Y-46487798D01*
X87603649Y-46487813D01*
X87702646Y-46686626D01*
X87702651Y-46686634D01*
X87718209Y-46707235D01*
X88286680Y-46138766D01*
X88287749Y-46153028D01*
X88336703Y-46277760D01*
X88420248Y-46382522D01*
X88530960Y-46458004D01*
X88640698Y-46491854D01*
X88073760Y-47058790D01*
X88073761Y-47058791D01*
X88189488Y-47130445D01*
X88189495Y-47130449D01*
X88396607Y-47210684D01*
X88614945Y-47251500D01*
X88837055Y-47251500D01*
X89055392Y-47210684D01*
X89262503Y-47130450D01*
X89262509Y-47130447D01*
X89378237Y-47058791D01*
X89378238Y-47058790D01*
X88809398Y-46489950D01*
X88858499Y-46482550D01*
X88979224Y-46424412D01*
X89077450Y-46333272D01*
X89144447Y-46217228D01*
X89162906Y-46136353D01*
X89733788Y-46707235D01*
X89733789Y-46707235D01*
X89749349Y-46686632D01*
X89749350Y-46686629D01*
X89848350Y-46487813D01*
X89848354Y-46487803D01*
X89856472Y-46459270D01*
X89893750Y-46400176D01*
X89957059Y-46370617D01*
X90026299Y-46379978D01*
X90079486Y-46425286D01*
X90095004Y-46459263D01*
X90103127Y-46487813D01*
X90103177Y-46487986D01*
X90103180Y-46487994D01*
X90172500Y-46627205D01*
X90185500Y-46682477D01*
X90185500Y-50170522D01*
X90172500Y-50225794D01*
X90103180Y-50365005D01*
X90103173Y-50365023D01*
X90095004Y-50393734D01*
X90057724Y-50452827D01*
X89994413Y-50482383D01*
X89925174Y-50473019D01*
X89871989Y-50427708D01*
X89856472Y-50393730D01*
X89848353Y-50365194D01*
X89848350Y-50365186D01*
X89749351Y-50166370D01*
X89749349Y-50166367D01*
X89733788Y-50145762D01*
X89165319Y-50714232D01*
X89164251Y-50699972D01*
X89115297Y-50575240D01*
X89031752Y-50470478D01*
X88921040Y-50394996D01*
X88811301Y-50361145D01*
X89378238Y-49794208D01*
X89262503Y-49722550D01*
X89262504Y-49722550D01*
X89055392Y-49642315D01*
X88837055Y-49601500D01*
X88614945Y-49601500D01*
X88396607Y-49642315D01*
X88189497Y-49722549D01*
X88189494Y-49722551D01*
X88073760Y-49794208D01*
X88642602Y-50363049D01*
X88593501Y-50370450D01*
X88472776Y-50428588D01*
X88374550Y-50519728D01*
X88307553Y-50635772D01*
X88289093Y-50716645D01*
X87718210Y-50145762D01*
X87702651Y-50166367D01*
X87702646Y-50166374D01*
X87603649Y-50365186D01*
X87603643Y-50365201D01*
X87542860Y-50578831D01*
X87542859Y-50578833D01*
X87522366Y-50799999D01*
X87522366Y-50800000D01*
X87542859Y-51021166D01*
X87542860Y-51021168D01*
X87603643Y-51234798D01*
X87603649Y-51234813D01*
X87702646Y-51433626D01*
X87702651Y-51433634D01*
X87718209Y-51454235D01*
X88286680Y-50885766D01*
X88287749Y-50900028D01*
X88336703Y-51024760D01*
X88420248Y-51129522D01*
X88530960Y-51205004D01*
X88640698Y-51238854D01*
X88073760Y-51805790D01*
X88073761Y-51805791D01*
X88189488Y-51877445D01*
X88189495Y-51877449D01*
X88396607Y-51957684D01*
X88614945Y-51998500D01*
X88837055Y-51998500D01*
X89055392Y-51957684D01*
X89262503Y-51877450D01*
X89262509Y-51877447D01*
X89378237Y-51805791D01*
X89378238Y-51805790D01*
X88809398Y-51236950D01*
X88858499Y-51229550D01*
X88979224Y-51171412D01*
X89077450Y-51080272D01*
X89144447Y-50964228D01*
X89162906Y-50883353D01*
X89733788Y-51454235D01*
X89733789Y-51454235D01*
X89749349Y-51433632D01*
X89749350Y-51433629D01*
X89848350Y-51234813D01*
X89848354Y-51234803D01*
X89856472Y-51206270D01*
X89893750Y-51147176D01*
X89957059Y-51117617D01*
X90026299Y-51126978D01*
X90079486Y-51172286D01*
X90095004Y-51206263D01*
X90103127Y-51234813D01*
X90103177Y-51234986D01*
X90103180Y-51234994D01*
X90172500Y-51374205D01*
X90185500Y-51429477D01*
X90185500Y-54996522D01*
X90172500Y-55051794D01*
X90103180Y-55191005D01*
X90103173Y-55191023D01*
X90095004Y-55219734D01*
X90057724Y-55278827D01*
X89994413Y-55308383D01*
X89925174Y-55299019D01*
X89871989Y-55253708D01*
X89856472Y-55219730D01*
X89848353Y-55191194D01*
X89848350Y-55191186D01*
X89749351Y-54992370D01*
X89749349Y-54992367D01*
X89733788Y-54971762D01*
X89165319Y-55540232D01*
X89164251Y-55525972D01*
X89115297Y-55401240D01*
X89031752Y-55296478D01*
X88921040Y-55220996D01*
X88811301Y-55187145D01*
X89378238Y-54620208D01*
X89262503Y-54548550D01*
X89262504Y-54548550D01*
X89055392Y-54468315D01*
X88837055Y-54427500D01*
X88614945Y-54427500D01*
X88396607Y-54468315D01*
X88189497Y-54548549D01*
X88189494Y-54548551D01*
X88073760Y-54620208D01*
X88642602Y-55189049D01*
X88593501Y-55196450D01*
X88472776Y-55254588D01*
X88374550Y-55345728D01*
X88307553Y-55461772D01*
X88289093Y-55542645D01*
X87718210Y-54971762D01*
X87702651Y-54992367D01*
X87702646Y-54992374D01*
X87603649Y-55191186D01*
X87603643Y-55191201D01*
X87542860Y-55404831D01*
X87542859Y-55404833D01*
X87522366Y-55625999D01*
X87522366Y-55626000D01*
X87542859Y-55847166D01*
X87542860Y-55847168D01*
X87603643Y-56060798D01*
X87603649Y-56060813D01*
X87702646Y-56259626D01*
X87702651Y-56259634D01*
X87718209Y-56280235D01*
X88286680Y-55711766D01*
X88287749Y-55726028D01*
X88336703Y-55850760D01*
X88420248Y-55955522D01*
X88530960Y-56031004D01*
X88640698Y-56064854D01*
X88073760Y-56631790D01*
X88073761Y-56631791D01*
X88189488Y-56703445D01*
X88189495Y-56703449D01*
X88396607Y-56783684D01*
X88614945Y-56824500D01*
X88837055Y-56824500D01*
X89055392Y-56783684D01*
X89262503Y-56703450D01*
X89262509Y-56703447D01*
X89378237Y-56631791D01*
X89378238Y-56631790D01*
X88809398Y-56062950D01*
X88858499Y-56055550D01*
X88979224Y-55997412D01*
X89077450Y-55906272D01*
X89144447Y-55790228D01*
X89162906Y-55709353D01*
X89733788Y-56280235D01*
X89733789Y-56280235D01*
X89749349Y-56259632D01*
X89749350Y-56259629D01*
X89848350Y-56060813D01*
X89848354Y-56060803D01*
X89856472Y-56032270D01*
X89893750Y-55973176D01*
X89957059Y-55943617D01*
X90026299Y-55952978D01*
X90079486Y-55998286D01*
X90095004Y-56032263D01*
X90103127Y-56060813D01*
X90103177Y-56060986D01*
X90103180Y-56060994D01*
X90172500Y-56200205D01*
X90185500Y-56255477D01*
X90185500Y-59822522D01*
X90172500Y-59877794D01*
X90103180Y-60017005D01*
X90103173Y-60017023D01*
X90095004Y-60045734D01*
X90057724Y-60104827D01*
X89994413Y-60134383D01*
X89925174Y-60125019D01*
X89871989Y-60079708D01*
X89856472Y-60045730D01*
X89848353Y-60017194D01*
X89848350Y-60017186D01*
X89749351Y-59818370D01*
X89749349Y-59818367D01*
X89733788Y-59797762D01*
X89165319Y-60366232D01*
X89164251Y-60351972D01*
X89115297Y-60227240D01*
X89031752Y-60122478D01*
X88921040Y-60046996D01*
X88811299Y-60013145D01*
X89378238Y-59446208D01*
X89262503Y-59374550D01*
X89262504Y-59374550D01*
X89055392Y-59294315D01*
X88837055Y-59253500D01*
X88614945Y-59253500D01*
X88396607Y-59294315D01*
X88189497Y-59374549D01*
X88189494Y-59374551D01*
X88073760Y-59446208D01*
X88642601Y-60015049D01*
X88593501Y-60022450D01*
X88472776Y-60080588D01*
X88374550Y-60171728D01*
X88307553Y-60287772D01*
X88289093Y-60368645D01*
X87718210Y-59797762D01*
X87702651Y-59818367D01*
X87702646Y-59818374D01*
X87603649Y-60017186D01*
X87603643Y-60017201D01*
X87542860Y-60230831D01*
X87542859Y-60230833D01*
X87522366Y-60451999D01*
X87522366Y-60452000D01*
X87542859Y-60673166D01*
X87542860Y-60673168D01*
X87603643Y-60886798D01*
X87603649Y-60886813D01*
X87702646Y-61085626D01*
X87702651Y-61085634D01*
X87718209Y-61106235D01*
X88286680Y-60537765D01*
X88287749Y-60552028D01*
X88336703Y-60676760D01*
X88420248Y-60781522D01*
X88530960Y-60857004D01*
X88640698Y-60890854D01*
X88073760Y-61457790D01*
X88073761Y-61457791D01*
X88189488Y-61529445D01*
X88189495Y-61529449D01*
X88396607Y-61609684D01*
X88614945Y-61650500D01*
X88837055Y-61650500D01*
X89055392Y-61609684D01*
X89262503Y-61529450D01*
X89262509Y-61529447D01*
X89378237Y-61457791D01*
X89378238Y-61457790D01*
X88809398Y-60888950D01*
X88858499Y-60881550D01*
X88979224Y-60823412D01*
X89077450Y-60732272D01*
X89144447Y-60616228D01*
X89162906Y-60535353D01*
X89733788Y-61106235D01*
X89733789Y-61106235D01*
X89749349Y-61085632D01*
X89749350Y-61085629D01*
X89848350Y-60886813D01*
X89848354Y-60886803D01*
X89856472Y-60858270D01*
X89893750Y-60799176D01*
X89957059Y-60769617D01*
X90026299Y-60778978D01*
X90079486Y-60824286D01*
X90095004Y-60858263D01*
X90103127Y-60886813D01*
X90103177Y-60886986D01*
X90103180Y-60886994D01*
X90172500Y-61026205D01*
X90185500Y-61081477D01*
X90185500Y-64648522D01*
X90172500Y-64703794D01*
X90103180Y-64843005D01*
X90103173Y-64843023D01*
X90095004Y-64871734D01*
X90057724Y-64930827D01*
X89994413Y-64960383D01*
X89925174Y-64951019D01*
X89871989Y-64905708D01*
X89856472Y-64871730D01*
X89848353Y-64843194D01*
X89848350Y-64843186D01*
X89749351Y-64644370D01*
X89749349Y-64644367D01*
X89733788Y-64623762D01*
X89165319Y-65192232D01*
X89164251Y-65177972D01*
X89115297Y-65053240D01*
X89031752Y-64948478D01*
X88921040Y-64872996D01*
X88811300Y-64839145D01*
X89378238Y-64272208D01*
X89262503Y-64200550D01*
X89262504Y-64200550D01*
X89055392Y-64120315D01*
X88837055Y-64079500D01*
X88614945Y-64079500D01*
X88396607Y-64120315D01*
X88189497Y-64200549D01*
X88189494Y-64200551D01*
X88073761Y-64272208D01*
X88642600Y-64841049D01*
X88593501Y-64848450D01*
X88472776Y-64906588D01*
X88374550Y-64997728D01*
X88307553Y-65113772D01*
X88289093Y-65194645D01*
X87718210Y-64623762D01*
X87702651Y-64644367D01*
X87702646Y-64644374D01*
X87603649Y-64843186D01*
X87603643Y-64843201D01*
X87542860Y-65056831D01*
X87542859Y-65056833D01*
X87522366Y-65277999D01*
X87522366Y-65278000D01*
X85852500Y-65278000D01*
X85852500Y-35309105D01*
X90056002Y-35309105D01*
X90056002Y-36911953D01*
X90062403Y-36971481D01*
X90062405Y-36971488D01*
X90112647Y-37106195D01*
X90112651Y-37106202D01*
X90198811Y-37221296D01*
X90198814Y-37221299D01*
X90313908Y-37307459D01*
X90313915Y-37307463D01*
X90448622Y-37357705D01*
X90448629Y-37357707D01*
X90508157Y-37364108D01*
X90508174Y-37364109D01*
X90936000Y-37364109D01*
X90936000Y-35309105D01*
X91436000Y-35309105D01*
X91436000Y-37364109D01*
X91863826Y-37364109D01*
X91863842Y-37364108D01*
X91923370Y-37357707D01*
X91923377Y-37357705D01*
X92058084Y-37307463D01*
X92058091Y-37307459D01*
X92173185Y-37221299D01*
X92173188Y-37221296D01*
X92259348Y-37106202D01*
X92259352Y-37106195D01*
X92309594Y-36971488D01*
X92309596Y-36971481D01*
X92315997Y-36911953D01*
X92315998Y-36911936D01*
X92315998Y-35309105D01*
X91436000Y-35309105D01*
X90936000Y-35309105D01*
X90056002Y-35309105D01*
X85852500Y-35309105D01*
X85852500Y-33144500D01*
X85872185Y-33077461D01*
X85924989Y-33031706D01*
X85976500Y-33020500D01*
X89937929Y-33020500D01*
X90004968Y-33040185D01*
G37*
%TD.AperFunction*%
%TD*%
M02*
