%TF.GenerationSoftware,KiCad,Pcbnew,7.0.5-0*%
%TF.CreationDate,2024-07-23T14:26:58+02:00*%
%TF.ProjectId,JST_EH_2.5mm_ExtensionBoard,4a53545f-4548-45f3-922e-356d6d5f4578,rev?*%
%TF.SameCoordinates,Original*%
%TF.FileFunction,Copper,L2,Bot*%
%TF.FilePolarity,Positive*%
%FSLAX46Y46*%
G04 Gerber Fmt 4.6, Leading zero omitted, Abs format (unit mm)*
G04 Created by KiCad (PCBNEW 7.0.5-0) date 2024-07-23 14:26:58*
%MOMM*%
%LPD*%
G01*
G04 APERTURE LIST*
%TA.AperFunction,SMDPad,CuDef*%
%ADD10R,1.485014X1.727991*%
%TD*%
%TA.AperFunction,ComponentPad*%
%ADD11C,1.397000*%
%TD*%
%TA.AperFunction,Conductor*%
%ADD12C,0.500000*%
%TD*%
%TA.AperFunction,Conductor*%
%ADD13C,0.250000*%
%TD*%
%TA.AperFunction,Conductor*%
%ADD14C,1.500000*%
%TD*%
G04 APERTURE END LIST*
D10*
%TO.P,C8,2,2*%
%TO.N,/GND*%
X88069417Y-67818000D03*
%TO.P,C8,1,1*%
%TO.N,/12V*%
X91254583Y-67818000D03*
%TD*%
%TO.P,C7,1,1*%
%TO.N,/12V*%
X91186000Y-43434000D03*
%TO.P,C7,2,2*%
%TO.N,/GND*%
X88000834Y-43434000D03*
%TD*%
%TO.P,C6,1,1*%
%TO.N,/12V*%
X91323166Y-62992000D03*
%TO.P,C6,2,2*%
%TO.N,/GND*%
X88138000Y-62992000D03*
%TD*%
%TO.P,C5,2,2*%
%TO.N,/GND*%
X88069417Y-58166000D03*
%TO.P,C5,1,1*%
%TO.N,/12V*%
X91254583Y-58166000D03*
%TD*%
%TO.P,C4,2,2*%
%TO.N,/GND*%
X88069417Y-53340000D03*
%TO.P,C4,1,1*%
%TO.N,/12V*%
X91254583Y-53340000D03*
%TD*%
%TO.P,C2,2,2*%
%TO.N,/GND*%
X88069417Y-48514000D03*
%TO.P,C2,1,1*%
%TO.N,/12V*%
X91254583Y-48514000D03*
%TD*%
D11*
%TO.P,J5,1,1*%
%TO.N,/GND*%
X88726000Y-65278000D03*
%TO.P,J5,2,2*%
%TO.N,/12V*%
X91226000Y-65278000D03*
%TO.P,J5,3,3*%
%TO.N,/DATA*%
X93726000Y-65278000D03*
%TD*%
%TO.P,J4,1,1*%
%TO.N,/GND*%
X88726000Y-60452000D03*
%TO.P,J4,2,2*%
%TO.N,/12V*%
X91226000Y-60452000D03*
%TO.P,J4,3,3*%
%TO.N,/DATA*%
X93726000Y-60452000D03*
%TD*%
%TO.P,J3,1,1*%
%TO.N,/GND*%
X88726000Y-55626000D03*
%TO.P,J3,2,2*%
%TO.N,/12V*%
X91226000Y-55626000D03*
%TO.P,J3,3,3*%
%TO.N,/DATA*%
X93726000Y-55626000D03*
%TD*%
%TO.P,J2,1,1*%
%TO.N,/GND*%
X88726000Y-50800000D03*
%TO.P,J2,2,2*%
%TO.N,/12V*%
X91226000Y-50800000D03*
%TO.P,J2,3,3*%
%TO.N,/DATA*%
X93726000Y-50800000D03*
%TD*%
%TO.P,J1,1,1*%
%TO.N,/GND*%
X88726000Y-46053000D03*
%TO.P,J1,2,2*%
%TO.N,/12V*%
X91226000Y-46053000D03*
%TO.P,J1,3,3*%
%TO.N,/DATA*%
X93726000Y-46053000D03*
%TD*%
D12*
%TO.N,/12V*%
X91186000Y-43434000D02*
X91186000Y-67749417D01*
D13*
X91186000Y-67749417D02*
X91254583Y-67818000D01*
D14*
X91226000Y-43474000D02*
X91186000Y-43434000D01*
X91254583Y-46081583D02*
X91226000Y-46053000D01*
D13*
X91254583Y-43502583D02*
X91186000Y-43434000D01*
%TD*%
%TA.AperFunction,Conductor*%
%TO.N,/GND*%
G36*
X96462539Y-33040185D02*
G01*
X96508294Y-33092989D01*
X96519500Y-33144500D01*
X96519500Y-78869500D01*
X96499815Y-78936539D01*
X96447011Y-78982294D01*
X96395500Y-78993500D01*
X85976500Y-78993500D01*
X85909461Y-78973815D01*
X85863706Y-78921011D01*
X85852500Y-78869500D01*
X85852500Y-68068000D01*
X86826910Y-68068000D01*
X86826910Y-68729840D01*
X86833311Y-68789368D01*
X86833313Y-68789375D01*
X86883555Y-68924082D01*
X86883559Y-68924089D01*
X86969719Y-69039183D01*
X86969722Y-69039186D01*
X87084816Y-69125346D01*
X87084823Y-69125350D01*
X87219530Y-69175592D01*
X87219537Y-69175594D01*
X87279065Y-69181995D01*
X87279082Y-69181996D01*
X87819417Y-69181996D01*
X87819417Y-68068000D01*
X88319417Y-68068000D01*
X88319417Y-69181996D01*
X88859752Y-69181996D01*
X88859768Y-69181995D01*
X88919296Y-69175594D01*
X88919303Y-69175592D01*
X89054010Y-69125350D01*
X89054017Y-69125346D01*
X89169111Y-69039186D01*
X89169114Y-69039183D01*
X89255274Y-68924089D01*
X89255278Y-68924082D01*
X89305520Y-68789375D01*
X89305522Y-68789368D01*
X89311923Y-68729840D01*
X89311924Y-68729823D01*
X89311924Y-68068000D01*
X88319417Y-68068000D01*
X87819417Y-68068000D01*
X86826910Y-68068000D01*
X85852500Y-68068000D01*
X85852500Y-67568000D01*
X86826910Y-67568000D01*
X89311924Y-67568000D01*
X89311924Y-66906176D01*
X89311923Y-66906159D01*
X89305522Y-66846631D01*
X89305520Y-66846624D01*
X89255278Y-66711917D01*
X89255274Y-66711910D01*
X89169114Y-66596816D01*
X89167591Y-66595676D01*
X89166450Y-66594152D01*
X89162842Y-66590544D01*
X89163360Y-66590025D01*
X89125721Y-66539742D01*
X89120737Y-66470051D01*
X89154223Y-66408728D01*
X89197110Y-66380783D01*
X89262500Y-66355451D01*
X89262509Y-66355447D01*
X89378237Y-66283791D01*
X89378238Y-66283790D01*
X88809398Y-65714950D01*
X88858499Y-65707550D01*
X88979224Y-65649412D01*
X89077450Y-65558272D01*
X89144447Y-65442228D01*
X89162906Y-65361353D01*
X89733788Y-65932235D01*
X89733789Y-65932235D01*
X89749349Y-65911632D01*
X89749350Y-65911629D01*
X89848350Y-65712813D01*
X89848354Y-65712803D01*
X89856472Y-65684270D01*
X89893750Y-65625176D01*
X89957059Y-65595617D01*
X90026299Y-65604978D01*
X90079486Y-65650286D01*
X90095004Y-65684263D01*
X90103127Y-65712813D01*
X90103177Y-65712986D01*
X90103180Y-65712994D01*
X90202222Y-65911896D01*
X90336133Y-66089223D01*
X90395038Y-66142922D01*
X90431319Y-66202633D01*
X90435500Y-66234559D01*
X90435500Y-66362289D01*
X90415815Y-66429328D01*
X90363011Y-66475083D01*
X90354834Y-66478471D01*
X90269746Y-66510207D01*
X90269740Y-66510210D01*
X90154531Y-66596456D01*
X90154528Y-66596459D01*
X90068282Y-66711668D01*
X90068278Y-66711675D01*
X90017984Y-66846521D01*
X90011577Y-66906120D01*
X90011577Y-66906127D01*
X90011576Y-66906139D01*
X90011576Y-68729866D01*
X90011577Y-68729872D01*
X90017984Y-68789479D01*
X90068278Y-68924324D01*
X90068282Y-68924331D01*
X90154528Y-69039540D01*
X90154531Y-69039543D01*
X90269740Y-69125789D01*
X90269747Y-69125793D01*
X90404593Y-69176087D01*
X90404592Y-69176087D01*
X90411520Y-69176831D01*
X90464203Y-69182496D01*
X92044962Y-69182495D01*
X92104573Y-69176087D01*
X92239421Y-69125792D01*
X92354636Y-69039542D01*
X92440886Y-68924327D01*
X92491181Y-68789479D01*
X92497590Y-68729869D01*
X92497589Y-66906132D01*
X92491181Y-66846521D01*
X92440974Y-66711910D01*
X92440887Y-66711675D01*
X92440883Y-66711668D01*
X92354637Y-66596459D01*
X92354634Y-66596456D01*
X92239425Y-66510210D01*
X92239418Y-66510206D01*
X92104572Y-66459912D01*
X92104573Y-66459912D01*
X92047244Y-66453749D01*
X91982692Y-66427011D01*
X91942844Y-66369619D01*
X91936500Y-66330461D01*
X91936500Y-66307484D01*
X91956187Y-66240445D01*
X91976962Y-66215852D01*
X92115866Y-66089224D01*
X92115868Y-66089222D01*
X92249778Y-65911896D01*
X92348824Y-65712984D01*
X92356734Y-65685182D01*
X92394013Y-65626089D01*
X92457323Y-65596532D01*
X92526562Y-65605894D01*
X92579749Y-65651204D01*
X92595266Y-65685183D01*
X92603174Y-65712979D01*
X92603180Y-65712994D01*
X92702222Y-65911896D01*
X92836133Y-66089224D01*
X93000344Y-66238921D01*
X93000346Y-66238923D01*
X93189266Y-66355897D01*
X93189272Y-66355900D01*
X93205764Y-66362289D01*
X93396472Y-66436170D01*
X93614896Y-66477000D01*
X93614899Y-66477000D01*
X93837101Y-66477000D01*
X93837104Y-66477000D01*
X94055528Y-66436170D01*
X94262730Y-66355899D01*
X94451655Y-66238922D01*
X94615868Y-66089222D01*
X94749778Y-65911896D01*
X94848824Y-65712984D01*
X94909634Y-65499260D01*
X94930137Y-65278000D01*
X94909634Y-65056740D01*
X94848824Y-64843016D01*
X94749778Y-64644104D01*
X94615868Y-64466778D01*
X94615866Y-64466775D01*
X94451655Y-64317078D01*
X94451653Y-64317076D01*
X94262733Y-64200102D01*
X94262727Y-64200099D01*
X94155080Y-64158397D01*
X94055528Y-64119830D01*
X93837104Y-64079000D01*
X93614896Y-64079000D01*
X93396472Y-64119830D01*
X93346695Y-64139113D01*
X93189272Y-64200099D01*
X93189266Y-64200102D01*
X93000346Y-64317076D01*
X93000344Y-64317078D01*
X92836133Y-64466775D01*
X92702222Y-64644103D01*
X92603180Y-64843005D01*
X92603175Y-64843018D01*
X92595266Y-64870817D01*
X92557986Y-64929910D01*
X92494676Y-64959467D01*
X92425437Y-64950105D01*
X92372251Y-64904794D01*
X92356734Y-64870817D01*
X92350370Y-64848450D01*
X92348824Y-64843016D01*
X92249778Y-64644104D01*
X92159963Y-64525170D01*
X92135272Y-64459810D01*
X92149837Y-64391475D01*
X92199035Y-64341862D01*
X92215585Y-64334262D01*
X92308001Y-64299793D01*
X92308000Y-64299793D01*
X92308004Y-64299792D01*
X92423219Y-64213542D01*
X92509469Y-64098327D01*
X92559764Y-63963479D01*
X92566173Y-63903869D01*
X92566172Y-62080132D01*
X92559764Y-62020521D01*
X92509557Y-61885910D01*
X92509470Y-61885675D01*
X92509466Y-61885668D01*
X92423220Y-61770459D01*
X92423217Y-61770456D01*
X92308008Y-61684210D01*
X92308001Y-61684206D01*
X92173155Y-61633912D01*
X92173156Y-61633912D01*
X92113556Y-61627505D01*
X92113554Y-61627504D01*
X92113546Y-61627504D01*
X92113538Y-61627504D01*
X92060500Y-61627504D01*
X91993461Y-61607819D01*
X91947706Y-61555015D01*
X91936500Y-61503504D01*
X91936500Y-61481489D01*
X91956185Y-61414450D01*
X91976962Y-61389852D01*
X92115866Y-61263224D01*
X92115868Y-61263222D01*
X92249778Y-61085896D01*
X92348824Y-60886984D01*
X92356734Y-60859182D01*
X92394013Y-60800089D01*
X92457323Y-60770532D01*
X92526562Y-60779894D01*
X92579749Y-60825204D01*
X92595266Y-60859183D01*
X92603174Y-60886979D01*
X92603180Y-60886994D01*
X92702222Y-61085896D01*
X92836133Y-61263224D01*
X93000344Y-61412921D01*
X93000346Y-61412923D01*
X93189266Y-61529897D01*
X93189272Y-61529900D01*
X93218206Y-61541109D01*
X93396472Y-61610170D01*
X93614896Y-61651000D01*
X93614899Y-61651000D01*
X93837101Y-61651000D01*
X93837104Y-61651000D01*
X94055528Y-61610170D01*
X94262730Y-61529899D01*
X94451655Y-61412922D01*
X94615868Y-61263222D01*
X94749778Y-61085896D01*
X94848824Y-60886984D01*
X94909634Y-60673260D01*
X94930137Y-60452000D01*
X94909634Y-60230740D01*
X94848824Y-60017016D01*
X94749778Y-59818104D01*
X94615868Y-59640778D01*
X94615866Y-59640775D01*
X94451655Y-59491078D01*
X94451653Y-59491076D01*
X94262733Y-59374102D01*
X94262727Y-59374099D01*
X94155080Y-59332397D01*
X94055528Y-59293830D01*
X93837104Y-59253000D01*
X93614896Y-59253000D01*
X93396472Y-59293830D01*
X93346695Y-59313113D01*
X93189272Y-59374099D01*
X93189266Y-59374102D01*
X93000346Y-59491076D01*
X93000344Y-59491078D01*
X92836133Y-59640775D01*
X92702222Y-59818103D01*
X92603180Y-60017005D01*
X92603175Y-60017018D01*
X92595266Y-60044817D01*
X92557986Y-60103910D01*
X92494676Y-60133467D01*
X92425437Y-60124105D01*
X92372251Y-60078794D01*
X92356734Y-60044817D01*
X92350370Y-60022450D01*
X92348824Y-60017016D01*
X92249778Y-59818104D01*
X92144892Y-59679212D01*
X92120200Y-59613850D01*
X92134765Y-59545516D01*
X92183963Y-59495903D01*
X92200503Y-59488307D01*
X92239421Y-59473792D01*
X92354636Y-59387542D01*
X92440886Y-59272327D01*
X92491181Y-59137479D01*
X92497590Y-59077869D01*
X92497589Y-57254132D01*
X92491181Y-57194521D01*
X92440974Y-57059910D01*
X92440887Y-57059675D01*
X92440883Y-57059668D01*
X92354637Y-56944459D01*
X92354634Y-56944456D01*
X92239425Y-56858210D01*
X92239418Y-56858206D01*
X92104572Y-56807912D01*
X92104573Y-56807912D01*
X92047244Y-56801749D01*
X91982692Y-56775011D01*
X91942844Y-56717619D01*
X91936500Y-56678461D01*
X91936500Y-56655484D01*
X91956187Y-56588445D01*
X91976962Y-56563852D01*
X92115866Y-56437224D01*
X92115868Y-56437222D01*
X92249778Y-56259896D01*
X92348824Y-56060984D01*
X92356734Y-56033182D01*
X92394013Y-55974089D01*
X92457323Y-55944532D01*
X92526562Y-55953894D01*
X92579749Y-55999204D01*
X92595266Y-56033183D01*
X92603174Y-56060979D01*
X92603180Y-56060994D01*
X92702222Y-56259896D01*
X92836133Y-56437224D01*
X93000344Y-56586921D01*
X93000346Y-56586923D01*
X93189266Y-56703897D01*
X93189272Y-56703900D01*
X93205764Y-56710289D01*
X93396472Y-56784170D01*
X93614896Y-56825000D01*
X93614899Y-56825000D01*
X93837101Y-56825000D01*
X93837104Y-56825000D01*
X94055528Y-56784170D01*
X94262730Y-56703899D01*
X94451655Y-56586922D01*
X94615868Y-56437222D01*
X94749778Y-56259896D01*
X94848824Y-56060984D01*
X94909634Y-55847260D01*
X94930137Y-55626000D01*
X94909634Y-55404740D01*
X94848824Y-55191016D01*
X94749778Y-54992104D01*
X94615868Y-54814778D01*
X94615866Y-54814775D01*
X94451655Y-54665078D01*
X94451653Y-54665076D01*
X94262733Y-54548102D01*
X94262727Y-54548099D01*
X94155080Y-54506397D01*
X94055528Y-54467830D01*
X93837104Y-54427000D01*
X93614896Y-54427000D01*
X93396472Y-54467830D01*
X93346695Y-54487113D01*
X93189272Y-54548099D01*
X93189266Y-54548102D01*
X93000346Y-54665076D01*
X93000344Y-54665078D01*
X92836133Y-54814775D01*
X92702222Y-54992103D01*
X92603180Y-55191005D01*
X92603175Y-55191018D01*
X92595266Y-55218817D01*
X92557986Y-55277910D01*
X92494676Y-55307467D01*
X92425437Y-55298105D01*
X92372251Y-55252794D01*
X92356734Y-55218817D01*
X92350370Y-55196450D01*
X92348824Y-55191016D01*
X92249778Y-54992104D01*
X92144892Y-54853212D01*
X92120200Y-54787850D01*
X92134765Y-54719516D01*
X92183963Y-54669903D01*
X92200503Y-54662307D01*
X92239421Y-54647792D01*
X92354636Y-54561542D01*
X92440886Y-54446327D01*
X92491181Y-54311479D01*
X92497590Y-54251869D01*
X92497589Y-52428132D01*
X92491181Y-52368521D01*
X92440974Y-52233910D01*
X92440887Y-52233675D01*
X92440883Y-52233668D01*
X92354637Y-52118459D01*
X92354634Y-52118456D01*
X92239425Y-52032210D01*
X92239418Y-52032206D01*
X92104572Y-51981912D01*
X92104573Y-51981912D01*
X92047244Y-51975749D01*
X91982692Y-51949011D01*
X91942844Y-51891619D01*
X91936500Y-51852461D01*
X91936500Y-51829483D01*
X91956187Y-51762445D01*
X91976962Y-51737852D01*
X92115866Y-51611224D01*
X92115868Y-51611222D01*
X92249778Y-51433896D01*
X92348824Y-51234984D01*
X92356734Y-51207182D01*
X92394013Y-51148089D01*
X92457323Y-51118532D01*
X92526562Y-51127894D01*
X92579749Y-51173204D01*
X92595266Y-51207183D01*
X92603174Y-51234979D01*
X92603180Y-51234994D01*
X92702222Y-51433896D01*
X92836133Y-51611224D01*
X93000344Y-51760921D01*
X93000346Y-51760923D01*
X93189266Y-51877897D01*
X93189272Y-51877900D01*
X93205764Y-51884289D01*
X93396472Y-51958170D01*
X93614896Y-51999000D01*
X93614899Y-51999000D01*
X93837101Y-51999000D01*
X93837104Y-51999000D01*
X94055528Y-51958170D01*
X94262730Y-51877899D01*
X94451655Y-51760922D01*
X94615868Y-51611222D01*
X94749778Y-51433896D01*
X94848824Y-51234984D01*
X94909634Y-51021260D01*
X94930137Y-50800000D01*
X94909634Y-50578740D01*
X94848824Y-50365016D01*
X94749778Y-50166104D01*
X94615868Y-49988778D01*
X94615866Y-49988775D01*
X94451655Y-49839078D01*
X94451653Y-49839076D01*
X94262733Y-49722102D01*
X94262727Y-49722099D01*
X94155080Y-49680397D01*
X94055528Y-49641830D01*
X93837104Y-49601000D01*
X93614896Y-49601000D01*
X93396472Y-49641830D01*
X93346695Y-49661113D01*
X93189272Y-49722099D01*
X93189266Y-49722102D01*
X93000346Y-49839076D01*
X93000344Y-49839078D01*
X92836133Y-49988775D01*
X92702222Y-50166103D01*
X92603180Y-50365005D01*
X92603175Y-50365018D01*
X92595266Y-50392817D01*
X92557986Y-50451910D01*
X92494676Y-50481467D01*
X92425437Y-50472105D01*
X92372251Y-50426794D01*
X92356734Y-50392817D01*
X92350370Y-50370450D01*
X92348824Y-50365016D01*
X92249778Y-50166104D01*
X92144892Y-50027212D01*
X92120200Y-49961850D01*
X92134765Y-49893516D01*
X92183963Y-49843903D01*
X92200503Y-49836307D01*
X92239421Y-49821792D01*
X92354636Y-49735542D01*
X92440886Y-49620327D01*
X92491181Y-49485479D01*
X92497590Y-49425869D01*
X92497589Y-47602132D01*
X92491181Y-47542521D01*
X92440974Y-47407910D01*
X92440887Y-47407675D01*
X92440883Y-47407668D01*
X92354637Y-47292459D01*
X92354634Y-47292456D01*
X92239425Y-47206210D01*
X92239418Y-47206206D01*
X92172547Y-47181265D01*
X92116613Y-47139394D01*
X92092196Y-47073929D01*
X92107048Y-47005656D01*
X92132220Y-46973556D01*
X92181331Y-46928668D01*
X92317691Y-46749578D01*
X92416194Y-46556253D01*
X92464168Y-46505458D01*
X92531989Y-46488662D01*
X92598124Y-46511199D01*
X92637679Y-46557276D01*
X92702222Y-46686896D01*
X92836133Y-46864224D01*
X93000344Y-47013921D01*
X93000346Y-47013923D01*
X93189266Y-47130897D01*
X93189272Y-47130900D01*
X93202274Y-47135937D01*
X93396472Y-47211170D01*
X93614896Y-47252000D01*
X93614899Y-47252000D01*
X93837101Y-47252000D01*
X93837104Y-47252000D01*
X94055528Y-47211170D01*
X94262730Y-47130899D01*
X94451655Y-47013922D01*
X94615868Y-46864222D01*
X94749778Y-46686896D01*
X94848824Y-46487984D01*
X94909634Y-46274260D01*
X94930137Y-46053000D01*
X94909634Y-45831740D01*
X94848824Y-45618016D01*
X94835136Y-45590527D01*
X94771116Y-45461957D01*
X94749778Y-45419104D01*
X94615868Y-45241778D01*
X94615866Y-45241775D01*
X94451655Y-45092078D01*
X94451653Y-45092076D01*
X94262733Y-44975102D01*
X94262727Y-44975099D01*
X94155080Y-44933397D01*
X94055528Y-44894830D01*
X93837104Y-44854000D01*
X93614896Y-44854000D01*
X93396472Y-44894830D01*
X93347745Y-44913707D01*
X93189272Y-44975099D01*
X93189266Y-44975102D01*
X93000346Y-45092076D01*
X93000344Y-45092078D01*
X92836133Y-45241775D01*
X92702222Y-45419103D01*
X92622203Y-45579801D01*
X92574700Y-45631038D01*
X92507037Y-45648459D01*
X92440696Y-45626533D01*
X92398304Y-45575810D01*
X92346591Y-45461959D01*
X92346585Y-45461950D01*
X92218408Y-45276936D01*
X92218405Y-45276932D01*
X92218402Y-45276928D01*
X92070529Y-45129055D01*
X91981030Y-45054335D01*
X91942183Y-44996263D01*
X91936500Y-44959152D01*
X91936500Y-44913707D01*
X91956186Y-44846668D01*
X92008991Y-44800914D01*
X92031989Y-44793032D01*
X92035979Y-44792088D01*
X92035990Y-44792087D01*
X92170838Y-44741792D01*
X92286053Y-44655542D01*
X92372303Y-44540327D01*
X92422598Y-44405479D01*
X92429007Y-44345869D01*
X92429006Y-43834078D01*
X92434245Y-43798415D01*
X92456036Y-43725851D01*
X92481238Y-43502173D01*
X92474743Y-43405827D01*
X92466098Y-43277597D01*
X92466097Y-43277594D01*
X92466097Y-43277588D01*
X92432765Y-43145311D01*
X92429006Y-43115012D01*
X92429006Y-42522133D01*
X92429005Y-42522127D01*
X92429004Y-42522120D01*
X92422598Y-42462521D01*
X92372391Y-42327910D01*
X92372304Y-42327675D01*
X92372300Y-42327668D01*
X92286054Y-42212459D01*
X92286051Y-42212456D01*
X92170842Y-42126210D01*
X92170835Y-42126206D01*
X92035989Y-42075912D01*
X92035990Y-42075912D01*
X91976390Y-42069505D01*
X91976388Y-42069504D01*
X91976380Y-42069504D01*
X91976371Y-42069504D01*
X90395622Y-42069504D01*
X90395616Y-42069505D01*
X90336009Y-42075912D01*
X90201164Y-42126206D01*
X90201157Y-42126210D01*
X90085948Y-42212456D01*
X90085945Y-42212459D01*
X89999699Y-42327668D01*
X89999695Y-42327675D01*
X89949401Y-42462521D01*
X89942994Y-42522120D01*
X89942994Y-42522127D01*
X89942993Y-42522139D01*
X89942993Y-43293786D01*
X89942603Y-43300733D01*
X89930762Y-43405821D01*
X89930761Y-43405831D01*
X89937258Y-43502179D01*
X89942853Y-43585176D01*
X89942993Y-43589330D01*
X89942993Y-44345866D01*
X89942994Y-44345872D01*
X89949401Y-44405479D01*
X89999695Y-44540324D01*
X89999699Y-44540331D01*
X90085945Y-44655540D01*
X90085948Y-44655543D01*
X90201157Y-44741789D01*
X90201164Y-44741793D01*
X90246111Y-44758557D01*
X90336010Y-44792087D01*
X90336018Y-44792087D01*
X90340011Y-44793032D01*
X90342798Y-44794619D01*
X90343278Y-44794798D01*
X90343249Y-44794875D01*
X90400729Y-44827604D01*
X90433116Y-44889514D01*
X90435500Y-44913710D01*
X90435500Y-45026724D01*
X90415815Y-45093763D01*
X90395160Y-45118249D01*
X90363407Y-45147273D01*
X90299251Y-45205914D01*
X90162889Y-45385009D01*
X90081751Y-45544250D01*
X90065672Y-45575810D01*
X90058173Y-45590527D01*
X90056567Y-45589708D01*
X90018374Y-45638205D01*
X89952331Y-45661010D01*
X89884442Y-45644489D01*
X89836263Y-45593888D01*
X89835519Y-45592418D01*
X89749351Y-45419370D01*
X89749349Y-45419367D01*
X89733788Y-45398762D01*
X89165319Y-45967232D01*
X89164251Y-45952972D01*
X89115297Y-45828240D01*
X89031752Y-45723478D01*
X88921040Y-45647996D01*
X88811301Y-45614145D01*
X89378238Y-45047208D01*
X89262503Y-44975550D01*
X89262495Y-44975546D01*
X89082373Y-44905766D01*
X89026971Y-44863194D01*
X89003381Y-44797427D01*
X89019092Y-44729346D01*
X89052856Y-44690873D01*
X89100531Y-44655182D01*
X89186691Y-44540089D01*
X89186695Y-44540082D01*
X89236937Y-44405375D01*
X89236939Y-44405368D01*
X89243340Y-44345840D01*
X89243341Y-44345823D01*
X89243341Y-43684000D01*
X88250834Y-43684000D01*
X88250834Y-44817711D01*
X88260604Y-44835604D01*
X88255620Y-44905296D01*
X88213748Y-44961229D01*
X88194220Y-44972165D01*
X88194632Y-44972993D01*
X88189494Y-44975551D01*
X88073760Y-45047208D01*
X88642602Y-45616049D01*
X88593501Y-45623450D01*
X88472776Y-45681588D01*
X88374550Y-45772728D01*
X88307553Y-45888772D01*
X88289093Y-45969645D01*
X87718210Y-45398762D01*
X87702651Y-45419367D01*
X87702646Y-45419374D01*
X87603649Y-45618186D01*
X87603643Y-45618201D01*
X87542860Y-45831831D01*
X87542859Y-45831833D01*
X87522366Y-46052999D01*
X87522366Y-46053000D01*
X87542859Y-46274166D01*
X87542860Y-46274168D01*
X87603643Y-46487798D01*
X87603649Y-46487813D01*
X87702646Y-46686626D01*
X87702651Y-46686634D01*
X87718209Y-46707235D01*
X88286680Y-46138766D01*
X88287749Y-46153028D01*
X88336703Y-46277760D01*
X88420248Y-46382522D01*
X88530960Y-46458004D01*
X88640698Y-46491854D01*
X88057403Y-47075147D01*
X88056471Y-47080577D01*
X88009291Y-47132111D01*
X87945125Y-47150004D01*
X87279065Y-47150004D01*
X87219537Y-47156405D01*
X87219530Y-47156407D01*
X87084823Y-47206649D01*
X87084816Y-47206653D01*
X86969722Y-47292813D01*
X86969719Y-47292816D01*
X86883559Y-47407910D01*
X86883555Y-47407917D01*
X86833313Y-47542624D01*
X86833311Y-47542631D01*
X86826910Y-47602159D01*
X86826910Y-48264000D01*
X89311924Y-48264000D01*
X89311924Y-47602176D01*
X89311923Y-47602159D01*
X89305522Y-47542631D01*
X89305520Y-47542624D01*
X89255278Y-47407917D01*
X89255274Y-47407910D01*
X89193863Y-47325876D01*
X89169445Y-47260412D01*
X89184296Y-47192139D01*
X89233701Y-47142733D01*
X89248338Y-47135937D01*
X89262504Y-47130449D01*
X89262511Y-47130445D01*
X89378237Y-47058791D01*
X89378238Y-47058790D01*
X88809398Y-46489950D01*
X88858499Y-46482550D01*
X88979224Y-46424412D01*
X89077450Y-46333272D01*
X89144447Y-46217228D01*
X89162906Y-46136353D01*
X89733788Y-46707235D01*
X89733789Y-46707235D01*
X89749349Y-46686632D01*
X89749353Y-46686626D01*
X89837687Y-46509227D01*
X89885189Y-46457990D01*
X89952852Y-46440568D01*
X90019193Y-46462493D01*
X90061586Y-46513217D01*
X90133991Y-46672622D01*
X90133997Y-46672632D01*
X90262180Y-46857654D01*
X90381667Y-46977141D01*
X90415152Y-47038464D01*
X90410168Y-47108156D01*
X90368296Y-47164089D01*
X90337319Y-47181004D01*
X90269747Y-47206206D01*
X90269740Y-47206210D01*
X90154531Y-47292456D01*
X90154528Y-47292459D01*
X90068282Y-47407668D01*
X90068278Y-47407675D01*
X90017984Y-47542521D01*
X90011577Y-47602120D01*
X90011577Y-47602127D01*
X90011576Y-47602139D01*
X90011576Y-49425866D01*
X90011577Y-49425872D01*
X90017984Y-49485479D01*
X90068278Y-49620324D01*
X90068282Y-49620331D01*
X90154528Y-49735540D01*
X90154531Y-49735543D01*
X90269740Y-49821789D01*
X90277530Y-49826043D01*
X90276089Y-49828681D01*
X90319984Y-49861541D01*
X90344400Y-49927005D01*
X90329548Y-49995278D01*
X90319670Y-50010577D01*
X90202222Y-50166103D01*
X90103180Y-50365005D01*
X90103173Y-50365023D01*
X90095004Y-50393734D01*
X90057724Y-50452827D01*
X89994413Y-50482383D01*
X89925174Y-50473019D01*
X89871989Y-50427708D01*
X89856472Y-50393730D01*
X89848353Y-50365194D01*
X89848350Y-50365186D01*
X89749351Y-50166370D01*
X89749349Y-50166367D01*
X89733788Y-50145762D01*
X89165319Y-50714232D01*
X89164251Y-50699972D01*
X89115297Y-50575240D01*
X89031752Y-50470478D01*
X88921040Y-50394996D01*
X88811301Y-50361145D01*
X89378238Y-49794208D01*
X89378237Y-49794207D01*
X89312015Y-49753204D01*
X89265379Y-49701177D01*
X89254275Y-49632195D01*
X89261110Y-49604443D01*
X89305521Y-49485372D01*
X89305522Y-49485368D01*
X89311923Y-49425840D01*
X89311924Y-49425823D01*
X89311924Y-48764000D01*
X86826910Y-48764000D01*
X86826910Y-49425840D01*
X86833311Y-49485368D01*
X86833313Y-49485375D01*
X86883555Y-49620082D01*
X86883559Y-49620089D01*
X86969719Y-49735183D01*
X86969722Y-49735186D01*
X87084816Y-49821346D01*
X87084823Y-49821350D01*
X87219530Y-49871592D01*
X87219537Y-49871594D01*
X87279065Y-49877995D01*
X87279082Y-49877996D01*
X87671393Y-49877996D01*
X87738432Y-49897681D01*
X87784187Y-49950485D01*
X87794131Y-50019643D01*
X87770347Y-50076723D01*
X87702650Y-50166367D01*
X87603649Y-50365186D01*
X87603643Y-50365201D01*
X87542860Y-50578831D01*
X87542859Y-50578833D01*
X87522366Y-50799999D01*
X87522366Y-50800000D01*
X87542859Y-51021166D01*
X87542860Y-51021168D01*
X87603643Y-51234798D01*
X87603649Y-51234813D01*
X87702646Y-51433626D01*
X87702651Y-51433634D01*
X87718209Y-51454235D01*
X88286680Y-50885765D01*
X88287749Y-50900028D01*
X88336703Y-51024760D01*
X88420248Y-51129522D01*
X88530960Y-51205004D01*
X88640698Y-51238854D01*
X88073761Y-51805789D01*
X88077465Y-51837713D01*
X88065638Y-51906574D01*
X88018459Y-51958110D01*
X87954291Y-51976004D01*
X87279065Y-51976004D01*
X87219537Y-51982405D01*
X87219530Y-51982407D01*
X87084823Y-52032649D01*
X87084816Y-52032653D01*
X86969722Y-52118813D01*
X86969719Y-52118816D01*
X86883559Y-52233910D01*
X86883555Y-52233917D01*
X86833313Y-52368624D01*
X86833311Y-52368631D01*
X86826910Y-52428159D01*
X86826910Y-53090000D01*
X89311924Y-53090000D01*
X89311924Y-52428176D01*
X89311923Y-52428159D01*
X89305522Y-52368631D01*
X89305520Y-52368624D01*
X89255278Y-52233917D01*
X89255274Y-52233910D01*
X89169114Y-52118816D01*
X89167591Y-52117676D01*
X89166450Y-52116152D01*
X89162842Y-52112544D01*
X89163360Y-52112025D01*
X89125721Y-52061742D01*
X89120737Y-51992051D01*
X89154223Y-51930728D01*
X89197110Y-51902783D01*
X89262500Y-51877451D01*
X89262509Y-51877447D01*
X89378237Y-51805791D01*
X89378238Y-51805790D01*
X88809398Y-51236950D01*
X88858499Y-51229550D01*
X88979224Y-51171412D01*
X89077450Y-51080272D01*
X89144447Y-50964228D01*
X89162906Y-50883353D01*
X89733788Y-51454235D01*
X89733789Y-51454235D01*
X89749349Y-51433632D01*
X89749350Y-51433629D01*
X89848350Y-51234813D01*
X89848354Y-51234803D01*
X89856472Y-51206270D01*
X89893750Y-51147176D01*
X89957059Y-51117617D01*
X90026299Y-51126978D01*
X90079486Y-51172286D01*
X90095004Y-51206263D01*
X90103127Y-51234813D01*
X90103177Y-51234986D01*
X90103180Y-51234994D01*
X90202222Y-51433896D01*
X90336133Y-51611223D01*
X90395038Y-51664922D01*
X90431319Y-51724633D01*
X90435500Y-51756559D01*
X90435500Y-51884289D01*
X90415815Y-51951328D01*
X90363011Y-51997083D01*
X90354834Y-52000471D01*
X90269746Y-52032207D01*
X90269740Y-52032210D01*
X90154531Y-52118456D01*
X90154528Y-52118459D01*
X90068282Y-52233668D01*
X90068278Y-52233675D01*
X90017984Y-52368521D01*
X90011577Y-52428120D01*
X90011577Y-52428127D01*
X90011576Y-52428139D01*
X90011576Y-54251866D01*
X90011577Y-54251872D01*
X90017984Y-54311479D01*
X90068278Y-54446324D01*
X90068282Y-54446331D01*
X90154528Y-54561540D01*
X90154531Y-54561543D01*
X90269740Y-54647789D01*
X90277530Y-54652043D01*
X90276089Y-54654681D01*
X90319984Y-54687541D01*
X90344400Y-54753005D01*
X90329548Y-54821278D01*
X90319670Y-54836577D01*
X90202222Y-54992103D01*
X90103180Y-55191005D01*
X90103173Y-55191023D01*
X90095004Y-55219734D01*
X90057724Y-55278827D01*
X89994413Y-55308383D01*
X89925174Y-55299019D01*
X89871989Y-55253708D01*
X89856472Y-55219730D01*
X89848353Y-55191194D01*
X89848350Y-55191186D01*
X89749351Y-54992370D01*
X89749349Y-54992367D01*
X89733788Y-54971762D01*
X89165319Y-55540232D01*
X89164251Y-55525972D01*
X89115297Y-55401240D01*
X89031752Y-55296478D01*
X88921040Y-55220996D01*
X88811301Y-55187145D01*
X89378238Y-54620208D01*
X89378237Y-54620207D01*
X89312015Y-54579204D01*
X89265379Y-54527177D01*
X89254275Y-54458195D01*
X89261110Y-54430443D01*
X89305521Y-54311372D01*
X89305522Y-54311368D01*
X89311923Y-54251840D01*
X89311924Y-54251823D01*
X89311924Y-53590000D01*
X86826910Y-53590000D01*
X86826910Y-54251840D01*
X86833311Y-54311368D01*
X86833313Y-54311375D01*
X86883555Y-54446082D01*
X86883559Y-54446089D01*
X86969719Y-54561183D01*
X86969722Y-54561186D01*
X87084816Y-54647346D01*
X87084823Y-54647350D01*
X87219530Y-54697592D01*
X87219537Y-54697594D01*
X87279065Y-54703995D01*
X87279082Y-54703996D01*
X87671393Y-54703996D01*
X87738432Y-54723681D01*
X87784187Y-54776485D01*
X87794131Y-54845643D01*
X87770347Y-54902723D01*
X87702650Y-54992367D01*
X87603649Y-55191186D01*
X87603643Y-55191201D01*
X87542860Y-55404831D01*
X87542859Y-55404833D01*
X87522366Y-55625999D01*
X87522366Y-55626000D01*
X87542859Y-55847166D01*
X87542860Y-55847168D01*
X87603643Y-56060798D01*
X87603649Y-56060813D01*
X87702646Y-56259626D01*
X87702651Y-56259634D01*
X87718209Y-56280235D01*
X88286680Y-55711765D01*
X88287749Y-55726028D01*
X88336703Y-55850760D01*
X88420248Y-55955522D01*
X88530960Y-56031004D01*
X88640698Y-56064854D01*
X88073761Y-56631789D01*
X88077465Y-56663713D01*
X88065638Y-56732574D01*
X88018459Y-56784110D01*
X87954291Y-56802004D01*
X87279065Y-56802004D01*
X87219537Y-56808405D01*
X87219530Y-56808407D01*
X87084823Y-56858649D01*
X87084816Y-56858653D01*
X86969722Y-56944813D01*
X86969719Y-56944816D01*
X86883559Y-57059910D01*
X86883555Y-57059917D01*
X86833313Y-57194624D01*
X86833311Y-57194631D01*
X86826910Y-57254159D01*
X86826910Y-57916000D01*
X89311924Y-57916000D01*
X89311924Y-57254176D01*
X89311923Y-57254159D01*
X89305522Y-57194631D01*
X89305520Y-57194624D01*
X89255278Y-57059917D01*
X89255274Y-57059910D01*
X89169114Y-56944816D01*
X89167591Y-56943676D01*
X89166450Y-56942152D01*
X89162842Y-56938544D01*
X89163360Y-56938025D01*
X89125721Y-56887742D01*
X89120737Y-56818051D01*
X89154223Y-56756728D01*
X89197110Y-56728783D01*
X89262500Y-56703451D01*
X89262509Y-56703447D01*
X89378237Y-56631791D01*
X89378238Y-56631790D01*
X88809398Y-56062950D01*
X88858499Y-56055550D01*
X88979224Y-55997412D01*
X89077450Y-55906272D01*
X89144447Y-55790228D01*
X89162906Y-55709353D01*
X89733788Y-56280235D01*
X89733789Y-56280235D01*
X89749349Y-56259632D01*
X89749350Y-56259629D01*
X89848350Y-56060813D01*
X89848354Y-56060803D01*
X89856472Y-56032270D01*
X89893750Y-55973176D01*
X89957059Y-55943617D01*
X90026299Y-55952978D01*
X90079486Y-55998286D01*
X90095004Y-56032263D01*
X90103127Y-56060813D01*
X90103177Y-56060986D01*
X90103180Y-56060994D01*
X90202222Y-56259896D01*
X90336133Y-56437223D01*
X90395038Y-56490922D01*
X90431319Y-56550633D01*
X90435500Y-56582559D01*
X90435500Y-56710289D01*
X90415815Y-56777328D01*
X90363011Y-56823083D01*
X90354834Y-56826471D01*
X90269746Y-56858207D01*
X90269740Y-56858210D01*
X90154531Y-56944456D01*
X90154528Y-56944459D01*
X90068282Y-57059668D01*
X90068278Y-57059675D01*
X90017984Y-57194521D01*
X90011577Y-57254120D01*
X90011577Y-57254127D01*
X90011576Y-57254139D01*
X90011576Y-59077866D01*
X90011577Y-59077872D01*
X90017984Y-59137479D01*
X90068278Y-59272324D01*
X90068282Y-59272331D01*
X90154528Y-59387540D01*
X90154531Y-59387543D01*
X90269740Y-59473789D01*
X90277530Y-59478043D01*
X90276089Y-59480681D01*
X90319984Y-59513541D01*
X90344400Y-59579005D01*
X90329548Y-59647278D01*
X90319670Y-59662577D01*
X90202222Y-59818103D01*
X90103180Y-60017005D01*
X90103173Y-60017023D01*
X90095004Y-60045734D01*
X90057724Y-60104827D01*
X89994413Y-60134383D01*
X89925174Y-60125019D01*
X89871989Y-60079708D01*
X89856472Y-60045730D01*
X89848353Y-60017194D01*
X89848350Y-60017186D01*
X89749351Y-59818370D01*
X89749349Y-59818367D01*
X89733788Y-59797762D01*
X89165319Y-60366232D01*
X89164251Y-60351972D01*
X89115297Y-60227240D01*
X89031752Y-60122478D01*
X88921040Y-60046996D01*
X88811301Y-60013145D01*
X89378238Y-59446208D01*
X89378237Y-59446207D01*
X89312015Y-59405204D01*
X89265379Y-59353177D01*
X89254275Y-59284195D01*
X89261110Y-59256443D01*
X89305521Y-59137372D01*
X89305522Y-59137368D01*
X89311923Y-59077840D01*
X89311924Y-59077823D01*
X89311924Y-58416000D01*
X86826910Y-58416000D01*
X86826910Y-59077840D01*
X86833311Y-59137368D01*
X86833313Y-59137375D01*
X86883555Y-59272082D01*
X86883559Y-59272089D01*
X86969719Y-59387183D01*
X86969722Y-59387186D01*
X87084816Y-59473346D01*
X87084823Y-59473350D01*
X87219530Y-59523592D01*
X87219537Y-59523594D01*
X87279065Y-59529995D01*
X87279082Y-59529996D01*
X87671393Y-59529996D01*
X87738432Y-59549681D01*
X87784187Y-59602485D01*
X87794131Y-59671643D01*
X87770347Y-59728723D01*
X87702650Y-59818367D01*
X87603649Y-60017186D01*
X87603643Y-60017201D01*
X87542860Y-60230831D01*
X87542859Y-60230833D01*
X87522366Y-60451999D01*
X87522366Y-60452000D01*
X87542859Y-60673166D01*
X87542860Y-60673168D01*
X87603643Y-60886798D01*
X87603649Y-60886813D01*
X87702646Y-61085626D01*
X87702651Y-61085634D01*
X87718209Y-61106235D01*
X88286680Y-60537765D01*
X88287749Y-60552028D01*
X88336703Y-60676760D01*
X88420248Y-60781522D01*
X88530960Y-60857004D01*
X88640698Y-60890854D01*
X88073761Y-61457789D01*
X88077465Y-61489713D01*
X88065638Y-61558574D01*
X88018459Y-61610110D01*
X87954291Y-61628004D01*
X87347648Y-61628004D01*
X87288120Y-61634405D01*
X87288113Y-61634407D01*
X87153406Y-61684649D01*
X87153399Y-61684653D01*
X87038305Y-61770813D01*
X87038302Y-61770816D01*
X86952142Y-61885910D01*
X86952138Y-61885917D01*
X86901896Y-62020624D01*
X86901894Y-62020631D01*
X86895493Y-62080159D01*
X86895493Y-62742000D01*
X89380507Y-62742000D01*
X89380507Y-62080176D01*
X89380506Y-62080159D01*
X89374105Y-62020631D01*
X89374103Y-62020624D01*
X89323861Y-61885917D01*
X89323857Y-61885910D01*
X89237698Y-61770817D01*
X89212787Y-61752169D01*
X89170916Y-61696235D01*
X89165932Y-61626544D01*
X89199417Y-61565221D01*
X89242305Y-61537275D01*
X89262500Y-61529451D01*
X89262509Y-61529447D01*
X89378237Y-61457791D01*
X89378238Y-61457790D01*
X88809398Y-60888950D01*
X88858499Y-60881550D01*
X88979224Y-60823412D01*
X89077450Y-60732272D01*
X89144447Y-60616228D01*
X89162906Y-60535353D01*
X89733788Y-61106235D01*
X89733789Y-61106235D01*
X89749349Y-61085632D01*
X89749350Y-61085629D01*
X89848350Y-60886813D01*
X89848354Y-60886803D01*
X89856472Y-60858270D01*
X89893750Y-60799176D01*
X89957059Y-60769617D01*
X90026299Y-60778978D01*
X90079486Y-60824286D01*
X90095004Y-60858263D01*
X90103127Y-60886813D01*
X90103177Y-60886986D01*
X90103180Y-60886994D01*
X90202222Y-61085896D01*
X90336133Y-61263223D01*
X90395038Y-61316922D01*
X90431319Y-61376633D01*
X90435500Y-61408559D01*
X90435500Y-61561869D01*
X90415815Y-61628908D01*
X90363011Y-61674663D01*
X90354836Y-61678050D01*
X90338331Y-61684206D01*
X90338323Y-61684210D01*
X90223114Y-61770456D01*
X90223111Y-61770459D01*
X90136865Y-61885668D01*
X90136861Y-61885675D01*
X90086567Y-62020521D01*
X90080160Y-62080120D01*
X90080160Y-62080127D01*
X90080159Y-62080139D01*
X90080159Y-63903866D01*
X90080160Y-63903872D01*
X90086567Y-63963479D01*
X90136861Y-64098324D01*
X90136865Y-64098331D01*
X90170940Y-64143848D01*
X90223113Y-64213542D01*
X90318154Y-64284690D01*
X90360024Y-64340622D01*
X90365008Y-64410314D01*
X90338600Y-64461457D01*
X90339587Y-64462203D01*
X90202222Y-64644103D01*
X90103180Y-64843005D01*
X90103173Y-64843023D01*
X90095004Y-64871734D01*
X90057724Y-64930827D01*
X89994413Y-64960383D01*
X89925174Y-64951019D01*
X89871989Y-64905708D01*
X89856472Y-64871730D01*
X89848353Y-64843194D01*
X89848350Y-64843186D01*
X89749351Y-64644370D01*
X89749349Y-64644367D01*
X89733788Y-64623762D01*
X89165319Y-65192232D01*
X89164251Y-65177972D01*
X89115297Y-65053240D01*
X89031752Y-64948478D01*
X88921040Y-64872996D01*
X88811301Y-64839145D01*
X89378238Y-64272208D01*
X89378237Y-64272207D01*
X89366367Y-64264857D01*
X89319731Y-64212830D01*
X89308627Y-64143848D01*
X89322813Y-64100000D01*
X89323859Y-64098082D01*
X89374104Y-63963372D01*
X89374105Y-63963368D01*
X89380506Y-63903840D01*
X89380507Y-63903823D01*
X89380507Y-63242000D01*
X86895493Y-63242000D01*
X86895493Y-63903840D01*
X86901894Y-63963368D01*
X86901896Y-63963375D01*
X86952138Y-64098082D01*
X86952142Y-64098089D01*
X87038302Y-64213183D01*
X87038305Y-64213186D01*
X87153399Y-64299346D01*
X87153406Y-64299350D01*
X87288113Y-64349592D01*
X87288120Y-64349594D01*
X87347648Y-64355995D01*
X87347665Y-64355996D01*
X87671393Y-64355996D01*
X87738432Y-64375681D01*
X87784187Y-64428485D01*
X87794131Y-64497643D01*
X87770347Y-64554723D01*
X87702650Y-64644367D01*
X87603649Y-64843186D01*
X87603643Y-64843201D01*
X87542860Y-65056831D01*
X87542859Y-65056833D01*
X87522366Y-65277999D01*
X87522366Y-65278000D01*
X87542859Y-65499166D01*
X87542860Y-65499168D01*
X87603643Y-65712798D01*
X87603649Y-65712813D01*
X87702646Y-65911626D01*
X87702651Y-65911634D01*
X87718209Y-65932235D01*
X88286680Y-65363765D01*
X88287749Y-65378028D01*
X88336703Y-65502760D01*
X88420248Y-65607522D01*
X88530960Y-65683004D01*
X88640698Y-65716854D01*
X88073761Y-66283789D01*
X88077465Y-66315713D01*
X88065638Y-66384574D01*
X88018459Y-66436110D01*
X87954291Y-66454004D01*
X87279065Y-66454004D01*
X87219537Y-66460405D01*
X87219530Y-66460407D01*
X87084823Y-66510649D01*
X87084816Y-66510653D01*
X86969722Y-66596813D01*
X86969719Y-66596816D01*
X86883559Y-66711910D01*
X86883555Y-66711917D01*
X86833313Y-66846624D01*
X86833311Y-66846631D01*
X86826910Y-66906159D01*
X86826910Y-67568000D01*
X85852500Y-67568000D01*
X85852500Y-43684000D01*
X86758327Y-43684000D01*
X86758327Y-44345840D01*
X86764728Y-44405368D01*
X86764730Y-44405375D01*
X86814972Y-44540082D01*
X86814976Y-44540089D01*
X86901136Y-44655183D01*
X86901139Y-44655186D01*
X87016233Y-44741346D01*
X87016240Y-44741350D01*
X87150947Y-44791592D01*
X87150954Y-44791594D01*
X87210482Y-44797995D01*
X87210499Y-44797996D01*
X87750834Y-44797996D01*
X87750834Y-43684000D01*
X86758327Y-43684000D01*
X85852500Y-43684000D01*
X85852500Y-43184000D01*
X86758327Y-43184000D01*
X87750834Y-43184000D01*
X87750834Y-42070004D01*
X88250834Y-42070004D01*
X88250834Y-43184000D01*
X89243341Y-43184000D01*
X89243341Y-42522176D01*
X89243340Y-42522159D01*
X89236939Y-42462631D01*
X89236937Y-42462624D01*
X89186695Y-42327917D01*
X89186691Y-42327910D01*
X89100531Y-42212816D01*
X89100528Y-42212813D01*
X88985434Y-42126653D01*
X88985427Y-42126649D01*
X88850720Y-42076407D01*
X88850713Y-42076405D01*
X88791185Y-42070004D01*
X88250834Y-42070004D01*
X87750834Y-42070004D01*
X87210482Y-42070004D01*
X87150954Y-42076405D01*
X87150947Y-42076407D01*
X87016240Y-42126649D01*
X87016233Y-42126653D01*
X86901139Y-42212813D01*
X86901136Y-42212816D01*
X86814976Y-42327910D01*
X86814972Y-42327917D01*
X86764730Y-42462624D01*
X86764728Y-42462631D01*
X86758327Y-42522159D01*
X86758327Y-43184000D01*
X85852500Y-43184000D01*
X85852500Y-33144500D01*
X85872185Y-33077461D01*
X85924989Y-33031706D01*
X85976500Y-33020500D01*
X96395500Y-33020500D01*
X96462539Y-33040185D01*
G37*
%TD.AperFunction*%
%TD*%
M02*
