%TF.GenerationSoftware,KiCad,Pcbnew,7.0.5-0*%
%TF.CreationDate,2024-07-23T14:26:58+02:00*%
%TF.ProjectId,JST_EH_2.5mm_ExtensionBoard,4a53545f-4548-45f3-922e-356d6d5f4578,rev?*%
%TF.SameCoordinates,Original*%
%TF.FileFunction,Legend,Top*%
%TF.FilePolarity,Positive*%
%FSLAX46Y46*%
G04 Gerber Fmt 4.6, Leading zero omitted, Abs format (unit mm)*
G04 Created by KiCad (PCBNEW 7.0.5-0) date 2024-07-23 14:26:58*
%MOMM*%
%LPD*%
G01*
G04 APERTURE LIST*
%ADD10C,0.150000*%
%ADD11C,0.059995*%
%ADD12C,0.152400*%
%ADD13R,1.259995X3.610008*%
%ADD14C,1.397000*%
G04 APERTURE END LIST*
D10*
X86360000Y-68072000D02*
X86868000Y-68072000D01*
X86868000Y-70612000D01*
X86360000Y-70612000D01*
X86360000Y-68072000D01*
G36*
X86360000Y-68072000D02*
G01*
X86868000Y-68072000D01*
X86868000Y-70612000D01*
X86360000Y-70612000D01*
X86360000Y-68072000D01*
G37*
X86360000Y-41402000D02*
X86868000Y-41402000D01*
X86868000Y-43942000D01*
X86360000Y-43942000D01*
X86360000Y-41402000D01*
G36*
X86360000Y-41402000D02*
G01*
X86868000Y-41402000D01*
X86868000Y-43942000D01*
X86360000Y-43942000D01*
X86360000Y-41402000D01*
G37*
D11*
%TO.C,C3*%
X95366086Y-42854127D02*
G75*
G03*
X95366086Y-42854127I-29972J0D01*
G01*
D12*
X91968398Y-34127762D02*
X95412238Y-34127762D01*
X95412238Y-34127762D02*
X95412238Y-40843967D01*
X95412238Y-40843967D02*
X93675967Y-42580238D01*
X93675967Y-42580238D02*
X91968398Y-42580238D01*
X90403602Y-34127762D02*
X86959762Y-34127762D01*
X86959762Y-34127762D02*
X86959762Y-40843967D01*
X86959762Y-40843967D02*
X88696033Y-42580238D01*
X88696033Y-42580238D02*
X90403602Y-42580238D01*
D11*
%TO.C,C1*%
X87065858Y-68905873D02*
G75*
G03*
X87065858Y-68905873I-29972J0D01*
G01*
D12*
X90403602Y-77632238D02*
X86959762Y-77632238D01*
X86959762Y-77632238D02*
X86959762Y-70916033D01*
X86959762Y-70916033D02*
X88696033Y-69179762D01*
X88696033Y-69179762D02*
X90403602Y-69179762D01*
X91968398Y-77632238D02*
X95412238Y-77632238D01*
X95412238Y-77632238D02*
X95412238Y-70916033D01*
X95412238Y-70916033D02*
X93675967Y-69179762D01*
X93675967Y-69179762D02*
X91968398Y-69179762D01*
%TO.C,J5*%
X86095200Y-63551000D02*
X86095200Y-67615000D01*
X86095200Y-67615000D02*
X96356800Y-67615000D01*
X96356800Y-63551000D02*
X86095200Y-63551000D01*
X96356800Y-67615000D02*
X96356800Y-63551000D01*
%TO.C,J4*%
X86095200Y-58725000D02*
X86095200Y-62789000D01*
X86095200Y-62789000D02*
X96356800Y-62789000D01*
X96356800Y-58725000D02*
X86095200Y-58725000D01*
X96356800Y-62789000D02*
X96356800Y-58725000D01*
%TO.C,J3*%
X86095200Y-53899000D02*
X86095200Y-57963000D01*
X86095200Y-57963000D02*
X96356800Y-57963000D01*
X96356800Y-53899000D02*
X86095200Y-53899000D01*
X96356800Y-57963000D02*
X96356800Y-53899000D01*
%TO.C,J2*%
X86095200Y-49073000D02*
X86095200Y-53137000D01*
X86095200Y-53137000D02*
X96356800Y-53137000D01*
X96356800Y-49073000D02*
X86095200Y-49073000D01*
X96356800Y-53137000D02*
X96356800Y-49073000D01*
%TO.C,J1*%
X86095200Y-44326000D02*
X86095200Y-48390000D01*
X86095200Y-48390000D02*
X96356800Y-48390000D01*
X96356800Y-44326000D02*
X86095200Y-44326000D01*
X96356800Y-48390000D02*
X96356800Y-44326000D01*
%TD*%
%LPC*%
D13*
%TO.C,C3*%
X91186000Y-41648895D03*
X91186000Y-35059105D03*
%TD*%
%TO.C,C1*%
X91186000Y-70111105D03*
X91186000Y-76700895D03*
%TD*%
D14*
%TO.C,J5*%
X88726000Y-65278000D03*
X91226000Y-65278000D03*
X93726000Y-65278000D03*
%TD*%
%TO.C,J4*%
X88726000Y-60452000D03*
X91226000Y-60452000D03*
X93726000Y-60452000D03*
%TD*%
%TO.C,J3*%
X88726000Y-55626000D03*
X91226000Y-55626000D03*
X93726000Y-55626000D03*
%TD*%
%TO.C,J2*%
X88726000Y-50800000D03*
X91226000Y-50800000D03*
X93726000Y-50800000D03*
%TD*%
%TO.C,J1*%
X88726000Y-46053000D03*
X91226000Y-46053000D03*
X93726000Y-46053000D03*
%TD*%
%LPD*%
M02*
