%TF.GenerationSoftware,KiCad,Pcbnew,7.0.5-0*%
%TF.CreationDate,2024-07-23T14:26:58+02:00*%
%TF.ProjectId,JST_EH_2.5mm_ExtensionBoard,4a53545f-4548-45f3-922e-356d6d5f4578,rev?*%
%TF.SameCoordinates,Original*%
%TF.FileFunction,Legend,Bot*%
%TF.FilePolarity,Positive*%
%FSLAX46Y46*%
G04 Gerber Fmt 4.6, Leading zero omitted, Abs format (unit mm)*
G04 Created by KiCad (PCBNEW 7.0.5-0) date 2024-07-23 14:26:58*
%MOMM*%
%LPD*%
G01*
G04 APERTURE LIST*
%ADD10C,0.125000*%
%ADD11C,0.152400*%
%ADD12C,0.059995*%
%ADD13R,1.485014X1.727991*%
%ADD14C,1.397000*%
G04 APERTURE END LIST*
D10*
X92975500Y-41034049D02*
X92904071Y-40819764D01*
X92904071Y-40819764D02*
X92904071Y-40462621D01*
X92904071Y-40462621D02*
X92975500Y-40319764D01*
X92975500Y-40319764D02*
X93046928Y-40248335D01*
X93046928Y-40248335D02*
X93189785Y-40176906D01*
X93189785Y-40176906D02*
X93332642Y-40176906D01*
X93332642Y-40176906D02*
X93475500Y-40248335D01*
X93475500Y-40248335D02*
X93546928Y-40319764D01*
X93546928Y-40319764D02*
X93618357Y-40462621D01*
X93618357Y-40462621D02*
X93689785Y-40748335D01*
X93689785Y-40748335D02*
X93761214Y-40891192D01*
X93761214Y-40891192D02*
X93832642Y-40962621D01*
X93832642Y-40962621D02*
X93975500Y-41034049D01*
X93975500Y-41034049D02*
X94118357Y-41034049D01*
X94118357Y-41034049D02*
X94261214Y-40962621D01*
X94261214Y-40962621D02*
X94332642Y-40891192D01*
X94332642Y-40891192D02*
X94404071Y-40748335D01*
X94404071Y-40748335D02*
X94404071Y-40391192D01*
X94404071Y-40391192D02*
X94332642Y-40176906D01*
X92904071Y-39534050D02*
X94404071Y-39534050D01*
X94332642Y-38034049D02*
X94404071Y-38176907D01*
X94404071Y-38176907D02*
X94404071Y-38391192D01*
X94404071Y-38391192D02*
X94332642Y-38605478D01*
X94332642Y-38605478D02*
X94189785Y-38748335D01*
X94189785Y-38748335D02*
X94046928Y-38819764D01*
X94046928Y-38819764D02*
X93761214Y-38891192D01*
X93761214Y-38891192D02*
X93546928Y-38891192D01*
X93546928Y-38891192D02*
X93261214Y-38819764D01*
X93261214Y-38819764D02*
X93118357Y-38748335D01*
X93118357Y-38748335D02*
X92975500Y-38605478D01*
X92975500Y-38605478D02*
X92904071Y-38391192D01*
X92904071Y-38391192D02*
X92904071Y-38248335D01*
X92904071Y-38248335D02*
X92975500Y-38034049D01*
X92975500Y-38034049D02*
X93046928Y-37962621D01*
X93046928Y-37962621D02*
X93546928Y-37962621D01*
X93546928Y-37962621D02*
X93546928Y-38248335D01*
X90489071Y-40176906D02*
X90489071Y-41034049D01*
X90489071Y-40605478D02*
X91989071Y-40605478D01*
X91989071Y-40605478D02*
X91774785Y-40748335D01*
X91774785Y-40748335D02*
X91631928Y-40891192D01*
X91631928Y-40891192D02*
X91560500Y-41034049D01*
X91846214Y-39605478D02*
X91917642Y-39534050D01*
X91917642Y-39534050D02*
X91989071Y-39391193D01*
X91989071Y-39391193D02*
X91989071Y-39034050D01*
X91989071Y-39034050D02*
X91917642Y-38891193D01*
X91917642Y-38891193D02*
X91846214Y-38819764D01*
X91846214Y-38819764D02*
X91703357Y-38748335D01*
X91703357Y-38748335D02*
X91560500Y-38748335D01*
X91560500Y-38748335D02*
X91346214Y-38819764D01*
X91346214Y-38819764D02*
X90489071Y-39676907D01*
X90489071Y-39676907D02*
X90489071Y-38748335D01*
X91989071Y-38319764D02*
X90489071Y-37819764D01*
X90489071Y-37819764D02*
X91989071Y-37319764D01*
X89502642Y-40176906D02*
X89574071Y-40319764D01*
X89574071Y-40319764D02*
X89574071Y-40534049D01*
X89574071Y-40534049D02*
X89502642Y-40748335D01*
X89502642Y-40748335D02*
X89359785Y-40891192D01*
X89359785Y-40891192D02*
X89216928Y-40962621D01*
X89216928Y-40962621D02*
X88931214Y-41034049D01*
X88931214Y-41034049D02*
X88716928Y-41034049D01*
X88716928Y-41034049D02*
X88431214Y-40962621D01*
X88431214Y-40962621D02*
X88288357Y-40891192D01*
X88288357Y-40891192D02*
X88145500Y-40748335D01*
X88145500Y-40748335D02*
X88074071Y-40534049D01*
X88074071Y-40534049D02*
X88074071Y-40391192D01*
X88074071Y-40391192D02*
X88145500Y-40176906D01*
X88145500Y-40176906D02*
X88216928Y-40105478D01*
X88216928Y-40105478D02*
X88716928Y-40105478D01*
X88716928Y-40105478D02*
X88716928Y-40391192D01*
X88074071Y-39462621D02*
X89574071Y-39462621D01*
X89574071Y-39462621D02*
X88074071Y-38605478D01*
X88074071Y-38605478D02*
X89574071Y-38605478D01*
X88074071Y-37891192D02*
X89574071Y-37891192D01*
X89574071Y-37891192D02*
X89574071Y-37534049D01*
X89574071Y-37534049D02*
X89502642Y-37319763D01*
X89502642Y-37319763D02*
X89359785Y-37176906D01*
X89359785Y-37176906D02*
X89216928Y-37105477D01*
X89216928Y-37105477D02*
X88931214Y-37034049D01*
X88931214Y-37034049D02*
X88716928Y-37034049D01*
X88716928Y-37034049D02*
X88431214Y-37105477D01*
X88431214Y-37105477D02*
X88288357Y-37176906D01*
X88288357Y-37176906D02*
X88145500Y-37319763D01*
X88145500Y-37319763D02*
X88074071Y-37534049D01*
X88074071Y-37534049D02*
X88074071Y-37891192D01*
D11*
%TO.C,C8*%
X87098398Y-68758208D02*
G75*
G03*
X87250799Y-68910609I152401J0D01*
G01*
X87250799Y-66725391D02*
G75*
G03*
X87098398Y-66877792I0J-152401D01*
G01*
X92073201Y-68910609D02*
G75*
G03*
X92225602Y-68758208I0J152401D01*
G01*
X92225602Y-66877792D02*
G75*
G03*
X92073201Y-66725391I-152401J0D01*
G01*
D12*
X91291921Y-68618102D02*
G75*
G03*
X91291921Y-68618102I-29972J0D01*
G01*
D11*
X87250799Y-66725391D02*
X88735787Y-66725391D01*
X88735787Y-68910609D02*
X87250799Y-68910609D01*
X87098398Y-68758208D02*
X87098398Y-66877792D01*
X92073201Y-66725391D02*
X90588213Y-66725391D01*
X90588213Y-68910609D02*
X92073201Y-68910609D01*
X92225602Y-68758208D02*
X92225602Y-66877792D01*
%TO.C,C7*%
X92157019Y-44374208D02*
X92157019Y-42493792D01*
X90519630Y-44526609D02*
X92004618Y-44526609D01*
X92004618Y-42341391D02*
X90519630Y-42341391D01*
X87029815Y-44374208D02*
X87029815Y-42493792D01*
X88667204Y-44526609D02*
X87182216Y-44526609D01*
X87182216Y-42341391D02*
X88667204Y-42341391D01*
D12*
X91223338Y-44234102D02*
G75*
G03*
X91223338Y-44234102I-29972J0D01*
G01*
D11*
X92157019Y-42493792D02*
G75*
G03*
X92004618Y-42341391I-152401J0D01*
G01*
X92004618Y-44526609D02*
G75*
G03*
X92157019Y-44374208I0J152401D01*
G01*
X87182216Y-42341391D02*
G75*
G03*
X87029815Y-42493792I0J-152401D01*
G01*
X87029815Y-44374208D02*
G75*
G03*
X87182216Y-44526609I152401J0D01*
G01*
%TO.C,C6*%
X92294185Y-63932208D02*
X92294185Y-62051792D01*
X90656796Y-64084609D02*
X92141784Y-64084609D01*
X92141784Y-61899391D02*
X90656796Y-61899391D01*
X87166981Y-63932208D02*
X87166981Y-62051792D01*
X88804370Y-64084609D02*
X87319382Y-64084609D01*
X87319382Y-61899391D02*
X88804370Y-61899391D01*
D12*
X91360504Y-63792102D02*
G75*
G03*
X91360504Y-63792102I-29972J0D01*
G01*
D11*
X92294185Y-62051792D02*
G75*
G03*
X92141784Y-61899391I-152401J0D01*
G01*
X92141784Y-64084609D02*
G75*
G03*
X92294185Y-63932208I0J152401D01*
G01*
X87319382Y-61899391D02*
G75*
G03*
X87166981Y-62051792I0J-152401D01*
G01*
X87166981Y-63932208D02*
G75*
G03*
X87319382Y-64084609I152401J0D01*
G01*
%TO.C,C5*%
X87098398Y-59106208D02*
G75*
G03*
X87250799Y-59258609I152401J0D01*
G01*
X87250799Y-57073391D02*
G75*
G03*
X87098398Y-57225792I0J-152401D01*
G01*
X92073201Y-59258609D02*
G75*
G03*
X92225602Y-59106208I0J152401D01*
G01*
X92225602Y-57225792D02*
G75*
G03*
X92073201Y-57073391I-152401J0D01*
G01*
D12*
X91291921Y-58966102D02*
G75*
G03*
X91291921Y-58966102I-29972J0D01*
G01*
D11*
X87250799Y-57073391D02*
X88735787Y-57073391D01*
X88735787Y-59258609D02*
X87250799Y-59258609D01*
X87098398Y-59106208D02*
X87098398Y-57225792D01*
X92073201Y-57073391D02*
X90588213Y-57073391D01*
X90588213Y-59258609D02*
X92073201Y-59258609D01*
X92225602Y-59106208D02*
X92225602Y-57225792D01*
%TO.C,C4*%
X87098398Y-54280208D02*
G75*
G03*
X87250799Y-54432609I152401J0D01*
G01*
X87250799Y-52247391D02*
G75*
G03*
X87098398Y-52399792I0J-152401D01*
G01*
X92073201Y-54432609D02*
G75*
G03*
X92225602Y-54280208I0J152401D01*
G01*
X92225602Y-52399792D02*
G75*
G03*
X92073201Y-52247391I-152401J0D01*
G01*
D12*
X91291921Y-54140102D02*
G75*
G03*
X91291921Y-54140102I-29972J0D01*
G01*
D11*
X87250799Y-52247391D02*
X88735787Y-52247391D01*
X88735787Y-54432609D02*
X87250799Y-54432609D01*
X87098398Y-54280208D02*
X87098398Y-52399792D01*
X92073201Y-52247391D02*
X90588213Y-52247391D01*
X90588213Y-54432609D02*
X92073201Y-54432609D01*
X92225602Y-54280208D02*
X92225602Y-52399792D01*
%TO.C,C2*%
X87098398Y-49454208D02*
G75*
G03*
X87250799Y-49606609I152401J0D01*
G01*
X87250799Y-47421391D02*
G75*
G03*
X87098398Y-47573792I0J-152401D01*
G01*
X92073201Y-49606609D02*
G75*
G03*
X92225602Y-49454208I0J152401D01*
G01*
X92225602Y-47573792D02*
G75*
G03*
X92073201Y-47421391I-152401J0D01*
G01*
D12*
X91291921Y-49314102D02*
G75*
G03*
X91291921Y-49314102I-29972J0D01*
G01*
D11*
X87250799Y-47421391D02*
X88735787Y-47421391D01*
X88735787Y-49606609D02*
X87250799Y-49606609D01*
X87098398Y-49454208D02*
X87098398Y-47573792D01*
X92073201Y-47421391D02*
X90588213Y-47421391D01*
X90588213Y-49606609D02*
X92073201Y-49606609D01*
X92225602Y-49454208D02*
X92225602Y-47573792D01*
%TD*%
%LPC*%
D13*
%TO.C,C8*%
X88069417Y-67818000D03*
X91254583Y-67818000D03*
%TD*%
%TO.C,C7*%
X91186000Y-43434000D03*
X88000834Y-43434000D03*
%TD*%
%TO.C,C6*%
X91323166Y-62992000D03*
X88138000Y-62992000D03*
%TD*%
%TO.C,C5*%
X88069417Y-58166000D03*
X91254583Y-58166000D03*
%TD*%
%TO.C,C4*%
X88069417Y-53340000D03*
X91254583Y-53340000D03*
%TD*%
%TO.C,C2*%
X88069417Y-48514000D03*
X91254583Y-48514000D03*
%TD*%
D14*
%TO.C,J5*%
X88726000Y-65278000D03*
X91226000Y-65278000D03*
X93726000Y-65278000D03*
%TD*%
%TO.C,J4*%
X88726000Y-60452000D03*
X91226000Y-60452000D03*
X93726000Y-60452000D03*
%TD*%
%TO.C,J3*%
X88726000Y-55626000D03*
X91226000Y-55626000D03*
X93726000Y-55626000D03*
%TD*%
%TO.C,J2*%
X88726000Y-50800000D03*
X91226000Y-50800000D03*
X93726000Y-50800000D03*
%TD*%
%TO.C,J1*%
X88726000Y-46053000D03*
X91226000Y-46053000D03*
X93726000Y-46053000D03*
%TD*%
%LPD*%
M02*
