%TF.GenerationSoftware,KiCad,Pcbnew,7.0.5-0*%
%TF.CreationDate,2023-10-13T18:20:27+02:00*%
%TF.ProjectId,rj45-stepper-adapter,726a3435-2d73-4746-9570-7065722d6164,rev?*%
%TF.SameCoordinates,Original*%
%TF.FileFunction,Copper,L2,Bot*%
%TF.FilePolarity,Positive*%
%FSLAX46Y46*%
G04 Gerber Fmt 4.6, Leading zero omitted, Abs format (unit mm)*
G04 Created by KiCad (PCBNEW 7.0.5-0) date 2023-10-13 18:20:27*
%MOMM*%
%LPD*%
G01*
G04 APERTURE LIST*
G04 Aperture macros list*
%AMRoundRect*
0 Rectangle with rounded corners*
0 $1 Rounding radius*
0 $2 $3 $4 $5 $6 $7 $8 $9 X,Y pos of 4 corners*
0 Add a 4 corners polygon primitive as box body*
4,1,4,$2,$3,$4,$5,$6,$7,$8,$9,$2,$3,0*
0 Add four circle primitives for the rounded corners*
1,1,$1+$1,$2,$3*
1,1,$1+$1,$4,$5*
1,1,$1+$1,$6,$7*
1,1,$1+$1,$8,$9*
0 Add four rect primitives between the rounded corners*
20,1,$1+$1,$2,$3,$4,$5,0*
20,1,$1+$1,$4,$5,$6,$7,0*
20,1,$1+$1,$6,$7,$8,$9,0*
20,1,$1+$1,$8,$9,$2,$3,0*%
G04 Aperture macros list end*
%TA.AperFunction,ComponentPad*%
%ADD10R,1.700000X1.700000*%
%TD*%
%TA.AperFunction,ComponentPad*%
%ADD11O,1.700000X1.700000*%
%TD*%
%TA.AperFunction,ComponentPad*%
%ADD12RoundRect,0.250500X-0.499500X-0.499500X0.499500X-0.499500X0.499500X0.499500X-0.499500X0.499500X0*%
%TD*%
%TA.AperFunction,ComponentPad*%
%ADD13C,1.500000*%
%TD*%
%TA.AperFunction,ComponentPad*%
%ADD14C,2.500000*%
%TD*%
%TA.AperFunction,ComponentPad*%
%ADD15R,2.670000X2.670000*%
%TD*%
%TA.AperFunction,ComponentPad*%
%ADD16C,2.670000*%
%TD*%
G04 APERTURE END LIST*
D10*
%TO.P,J2,1,Pin_1*%
%TO.N,/VCC 3.3V*%
X152908000Y-98552000D03*
D11*
%TO.P,J2,2,Pin_2*%
%TO.N,GND*%
X150368000Y-98552000D03*
%TO.P,J2,3,Pin_3*%
%TO.N,/SIG*%
X147828000Y-98552000D03*
%TD*%
D12*
%TO.P,J3,1*%
%TO.N,/SIG*%
X146182000Y-106711500D03*
D13*
%TO.P,J3,2*%
%TO.N,GND*%
X147442000Y-104171500D03*
%TO.P,J3,3*%
%TO.N,/VCC 3.3V*%
X148722000Y-106711500D03*
%TO.P,J3,4*%
%TO.N,/ENA+*%
X149982000Y-104171500D03*
%TO.P,J3,5*%
%TO.N,GND*%
X151262000Y-106711500D03*
%TO.P,J3,6*%
%TO.N,/DIR+*%
X152522000Y-104171500D03*
%TO.P,J3,7*%
%TO.N,GND*%
X153802000Y-106711500D03*
%TO.P,J3,8*%
%TO.N,/PUL+*%
X155062000Y-104171500D03*
D14*
%TO.P,J3,SH*%
%TO.N,GND*%
X142877000Y-110021500D03*
X158367000Y-110021500D03*
%TD*%
D15*
%TO.P,J6,1,Pin_1*%
%TO.N,GND*%
X165100000Y-97790000D03*
X162560000Y-97790000D03*
D16*
%TO.P,J6,2,Pin_2*%
%TO.N,/ENA+*%
X165100000Y-101600000D03*
X162560000Y-101600000D03*
%TO.P,J6,3,Pin_3*%
%TO.N,GND*%
X165100000Y-105410000D03*
X162560000Y-105410000D03*
%TO.P,J6,4,Pin_4*%
%TO.N,/DIR+*%
X165100000Y-109220000D03*
X162560000Y-109220000D03*
%TO.P,J6,5,Pin_5*%
%TO.N,GND*%
X165100000Y-113030000D03*
X162560000Y-113030000D03*
%TO.P,J6,6,Pin_6*%
%TO.N,/PUL+*%
X165100000Y-116840000D03*
X162560000Y-116840000D03*
%TD*%
%TA.AperFunction,Conductor*%
%TO.N,GND*%
G36*
X164575901Y-113332588D02*
G01*
X164672075Y-113457925D01*
X164797412Y-113554099D01*
X164894779Y-113594429D01*
X163988828Y-114500379D01*
X163988829Y-114500380D01*
X164101050Y-114584388D01*
X164332435Y-114710734D01*
X164332434Y-114710734D01*
X164579447Y-114802864D01*
X164619712Y-114811624D01*
X164682025Y-114845649D01*
X164716050Y-114907961D01*
X164710985Y-114978777D01*
X164668438Y-115035612D01*
X164619713Y-115057864D01*
X164579306Y-115066654D01*
X164579302Y-115066655D01*
X164579299Y-115066656D01*
X164442438Y-115117702D01*
X164332222Y-115158811D01*
X164100790Y-115285183D01*
X164100784Y-115285187D01*
X164100783Y-115285188D01*
X163905507Y-115431368D01*
X163838988Y-115456178D01*
X163769614Y-115441086D01*
X163754494Y-115431370D01*
X163559217Y-115285188D01*
X163559212Y-115285185D01*
X163559209Y-115285183D01*
X163327777Y-115158811D01*
X163080698Y-115066655D01*
X163063644Y-115062945D01*
X163040285Y-115057864D01*
X162977975Y-115023840D01*
X162943950Y-114961527D01*
X162949014Y-114890712D01*
X162991561Y-114833876D01*
X163040287Y-114811623D01*
X163080559Y-114802862D01*
X163327565Y-114710734D01*
X163558945Y-114584391D01*
X163671169Y-114500379D01*
X163671170Y-114500379D01*
X162765220Y-113594429D01*
X162862588Y-113554099D01*
X162987925Y-113457925D01*
X163084099Y-113332589D01*
X163124429Y-113235220D01*
X163829998Y-113940789D01*
X163830000Y-113940789D01*
X164535569Y-113235219D01*
X164575901Y-113332588D01*
G37*
%TD.AperFunction*%
%TA.AperFunction,Conductor*%
G36*
X163890386Y-110618913D02*
G01*
X163905505Y-110628629D01*
X164100783Y-110774812D01*
X164332226Y-110901190D01*
X164579299Y-110993344D01*
X164619712Y-111002135D01*
X164682023Y-111036158D01*
X164716049Y-111098470D01*
X164710985Y-111169285D01*
X164668440Y-111226122D01*
X164619715Y-111248375D01*
X164579443Y-111257136D01*
X164332434Y-111349265D01*
X164101055Y-111475608D01*
X163988829Y-111559618D01*
X163988828Y-111559619D01*
X164894779Y-112465570D01*
X164797412Y-112505901D01*
X164672075Y-112602075D01*
X164575901Y-112727411D01*
X164535570Y-112824778D01*
X163830001Y-112119209D01*
X163829999Y-112119209D01*
X163124429Y-112824778D01*
X163084099Y-112727412D01*
X162987925Y-112602075D01*
X162862588Y-112505901D01*
X162765219Y-112465570D01*
X163671170Y-111559619D01*
X163671169Y-111559618D01*
X163558949Y-111475611D01*
X163327564Y-111349265D01*
X163327565Y-111349265D01*
X163080554Y-111257135D01*
X163040285Y-111248375D01*
X162977973Y-111214349D01*
X162943949Y-111152036D01*
X162949015Y-111081220D01*
X162991563Y-111024385D01*
X163040284Y-111002135D01*
X163080701Y-110993344D01*
X163327774Y-110901190D01*
X163559217Y-110774812D01*
X163754492Y-110628631D01*
X163821011Y-110603821D01*
X163890386Y-110618913D01*
G37*
%TD.AperFunction*%
%TA.AperFunction,Conductor*%
G36*
X164575901Y-105712588D02*
G01*
X164672075Y-105837925D01*
X164797412Y-105934099D01*
X164894779Y-105974429D01*
X163988828Y-106880379D01*
X163988829Y-106880380D01*
X164101050Y-106964388D01*
X164332435Y-107090734D01*
X164332434Y-107090734D01*
X164579447Y-107182864D01*
X164619712Y-107191624D01*
X164682025Y-107225649D01*
X164716050Y-107287961D01*
X164710985Y-107358777D01*
X164668438Y-107415612D01*
X164619713Y-107437864D01*
X164579306Y-107446654D01*
X164579302Y-107446655D01*
X164579299Y-107446656D01*
X164442438Y-107497702D01*
X164332222Y-107538811D01*
X164100790Y-107665183D01*
X164100784Y-107665187D01*
X164100783Y-107665188D01*
X163905507Y-107811368D01*
X163838988Y-107836178D01*
X163769614Y-107821086D01*
X163754494Y-107811370D01*
X163559217Y-107665188D01*
X163559212Y-107665185D01*
X163559209Y-107665183D01*
X163327777Y-107538811D01*
X163080698Y-107446655D01*
X163063644Y-107442945D01*
X163040285Y-107437864D01*
X162977975Y-107403840D01*
X162943950Y-107341527D01*
X162949014Y-107270712D01*
X162991561Y-107213876D01*
X163040287Y-107191623D01*
X163080559Y-107182862D01*
X163327565Y-107090734D01*
X163558945Y-106964391D01*
X163671169Y-106880379D01*
X163671170Y-106880379D01*
X162765220Y-105974429D01*
X162862588Y-105934099D01*
X162987925Y-105837925D01*
X163084099Y-105712589D01*
X163124429Y-105615220D01*
X163829999Y-106320790D01*
X163830001Y-106320790D01*
X164535570Y-105615220D01*
X164575901Y-105712588D01*
G37*
%TD.AperFunction*%
%TA.AperFunction,Conductor*%
G36*
X163890386Y-102998913D02*
G01*
X163905505Y-103008629D01*
X164100783Y-103154812D01*
X164332226Y-103281190D01*
X164579299Y-103373344D01*
X164619712Y-103382135D01*
X164682023Y-103416158D01*
X164716049Y-103478470D01*
X164710985Y-103549285D01*
X164668440Y-103606122D01*
X164619715Y-103628375D01*
X164579443Y-103637136D01*
X164332434Y-103729265D01*
X164101055Y-103855608D01*
X163988829Y-103939618D01*
X163988828Y-103939619D01*
X164894779Y-104845570D01*
X164797412Y-104885901D01*
X164672075Y-104982075D01*
X164575901Y-105107411D01*
X164535570Y-105204779D01*
X163830001Y-104499210D01*
X163829999Y-104499210D01*
X163124429Y-105204778D01*
X163084099Y-105107412D01*
X162987925Y-104982075D01*
X162862588Y-104885901D01*
X162765220Y-104845570D01*
X163671170Y-103939619D01*
X163671169Y-103939618D01*
X163558949Y-103855611D01*
X163327564Y-103729265D01*
X163327565Y-103729265D01*
X163080554Y-103637135D01*
X163040285Y-103628375D01*
X162977973Y-103594349D01*
X162943949Y-103532036D01*
X162949015Y-103461220D01*
X162991563Y-103404385D01*
X163040284Y-103382135D01*
X163080701Y-103373344D01*
X163327774Y-103281190D01*
X163559217Y-103154812D01*
X163754492Y-103008631D01*
X163821011Y-102983821D01*
X163890386Y-102998913D01*
G37*
%TD.AperFunction*%
%TA.AperFunction,Conductor*%
G36*
X164515444Y-97633369D02*
G01*
X164494823Y-97790000D01*
X164515444Y-97946631D01*
X164555775Y-98044000D01*
X163104225Y-98044000D01*
X163144556Y-97946631D01*
X163165177Y-97790000D01*
X163144556Y-97633369D01*
X163104225Y-97536000D01*
X164555775Y-97536000D01*
X164515444Y-97633369D01*
G37*
%TD.AperFunction*%
%TA.AperFunction,Conductor*%
G36*
X165864244Y-95275661D02*
G01*
X165942672Y-95281269D01*
X166066276Y-95290110D01*
X166084050Y-95292665D01*
X166275382Y-95334287D01*
X166292610Y-95339346D01*
X166476060Y-95407768D01*
X166492407Y-95415234D01*
X166664244Y-95509065D01*
X166679361Y-95518780D01*
X166836097Y-95636110D01*
X166849683Y-95647883D01*
X166988116Y-95786316D01*
X166999889Y-95799902D01*
X167117217Y-95956635D01*
X167126936Y-95971758D01*
X167220763Y-96143588D01*
X167228232Y-96159942D01*
X167296650Y-96343378D01*
X167301714Y-96360626D01*
X167309367Y-96395804D01*
X167343332Y-96551938D01*
X167345890Y-96569732D01*
X167360339Y-96771755D01*
X167360500Y-96776251D01*
X167360500Y-118107518D01*
X167360306Y-118112463D01*
X167345955Y-118294798D01*
X167342862Y-118314325D01*
X167301904Y-118484930D01*
X167295794Y-118503734D01*
X167228653Y-118665827D01*
X167219677Y-118683444D01*
X167128002Y-118833044D01*
X167116380Y-118849040D01*
X167002433Y-118982453D01*
X166988453Y-118996433D01*
X166855040Y-119110380D01*
X166839044Y-119122002D01*
X166689444Y-119213677D01*
X166671827Y-119222653D01*
X166509734Y-119289794D01*
X166490930Y-119295904D01*
X166320325Y-119336862D01*
X166300798Y-119339955D01*
X166118464Y-119354306D01*
X166113519Y-119354500D01*
X145035466Y-119354500D01*
X145032555Y-119354433D01*
X144640848Y-119336322D01*
X144635051Y-119335785D01*
X144280589Y-119286340D01*
X144248133Y-119281813D01*
X144242421Y-119280745D01*
X143862138Y-119191304D01*
X143856538Y-119189710D01*
X143486134Y-119065563D01*
X143480705Y-119063460D01*
X143123330Y-118905663D01*
X143118123Y-118903070D01*
X142776839Y-118712976D01*
X142771891Y-118709913D01*
X142622092Y-118607299D01*
X142449581Y-118489126D01*
X142444955Y-118485632D01*
X142238657Y-118314325D01*
X142144396Y-118236051D01*
X142140104Y-118232139D01*
X141863859Y-117955894D01*
X141859948Y-117951603D01*
X141733663Y-117799524D01*
X141610364Y-117651041D01*
X141606876Y-117646422D01*
X141433255Y-117392967D01*
X141386086Y-117324108D01*
X141383026Y-117319166D01*
X141192924Y-116977867D01*
X141190336Y-116972669D01*
X141131756Y-116840000D01*
X160711791Y-116840000D01*
X160730602Y-117103024D01*
X160786655Y-117360698D01*
X160878811Y-117607777D01*
X161005186Y-117839214D01*
X161163214Y-118050317D01*
X161163222Y-118050326D01*
X161349673Y-118236777D01*
X161349682Y-118236785D01*
X161352525Y-118238913D01*
X161560783Y-118394812D01*
X161560785Y-118394813D01*
X161730507Y-118487489D01*
X161792226Y-118521190D01*
X162039299Y-118613344D01*
X162296972Y-118669397D01*
X162560000Y-118688209D01*
X162823028Y-118669397D01*
X163080701Y-118613344D01*
X163327774Y-118521190D01*
X163559217Y-118394812D01*
X163754492Y-118248631D01*
X163821011Y-118223821D01*
X163890386Y-118238913D01*
X163905505Y-118248629D01*
X164100783Y-118394812D01*
X164100785Y-118394813D01*
X164270507Y-118487489D01*
X164332226Y-118521190D01*
X164579299Y-118613344D01*
X164836972Y-118669397D01*
X165100000Y-118688209D01*
X165363028Y-118669397D01*
X165620701Y-118613344D01*
X165867774Y-118521190D01*
X166099217Y-118394812D01*
X166310320Y-118236783D01*
X166496783Y-118050320D01*
X166654812Y-117839217D01*
X166781190Y-117607774D01*
X166873344Y-117360701D01*
X166929397Y-117103028D01*
X166948209Y-116840000D01*
X166929397Y-116576972D01*
X166873344Y-116319299D01*
X166781190Y-116072226D01*
X166654812Y-115840783D01*
X166521519Y-115662723D01*
X166496785Y-115629682D01*
X166496777Y-115629673D01*
X166310326Y-115443222D01*
X166310317Y-115443214D01*
X166099214Y-115285186D01*
X165867777Y-115158811D01*
X165620698Y-115066655D01*
X165603644Y-115062945D01*
X165580285Y-115057864D01*
X165517975Y-115023840D01*
X165483950Y-114961527D01*
X165489014Y-114890712D01*
X165531561Y-114833876D01*
X165580287Y-114811623D01*
X165620559Y-114802862D01*
X165867565Y-114710734D01*
X166098945Y-114584391D01*
X166211169Y-114500379D01*
X166211170Y-114500379D01*
X165305220Y-113594429D01*
X165402588Y-113554099D01*
X165527925Y-113457925D01*
X165624099Y-113332589D01*
X165664429Y-113235220D01*
X166570379Y-114141170D01*
X166570379Y-114141169D01*
X166654391Y-114028945D01*
X166780734Y-113797565D01*
X166872862Y-113550559D01*
X166928901Y-113292952D01*
X166947707Y-113029999D01*
X166928901Y-112767047D01*
X166872862Y-112509440D01*
X166780734Y-112262434D01*
X166654388Y-112031050D01*
X166570380Y-111918829D01*
X166570379Y-111918828D01*
X165664429Y-112824778D01*
X165624099Y-112727412D01*
X165527925Y-112602075D01*
X165402588Y-112505901D01*
X165305219Y-112465570D01*
X166211170Y-111559619D01*
X166211169Y-111559618D01*
X166098949Y-111475611D01*
X165867564Y-111349265D01*
X165867565Y-111349265D01*
X165620554Y-111257135D01*
X165580285Y-111248375D01*
X165517973Y-111214349D01*
X165483949Y-111152036D01*
X165489015Y-111081220D01*
X165531563Y-111024385D01*
X165580284Y-111002135D01*
X165620701Y-110993344D01*
X165867774Y-110901190D01*
X166099217Y-110774812D01*
X166310320Y-110616783D01*
X166496783Y-110430320D01*
X166654812Y-110219217D01*
X166781190Y-109987774D01*
X166873344Y-109740701D01*
X166929397Y-109483028D01*
X166948209Y-109220000D01*
X166929397Y-108956972D01*
X166873344Y-108699299D01*
X166781190Y-108452226D01*
X166654812Y-108220783D01*
X166576245Y-108115829D01*
X166496785Y-108009682D01*
X166496777Y-108009673D01*
X166310326Y-107823222D01*
X166310317Y-107823214D01*
X166099214Y-107665186D01*
X165867777Y-107538811D01*
X165620698Y-107446655D01*
X165603644Y-107442945D01*
X165580285Y-107437864D01*
X165517975Y-107403840D01*
X165483950Y-107341527D01*
X165489014Y-107270712D01*
X165531561Y-107213876D01*
X165580287Y-107191623D01*
X165620559Y-107182862D01*
X165867565Y-107090734D01*
X166098945Y-106964391D01*
X166211169Y-106880379D01*
X166211170Y-106880379D01*
X165305220Y-105974429D01*
X165402588Y-105934099D01*
X165527925Y-105837925D01*
X165624099Y-105712589D01*
X165664429Y-105615220D01*
X166570379Y-106521170D01*
X166570379Y-106521169D01*
X166654391Y-106408945D01*
X166780734Y-106177565D01*
X166872862Y-105930559D01*
X166928901Y-105672952D01*
X166947707Y-105410000D01*
X166928901Y-105147047D01*
X166872862Y-104889440D01*
X166780734Y-104642434D01*
X166654388Y-104411050D01*
X166570380Y-104298829D01*
X166570379Y-104298828D01*
X165664429Y-105204777D01*
X165624099Y-105107412D01*
X165527925Y-104982075D01*
X165402588Y-104885901D01*
X165305220Y-104845570D01*
X166211170Y-103939619D01*
X166211169Y-103939618D01*
X166098949Y-103855611D01*
X165867564Y-103729265D01*
X165867565Y-103729265D01*
X165620554Y-103637135D01*
X165580285Y-103628375D01*
X165517973Y-103594349D01*
X165483949Y-103532036D01*
X165489015Y-103461220D01*
X165531563Y-103404385D01*
X165580284Y-103382135D01*
X165620701Y-103373344D01*
X165867774Y-103281190D01*
X166099217Y-103154812D01*
X166310320Y-102996783D01*
X166496783Y-102810320D01*
X166654812Y-102599217D01*
X166781190Y-102367774D01*
X166873344Y-102120701D01*
X166929397Y-101863028D01*
X166948209Y-101600000D01*
X166929397Y-101336972D01*
X166873344Y-101079299D01*
X166781190Y-100832226D01*
X166654812Y-100600783D01*
X166576245Y-100495830D01*
X166496785Y-100389682D01*
X166496777Y-100389673D01*
X166310326Y-100203222D01*
X166310317Y-100203214D01*
X166099214Y-100045186D01*
X165867777Y-99918811D01*
X165828040Y-99903990D01*
X165755824Y-99877054D01*
X165698991Y-99834509D01*
X165674180Y-99767989D01*
X165689271Y-99698615D01*
X165739474Y-99648412D01*
X165799859Y-99633000D01*
X166483585Y-99633000D01*
X166483597Y-99632999D01*
X166544093Y-99626494D01*
X166680964Y-99575444D01*
X166680965Y-99575444D01*
X166797904Y-99487904D01*
X166885444Y-99370965D01*
X166885444Y-99370964D01*
X166936494Y-99234093D01*
X166942999Y-99173597D01*
X166943000Y-99173585D01*
X166943000Y-98044000D01*
X165644225Y-98044000D01*
X165684556Y-97946631D01*
X165705177Y-97790000D01*
X165684556Y-97633369D01*
X165644225Y-97536000D01*
X166943000Y-97536000D01*
X166943000Y-96406414D01*
X166942999Y-96406402D01*
X166936494Y-96345906D01*
X166885444Y-96209035D01*
X166885444Y-96209034D01*
X166797904Y-96092095D01*
X166680965Y-96004555D01*
X166544093Y-95953505D01*
X166483597Y-95947000D01*
X165354000Y-95947000D01*
X165354000Y-97245775D01*
X165256631Y-97205444D01*
X165139323Y-97190000D01*
X165060677Y-97190000D01*
X164943369Y-97205444D01*
X164846000Y-97245775D01*
X164846000Y-95947000D01*
X162814000Y-95947000D01*
X162814000Y-97245775D01*
X162716631Y-97205444D01*
X162599323Y-97190000D01*
X162520677Y-97190000D01*
X162403369Y-97205444D01*
X162306000Y-97245775D01*
X162306000Y-95947000D01*
X161176402Y-95947000D01*
X161115906Y-95953505D01*
X160979035Y-96004555D01*
X160979034Y-96004555D01*
X160862095Y-96092095D01*
X160774555Y-96209034D01*
X160774555Y-96209035D01*
X160723505Y-96345906D01*
X160717000Y-96406402D01*
X160717000Y-97536000D01*
X162015775Y-97536000D01*
X161975444Y-97633369D01*
X161954823Y-97790000D01*
X161975444Y-97946631D01*
X162015775Y-98044000D01*
X160717000Y-98044000D01*
X160717000Y-99173597D01*
X160723505Y-99234093D01*
X160774555Y-99370964D01*
X160774555Y-99370965D01*
X160862095Y-99487904D01*
X160979034Y-99575444D01*
X161115906Y-99626494D01*
X161176402Y-99632999D01*
X161176415Y-99633000D01*
X161860141Y-99633000D01*
X161928262Y-99653002D01*
X161974755Y-99706658D01*
X161984859Y-99776932D01*
X161955365Y-99841512D01*
X161904176Y-99877054D01*
X161838902Y-99901400D01*
X161792222Y-99918811D01*
X161560785Y-100045186D01*
X161349682Y-100203214D01*
X161349673Y-100203222D01*
X161163222Y-100389673D01*
X161163214Y-100389682D01*
X161005186Y-100600785D01*
X160878811Y-100832222D01*
X160786655Y-101079301D01*
X160730602Y-101336975D01*
X160711791Y-101600000D01*
X160730602Y-101863024D01*
X160786655Y-102120698D01*
X160878811Y-102367777D01*
X161005186Y-102599214D01*
X161163214Y-102810317D01*
X161163222Y-102810326D01*
X161349673Y-102996777D01*
X161349682Y-102996785D01*
X161352525Y-102998913D01*
X161560783Y-103154812D01*
X161792226Y-103281190D01*
X162039299Y-103373344D01*
X162079712Y-103382135D01*
X162142023Y-103416158D01*
X162176049Y-103478470D01*
X162170985Y-103549285D01*
X162128440Y-103606122D01*
X162079715Y-103628375D01*
X162039443Y-103637136D01*
X161792434Y-103729265D01*
X161561055Y-103855608D01*
X161448829Y-103939618D01*
X161448828Y-103939619D01*
X162354779Y-104845570D01*
X162257412Y-104885901D01*
X162132075Y-104982075D01*
X162035901Y-105107411D01*
X161995570Y-105204779D01*
X161089619Y-104298828D01*
X161089618Y-104298829D01*
X161005608Y-104411055D01*
X160879265Y-104642434D01*
X160787137Y-104889440D01*
X160731098Y-105147047D01*
X160712292Y-105410000D01*
X160731098Y-105672952D01*
X160787137Y-105930559D01*
X160879265Y-106177565D01*
X161005611Y-106408949D01*
X161089618Y-106521169D01*
X161089619Y-106521170D01*
X161995569Y-105615219D01*
X162035901Y-105712588D01*
X162132075Y-105837925D01*
X162257412Y-105934099D01*
X162354779Y-105974429D01*
X161448828Y-106880379D01*
X161448829Y-106880380D01*
X161561050Y-106964388D01*
X161792435Y-107090734D01*
X161792434Y-107090734D01*
X162039447Y-107182864D01*
X162079712Y-107191624D01*
X162142025Y-107225649D01*
X162176050Y-107287961D01*
X162170985Y-107358777D01*
X162128438Y-107415612D01*
X162079713Y-107437864D01*
X162039306Y-107446654D01*
X162039302Y-107446655D01*
X162039299Y-107446656D01*
X161902438Y-107497702D01*
X161792222Y-107538811D01*
X161560785Y-107665186D01*
X161349682Y-107823214D01*
X161349673Y-107823222D01*
X161163222Y-108009673D01*
X161163214Y-108009682D01*
X161005186Y-108220785D01*
X160878811Y-108452222D01*
X160786655Y-108699301D01*
X160730602Y-108956975D01*
X160711791Y-109220000D01*
X160730602Y-109483024D01*
X160786655Y-109740698D01*
X160878811Y-109987777D01*
X161005186Y-110219214D01*
X161163214Y-110430317D01*
X161163222Y-110430326D01*
X161349673Y-110616777D01*
X161349682Y-110616785D01*
X161455830Y-110696245D01*
X161560783Y-110774812D01*
X161792226Y-110901190D01*
X162039299Y-110993344D01*
X162079712Y-111002135D01*
X162142023Y-111036158D01*
X162176049Y-111098470D01*
X162170985Y-111169285D01*
X162128440Y-111226122D01*
X162079715Y-111248375D01*
X162039443Y-111257136D01*
X161792434Y-111349265D01*
X161561055Y-111475608D01*
X161448829Y-111559618D01*
X161448828Y-111559619D01*
X162354779Y-112465570D01*
X162257412Y-112505901D01*
X162132075Y-112602075D01*
X162035901Y-112727411D01*
X161995570Y-112824779D01*
X161089619Y-111918828D01*
X161089618Y-111918829D01*
X161005608Y-112031055D01*
X160879265Y-112262434D01*
X160787137Y-112509440D01*
X160731098Y-112767047D01*
X160712292Y-113029999D01*
X160731098Y-113292952D01*
X160787137Y-113550559D01*
X160879265Y-113797565D01*
X161005611Y-114028949D01*
X161089618Y-114141169D01*
X161089619Y-114141170D01*
X161995570Y-113235219D01*
X162035901Y-113332588D01*
X162132075Y-113457925D01*
X162257412Y-113554099D01*
X162354779Y-113594429D01*
X161448828Y-114500379D01*
X161448829Y-114500380D01*
X161561050Y-114584388D01*
X161792435Y-114710734D01*
X161792434Y-114710734D01*
X162039447Y-114802864D01*
X162079712Y-114811624D01*
X162142025Y-114845649D01*
X162176050Y-114907961D01*
X162170985Y-114978777D01*
X162128438Y-115035612D01*
X162079713Y-115057864D01*
X162039306Y-115066654D01*
X162039302Y-115066655D01*
X162039299Y-115066656D01*
X161902438Y-115117702D01*
X161792222Y-115158811D01*
X161560785Y-115285186D01*
X161349682Y-115443214D01*
X161349673Y-115443222D01*
X161163222Y-115629673D01*
X161163214Y-115629682D01*
X161005186Y-115840785D01*
X160878811Y-116072222D01*
X160786655Y-116319301D01*
X160730602Y-116576975D01*
X160711791Y-116840000D01*
X141131756Y-116840000D01*
X141131756Y-116839999D01*
X141032537Y-116615288D01*
X141030436Y-116609865D01*
X141019412Y-116576975D01*
X140906288Y-116239459D01*
X140904699Y-116233876D01*
X140815250Y-115853561D01*
X140814188Y-115847883D01*
X140760214Y-115460948D01*
X140759677Y-115455151D01*
X140741567Y-115063444D01*
X140741500Y-115060534D01*
X140741500Y-110021500D01*
X141114070Y-110021500D01*
X141133760Y-110284254D01*
X141192392Y-110541134D01*
X141192393Y-110541136D01*
X141288651Y-110786400D01*
X141288653Y-110786404D01*
X141420397Y-111014592D01*
X141420400Y-111014597D01*
X141466670Y-111072617D01*
X141466672Y-111072617D01*
X142147275Y-110392013D01*
X142235775Y-110532860D01*
X142365640Y-110662725D01*
X142506485Y-110751223D01*
X141825438Y-111432270D01*
X141995532Y-111548239D01*
X141995532Y-111548240D01*
X142232923Y-111662562D01*
X142484704Y-111740228D01*
X142484712Y-111740229D01*
X142745260Y-111779500D01*
X143008740Y-111779500D01*
X143269287Y-111740229D01*
X143269293Y-111740228D01*
X143276828Y-111737904D01*
X143347818Y-111736934D01*
X143408063Y-111774499D01*
X143438435Y-111838671D01*
X143429292Y-111909076D01*
X143416449Y-111931618D01*
X143301807Y-112091858D01*
X143301803Y-112091864D01*
X143176270Y-112336024D01*
X143087631Y-112595848D01*
X143087628Y-112595861D01*
X143037764Y-112865817D01*
X143037763Y-112865828D01*
X143027738Y-113140180D01*
X143057762Y-113413066D01*
X143127204Y-113678684D01*
X143181724Y-113806979D01*
X143234577Y-113931352D01*
X143377595Y-114165696D01*
X143553209Y-114376718D01*
X143553211Y-114376720D01*
X143553213Y-114376722D01*
X143757666Y-114559914D01*
X143757672Y-114559919D01*
X143757677Y-114559923D01*
X143986641Y-114711404D01*
X144235221Y-114827933D01*
X144498119Y-114907027D01*
X144498122Y-114907027D01*
X144498124Y-114907028D01*
X144769727Y-114947000D01*
X144769731Y-114947000D01*
X144975547Y-114947000D01*
X145180805Y-114931977D01*
X145448775Y-114872284D01*
X145705198Y-114774211D01*
X145944609Y-114639847D01*
X146161904Y-114472057D01*
X146352454Y-114274416D01*
X146512196Y-114051137D01*
X146637727Y-113806979D01*
X146637727Y-113806978D01*
X146637729Y-113806975D01*
X146723998Y-113554099D01*
X146726370Y-113547146D01*
X146755542Y-113389210D01*
X146776235Y-113277182D01*
X146776236Y-113277171D01*
X146781242Y-113140180D01*
X154457738Y-113140180D01*
X154487762Y-113413066D01*
X154557204Y-113678684D01*
X154611724Y-113806979D01*
X154664577Y-113931352D01*
X154807595Y-114165696D01*
X154983209Y-114376718D01*
X154983211Y-114376720D01*
X154983213Y-114376722D01*
X155187666Y-114559914D01*
X155187672Y-114559919D01*
X155187677Y-114559923D01*
X155416641Y-114711404D01*
X155665221Y-114827933D01*
X155928119Y-114907027D01*
X155928122Y-114907027D01*
X155928124Y-114907028D01*
X156199727Y-114947000D01*
X156199731Y-114947000D01*
X156405547Y-114947000D01*
X156610805Y-114931977D01*
X156878775Y-114872284D01*
X157135198Y-114774211D01*
X157374609Y-114639847D01*
X157591904Y-114472057D01*
X157782454Y-114274416D01*
X157942196Y-114051137D01*
X158067727Y-113806979D01*
X158067727Y-113806978D01*
X158067729Y-113806975D01*
X158153998Y-113554099D01*
X158156370Y-113547146D01*
X158185542Y-113389210D01*
X158206235Y-113277182D01*
X158206236Y-113277171D01*
X158216262Y-113002820D01*
X158190320Y-112767047D01*
X158186237Y-112729933D01*
X158151184Y-112595854D01*
X158116796Y-112464318D01*
X158108775Y-112445444D01*
X158062277Y-112336024D01*
X158009423Y-112211648D01*
X157866405Y-111977304D01*
X157834884Y-111939427D01*
X157806685Y-111874277D01*
X157818186Y-111804218D01*
X157865738Y-111751499D01*
X157934244Y-111732857D01*
X157968873Y-111738430D01*
X157974696Y-111740226D01*
X157974712Y-111740229D01*
X158235260Y-111779500D01*
X158498740Y-111779500D01*
X158759287Y-111740229D01*
X158759295Y-111740228D01*
X159011076Y-111662562D01*
X159248467Y-111548240D01*
X159418561Y-111432270D01*
X158737514Y-110751223D01*
X158878360Y-110662725D01*
X159008225Y-110532860D01*
X159096723Y-110392014D01*
X159777327Y-111072618D01*
X159823603Y-111014590D01*
X159955346Y-110786404D01*
X159955348Y-110786400D01*
X160051606Y-110541136D01*
X160051607Y-110541134D01*
X160110239Y-110284254D01*
X160129929Y-110021500D01*
X160110239Y-109758745D01*
X160051607Y-109501865D01*
X160051606Y-109501863D01*
X159955348Y-109256599D01*
X159955346Y-109256595D01*
X159823605Y-109028413D01*
X159823600Y-109028405D01*
X159777328Y-108970381D01*
X159777326Y-108970381D01*
X159096723Y-109650984D01*
X159008225Y-109510140D01*
X158878360Y-109380275D01*
X158737513Y-109291775D01*
X159418560Y-108610729D01*
X159418560Y-108610728D01*
X159248467Y-108494759D01*
X159011076Y-108380437D01*
X158759295Y-108302771D01*
X158759287Y-108302770D01*
X158498740Y-108263500D01*
X158235260Y-108263500D01*
X157974712Y-108302770D01*
X157974704Y-108302771D01*
X157722923Y-108380437D01*
X157485532Y-108494759D01*
X157485525Y-108494763D01*
X157315438Y-108610727D01*
X157315438Y-108610729D01*
X157996485Y-109291776D01*
X157855640Y-109380275D01*
X157725775Y-109510140D01*
X157637276Y-109650985D01*
X156956671Y-108970380D01*
X156956670Y-108970381D01*
X156910400Y-109028404D01*
X156910397Y-109028407D01*
X156778653Y-109256595D01*
X156778651Y-109256599D01*
X156682393Y-109501863D01*
X156682392Y-109501865D01*
X156623760Y-109758745D01*
X156604070Y-110021500D01*
X156623760Y-110284254D01*
X156682392Y-110541134D01*
X156682393Y-110541136D01*
X156778651Y-110786400D01*
X156778653Y-110786404D01*
X156910396Y-111014590D01*
X156943028Y-111055509D01*
X156969862Y-111121239D01*
X156956900Y-111191043D01*
X156908257Y-111242757D01*
X156839377Y-111259964D01*
X156808217Y-111254727D01*
X156745875Y-111235971D01*
X156474272Y-111196000D01*
X156474269Y-111196000D01*
X156268453Y-111196000D01*
X156063191Y-111211023D01*
X155795231Y-111270714D01*
X155795219Y-111270718D01*
X155538801Y-111368789D01*
X155299397Y-111503149D01*
X155299393Y-111503151D01*
X155082094Y-111670944D01*
X155082093Y-111670945D01*
X154891548Y-111868581D01*
X154731807Y-112091858D01*
X154731803Y-112091864D01*
X154606270Y-112336024D01*
X154517631Y-112595848D01*
X154517628Y-112595861D01*
X154467764Y-112865817D01*
X154467763Y-112865828D01*
X154457738Y-113140180D01*
X146781242Y-113140180D01*
X146786262Y-113002820D01*
X146760320Y-112767047D01*
X146756237Y-112729933D01*
X146721184Y-112595854D01*
X146686796Y-112464318D01*
X146678775Y-112445444D01*
X146632277Y-112336024D01*
X146579423Y-112211648D01*
X146436405Y-111977304D01*
X146260791Y-111766282D01*
X146260787Y-111766279D01*
X146260786Y-111766277D01*
X146056333Y-111583085D01*
X146056320Y-111583075D01*
X145827359Y-111431596D01*
X145827358Y-111431596D01*
X145578779Y-111315067D01*
X145357104Y-111248375D01*
X145315875Y-111235971D01*
X145044272Y-111196000D01*
X145044269Y-111196000D01*
X144838453Y-111196000D01*
X144633196Y-111211022D01*
X144426949Y-111256966D01*
X144356109Y-111252253D01*
X144299062Y-111209990D01*
X144273920Y-111143594D01*
X144288666Y-111074146D01*
X144301043Y-111055419D01*
X144333602Y-111014591D01*
X144333603Y-111014590D01*
X144465346Y-110786404D01*
X144465348Y-110786400D01*
X144561606Y-110541136D01*
X144561607Y-110541134D01*
X144620239Y-110284254D01*
X144639929Y-110021500D01*
X144620239Y-109758745D01*
X144561607Y-109501865D01*
X144561606Y-109501863D01*
X144465348Y-109256599D01*
X144465346Y-109256595D01*
X144333605Y-109028413D01*
X144333600Y-109028405D01*
X144287327Y-108970381D01*
X143606723Y-109650985D01*
X143518225Y-109510140D01*
X143388360Y-109380275D01*
X143247514Y-109291776D01*
X143928560Y-108610729D01*
X143928560Y-108610728D01*
X143758467Y-108494759D01*
X143521076Y-108380437D01*
X143269295Y-108302771D01*
X143269287Y-108302770D01*
X143008740Y-108263500D01*
X142745260Y-108263500D01*
X142484712Y-108302770D01*
X142484704Y-108302771D01*
X142232923Y-108380437D01*
X141995532Y-108494759D01*
X141995525Y-108494763D01*
X141825438Y-108610727D01*
X141825438Y-108610729D01*
X142506485Y-109291776D01*
X142365640Y-109380275D01*
X142235775Y-109510140D01*
X142147276Y-109650985D01*
X141466671Y-108970380D01*
X141466670Y-108970381D01*
X141420400Y-109028404D01*
X141420397Y-109028407D01*
X141288653Y-109256595D01*
X141288651Y-109256599D01*
X141192393Y-109501863D01*
X141192392Y-109501865D01*
X141133760Y-109758745D01*
X141114070Y-110021500D01*
X140741500Y-110021500D01*
X140741500Y-107261584D01*
X144923500Y-107261584D01*
X144934119Y-107365522D01*
X144934120Y-107365528D01*
X144989929Y-107533951D01*
X145070876Y-107665186D01*
X145083075Y-107684963D01*
X145083080Y-107684969D01*
X145208530Y-107810419D01*
X145208536Y-107810424D01*
X145208537Y-107810425D01*
X145359549Y-107903571D01*
X145527972Y-107959380D01*
X145631915Y-107969999D01*
X145631915Y-107970000D01*
X145631924Y-107970000D01*
X146732085Y-107970000D01*
X146732084Y-107969999D01*
X146836028Y-107959380D01*
X147004451Y-107903571D01*
X147155463Y-107810425D01*
X147280925Y-107684963D01*
X147374071Y-107533951D01*
X147419621Y-107396486D01*
X147460033Y-107338118D01*
X147525589Y-107310862D01*
X147595474Y-107323375D01*
X147642435Y-107363849D01*
X147754251Y-107523538D01*
X147754254Y-107523542D01*
X147909957Y-107679245D01*
X147909961Y-107679248D01*
X147909962Y-107679249D01*
X148090346Y-107805556D01*
X148289924Y-107898620D01*
X148502629Y-107955615D01*
X148722000Y-107974807D01*
X148941371Y-107955615D01*
X149154076Y-107898620D01*
X149353654Y-107805556D01*
X149534038Y-107679249D01*
X149689749Y-107523538D01*
X149816056Y-107343154D01*
X149878081Y-107210139D01*
X149924996Y-107156856D01*
X149993273Y-107137394D01*
X150061234Y-107157935D01*
X150106470Y-107210140D01*
X150168378Y-107342902D01*
X150210801Y-107403486D01*
X150817155Y-106797132D01*
X150818327Y-106812765D01*
X150867887Y-106939041D01*
X150952465Y-107045099D01*
X151064547Y-107121516D01*
X151176622Y-107156086D01*
X150570012Y-107762696D01*
X150570012Y-107762697D01*
X150630600Y-107805122D01*
X150830092Y-107898147D01*
X150830096Y-107898149D01*
X151042712Y-107955119D01*
X151261999Y-107974304D01*
X151481287Y-107955119D01*
X151693903Y-107898149D01*
X151693912Y-107898145D01*
X151893405Y-107805119D01*
X151893412Y-107805115D01*
X151953986Y-107762698D01*
X151953986Y-107762697D01*
X151345315Y-107154025D01*
X151396138Y-107146365D01*
X151518357Y-107087507D01*
X151617798Y-106995240D01*
X151685625Y-106877760D01*
X151704550Y-106794840D01*
X152313196Y-107403486D01*
X152313198Y-107403486D01*
X152355615Y-107342912D01*
X152355616Y-107342910D01*
X152417804Y-107209549D01*
X152464721Y-107156264D01*
X152532999Y-107136803D01*
X152600959Y-107157345D01*
X152646193Y-107209548D01*
X152708375Y-107342897D01*
X152708378Y-107342901D01*
X152750801Y-107403486D01*
X153357155Y-106797132D01*
X153358327Y-106812765D01*
X153407887Y-106939041D01*
X153492465Y-107045099D01*
X153604547Y-107121516D01*
X153716622Y-107156086D01*
X153110012Y-107762696D01*
X153110012Y-107762697D01*
X153170600Y-107805122D01*
X153370092Y-107898147D01*
X153370096Y-107898149D01*
X153582712Y-107955119D01*
X153802000Y-107974304D01*
X154021287Y-107955119D01*
X154233903Y-107898149D01*
X154233912Y-107898145D01*
X154433405Y-107805119D01*
X154433412Y-107805115D01*
X154493986Y-107762698D01*
X154493986Y-107762697D01*
X153885315Y-107154025D01*
X153936138Y-107146365D01*
X154058357Y-107087507D01*
X154157798Y-106995240D01*
X154225625Y-106877760D01*
X154244550Y-106794839D01*
X154853197Y-107403486D01*
X154853198Y-107403486D01*
X154895615Y-107342912D01*
X154895619Y-107342905D01*
X154988645Y-107143412D01*
X154988649Y-107143403D01*
X155045619Y-106930787D01*
X155064804Y-106711499D01*
X155045619Y-106492212D01*
X154988649Y-106279596D01*
X154988647Y-106279592D01*
X154895621Y-106080098D01*
X154853198Y-106019512D01*
X154853196Y-106019512D01*
X154246844Y-106625864D01*
X154245673Y-106610235D01*
X154196113Y-106483959D01*
X154111535Y-106377901D01*
X153999453Y-106301484D01*
X153887375Y-106266913D01*
X154493986Y-105660301D01*
X154493986Y-105660300D01*
X154433401Y-105617878D01*
X154433402Y-105617878D01*
X154233907Y-105524852D01*
X154233903Y-105524850D01*
X154021287Y-105467880D01*
X153802000Y-105448695D01*
X153582712Y-105467880D01*
X153370096Y-105524850D01*
X153370092Y-105524852D01*
X153170598Y-105617878D01*
X153110011Y-105660301D01*
X153718684Y-106268974D01*
X153667862Y-106276635D01*
X153545643Y-106335493D01*
X153446202Y-106427760D01*
X153378375Y-106545240D01*
X153359449Y-106628159D01*
X152750801Y-106019511D01*
X152708377Y-106080100D01*
X152646194Y-106213451D01*
X152599277Y-106266735D01*
X152531000Y-106286196D01*
X152463040Y-106265654D01*
X152417806Y-106213451D01*
X152355624Y-106080103D01*
X152355621Y-106080098D01*
X152313198Y-106019512D01*
X152313197Y-106019512D01*
X151706844Y-106625864D01*
X151705673Y-106610235D01*
X151656113Y-106483959D01*
X151571535Y-106377901D01*
X151459453Y-106301484D01*
X151347375Y-106266913D01*
X151953986Y-105660301D01*
X151953986Y-105660300D01*
X151893401Y-105617878D01*
X151893402Y-105617878D01*
X151693907Y-105524852D01*
X151693903Y-105524850D01*
X151481287Y-105467880D01*
X151261999Y-105448695D01*
X151042712Y-105467880D01*
X150830096Y-105524850D01*
X150830092Y-105524852D01*
X150630598Y-105617878D01*
X150570011Y-105660301D01*
X151178684Y-106268974D01*
X151127862Y-106276635D01*
X151005643Y-106335493D01*
X150906202Y-106427760D01*
X150838375Y-106545240D01*
X150819449Y-106628158D01*
X150210801Y-106019511D01*
X150168377Y-106080100D01*
X150106469Y-106212860D01*
X150059552Y-106266145D01*
X149991274Y-106285605D01*
X149923315Y-106265063D01*
X149878080Y-106212859D01*
X149816056Y-106079847D01*
X149689749Y-105899462D01*
X149534038Y-105743751D01*
X149525876Y-105738036D01*
X149432927Y-105672952D01*
X149353654Y-105617444D01*
X149343223Y-105612580D01*
X149154079Y-105524381D01*
X149154073Y-105524379D01*
X149064178Y-105500291D01*
X148941371Y-105467385D01*
X148722000Y-105448193D01*
X148502629Y-105467385D01*
X148289926Y-105524379D01*
X148289920Y-105524381D01*
X148090346Y-105617444D01*
X147909965Y-105743748D01*
X147909959Y-105743753D01*
X147754253Y-105899459D01*
X147754248Y-105899465D01*
X147642437Y-106059147D01*
X147586979Y-106103475D01*
X147516360Y-106110784D01*
X147453000Y-106078753D01*
X147419620Y-106026510D01*
X147374071Y-105889049D01*
X147280925Y-105738037D01*
X147280924Y-105738036D01*
X147280919Y-105738030D01*
X147177416Y-105634527D01*
X147143390Y-105572215D01*
X147148455Y-105501400D01*
X147191002Y-105444564D01*
X147257522Y-105419753D01*
X147277493Y-105419912D01*
X147441994Y-105434304D01*
X147661287Y-105415119D01*
X147873903Y-105358149D01*
X147873912Y-105358145D01*
X148073405Y-105265119D01*
X148073412Y-105265115D01*
X148133986Y-105222698D01*
X148133986Y-105222697D01*
X147525315Y-104614025D01*
X147576138Y-104606365D01*
X147698357Y-104547507D01*
X147797798Y-104455240D01*
X147865625Y-104337760D01*
X147884550Y-104254840D01*
X148493196Y-104863486D01*
X148493198Y-104863486D01*
X148535615Y-104802912D01*
X148535616Y-104802910D01*
X148597529Y-104670140D01*
X148644447Y-104616855D01*
X148712724Y-104597394D01*
X148780684Y-104617936D01*
X148825919Y-104670140D01*
X148887944Y-104803154D01*
X149013227Y-104982075D01*
X149014251Y-104983538D01*
X149014254Y-104983542D01*
X149169957Y-105139245D01*
X149169961Y-105139248D01*
X149169962Y-105139249D01*
X149350346Y-105265556D01*
X149549924Y-105358620D01*
X149762629Y-105415615D01*
X149982000Y-105434807D01*
X150201371Y-105415615D01*
X150414076Y-105358620D01*
X150613654Y-105265556D01*
X150794038Y-105139249D01*
X150949749Y-104983538D01*
X151076056Y-104803154D01*
X151137804Y-104670732D01*
X151184722Y-104617446D01*
X151252999Y-104597985D01*
X151320959Y-104618526D01*
X151366195Y-104670732D01*
X151427944Y-104803154D01*
X151553227Y-104982075D01*
X151554251Y-104983538D01*
X151554254Y-104983542D01*
X151709957Y-105139245D01*
X151709961Y-105139248D01*
X151709962Y-105139249D01*
X151890346Y-105265556D01*
X152089924Y-105358620D01*
X152302629Y-105415615D01*
X152522000Y-105434807D01*
X152741371Y-105415615D01*
X152954076Y-105358620D01*
X153153654Y-105265556D01*
X153334038Y-105139249D01*
X153489749Y-104983538D01*
X153616056Y-104803154D01*
X153677804Y-104670732D01*
X153724722Y-104617446D01*
X153792999Y-104597985D01*
X153860959Y-104618526D01*
X153906195Y-104670732D01*
X153967944Y-104803154D01*
X154093227Y-104982075D01*
X154094251Y-104983538D01*
X154094254Y-104983542D01*
X154249957Y-105139245D01*
X154249961Y-105139248D01*
X154249962Y-105139249D01*
X154430346Y-105265556D01*
X154629924Y-105358620D01*
X154842629Y-105415615D01*
X155062000Y-105434807D01*
X155281371Y-105415615D01*
X155494076Y-105358620D01*
X155693654Y-105265556D01*
X155874038Y-105139249D01*
X156029749Y-104983538D01*
X156156056Y-104803154D01*
X156249120Y-104603576D01*
X156306115Y-104390871D01*
X156325307Y-104171500D01*
X156306115Y-103952129D01*
X156249120Y-103739424D01*
X156156056Y-103539847D01*
X156029749Y-103359462D01*
X155874038Y-103203751D01*
X155693654Y-103077444D01*
X155693650Y-103077442D01*
X155494079Y-102984381D01*
X155494073Y-102984379D01*
X155404178Y-102960291D01*
X155281371Y-102927385D01*
X155062000Y-102908193D01*
X154842629Y-102927385D01*
X154629926Y-102984379D01*
X154629920Y-102984381D01*
X154430346Y-103077444D01*
X154249965Y-103203748D01*
X154249959Y-103203753D01*
X154094253Y-103359459D01*
X154094248Y-103359465D01*
X153967944Y-103539846D01*
X153906195Y-103672268D01*
X153859278Y-103725553D01*
X153791000Y-103745014D01*
X153723040Y-103724472D01*
X153677805Y-103672268D01*
X153646960Y-103606122D01*
X153616056Y-103539847D01*
X153489749Y-103359462D01*
X153334038Y-103203751D01*
X153153654Y-103077444D01*
X153153650Y-103077442D01*
X152954079Y-102984381D01*
X152954073Y-102984379D01*
X152864178Y-102960291D01*
X152741371Y-102927385D01*
X152522000Y-102908193D01*
X152302629Y-102927385D01*
X152089926Y-102984379D01*
X152089920Y-102984381D01*
X151890346Y-103077444D01*
X151709965Y-103203748D01*
X151709959Y-103203753D01*
X151554253Y-103359459D01*
X151554248Y-103359465D01*
X151427944Y-103539846D01*
X151366195Y-103672268D01*
X151319278Y-103725553D01*
X151251000Y-103745014D01*
X151183040Y-103724472D01*
X151137805Y-103672268D01*
X151106960Y-103606122D01*
X151076056Y-103539847D01*
X150949749Y-103359462D01*
X150794038Y-103203751D01*
X150613654Y-103077444D01*
X150613650Y-103077442D01*
X150414079Y-102984381D01*
X150414073Y-102984379D01*
X150324178Y-102960291D01*
X150201371Y-102927385D01*
X149982000Y-102908193D01*
X149981999Y-102908193D01*
X149762629Y-102927385D01*
X149549926Y-102984379D01*
X149549920Y-102984381D01*
X149350346Y-103077444D01*
X149169965Y-103203748D01*
X149169959Y-103203753D01*
X149014253Y-103359459D01*
X149014248Y-103359465D01*
X148887944Y-103539846D01*
X148825919Y-103672859D01*
X148779001Y-103726144D01*
X148710724Y-103745605D01*
X148642764Y-103725063D01*
X148597529Y-103672859D01*
X148535621Y-103540098D01*
X148493198Y-103479512D01*
X148493197Y-103479512D01*
X147886844Y-104085864D01*
X147885673Y-104070235D01*
X147836113Y-103943959D01*
X147751535Y-103837901D01*
X147639453Y-103761484D01*
X147527375Y-103726913D01*
X148133986Y-103120301D01*
X148133986Y-103120300D01*
X148073401Y-103077878D01*
X148073402Y-103077878D01*
X147873907Y-102984852D01*
X147873903Y-102984850D01*
X147661287Y-102927880D01*
X147441999Y-102908695D01*
X147222712Y-102927880D01*
X147010096Y-102984850D01*
X147010092Y-102984852D01*
X146810598Y-103077878D01*
X146750011Y-103120301D01*
X147358684Y-103728974D01*
X147307862Y-103736635D01*
X147185643Y-103795493D01*
X147086202Y-103887760D01*
X147018375Y-104005240D01*
X146999449Y-104088158D01*
X146390801Y-103479511D01*
X146348378Y-103540098D01*
X146255352Y-103739592D01*
X146255350Y-103739596D01*
X146198380Y-103952212D01*
X146179195Y-104171500D01*
X146198380Y-104390787D01*
X146255350Y-104603403D01*
X146255352Y-104603407D01*
X146348378Y-104802902D01*
X146390801Y-104863486D01*
X146997155Y-104257132D01*
X146998327Y-104272765D01*
X147047887Y-104399041D01*
X147132465Y-104505099D01*
X147244547Y-104581516D01*
X147356622Y-104616086D01*
X146750012Y-105222696D01*
X146750012Y-105222698D01*
X146751568Y-105223788D01*
X146795896Y-105279245D01*
X146803204Y-105349865D01*
X146771172Y-105413225D01*
X146709971Y-105449209D01*
X146679296Y-105453000D01*
X145631915Y-105453000D01*
X145527977Y-105463619D01*
X145527971Y-105463620D01*
X145359549Y-105519429D01*
X145208536Y-105612575D01*
X145208530Y-105612580D01*
X145083080Y-105738030D01*
X145083075Y-105738036D01*
X144989929Y-105889049D01*
X144934120Y-106057471D01*
X144934119Y-106057477D01*
X144923500Y-106161415D01*
X144923500Y-107261584D01*
X140741500Y-107261584D01*
X140741500Y-99569465D01*
X140741567Y-99566555D01*
X140759677Y-99174848D01*
X140760214Y-99169051D01*
X140784546Y-98994616D01*
X140814189Y-98782112D01*
X140815249Y-98776442D01*
X140868037Y-98552000D01*
X146464844Y-98552000D01*
X146482232Y-98761844D01*
X146483437Y-98776375D01*
X146538702Y-98994612D01*
X146538703Y-98994613D01*
X146538704Y-98994616D01*
X146627580Y-99197235D01*
X146629141Y-99200793D01*
X146752275Y-99389265D01*
X146752279Y-99389270D01*
X146904762Y-99554908D01*
X146919726Y-99566555D01*
X147082424Y-99693189D01*
X147280426Y-99800342D01*
X147280427Y-99800342D01*
X147280428Y-99800343D01*
X147357076Y-99826656D01*
X147493365Y-99873444D01*
X147715431Y-99910500D01*
X147715435Y-99910500D01*
X147940565Y-99910500D01*
X147940569Y-99910500D01*
X148162635Y-99873444D01*
X148375574Y-99800342D01*
X148573576Y-99693189D01*
X148751240Y-99554906D01*
X148903722Y-99389268D01*
X148992816Y-99252898D01*
X149046819Y-99206810D01*
X149117167Y-99197235D01*
X149181524Y-99227212D01*
X149203782Y-99252898D01*
X149292674Y-99388958D01*
X149445097Y-99554534D01*
X149622698Y-99692767D01*
X149622699Y-99692768D01*
X149820628Y-99799882D01*
X149820630Y-99799883D01*
X150033483Y-99872955D01*
X150033492Y-99872957D01*
X150114000Y-99886391D01*
X150114000Y-98985674D01*
X150225685Y-99036680D01*
X150332237Y-99052000D01*
X150403763Y-99052000D01*
X150510315Y-99036680D01*
X150622000Y-98985674D01*
X150622000Y-99886390D01*
X150702507Y-99872957D01*
X150702516Y-99872955D01*
X150915369Y-99799883D01*
X150915371Y-99799882D01*
X151113300Y-99692768D01*
X151113301Y-99692767D01*
X151290905Y-99554532D01*
X151352047Y-99488113D01*
X151412899Y-99451541D01*
X151483863Y-99453674D01*
X151542409Y-99493835D01*
X151562804Y-99529415D01*
X151607111Y-99648204D01*
X151607112Y-99648207D01*
X151694738Y-99765261D01*
X151811792Y-99852887D01*
X151811794Y-99852888D01*
X151811796Y-99852889D01*
X151865600Y-99872957D01*
X151948795Y-99903988D01*
X151948803Y-99903990D01*
X152009350Y-99910499D01*
X152009355Y-99910499D01*
X152009362Y-99910500D01*
X152009368Y-99910500D01*
X153806632Y-99910500D01*
X153806638Y-99910500D01*
X153806645Y-99910499D01*
X153806649Y-99910499D01*
X153867196Y-99903990D01*
X153867199Y-99903989D01*
X153867201Y-99903989D01*
X154004204Y-99852889D01*
X154074399Y-99800342D01*
X154121261Y-99765261D01*
X154208887Y-99648207D01*
X154208887Y-99648206D01*
X154208889Y-99648204D01*
X154259989Y-99511201D01*
X154266500Y-99450638D01*
X154266500Y-97653362D01*
X154266499Y-97653350D01*
X154259990Y-97592803D01*
X154259988Y-97592795D01*
X154208889Y-97455797D01*
X154208887Y-97455792D01*
X154121261Y-97338738D01*
X154004207Y-97251112D01*
X154004202Y-97251110D01*
X153867204Y-97200011D01*
X153867196Y-97200009D01*
X153806649Y-97193500D01*
X153806638Y-97193500D01*
X152009362Y-97193500D01*
X152009350Y-97193500D01*
X151948803Y-97200009D01*
X151948795Y-97200011D01*
X151811797Y-97251110D01*
X151811792Y-97251112D01*
X151694738Y-97338738D01*
X151607112Y-97455792D01*
X151607111Y-97455795D01*
X151562804Y-97574584D01*
X151520257Y-97631419D01*
X151453736Y-97656229D01*
X151384362Y-97641137D01*
X151352047Y-97615887D01*
X151290902Y-97549465D01*
X151113301Y-97411232D01*
X151113300Y-97411231D01*
X150915371Y-97304117D01*
X150915369Y-97304116D01*
X150702512Y-97231043D01*
X150702501Y-97231040D01*
X150622000Y-97217606D01*
X150622000Y-98118325D01*
X150510315Y-98067320D01*
X150403763Y-98052000D01*
X150332237Y-98052000D01*
X150225685Y-98067320D01*
X150114000Y-98118325D01*
X150114000Y-97217607D01*
X150113999Y-97217606D01*
X150033498Y-97231040D01*
X150033487Y-97231043D01*
X149820630Y-97304116D01*
X149820628Y-97304117D01*
X149622699Y-97411231D01*
X149622698Y-97411232D01*
X149445097Y-97549465D01*
X149292670Y-97715045D01*
X149203780Y-97851101D01*
X149149776Y-97897189D01*
X149079428Y-97906764D01*
X149015071Y-97876786D01*
X148992816Y-97851101D01*
X148952897Y-97790000D01*
X148903724Y-97714734D01*
X148903720Y-97714729D01*
X148774705Y-97574584D01*
X148751240Y-97549094D01*
X148751239Y-97549093D01*
X148751237Y-97549091D01*
X148631372Y-97455796D01*
X148573576Y-97410811D01*
X148375574Y-97303658D01*
X148375572Y-97303657D01*
X148375571Y-97303656D01*
X148162639Y-97230557D01*
X148162630Y-97230555D01*
X148085029Y-97217606D01*
X147940569Y-97193500D01*
X147715431Y-97193500D01*
X147570971Y-97217606D01*
X147493369Y-97230555D01*
X147493360Y-97230557D01*
X147280428Y-97303656D01*
X147280426Y-97303658D01*
X147082426Y-97410810D01*
X147082424Y-97410811D01*
X146904762Y-97549091D01*
X146752279Y-97714729D01*
X146752275Y-97714734D01*
X146629141Y-97903206D01*
X146538703Y-98109386D01*
X146538702Y-98109387D01*
X146483437Y-98327624D01*
X146483436Y-98327630D01*
X146483436Y-98327632D01*
X146464844Y-98552000D01*
X140868037Y-98552000D01*
X140904700Y-98396118D01*
X140906289Y-98390538D01*
X141030440Y-98020122D01*
X141032533Y-98014718D01*
X141190341Y-97657319D01*
X141192919Y-97652140D01*
X141383031Y-97310823D01*
X141386086Y-97305891D01*
X141606883Y-96983566D01*
X141610356Y-96978968D01*
X141859948Y-96678394D01*
X141863849Y-96674115D01*
X142140115Y-96397849D01*
X142144396Y-96393948D01*
X142205295Y-96343378D01*
X142444968Y-96144356D01*
X142449566Y-96140883D01*
X142771896Y-95920082D01*
X142776823Y-95917031D01*
X143118140Y-95726919D01*
X143123319Y-95724341D01*
X143480718Y-95566533D01*
X143486122Y-95564440D01*
X143856545Y-95440286D01*
X143862118Y-95438700D01*
X144242442Y-95349249D01*
X144248112Y-95348189D01*
X144557458Y-95305037D01*
X144635051Y-95294214D01*
X144640848Y-95293677D01*
X145032556Y-95275567D01*
X145035466Y-95275500D01*
X145042285Y-95275500D01*
X165853715Y-95275500D01*
X165859748Y-95275500D01*
X165864244Y-95275661D01*
G37*
%TD.AperFunction*%
%TD*%
M02*
