%TF.GenerationSoftware,KiCad,Pcbnew,7.0.5-0*%
%TF.CreationDate,2023-10-13T18:20:27+02:00*%
%TF.ProjectId,rj45-stepper-adapter,726a3435-2d73-4746-9570-7065722d6164,rev?*%
%TF.SameCoordinates,Original*%
%TF.FileFunction,Legend,Bot*%
%TF.FilePolarity,Positive*%
%FSLAX46Y46*%
G04 Gerber Fmt 4.6, Leading zero omitted, Abs format (unit mm)*
G04 Created by KiCad (PCBNEW 7.0.5-0) date 2023-10-13 18:20:27*
%MOMM*%
%LPD*%
G01*
G04 APERTURE LIST*
%ADD10C,0.125000*%
G04 APERTURE END LIST*
D10*
X160563880Y-113582811D02*
X160587690Y-113630430D01*
X160587690Y-113630430D02*
X160587690Y-113701859D01*
X160587690Y-113701859D02*
X160563880Y-113773287D01*
X160563880Y-113773287D02*
X160516261Y-113820906D01*
X160516261Y-113820906D02*
X160468642Y-113844716D01*
X160468642Y-113844716D02*
X160373404Y-113868525D01*
X160373404Y-113868525D02*
X160301976Y-113868525D01*
X160301976Y-113868525D02*
X160206738Y-113844716D01*
X160206738Y-113844716D02*
X160159119Y-113820906D01*
X160159119Y-113820906D02*
X160111500Y-113773287D01*
X160111500Y-113773287D02*
X160087690Y-113701859D01*
X160087690Y-113701859D02*
X160087690Y-113654240D01*
X160087690Y-113654240D02*
X160111500Y-113582811D01*
X160111500Y-113582811D02*
X160135309Y-113559002D01*
X160135309Y-113559002D02*
X160301976Y-113559002D01*
X160301976Y-113559002D02*
X160301976Y-113654240D01*
X160087690Y-113344716D02*
X160587690Y-113344716D01*
X160587690Y-113344716D02*
X160087690Y-113059002D01*
X160087690Y-113059002D02*
X160587690Y-113059002D01*
X160087690Y-112820906D02*
X160587690Y-112820906D01*
X160587690Y-112820906D02*
X160587690Y-112701858D01*
X160587690Y-112701858D02*
X160563880Y-112630430D01*
X160563880Y-112630430D02*
X160516261Y-112582811D01*
X160516261Y-112582811D02*
X160468642Y-112559001D01*
X160468642Y-112559001D02*
X160373404Y-112535192D01*
X160373404Y-112535192D02*
X160301976Y-112535192D01*
X160301976Y-112535192D02*
X160206738Y-112559001D01*
X160206738Y-112559001D02*
X160159119Y-112582811D01*
X160159119Y-112582811D02*
X160111500Y-112630430D01*
X160111500Y-112630430D02*
X160087690Y-112701858D01*
X160087690Y-112701858D02*
X160087690Y-112820906D01*
X160087690Y-110034716D02*
X160587690Y-110034716D01*
X160587690Y-110034716D02*
X160587690Y-109915668D01*
X160587690Y-109915668D02*
X160563880Y-109844240D01*
X160563880Y-109844240D02*
X160516261Y-109796621D01*
X160516261Y-109796621D02*
X160468642Y-109772811D01*
X160468642Y-109772811D02*
X160373404Y-109749002D01*
X160373404Y-109749002D02*
X160301976Y-109749002D01*
X160301976Y-109749002D02*
X160206738Y-109772811D01*
X160206738Y-109772811D02*
X160159119Y-109796621D01*
X160159119Y-109796621D02*
X160111500Y-109844240D01*
X160111500Y-109844240D02*
X160087690Y-109915668D01*
X160087690Y-109915668D02*
X160087690Y-110034716D01*
X160087690Y-109534716D02*
X160587690Y-109534716D01*
X160087690Y-109010907D02*
X160325785Y-109177573D01*
X160087690Y-109296621D02*
X160587690Y-109296621D01*
X160587690Y-109296621D02*
X160587690Y-109106145D01*
X160587690Y-109106145D02*
X160563880Y-109058526D01*
X160563880Y-109058526D02*
X160540071Y-109034716D01*
X160540071Y-109034716D02*
X160492452Y-109010907D01*
X160492452Y-109010907D02*
X160421023Y-109010907D01*
X160421023Y-109010907D02*
X160373404Y-109034716D01*
X160373404Y-109034716D02*
X160349595Y-109058526D01*
X160349595Y-109058526D02*
X160325785Y-109106145D01*
X160325785Y-109106145D02*
X160325785Y-109296621D01*
X160278166Y-108796621D02*
X160278166Y-108415669D01*
X160087690Y-108606145D02*
X160468642Y-108606145D01*
X160349595Y-102414716D02*
X160349595Y-102248049D01*
X160087690Y-102176621D02*
X160087690Y-102414716D01*
X160087690Y-102414716D02*
X160587690Y-102414716D01*
X160587690Y-102414716D02*
X160587690Y-102176621D01*
X160087690Y-101962335D02*
X160587690Y-101962335D01*
X160587690Y-101962335D02*
X160087690Y-101676621D01*
X160087690Y-101676621D02*
X160587690Y-101676621D01*
X160230547Y-101462334D02*
X160230547Y-101224239D01*
X160087690Y-101509953D02*
X160587690Y-101343287D01*
X160587690Y-101343287D02*
X160087690Y-101176620D01*
X160278166Y-101009954D02*
X160278166Y-100629002D01*
X160087690Y-100819478D02*
X160468642Y-100819478D01*
X160563880Y-105962811D02*
X160587690Y-106010430D01*
X160587690Y-106010430D02*
X160587690Y-106081859D01*
X160587690Y-106081859D02*
X160563880Y-106153287D01*
X160563880Y-106153287D02*
X160516261Y-106200906D01*
X160516261Y-106200906D02*
X160468642Y-106224716D01*
X160468642Y-106224716D02*
X160373404Y-106248525D01*
X160373404Y-106248525D02*
X160301976Y-106248525D01*
X160301976Y-106248525D02*
X160206738Y-106224716D01*
X160206738Y-106224716D02*
X160159119Y-106200906D01*
X160159119Y-106200906D02*
X160111500Y-106153287D01*
X160111500Y-106153287D02*
X160087690Y-106081859D01*
X160087690Y-106081859D02*
X160087690Y-106034240D01*
X160087690Y-106034240D02*
X160111500Y-105962811D01*
X160111500Y-105962811D02*
X160135309Y-105939002D01*
X160135309Y-105939002D02*
X160301976Y-105939002D01*
X160301976Y-105939002D02*
X160301976Y-106034240D01*
X160087690Y-105724716D02*
X160587690Y-105724716D01*
X160587690Y-105724716D02*
X160087690Y-105439002D01*
X160087690Y-105439002D02*
X160587690Y-105439002D01*
X160087690Y-105200906D02*
X160587690Y-105200906D01*
X160587690Y-105200906D02*
X160587690Y-105081858D01*
X160587690Y-105081858D02*
X160563880Y-105010430D01*
X160563880Y-105010430D02*
X160516261Y-104962811D01*
X160516261Y-104962811D02*
X160468642Y-104939001D01*
X160468642Y-104939001D02*
X160373404Y-104915192D01*
X160373404Y-104915192D02*
X160301976Y-104915192D01*
X160301976Y-104915192D02*
X160206738Y-104939001D01*
X160206738Y-104939001D02*
X160159119Y-104962811D01*
X160159119Y-104962811D02*
X160111500Y-105010430D01*
X160111500Y-105010430D02*
X160087690Y-105081858D01*
X160087690Y-105081858D02*
X160087690Y-105200906D01*
X160087690Y-117908716D02*
X160587690Y-117908716D01*
X160587690Y-117908716D02*
X160587690Y-117718240D01*
X160587690Y-117718240D02*
X160563880Y-117670621D01*
X160563880Y-117670621D02*
X160540071Y-117646811D01*
X160540071Y-117646811D02*
X160492452Y-117623002D01*
X160492452Y-117623002D02*
X160421023Y-117623002D01*
X160421023Y-117623002D02*
X160373404Y-117646811D01*
X160373404Y-117646811D02*
X160349595Y-117670621D01*
X160349595Y-117670621D02*
X160325785Y-117718240D01*
X160325785Y-117718240D02*
X160325785Y-117908716D01*
X160587690Y-117408716D02*
X160182928Y-117408716D01*
X160182928Y-117408716D02*
X160135309Y-117384906D01*
X160135309Y-117384906D02*
X160111500Y-117361097D01*
X160111500Y-117361097D02*
X160087690Y-117313478D01*
X160087690Y-117313478D02*
X160087690Y-117218240D01*
X160087690Y-117218240D02*
X160111500Y-117170621D01*
X160111500Y-117170621D02*
X160135309Y-117146811D01*
X160135309Y-117146811D02*
X160182928Y-117123002D01*
X160182928Y-117123002D02*
X160587690Y-117123002D01*
X160087690Y-116646811D02*
X160087690Y-116884906D01*
X160087690Y-116884906D02*
X160587690Y-116884906D01*
X160278166Y-116480144D02*
X160278166Y-116099192D01*
X160087690Y-116289668D02*
X160468642Y-116289668D01*
X160563880Y-98342811D02*
X160587690Y-98390430D01*
X160587690Y-98390430D02*
X160587690Y-98461859D01*
X160587690Y-98461859D02*
X160563880Y-98533287D01*
X160563880Y-98533287D02*
X160516261Y-98580906D01*
X160516261Y-98580906D02*
X160468642Y-98604716D01*
X160468642Y-98604716D02*
X160373404Y-98628525D01*
X160373404Y-98628525D02*
X160301976Y-98628525D01*
X160301976Y-98628525D02*
X160206738Y-98604716D01*
X160206738Y-98604716D02*
X160159119Y-98580906D01*
X160159119Y-98580906D02*
X160111500Y-98533287D01*
X160111500Y-98533287D02*
X160087690Y-98461859D01*
X160087690Y-98461859D02*
X160087690Y-98414240D01*
X160087690Y-98414240D02*
X160111500Y-98342811D01*
X160111500Y-98342811D02*
X160135309Y-98319002D01*
X160135309Y-98319002D02*
X160301976Y-98319002D01*
X160301976Y-98319002D02*
X160301976Y-98414240D01*
X160087690Y-98104716D02*
X160587690Y-98104716D01*
X160587690Y-98104716D02*
X160087690Y-97819002D01*
X160087690Y-97819002D02*
X160587690Y-97819002D01*
X160087690Y-97580906D02*
X160587690Y-97580906D01*
X160587690Y-97580906D02*
X160587690Y-97461858D01*
X160587690Y-97461858D02*
X160563880Y-97390430D01*
X160563880Y-97390430D02*
X160516261Y-97342811D01*
X160516261Y-97342811D02*
X160468642Y-97319001D01*
X160468642Y-97319001D02*
X160373404Y-97295192D01*
X160373404Y-97295192D02*
X160301976Y-97295192D01*
X160301976Y-97295192D02*
X160206738Y-97319001D01*
X160206738Y-97319001D02*
X160159119Y-97342811D01*
X160159119Y-97342811D02*
X160111500Y-97390430D01*
X160111500Y-97390430D02*
X160087690Y-97461858D01*
X160087690Y-97461858D02*
X160087690Y-97580906D01*
X153540144Y-100524309D02*
X153373478Y-101024309D01*
X153373478Y-101024309D02*
X153206811Y-100524309D01*
X152754431Y-100976690D02*
X152778240Y-101000500D01*
X152778240Y-101000500D02*
X152849669Y-101024309D01*
X152849669Y-101024309D02*
X152897288Y-101024309D01*
X152897288Y-101024309D02*
X152968716Y-101000500D01*
X152968716Y-101000500D02*
X153016335Y-100952880D01*
X153016335Y-100952880D02*
X153040145Y-100905261D01*
X153040145Y-100905261D02*
X153063954Y-100810023D01*
X153063954Y-100810023D02*
X153063954Y-100738595D01*
X153063954Y-100738595D02*
X153040145Y-100643357D01*
X153040145Y-100643357D02*
X153016335Y-100595738D01*
X153016335Y-100595738D02*
X152968716Y-100548119D01*
X152968716Y-100548119D02*
X152897288Y-100524309D01*
X152897288Y-100524309D02*
X152849669Y-100524309D01*
X152849669Y-100524309D02*
X152778240Y-100548119D01*
X152778240Y-100548119D02*
X152754431Y-100571928D01*
X152254431Y-100976690D02*
X152278240Y-101000500D01*
X152278240Y-101000500D02*
X152349669Y-101024309D01*
X152349669Y-101024309D02*
X152397288Y-101024309D01*
X152397288Y-101024309D02*
X152468716Y-101000500D01*
X152468716Y-101000500D02*
X152516335Y-100952880D01*
X152516335Y-100952880D02*
X152540145Y-100905261D01*
X152540145Y-100905261D02*
X152563954Y-100810023D01*
X152563954Y-100810023D02*
X152563954Y-100738595D01*
X152563954Y-100738595D02*
X152540145Y-100643357D01*
X152540145Y-100643357D02*
X152516335Y-100595738D01*
X152516335Y-100595738D02*
X152468716Y-100548119D01*
X152468716Y-100548119D02*
X152397288Y-100524309D01*
X152397288Y-100524309D02*
X152349669Y-100524309D01*
X152349669Y-100524309D02*
X152278240Y-100548119D01*
X152278240Y-100548119D02*
X152254431Y-100571928D01*
X150635384Y-100548119D02*
X150683003Y-100524309D01*
X150683003Y-100524309D02*
X150754432Y-100524309D01*
X150754432Y-100524309D02*
X150825860Y-100548119D01*
X150825860Y-100548119D02*
X150873479Y-100595738D01*
X150873479Y-100595738D02*
X150897289Y-100643357D01*
X150897289Y-100643357D02*
X150921098Y-100738595D01*
X150921098Y-100738595D02*
X150921098Y-100810023D01*
X150921098Y-100810023D02*
X150897289Y-100905261D01*
X150897289Y-100905261D02*
X150873479Y-100952880D01*
X150873479Y-100952880D02*
X150825860Y-101000500D01*
X150825860Y-101000500D02*
X150754432Y-101024309D01*
X150754432Y-101024309D02*
X150706813Y-101024309D01*
X150706813Y-101024309D02*
X150635384Y-101000500D01*
X150635384Y-101000500D02*
X150611575Y-100976690D01*
X150611575Y-100976690D02*
X150611575Y-100810023D01*
X150611575Y-100810023D02*
X150706813Y-100810023D01*
X150397289Y-101024309D02*
X150397289Y-100524309D01*
X150397289Y-100524309D02*
X150111575Y-101024309D01*
X150111575Y-101024309D02*
X150111575Y-100524309D01*
X149873479Y-101024309D02*
X149873479Y-100524309D01*
X149873479Y-100524309D02*
X149754431Y-100524309D01*
X149754431Y-100524309D02*
X149683003Y-100548119D01*
X149683003Y-100548119D02*
X149635384Y-100595738D01*
X149635384Y-100595738D02*
X149611574Y-100643357D01*
X149611574Y-100643357D02*
X149587765Y-100738595D01*
X149587765Y-100738595D02*
X149587765Y-100810023D01*
X149587765Y-100810023D02*
X149611574Y-100905261D01*
X149611574Y-100905261D02*
X149635384Y-100952880D01*
X149635384Y-100952880D02*
X149683003Y-101000500D01*
X149683003Y-101000500D02*
X149754431Y-101024309D01*
X149754431Y-101024309D02*
X149873479Y-101024309D01*
X148254432Y-101000500D02*
X148183004Y-101024309D01*
X148183004Y-101024309D02*
X148063956Y-101024309D01*
X148063956Y-101024309D02*
X148016337Y-101000500D01*
X148016337Y-101000500D02*
X147992528Y-100976690D01*
X147992528Y-100976690D02*
X147968718Y-100929071D01*
X147968718Y-100929071D02*
X147968718Y-100881452D01*
X147968718Y-100881452D02*
X147992528Y-100833833D01*
X147992528Y-100833833D02*
X148016337Y-100810023D01*
X148016337Y-100810023D02*
X148063956Y-100786214D01*
X148063956Y-100786214D02*
X148159194Y-100762404D01*
X148159194Y-100762404D02*
X148206813Y-100738595D01*
X148206813Y-100738595D02*
X148230623Y-100714785D01*
X148230623Y-100714785D02*
X148254432Y-100667166D01*
X148254432Y-100667166D02*
X148254432Y-100619547D01*
X148254432Y-100619547D02*
X148230623Y-100571928D01*
X148230623Y-100571928D02*
X148206813Y-100548119D01*
X148206813Y-100548119D02*
X148159194Y-100524309D01*
X148159194Y-100524309D02*
X148040147Y-100524309D01*
X148040147Y-100524309D02*
X147968718Y-100548119D01*
X147754433Y-101024309D02*
X147754433Y-100524309D01*
X147254433Y-100548119D02*
X147302052Y-100524309D01*
X147302052Y-100524309D02*
X147373481Y-100524309D01*
X147373481Y-100524309D02*
X147444909Y-100548119D01*
X147444909Y-100548119D02*
X147492528Y-100595738D01*
X147492528Y-100595738D02*
X147516338Y-100643357D01*
X147516338Y-100643357D02*
X147540147Y-100738595D01*
X147540147Y-100738595D02*
X147540147Y-100810023D01*
X147540147Y-100810023D02*
X147516338Y-100905261D01*
X147516338Y-100905261D02*
X147492528Y-100952880D01*
X147492528Y-100952880D02*
X147444909Y-101000500D01*
X147444909Y-101000500D02*
X147373481Y-101024309D01*
X147373481Y-101024309D02*
X147325862Y-101024309D01*
X147325862Y-101024309D02*
X147254433Y-101000500D01*
X147254433Y-101000500D02*
X147230624Y-100976690D01*
X147230624Y-100976690D02*
X147230624Y-100810023D01*
X147230624Y-100810023D02*
X147325862Y-100810023D01*
M02*
