M48
; DRILL file {KiCad 7.0.5-0} date 2023 October 13, Friday 18:20:30
; FORMAT={-:-/ absolute / inch / decimal}
; #@! TF.CreationDate,2023-10-13T18:20:30+02:00
; #@! TF.GenerationSoftware,Kicad,Pcbnew,7.0.5-0
; #@! TF.FileFunction,Plated,1,2,PTH
FMAT,2
INCH
; #@! TA.AperFunction,Plated,PTH,ComponentDrill
T1C0.0354
; #@! TA.AperFunction,Plated,PTH,ComponentDrill
T2C0.0394
; #@! TA.AperFunction,Plated,PTH,ComponentDrill
T3C0.0472
; #@! TA.AperFunction,Plated,PTH,ComponentDrill
T4C0.0642
%
G90
G05
T1
X5.7552Y-4.2012
X5.8048Y-4.1012
X5.8552Y-4.2012
X5.9048Y-4.1012
X5.9552Y-4.2012
X6.0048Y-4.1012
X6.0552Y-4.2012
X6.1048Y-4.1012
T2
X5.82Y-3.88
X5.92Y-3.88
X6.02Y-3.88
T3
X6.4Y-3.85
X6.4Y-4.0
X6.4Y-4.15
X6.4Y-4.3
X6.4Y-4.45
X6.4Y-4.6
X6.5Y-3.85
X6.5Y-4.0
X6.5Y-4.15
X6.5Y-4.3
X6.5Y-4.45
X6.5Y-4.6
T4
X5.6251Y-4.3316
X6.2349Y-4.3316
T0
M30
