%TF.GenerationSoftware,KiCad,Pcbnew,7.0.5-0*%
%TF.CreationDate,2023-10-13T18:20:27+02:00*%
%TF.ProjectId,rj45-stepper-adapter,726a3435-2d73-4746-9570-7065722d6164,rev?*%
%TF.SameCoordinates,Original*%
%TF.FileFunction,Soldermask,Bot*%
%TF.FilePolarity,Negative*%
%FSLAX46Y46*%
G04 Gerber Fmt 4.6, Leading zero omitted, Abs format (unit mm)*
G04 Created by KiCad (PCBNEW 7.0.5-0) date 2023-10-13 18:20:27*
%MOMM*%
%LPD*%
G01*
G04 APERTURE LIST*
G04 Aperture macros list*
%AMRoundRect*
0 Rectangle with rounded corners*
0 $1 Rounding radius*
0 $2 $3 $4 $5 $6 $7 $8 $9 X,Y pos of 4 corners*
0 Add a 4 corners polygon primitive as box body*
4,1,4,$2,$3,$4,$5,$6,$7,$8,$9,$2,$3,0*
0 Add four circle primitives for the rounded corners*
1,1,$1+$1,$2,$3*
1,1,$1+$1,$4,$5*
1,1,$1+$1,$6,$7*
1,1,$1+$1,$8,$9*
0 Add four rect primitives between the rounded corners*
20,1,$1+$1,$2,$3,$4,$5,0*
20,1,$1+$1,$4,$5,$6,$7,0*
20,1,$1+$1,$6,$7,$8,$9,0*
20,1,$1+$1,$8,$9,$2,$3,0*%
G04 Aperture macros list end*
%ADD10R,1.700000X1.700000*%
%ADD11O,1.700000X1.700000*%
%ADD12C,3.250000*%
%ADD13RoundRect,0.250500X-0.499500X-0.499500X0.499500X-0.499500X0.499500X0.499500X-0.499500X0.499500X0*%
%ADD14C,1.500000*%
%ADD15C,2.500000*%
%ADD16R,2.670000X2.670000*%
%ADD17C,2.670000*%
G04 APERTURE END LIST*
%TO.C,G\u002A\u002A\u002A*%
G36*
X154345995Y-116950078D02*
G01*
X154139223Y-117396846D01*
X154119735Y-117436403D01*
X154032260Y-117608365D01*
X153954213Y-117750624D01*
X153881940Y-117868856D01*
X153811785Y-117968737D01*
X153740094Y-118055943D01*
X153663212Y-118136150D01*
X153590828Y-118203026D01*
X153388284Y-118361650D01*
X153150493Y-118513646D01*
X152879881Y-118658298D01*
X152578876Y-118794888D01*
X152249904Y-118922699D01*
X151895394Y-119041013D01*
X151517772Y-119149114D01*
X151119466Y-119246283D01*
X150702902Y-119331804D01*
X150270508Y-119404959D01*
X149824710Y-119465031D01*
X149367937Y-119511303D01*
X148902616Y-119543057D01*
X148797484Y-119547136D01*
X148657497Y-119550148D01*
X148498226Y-119551761D01*
X148328006Y-119552028D01*
X148155173Y-119551000D01*
X147988062Y-119548729D01*
X147835008Y-119545266D01*
X147704347Y-119540665D01*
X147604413Y-119534976D01*
X147410649Y-119516692D01*
X147196347Y-119485067D01*
X147008167Y-119441977D01*
X146839353Y-119385463D01*
X146683146Y-119313565D01*
X146532788Y-119224326D01*
X146491866Y-119195930D01*
X146366650Y-119094118D01*
X146240581Y-118972395D01*
X146125109Y-118842379D01*
X146031679Y-118715692D01*
X145963498Y-118603474D01*
X145846065Y-118370839D01*
X145740917Y-118106598D01*
X145647541Y-117809227D01*
X145565428Y-117477197D01*
X145494066Y-117108982D01*
X145491153Y-117091695D01*
X145471089Y-116960958D01*
X145449093Y-116799975D01*
X145425612Y-116613346D01*
X145401091Y-116405674D01*
X145375976Y-116181562D01*
X145350712Y-115945612D01*
X145325746Y-115702426D01*
X145301521Y-115456606D01*
X145278486Y-115212755D01*
X145257084Y-114975475D01*
X145237761Y-114749368D01*
X145220964Y-114539036D01*
X145207138Y-114349082D01*
X145196728Y-114184108D01*
X145190181Y-114048716D01*
X145187941Y-113947509D01*
X145195243Y-113722335D01*
X145232738Y-113405887D01*
X145251211Y-113327327D01*
X147273552Y-113327327D01*
X147287014Y-113596422D01*
X147327467Y-113892728D01*
X147394773Y-114215758D01*
X147488800Y-114565027D01*
X147609411Y-114940048D01*
X147756472Y-115340336D01*
X147929848Y-115765405D01*
X148129405Y-116214769D01*
X148148519Y-116256049D01*
X148222412Y-116412209D01*
X148296891Y-116564708D01*
X148369554Y-116708990D01*
X148437998Y-116840500D01*
X148499821Y-116954685D01*
X148552620Y-117046988D01*
X148593992Y-117112855D01*
X148621535Y-117147730D01*
X148671526Y-117178214D01*
X148743532Y-117189135D01*
X148816022Y-117172725D01*
X148879526Y-117133280D01*
X148924573Y-117075097D01*
X148941693Y-117002473D01*
X148939745Y-116994834D01*
X148923722Y-116955166D01*
X148893270Y-116887200D01*
X148850494Y-116795425D01*
X148797501Y-116684329D01*
X148736399Y-116558399D01*
X148669292Y-116422123D01*
X148585440Y-116250995D01*
X148373601Y-115797152D01*
X148189362Y-115368154D01*
X148032819Y-114964303D01*
X147904071Y-114585902D01*
X147803216Y-114233253D01*
X147730352Y-113906659D01*
X147685577Y-113606422D01*
X147668988Y-113332846D01*
X147674651Y-113136327D01*
X147697732Y-112961652D01*
X147739524Y-112814395D01*
X147801212Y-112690439D01*
X147883978Y-112585666D01*
X147957413Y-112519352D01*
X148059423Y-112458553D01*
X148175866Y-112424928D01*
X148316462Y-112414631D01*
X148370270Y-112415029D01*
X148439825Y-112419035D01*
X148495556Y-112430653D01*
X148553346Y-112453840D01*
X148629077Y-112492555D01*
X148721845Y-112549166D01*
X148867742Y-112665085D01*
X149018864Y-112815703D01*
X149173346Y-112998924D01*
X149329324Y-113212653D01*
X149484935Y-113454793D01*
X149484938Y-113454797D01*
X149583387Y-113625490D01*
X149684071Y-113816582D01*
X149788300Y-114030964D01*
X149897387Y-114271528D01*
X150012641Y-114541166D01*
X150135374Y-114842770D01*
X150266898Y-115179230D01*
X150311389Y-115257412D01*
X150374423Y-115309918D01*
X150447407Y-115329838D01*
X150523691Y-115315441D01*
X150596625Y-115264997D01*
X150615722Y-115244466D01*
X150634317Y-115212571D01*
X150639848Y-115170724D01*
X150635813Y-115104599D01*
X150633916Y-115087252D01*
X150623650Y-115016702D01*
X150607510Y-114921892D01*
X150587296Y-114813084D01*
X150564813Y-114700538D01*
X150552647Y-114641027D01*
X150491423Y-114309032D01*
X150444696Y-113994189D01*
X150412443Y-113698635D01*
X150394640Y-113424504D01*
X150391266Y-113173932D01*
X150402297Y-112949053D01*
X150427710Y-112752003D01*
X150467482Y-112584918D01*
X150521591Y-112449933D01*
X150590013Y-112349182D01*
X150647656Y-112296631D01*
X150720673Y-112262701D01*
X150795645Y-112265923D01*
X150875116Y-112306541D01*
X150961628Y-112384798D01*
X151046677Y-112485663D01*
X151159145Y-112649223D01*
X151272674Y-112848476D01*
X151387383Y-113083753D01*
X151503391Y-113355387D01*
X151620817Y-113663710D01*
X151739780Y-114009053D01*
X151860397Y-114391748D01*
X151982788Y-114812127D01*
X152107071Y-115270523D01*
X152233365Y-115767268D01*
X152361788Y-116302692D01*
X152366111Y-116321204D01*
X152400497Y-116467313D01*
X152428010Y-116580689D01*
X152450207Y-116666176D01*
X152468643Y-116728621D01*
X152484875Y-116772869D01*
X152500459Y-116803765D01*
X152516951Y-116826155D01*
X152535907Y-116844884D01*
X152538055Y-116846787D01*
X152609180Y-116889441D01*
X152683825Y-116893904D01*
X152765286Y-116860397D01*
X152788082Y-116846179D01*
X152809919Y-116829729D01*
X152826685Y-116810160D01*
X152838002Y-116784303D01*
X152843491Y-116748989D01*
X152842775Y-116701049D01*
X152835475Y-116637317D01*
X152821213Y-116554624D01*
X152799611Y-116449800D01*
X152770291Y-116319679D01*
X152732874Y-116161092D01*
X152686982Y-115970870D01*
X152632238Y-115745846D01*
X152509354Y-115256049D01*
X152380024Y-114773248D01*
X152251823Y-114328853D01*
X152124608Y-113922530D01*
X151998236Y-113553946D01*
X151872567Y-113222769D01*
X151747457Y-112928666D01*
X151622765Y-112671303D01*
X151498349Y-112450349D01*
X151374065Y-112265469D01*
X151249773Y-112116331D01*
X151125330Y-112002601D01*
X151000594Y-111923948D01*
X150862557Y-111876031D01*
X150722668Y-111865139D01*
X150585886Y-111890498D01*
X150456156Y-111950835D01*
X150337424Y-112044879D01*
X150233634Y-112171357D01*
X150193199Y-112235859D01*
X150135297Y-112348836D01*
X150089452Y-112471628D01*
X150054319Y-112610016D01*
X150028552Y-112769777D01*
X150010808Y-112956692D01*
X149999741Y-113176538D01*
X149987000Y-113547769D01*
X149900876Y-113391461D01*
X149869088Y-113334571D01*
X149704072Y-113063022D01*
X149531919Y-112817302D01*
X149354892Y-112600016D01*
X149175257Y-112413769D01*
X148995277Y-112261165D01*
X148817216Y-112144809D01*
X148682858Y-112082168D01*
X148498969Y-112030057D01*
X148313830Y-112012694D01*
X148131856Y-112028752D01*
X147957461Y-112076904D01*
X147795058Y-112155822D01*
X147649062Y-112264178D01*
X147523887Y-112400644D01*
X147423946Y-112563894D01*
X147371548Y-112685741D01*
X147329795Y-112821873D01*
X147300267Y-112974599D01*
X147280304Y-113154851D01*
X147273552Y-113327327D01*
X145251211Y-113327327D01*
X145303178Y-113106328D01*
X145407786Y-112820509D01*
X145547784Y-112545281D01*
X145724397Y-112277494D01*
X145938846Y-112014000D01*
X145980811Y-111967650D01*
X146070302Y-111873782D01*
X146168094Y-111778161D01*
X146278128Y-111677328D01*
X146404341Y-111567823D01*
X146550675Y-111446184D01*
X146721069Y-111308952D01*
X146919462Y-111152666D01*
X147052917Y-111048211D01*
X147205201Y-110928238D01*
X147334174Y-110825317D01*
X147444248Y-110735661D01*
X147539837Y-110655484D01*
X147625356Y-110580997D01*
X147705218Y-110508416D01*
X147783837Y-110433952D01*
X147865627Y-110353820D01*
X147955000Y-110264233D01*
X147984840Y-110234141D01*
X148092017Y-110127231D01*
X148179306Y-110042996D01*
X148252261Y-109976800D01*
X148316439Y-109924012D01*
X148377392Y-109879996D01*
X148440676Y-109840121D01*
X148511846Y-109799753D01*
X148680003Y-109719410D01*
X148927523Y-109636245D01*
X149195264Y-109582233D01*
X149480139Y-109557154D01*
X149779061Y-109560792D01*
X150088942Y-109592928D01*
X150406695Y-109653344D01*
X150729232Y-109741822D01*
X151053467Y-109858143D01*
X151376312Y-110002090D01*
X151507148Y-110068361D01*
X151769900Y-110216704D01*
X152009003Y-110375642D01*
X152235045Y-110552539D01*
X152458616Y-110754759D01*
X152526691Y-110819794D01*
X152669347Y-110951679D01*
X152797496Y-111061951D01*
X152918944Y-111156082D01*
X153041495Y-111239546D01*
X153172955Y-111317816D01*
X153321128Y-111396363D01*
X153493819Y-111480663D01*
X153601356Y-111532427D01*
X153710830Y-111586592D01*
X153807829Y-111636050D01*
X153884696Y-111676891D01*
X153933770Y-111705205D01*
X154002156Y-111754075D01*
X154106354Y-111842420D01*
X154220786Y-111951711D01*
X154339251Y-112075170D01*
X154455548Y-112206016D01*
X154563476Y-112337470D01*
X154656834Y-112462753D01*
X154729421Y-112575085D01*
X154808800Y-112725371D01*
X154894609Y-112934266D01*
X154959512Y-113159071D01*
X155004586Y-113404654D01*
X155030905Y-113675880D01*
X155039547Y-113977615D01*
X155036974Y-114156220D01*
X155023490Y-114406178D01*
X154997430Y-114657393D01*
X154957644Y-114918325D01*
X154902984Y-115197436D01*
X154832300Y-115503187D01*
X154803439Y-115617783D01*
X154674097Y-116071490D01*
X154522951Y-116511941D01*
X154427211Y-116748989D01*
X154345995Y-116950078D01*
G37*
%TD*%
D10*
%TO.C,J2*%
X152908000Y-98552000D03*
D11*
X150368000Y-98552000D03*
X147828000Y-98552000D03*
%TD*%
D12*
%TO.C,J3*%
X144907000Y-113071500D03*
X156337000Y-113071500D03*
D13*
X146182000Y-106711500D03*
D14*
X147442000Y-104171500D03*
X148722000Y-106711500D03*
X149982000Y-104171500D03*
X151262000Y-106711500D03*
X152522000Y-104171500D03*
X153802000Y-106711500D03*
X155062000Y-104171500D03*
D15*
X142877000Y-110021500D03*
X158367000Y-110021500D03*
%TD*%
D16*
%TO.C,J6*%
X165100000Y-97790000D03*
X162560000Y-97790000D03*
D17*
X165100000Y-101600000D03*
X162560000Y-101600000D03*
X165100000Y-105410000D03*
X162560000Y-105410000D03*
X165100000Y-109220000D03*
X162560000Y-109220000D03*
X165100000Y-113030000D03*
X162560000Y-113030000D03*
X165100000Y-116840000D03*
X162560000Y-116840000D03*
%TD*%
M02*
