M48
; DRILL file {KiCad 7.0.5-0} date 2024 January 08, Monday 12:29:38
; FORMAT={-:-/ absolute / inch / decimal}
; #@! TF.CreationDate,2024-01-08T12:29:38+01:00
; #@! TF.GenerationSoftware,Kicad,Pcbnew,7.0.5-0
; #@! TF.FileFunction,Plated,1,4,PTH
FMAT,2
INCH
; #@! TA.AperFunction,Plated,PTH,ViaDrill
T1C0.0157
; #@! TA.AperFunction,Plated,PTH,ComponentDrill
T2C0.0276
; #@! TA.AperFunction,Plated,PTH,ComponentDrill
T3C0.0315
; #@! TA.AperFunction,Plated,PTH,ComponentDrill
T4C0.0354
; #@! TA.AperFunction,Plated,PTH,ComponentDrill
T5C0.0394
; #@! TA.AperFunction,Plated,PTH,ComponentDrill
T6C0.0402
; #@! TA.AperFunction,Plated,PTH,ComponentDrill
T7C0.0433
; #@! TA.AperFunction,Plated,PTH,ComponentDrill
T8C0.0630
; #@! TA.AperFunction,Plated,PTH,ComponentDrill
T9C0.0669
; #@! TA.AperFunction,Plated,PTH,ComponentDrill
T10C0.1260
%
G90
G05
T1
X-3.9291Y-2.3061
X-3.9204Y0.3042
X-3.8904Y0.3342
X-3.8654Y-0.5358
X-3.8654Y-0.6108
X-3.8604Y0.3642
X-3.8304Y0.3942
X-3.8154Y-0.5358
X-3.8154Y-0.6108
X-3.8004Y0.4242
X-3.7654Y-0.5358
X-3.7654Y-0.6108
X-3.746Y0.2313
X-3.7154Y-0.5358
X-3.7154Y-0.6108
X-3.6771Y0.2313
X-3.6654Y-0.5358
X-3.6654Y-0.6108
X-3.5098Y0.2313
X-3.5004Y0.7242
X-3.4704Y0.7542
X-3.4409Y0.2313
X-3.4404Y0.7842
X-3.4104Y0.8142
X-3.4004Y-0.1758
X-3.3804Y0.8442
X-3.3554Y-0.2108
X-3.2904Y-0.2108
X-3.2756Y-0.8416
X-3.2254Y-0.2108
X-3.2204Y-2.9833
X-3.1752Y0.2608
X-3.1732Y-0.7235
X-3.1653Y0.0954
X-3.1161Y0.6151
X-3.1023Y-0.8416
X-3.0157Y0.6151
X-3.0157Y0.2608
X-3.0157Y-0.125
X-3.0078Y0.0738
X-2.9654Y-0.2858
X-2.9654Y-0.3358
X-2.9606Y-0.4479
X-2.9196Y0.0696
X-2.9133Y-1.1014
X-2.8897Y-2.9183
X-2.8704Y-0.2108
X-2.87Y0.4183
X-2.87Y0.2608
X-2.8582Y-2.7392
X-2.8504Y-2.9577
X-2.8189Y-0.3298
X-2.8154Y-1.1208
X-2.811Y0.1191
X-2.811Y0.0246
X-2.7165Y0.1191
X-2.6929Y-0.0443
X-2.6771Y-2.7943
X-2.6154Y0.2542
X-2.6141Y0.1112
X-2.6141Y-0.3298
X-2.6054Y-1.4858
X-2.5905Y0.0324
X-2.5669Y0.6151
X-2.4654Y0.2542
X-2.4645Y0.6151
X-2.4645Y0.1112
X-2.4568Y-0.1272
X-2.4409Y0.0324
X-2.4254Y-0.2758
X-2.4154Y-0.3358
X-2.3657Y0.0696
X-2.3254Y0.2542
X-2.3189Y0.4183
X-2.3157Y-0.2104
X-2.3149Y-2.1329
X-2.3149Y-2.2274
X-2.3149Y-2.314
X-2.2834Y-0.7156
X-2.2834Y-0.8258
X-2.2834Y-0.9282
X-2.2834Y-1.3376
X-2.2834Y-1.4243
X-2.2834Y-1.5424
X-2.2834Y-1.6211
X-2.2598Y0.1191
X-2.2598Y0.0246
X-2.1417Y-0.0739
X-2.0925Y-0.3002
X-2.063Y0.2509
X-2.063Y0.1112
X-2.063Y-0.7156
X-2.063Y-0.8258
X-2.063Y-0.9282
X-2.063Y-1.3376
X-2.063Y-1.4243
X-2.063Y-1.5424
X-2.063Y-1.6211
X-2.0393Y0.0246
X-2.0157Y0.6151
X-1.9448Y0.0324
X-1.9153Y0.2509
X-1.9133Y0.6151
X-1.9133Y0.1112
X-1.8976Y-0.1329
X-1.8754Y-0.2758
X-1.8654Y-0.3358
X-1.8157Y0.0696
X-1.7904Y-0.7108
X-1.7874Y0.2805
X-1.7677Y0.4183
X-1.7657Y-0.2104
X-1.7637Y0.1112
X-1.7637Y0.0324
X-1.6654Y-0.1158
X-1.5954Y0.1042
X-1.5433Y0.0482
X-1.496Y-0.1172
X-1.4954Y-0.3308
X-1.4724Y0.2844
X-1.4724Y0.1112
X-1.3804Y0.2942
X-1.3464Y0.0324
X-1.2913Y0.2765
X-1.2772Y-2.0987
X-1.2598Y0.1269
X-1.2441Y-0.9046
X-1.2283Y-0.1644
X-1.2104Y0.2942
X-1.1181Y0.0718
X-1.1023Y-1.5817
X-1.0787Y-0.188
X-1.0551Y0.4025
X-1.0551Y0.3395
X-1.0393Y-0.0148
X-1.0157Y0.1663
X-0.9954Y0.0442
X-0.9606Y-0.6841
X-0.8346Y0.0246
X-0.8346Y-0.0306
X-0.8346Y-0.0935
X-0.8031Y0.8671
X-0.6378Y0.1427
X-0.5984Y0.1427
X-0.5905Y0.5285
X-0.559Y0.1427
X-0.5511Y0.5285
X-0.5118Y0.5285
T2
X-2.6904Y-1.8058
X-2.6754Y-0.7358
X-2.6754Y-0.8356
X-2.6754Y-0.9358
X-1.1148Y-0.3844
X-0.8654Y-0.3858
X-0.6148Y-0.3858
T3
X-1.3895Y-1.9299
X-1.3338Y-1.8742
X-1.3338Y-1.9856
X-1.2781Y-1.8185
X-1.2781Y-1.9299
X-1.2224Y-1.8742
T4
X-3.1654Y0.6707
X-3.1157Y0.7707
X-3.0654Y0.6707
X-3.0157Y0.7707
X-2.9654Y0.6707
X-2.9157Y0.7707
X-2.8654Y0.6707
X-2.8157Y0.7707
X-2.6154Y0.6707
X-2.5657Y0.7707
X-2.5154Y0.6707
X-2.4657Y0.7707
X-2.4154Y0.6707
X-2.3657Y0.7707
X-2.3154Y0.6707
X-2.2657Y0.7707
X-2.0654Y0.6707
X-2.0157Y0.7707
X-1.9654Y0.6707
X-1.9157Y0.7707
X-1.8654Y0.6707
X-1.8157Y0.7707
X-1.7654Y0.6707
X-1.7157Y0.7707
X-1.5154Y0.6707
X-1.4657Y0.7707
X-1.4154Y0.6707
X-1.3657Y0.7707
X-1.3154Y0.6707
X-1.2657Y0.7707
X-1.2154Y0.6707
X-1.1657Y0.7707
X-1.1421Y-2.0712
X-1.1068Y-2.1772
X-1.0714Y-2.0005
X-1.0361Y-2.1065
X-1.0007Y-1.9298
X-0.9654Y-2.0358
X-0.93Y-1.8591
X-0.8946Y-1.9651
T5
X-3.5538Y-1.7242
X-3.4146Y-1.8634
X-3.1929Y-2.0851
X-3.1254Y-1.6548
X-3.0546Y-1.7255
X-3.0537Y-2.2243
X-3.0154Y-1.5458
X-2.9839Y-1.7962
X-2.9446Y-1.6165
X-2.9108Y-1.4403
X-2.8401Y-1.511
X-2.6654Y-2.2358
X-2.6654Y-2.3358
X-2.6654Y-2.4358
X-2.6654Y-2.5358
T6
X-0.8409Y-2.5478
X-0.8175Y-2.4297
X-0.6659Y-0.7858
X-0.6659Y-0.8858
X-0.6659Y-0.9858
X-0.6659Y-1.0858
X-0.6659Y-1.1858
X-0.6659Y-1.2858
X-0.5659Y-0.7858
X-0.5659Y-0.8858
X-0.5659Y-0.9858
X-0.5659Y-1.0858
X-0.5659Y-1.1858
X-0.5659Y-1.2858
X-0.5595Y-2.2663
X-0.5361Y-2.1483
T7
X-2.4654Y-0.7358
X-2.4654Y-0.8358
X-2.4654Y-0.9358
X-2.4654Y-1.0358
X-2.4654Y-1.1358
X-2.4654Y-1.2358
X-2.4654Y-1.3358
X-2.4654Y-1.4358
X-2.4654Y-1.5358
X-2.4654Y-1.6358
X-2.4654Y-1.7358
X-2.4654Y-1.8358
X-2.4654Y-1.9358
X-2.4654Y-2.0358
X-2.4654Y-2.1358
X-2.4654Y-2.2358
X-2.4654Y-2.3358
X-2.4654Y-2.4358
X-2.4654Y-2.5358
X-2.4654Y-2.6358
X-2.4654Y-2.7358
X-2.4654Y-2.8358
X-2.4654Y-2.9358
X-2.4654Y-3.0358
X-2.1654Y-1.2358
X-1.9654Y-1.2358
X-1.8654Y-0.7358
X-1.8654Y-0.8358
X-1.8654Y-0.9358
X-1.8654Y-1.0358
X-1.8654Y-1.1358
X-1.8654Y-1.2358
X-1.8654Y-1.3358
X-1.8654Y-1.4358
X-1.8654Y-1.5358
X-1.8654Y-1.6358
X-1.8654Y-1.7358
X-1.8654Y-1.8358
X-1.8654Y-1.9358
X-1.8654Y-2.0358
X-1.8654Y-2.1358
X-1.8654Y-2.2358
X-1.8654Y-2.3358
X-1.8654Y-2.4358
X-1.8654Y-2.5358
X-1.8654Y-2.6358
X-1.8654Y-2.7358
X-1.8654Y-2.8358
X-1.8654Y-2.9358
X-1.8654Y-3.0358
T8
X-1.1104Y-2.3646
X-0.6719Y-1.9261
T9
X-3.3252Y1.1656
X-2.7157Y0.6207
X-2.1657Y0.6207
X-1.6157Y0.6207
X-1.0063Y1.1656
T10
X-4.3307Y0.0
X-4.3307Y-1.7717
X-3.0512Y-3.0512
X-1.2795Y-3.0512
X0.0Y0.0
X0.0Y-1.7717
T3
G00X-0.3659Y-0.887
M15
G01X-0.3659Y-0.7846
M16
G05
G00X-0.2045Y-0.6469
M15
G01X-0.2911Y-0.6469
M16
G05
G00X-0.1376Y-0.8791
M15
G01X-0.1376Y-0.7925
M16
G05
T0
M30
