%TF.GenerationSoftware,KiCad,Pcbnew,7.0.5-0*%
%TF.CreationDate,2024-07-25T14:15:13+02:00*%
%TF.ProjectId,rj45-stepper-adapter,726a3435-2d73-4746-9570-7065722d6164,rev?*%
%TF.SameCoordinates,Original*%
%TF.FileFunction,Copper,L1,Top*%
%TF.FilePolarity,Positive*%
%FSLAX46Y46*%
G04 Gerber Fmt 4.6, Leading zero omitted, Abs format (unit mm)*
G04 Created by KiCad (PCBNEW 7.0.5-0) date 2024-07-25 14:15:13*
%MOMM*%
%LPD*%
G01*
G04 APERTURE LIST*
G04 Aperture macros list*
%AMRoundRect*
0 Rectangle with rounded corners*
0 $1 Rounding radius*
0 $2 $3 $4 $5 $6 $7 $8 $9 X,Y pos of 4 corners*
0 Add a 4 corners polygon primitive as box body*
4,1,4,$2,$3,$4,$5,$6,$7,$8,$9,$2,$3,0*
0 Add four circle primitives for the rounded corners*
1,1,$1+$1,$2,$3*
1,1,$1+$1,$4,$5*
1,1,$1+$1,$6,$7*
1,1,$1+$1,$8,$9*
0 Add four rect primitives between the rounded corners*
20,1,$1+$1,$2,$3,$4,$5,0*
20,1,$1+$1,$4,$5,$6,$7,0*
20,1,$1+$1,$6,$7,$8,$9,0*
20,1,$1+$1,$8,$9,$2,$3,0*%
G04 Aperture macros list end*
%TA.AperFunction,ComponentPad*%
%ADD10R,2.670000X2.670000*%
%TD*%
%TA.AperFunction,ComponentPad*%
%ADD11C,2.670000*%
%TD*%
%TA.AperFunction,ComponentPad*%
%ADD12O,1.700000X1.700000*%
%TD*%
%TA.AperFunction,ComponentPad*%
%ADD13R,1.700000X1.700000*%
%TD*%
%TA.AperFunction,ComponentPad*%
%ADD14C,2.500000*%
%TD*%
%TA.AperFunction,ComponentPad*%
%ADD15C,1.500000*%
%TD*%
%TA.AperFunction,ComponentPad*%
%ADD16RoundRect,0.250500X-0.499500X-0.499500X0.499500X-0.499500X0.499500X0.499500X-0.499500X0.499500X0*%
%TD*%
%TA.AperFunction,ViaPad*%
%ADD17C,0.800000*%
%TD*%
%TA.AperFunction,Conductor*%
%ADD18C,0.250000*%
%TD*%
G04 APERTURE END LIST*
D10*
%TO.P,J1,1,Pin_1*%
%TO.N,/COM-*%
X165354000Y-94092000D03*
X162814000Y-94092000D03*
D11*
%TO.P,J1,2,Pin_2*%
%TO.N,/BRK*%
X165354000Y-97592000D03*
X162814000Y-97592000D03*
%TO.P,J1,3,Pin_3*%
%TO.N,/ALM*%
X165354000Y-101092000D03*
X162814000Y-101092000D03*
%TO.P,J1,4,Pin_4*%
%TO.N,GND*%
X165354000Y-104592000D03*
X162814000Y-104592000D03*
%TO.P,J1,5,Pin_5*%
%TO.N,/ENA+*%
X165354000Y-108092000D03*
X162814000Y-108092000D03*
%TO.P,J1,6,Pin_6*%
%TO.N,GND*%
X165354000Y-111592000D03*
X162814000Y-111592000D03*
%TO.P,J1,7,Pin_7*%
%TO.N,/DIR+*%
X165354000Y-115092000D03*
X162814000Y-115092000D03*
%TO.P,J1,8,Pin_8*%
%TO.N,GND*%
X165354000Y-118592000D03*
X162814000Y-118592000D03*
%TO.P,J1,9,Pin_9*%
%TO.N,/PUL+*%
X165354000Y-122092000D03*
X162814000Y-122092000D03*
%TD*%
D12*
%TO.P,J2,3,Pin_3*%
%TO.N,/SIG*%
X147828000Y-98552000D03*
%TO.P,J2,2,Pin_2*%
%TO.N,GND*%
X150368000Y-98552000D03*
D13*
%TO.P,J2,1,Pin_1*%
%TO.N,/VCC 3.3V*%
X152908000Y-98552000D03*
%TD*%
D14*
%TO.P,J3,SH*%
%TO.N,GND*%
X158367000Y-110021500D03*
X142877000Y-110021500D03*
D15*
%TO.P,J3,8*%
%TO.N,/PUL+*%
X155062000Y-104171500D03*
%TO.P,J3,7*%
%TO.N,GND*%
X153802000Y-106711500D03*
%TO.P,J3,6*%
%TO.N,/DIR+*%
X152522000Y-104171500D03*
%TO.P,J3,5*%
%TO.N,GND*%
X151262000Y-106711500D03*
%TO.P,J3,4*%
%TO.N,/ENA+*%
X149982000Y-104171500D03*
%TO.P,J3,3*%
%TO.N,/VCC 3.3V*%
X148722000Y-106711500D03*
%TO.P,J3,2*%
%TO.N,GND*%
X147442000Y-104171500D03*
D16*
%TO.P,J3,1*%
%TO.N,/SIG*%
X146182000Y-106711500D03*
%TD*%
D17*
%TO.N,GND*%
X156972000Y-119380000D03*
X144018000Y-119380000D03*
X144018000Y-96520000D03*
X157226000Y-96520000D03*
%TD*%
D18*
%TO.N,/ENA+*%
X149982000Y-104171500D02*
X152553500Y-101600000D01*
X152553500Y-101600000D02*
X156322000Y-101600000D01*
X156322000Y-101600000D02*
X162814000Y-108092000D01*
%TO.N,/DIR+*%
X152522000Y-104171500D02*
X154331500Y-102362000D01*
X154331500Y-102362000D02*
X156210000Y-102362000D01*
X156210000Y-102362000D02*
X160782000Y-106934000D01*
X160782000Y-106934000D02*
X160782000Y-113060000D01*
X160782000Y-113060000D02*
X162814000Y-115092000D01*
%TO.N,/PUL+*%
X155062000Y-104171500D02*
X156241500Y-104171500D01*
X160274000Y-119552000D02*
X162814000Y-122092000D01*
X156241500Y-104171500D02*
X160274000Y-108204000D01*
X160274000Y-108204000D02*
X160274000Y-119552000D01*
%TO.N,/VCC 3.3V*%
X148722000Y-102738000D02*
X148722000Y-106711500D01*
X152908000Y-98552000D02*
X148722000Y-102738000D01*
%TO.N,/SIG*%
X145288000Y-104902000D02*
X146182000Y-105796000D01*
X147828000Y-98552000D02*
X145288000Y-101092000D01*
X145288000Y-101092000D02*
X145288000Y-104902000D01*
X146182000Y-105796000D02*
X146182000Y-106711500D01*
%TD*%
%TA.AperFunction,Conductor*%
%TO.N,GND*%
G36*
X165864244Y-91719661D02*
G01*
X166000512Y-91729406D01*
X166102427Y-91736695D01*
X166120211Y-91739253D01*
X166346928Y-91788573D01*
X166364171Y-91793635D01*
X166581572Y-91874721D01*
X166597923Y-91882188D01*
X166801565Y-91993385D01*
X166816689Y-92003105D01*
X166845049Y-92024335D01*
X166887596Y-92081170D01*
X166892661Y-92151986D01*
X166858636Y-92214298D01*
X166796323Y-92248323D01*
X166756074Y-92250481D01*
X166737654Y-92248501D01*
X166737642Y-92248500D01*
X166737638Y-92248500D01*
X164197638Y-92248500D01*
X161430362Y-92248500D01*
X161430350Y-92248500D01*
X161369803Y-92255009D01*
X161369795Y-92255011D01*
X161232797Y-92306110D01*
X161232792Y-92306112D01*
X161115738Y-92393738D01*
X161028112Y-92510792D01*
X161028110Y-92510797D01*
X160977011Y-92647795D01*
X160977009Y-92647803D01*
X160970500Y-92708350D01*
X160970500Y-95475649D01*
X160977009Y-95536196D01*
X160977011Y-95536204D01*
X161028110Y-95673202D01*
X161028112Y-95673207D01*
X161115738Y-95790261D01*
X161232792Y-95877887D01*
X161232794Y-95877888D01*
X161232796Y-95877889D01*
X161291875Y-95899924D01*
X161369795Y-95928988D01*
X161369803Y-95928990D01*
X161430350Y-95935499D01*
X161430355Y-95935499D01*
X161430362Y-95935500D01*
X161572052Y-95935500D01*
X161640173Y-95955502D01*
X161686666Y-96009158D01*
X161696770Y-96079432D01*
X161667276Y-96144012D01*
X161647565Y-96162365D01*
X161614271Y-96187288D01*
X161603673Y-96195222D01*
X161417222Y-96381673D01*
X161417214Y-96381682D01*
X161259186Y-96592785D01*
X161132811Y-96824222D01*
X161040655Y-97071301D01*
X160984602Y-97328975D01*
X160965791Y-97591999D01*
X160965791Y-97592000D01*
X160967499Y-97615887D01*
X160984602Y-97855024D01*
X161040655Y-98112698D01*
X161132811Y-98359777D01*
X161259186Y-98591214D01*
X161417214Y-98802317D01*
X161417222Y-98802326D01*
X161603673Y-98988777D01*
X161603682Y-98988785D01*
X161619508Y-99000632D01*
X161814783Y-99146812D01*
X161814785Y-99146813D01*
X161969717Y-99231413D01*
X162019919Y-99281615D01*
X162035010Y-99350989D01*
X162010199Y-99417509D01*
X161969717Y-99452587D01*
X161814785Y-99537186D01*
X161603682Y-99695214D01*
X161603673Y-99695222D01*
X161417222Y-99881673D01*
X161417214Y-99881682D01*
X161259186Y-100092785D01*
X161132811Y-100324222D01*
X161040655Y-100571301D01*
X160984602Y-100828975D01*
X160965791Y-101091999D01*
X160984602Y-101355024D01*
X161040655Y-101612698D01*
X161132811Y-101859777D01*
X161259186Y-102091214D01*
X161417214Y-102302317D01*
X161417222Y-102302326D01*
X161603673Y-102488777D01*
X161603682Y-102488785D01*
X161661632Y-102532165D01*
X161814783Y-102646812D01*
X161970238Y-102731697D01*
X162020440Y-102781899D01*
X162035531Y-102851273D01*
X162010720Y-102917793D01*
X161970238Y-102952871D01*
X161815057Y-103037606D01*
X161702829Y-103121618D01*
X161702828Y-103121619D01*
X162608778Y-104027570D01*
X162511412Y-104067901D01*
X162386075Y-104164075D01*
X162289901Y-104289411D01*
X162249570Y-104386779D01*
X161343619Y-103480828D01*
X161343618Y-103480829D01*
X161259608Y-103593055D01*
X161133265Y-103824434D01*
X161041137Y-104071440D01*
X160985098Y-104329047D01*
X160966292Y-104591999D01*
X160985098Y-104854952D01*
X161036294Y-105090295D01*
X161031229Y-105161111D01*
X160988682Y-105217946D01*
X160922162Y-105242757D01*
X160852787Y-105227665D01*
X160824078Y-105206173D01*
X156829244Y-101211339D01*
X156819279Y-101198901D01*
X156819052Y-101199090D01*
X156814001Y-101192984D01*
X156814000Y-101192982D01*
X156763626Y-101145678D01*
X156762237Y-101144332D01*
X156751990Y-101134085D01*
X156741776Y-101123870D01*
X156741772Y-101123866D01*
X156736225Y-101119563D01*
X156731717Y-101115712D01*
X156697325Y-101083417D01*
X156697319Y-101083413D01*
X156679563Y-101073651D01*
X156663047Y-101062802D01*
X156647041Y-101050386D01*
X156616289Y-101037078D01*
X156603740Y-101031648D01*
X156598408Y-101029036D01*
X156557061Y-101006305D01*
X156537436Y-101001266D01*
X156518736Y-100994864D01*
X156500145Y-100986819D01*
X156500143Y-100986818D01*
X156500142Y-100986818D01*
X156453542Y-100979437D01*
X156447729Y-100978233D01*
X156402030Y-100966500D01*
X156381776Y-100966500D01*
X156362066Y-100964949D01*
X156342057Y-100961780D01*
X156342056Y-100961780D01*
X156295083Y-100966220D01*
X156289150Y-100966500D01*
X152637353Y-100966500D01*
X152621511Y-100964750D01*
X152621484Y-100965044D01*
X152613591Y-100964298D01*
X152544524Y-100966469D01*
X152542545Y-100966500D01*
X152513644Y-100966500D01*
X152513640Y-100966500D01*
X152513630Y-100966501D01*
X152506679Y-100967379D01*
X152500767Y-100967844D01*
X152453612Y-100969326D01*
X152453610Y-100969327D01*
X152434155Y-100974978D01*
X152414802Y-100978986D01*
X152394710Y-100981524D01*
X152394702Y-100981526D01*
X152350836Y-100998893D01*
X152345221Y-101000816D01*
X152299907Y-101013982D01*
X152299902Y-101013984D01*
X152282463Y-101024297D01*
X152264718Y-101032990D01*
X152245880Y-101040449D01*
X152232204Y-101050386D01*
X152207712Y-101068180D01*
X152202761Y-101071433D01*
X152162140Y-101095455D01*
X152147807Y-101109787D01*
X152132781Y-101122620D01*
X152116395Y-101134526D01*
X152116394Y-101134526D01*
X152086318Y-101170880D01*
X152082323Y-101175271D01*
X150354421Y-102903172D01*
X150292109Y-102937198D01*
X150232716Y-102935784D01*
X150201371Y-102927385D01*
X149982000Y-102908193D01*
X149981999Y-102908193D01*
X149762624Y-102927385D01*
X149760433Y-102927973D01*
X149759430Y-102927949D01*
X149757214Y-102928340D01*
X149757135Y-102927894D01*
X149689456Y-102926280D01*
X149630663Y-102886483D01*
X149602718Y-102821217D01*
X149614495Y-102751204D01*
X149638730Y-102717173D01*
X152408499Y-99947405D01*
X152470812Y-99913379D01*
X152497595Y-99910500D01*
X153806632Y-99910500D01*
X153806638Y-99910500D01*
X153806645Y-99910499D01*
X153806649Y-99910499D01*
X153867196Y-99903990D01*
X153867199Y-99903989D01*
X153867201Y-99903989D01*
X154004204Y-99852889D01*
X154007782Y-99850211D01*
X154121261Y-99765261D01*
X154208887Y-99648207D01*
X154208887Y-99648206D01*
X154208889Y-99648204D01*
X154259989Y-99511201D01*
X154266291Y-99452588D01*
X154266499Y-99450649D01*
X154266500Y-99450632D01*
X154266500Y-97653367D01*
X154266499Y-97653350D01*
X154259990Y-97592803D01*
X154259988Y-97592795D01*
X154208889Y-97455797D01*
X154208887Y-97455792D01*
X154121261Y-97338738D01*
X154004207Y-97251112D01*
X154004202Y-97251110D01*
X153867204Y-97200011D01*
X153867196Y-97200009D01*
X153806649Y-97193500D01*
X153806638Y-97193500D01*
X152009362Y-97193500D01*
X152009350Y-97193500D01*
X151948803Y-97200009D01*
X151948795Y-97200011D01*
X151811797Y-97251110D01*
X151811792Y-97251112D01*
X151694738Y-97338738D01*
X151607112Y-97455792D01*
X151607111Y-97455795D01*
X151562804Y-97574584D01*
X151520257Y-97631419D01*
X151453736Y-97656229D01*
X151384362Y-97641137D01*
X151352047Y-97615887D01*
X151290902Y-97549465D01*
X151113301Y-97411232D01*
X151113300Y-97411231D01*
X150915371Y-97304117D01*
X150915369Y-97304116D01*
X150702512Y-97231043D01*
X150702501Y-97231040D01*
X150622000Y-97217606D01*
X150622000Y-98118325D01*
X150510315Y-98067320D01*
X150403763Y-98052000D01*
X150332237Y-98052000D01*
X150225685Y-98067320D01*
X150114000Y-98118325D01*
X150114000Y-97217607D01*
X150113999Y-97217606D01*
X150033498Y-97231040D01*
X150033487Y-97231043D01*
X149820630Y-97304116D01*
X149820628Y-97304117D01*
X149622699Y-97411231D01*
X149622698Y-97411232D01*
X149445097Y-97549465D01*
X149292670Y-97715045D01*
X149203780Y-97851101D01*
X149149776Y-97897189D01*
X149079428Y-97906764D01*
X149015071Y-97876786D01*
X148992816Y-97851101D01*
X148953884Y-97791511D01*
X148903724Y-97714734D01*
X148903720Y-97714729D01*
X148774705Y-97574584D01*
X148751240Y-97549094D01*
X148751239Y-97549093D01*
X148751237Y-97549091D01*
X148631372Y-97455796D01*
X148573576Y-97410811D01*
X148375574Y-97303658D01*
X148375572Y-97303657D01*
X148375571Y-97303656D01*
X148162639Y-97230557D01*
X148162630Y-97230555D01*
X148085029Y-97217606D01*
X147940569Y-97193500D01*
X147715431Y-97193500D01*
X147570971Y-97217606D01*
X147493369Y-97230555D01*
X147493360Y-97230557D01*
X147280428Y-97303656D01*
X147280426Y-97303658D01*
X147082426Y-97410810D01*
X147082424Y-97410811D01*
X146904762Y-97549091D01*
X146752279Y-97714729D01*
X146752275Y-97714734D01*
X146629141Y-97903206D01*
X146538703Y-98109386D01*
X146538702Y-98109387D01*
X146483437Y-98327624D01*
X146483436Y-98327630D01*
X146483436Y-98327632D01*
X146470801Y-98480111D01*
X146464844Y-98552000D01*
X146483436Y-98776369D01*
X146511182Y-98885935D01*
X146508514Y-98956882D01*
X146478132Y-99005961D01*
X144899336Y-100584757D01*
X144886901Y-100594721D01*
X144887089Y-100594948D01*
X144880979Y-100600002D01*
X144833694Y-100650355D01*
X144832319Y-100651774D01*
X144811863Y-100672231D01*
X144807560Y-100677777D01*
X144803714Y-100682279D01*
X144771417Y-100716674D01*
X144771411Y-100716683D01*
X144761651Y-100734435D01*
X144750803Y-100750950D01*
X144738386Y-100766958D01*
X144719645Y-100810264D01*
X144717034Y-100815594D01*
X144694305Y-100856939D01*
X144694303Y-100856944D01*
X144689267Y-100876559D01*
X144682864Y-100895262D01*
X144674819Y-100913852D01*
X144667437Y-100960456D01*
X144666233Y-100966268D01*
X144654500Y-101011968D01*
X144654500Y-101032223D01*
X144652949Y-101051933D01*
X144649780Y-101071942D01*
X144649780Y-101071943D01*
X144654220Y-101118917D01*
X144654500Y-101124850D01*
X144654500Y-104818146D01*
X144652751Y-104833988D01*
X144653044Y-104834016D01*
X144652298Y-104841908D01*
X144654469Y-104910974D01*
X144654500Y-104912953D01*
X144654500Y-104941851D01*
X144654501Y-104941872D01*
X144655378Y-104948820D01*
X144655844Y-104954732D01*
X144657326Y-105001888D01*
X144657327Y-105001893D01*
X144662977Y-105021339D01*
X144666986Y-105040697D01*
X144669525Y-105060793D01*
X144669526Y-105060799D01*
X144686893Y-105104662D01*
X144688816Y-105110279D01*
X144701982Y-105155593D01*
X144712294Y-105173031D01*
X144720988Y-105190779D01*
X144728444Y-105209609D01*
X144728450Y-105209620D01*
X144756177Y-105247783D01*
X144759437Y-105252746D01*
X144783460Y-105293365D01*
X144797779Y-105307684D01*
X144810617Y-105322714D01*
X144822526Y-105339104D01*
X144822530Y-105339109D01*
X144858880Y-105369180D01*
X144863273Y-105373177D01*
X145067966Y-105577871D01*
X145101992Y-105640183D01*
X145096927Y-105710998D01*
X145086112Y-105733113D01*
X144989929Y-105889049D01*
X144934120Y-106057471D01*
X144934119Y-106057477D01*
X144923500Y-106161415D01*
X144923500Y-107261584D01*
X144934119Y-107365522D01*
X144934120Y-107365528D01*
X144989929Y-107533951D01*
X145012966Y-107571299D01*
X145083075Y-107684963D01*
X145083080Y-107684969D01*
X145208530Y-107810419D01*
X145208536Y-107810424D01*
X145208537Y-107810425D01*
X145359549Y-107903571D01*
X145527972Y-107959380D01*
X145631915Y-107969999D01*
X145631915Y-107970000D01*
X145631924Y-107970000D01*
X146732085Y-107970000D01*
X146732084Y-107969999D01*
X146836028Y-107959380D01*
X147004451Y-107903571D01*
X147155463Y-107810425D01*
X147280925Y-107684963D01*
X147374071Y-107533951D01*
X147419621Y-107396486D01*
X147460033Y-107338118D01*
X147525589Y-107310862D01*
X147595474Y-107323375D01*
X147642435Y-107363849D01*
X147754251Y-107523538D01*
X147754254Y-107523542D01*
X147909957Y-107679245D01*
X147909961Y-107679248D01*
X147909962Y-107679249D01*
X148090346Y-107805556D01*
X148289924Y-107898620D01*
X148502629Y-107955615D01*
X148722000Y-107974807D01*
X148941371Y-107955615D01*
X149154076Y-107898620D01*
X149353654Y-107805556D01*
X149534038Y-107679249D01*
X149689749Y-107523538D01*
X149816056Y-107343154D01*
X149878081Y-107210139D01*
X149924996Y-107156856D01*
X149993273Y-107137394D01*
X150061234Y-107157935D01*
X150106470Y-107210140D01*
X150168378Y-107342902D01*
X150210801Y-107403486D01*
X150817155Y-106797132D01*
X150818327Y-106812765D01*
X150867887Y-106939041D01*
X150952465Y-107045099D01*
X151064547Y-107121516D01*
X151176622Y-107156086D01*
X150570012Y-107762696D01*
X150570012Y-107762697D01*
X150630600Y-107805122D01*
X150830092Y-107898147D01*
X150830096Y-107898149D01*
X151042712Y-107955119D01*
X151261999Y-107974304D01*
X151481287Y-107955119D01*
X151693903Y-107898149D01*
X151693912Y-107898145D01*
X151893405Y-107805119D01*
X151893412Y-107805115D01*
X151953986Y-107762698D01*
X151953986Y-107762697D01*
X151345315Y-107154025D01*
X151396138Y-107146365D01*
X151518357Y-107087507D01*
X151617798Y-106995240D01*
X151685625Y-106877760D01*
X151704550Y-106794840D01*
X152313196Y-107403486D01*
X152313198Y-107403486D01*
X152355615Y-107342912D01*
X152355616Y-107342910D01*
X152417804Y-107209549D01*
X152464721Y-107156264D01*
X152532999Y-107136803D01*
X152600959Y-107157345D01*
X152646193Y-107209548D01*
X152708375Y-107342897D01*
X152708378Y-107342901D01*
X152750801Y-107403486D01*
X153357155Y-106797132D01*
X153358327Y-106812765D01*
X153407887Y-106939041D01*
X153492465Y-107045099D01*
X153604547Y-107121516D01*
X153716622Y-107156086D01*
X153110012Y-107762696D01*
X153110012Y-107762697D01*
X153170600Y-107805122D01*
X153370092Y-107898147D01*
X153370096Y-107898149D01*
X153582712Y-107955119D01*
X153802000Y-107974304D01*
X154021287Y-107955119D01*
X154233903Y-107898149D01*
X154233912Y-107898145D01*
X154433405Y-107805119D01*
X154433412Y-107805115D01*
X154493986Y-107762698D01*
X154493986Y-107762697D01*
X153885315Y-107154025D01*
X153936138Y-107146365D01*
X154058357Y-107087507D01*
X154157798Y-106995240D01*
X154225625Y-106877760D01*
X154244550Y-106794839D01*
X154853197Y-107403486D01*
X154853198Y-107403486D01*
X154895615Y-107342912D01*
X154895619Y-107342905D01*
X154988645Y-107143412D01*
X154988649Y-107143403D01*
X155045619Y-106930787D01*
X155064804Y-106711499D01*
X155045619Y-106492212D01*
X154988649Y-106279596D01*
X154988647Y-106279592D01*
X154895621Y-106080098D01*
X154853198Y-106019512D01*
X154853196Y-106019512D01*
X154246844Y-106625864D01*
X154245673Y-106610235D01*
X154196113Y-106483959D01*
X154111535Y-106377901D01*
X153999453Y-106301484D01*
X153887375Y-106266913D01*
X154493986Y-105660301D01*
X154493986Y-105660300D01*
X154433401Y-105617878D01*
X154433402Y-105617878D01*
X154233907Y-105524852D01*
X154233903Y-105524850D01*
X154021287Y-105467880D01*
X153802000Y-105448695D01*
X153582712Y-105467880D01*
X153370096Y-105524850D01*
X153370092Y-105524852D01*
X153170598Y-105617878D01*
X153110011Y-105660301D01*
X153718684Y-106268974D01*
X153667862Y-106276635D01*
X153545643Y-106335493D01*
X153446202Y-106427760D01*
X153378375Y-106545240D01*
X153359449Y-106628159D01*
X152750801Y-106019511D01*
X152708377Y-106080100D01*
X152646194Y-106213451D01*
X152599277Y-106266735D01*
X152531000Y-106286196D01*
X152463040Y-106265654D01*
X152417806Y-106213451D01*
X152355624Y-106080103D01*
X152355621Y-106080098D01*
X152313198Y-106019512D01*
X152313197Y-106019512D01*
X151706844Y-106625864D01*
X151705673Y-106610235D01*
X151656113Y-106483959D01*
X151571535Y-106377901D01*
X151459453Y-106301484D01*
X151347375Y-106266913D01*
X151953986Y-105660301D01*
X151953986Y-105660300D01*
X151893401Y-105617878D01*
X151893402Y-105617878D01*
X151693907Y-105524852D01*
X151693903Y-105524850D01*
X151481287Y-105467880D01*
X151261999Y-105448695D01*
X151042712Y-105467880D01*
X150830096Y-105524850D01*
X150830092Y-105524852D01*
X150630598Y-105617878D01*
X150570011Y-105660301D01*
X151178684Y-106268974D01*
X151127862Y-106276635D01*
X151005643Y-106335493D01*
X150906202Y-106427760D01*
X150838375Y-106545240D01*
X150819449Y-106628158D01*
X150210801Y-106019511D01*
X150168377Y-106080100D01*
X150106469Y-106212860D01*
X150059552Y-106266145D01*
X149991274Y-106285605D01*
X149923315Y-106265063D01*
X149878080Y-106212859D01*
X149816056Y-106079847D01*
X149689749Y-105899462D01*
X149534038Y-105743751D01*
X149409226Y-105656356D01*
X149364900Y-105600900D01*
X149355500Y-105553145D01*
X149355500Y-105465739D01*
X149375502Y-105397618D01*
X149429158Y-105351125D01*
X149499432Y-105341021D01*
X149534751Y-105351545D01*
X149542121Y-105354981D01*
X149549924Y-105358620D01*
X149762629Y-105415615D01*
X149982000Y-105434807D01*
X150201371Y-105415615D01*
X150414076Y-105358620D01*
X150613654Y-105265556D01*
X150794038Y-105139249D01*
X150949749Y-104983538D01*
X151076056Y-104803154D01*
X151137804Y-104670732D01*
X151184722Y-104617446D01*
X151252999Y-104597985D01*
X151320959Y-104618526D01*
X151366195Y-104670732D01*
X151427944Y-104803154D01*
X151525065Y-104941856D01*
X151554251Y-104983538D01*
X151554254Y-104983542D01*
X151709957Y-105139245D01*
X151709961Y-105139248D01*
X151709962Y-105139249D01*
X151890346Y-105265556D01*
X152089924Y-105358620D01*
X152302629Y-105415615D01*
X152522000Y-105434807D01*
X152741371Y-105415615D01*
X152954076Y-105358620D01*
X153153654Y-105265556D01*
X153334038Y-105139249D01*
X153489749Y-104983538D01*
X153616056Y-104803154D01*
X153677804Y-104670732D01*
X153724722Y-104617446D01*
X153792999Y-104597985D01*
X153860959Y-104618526D01*
X153906195Y-104670732D01*
X153967944Y-104803154D01*
X154065065Y-104941856D01*
X154094251Y-104983538D01*
X154094254Y-104983542D01*
X154249957Y-105139245D01*
X154249961Y-105139248D01*
X154249962Y-105139249D01*
X154430346Y-105265556D01*
X154629924Y-105358620D01*
X154842629Y-105415615D01*
X155062000Y-105434807D01*
X155281371Y-105415615D01*
X155494076Y-105358620D01*
X155693654Y-105265556D01*
X155874038Y-105139249D01*
X155922992Y-105090295D01*
X156004597Y-105008691D01*
X156066909Y-104974665D01*
X156137724Y-104979730D01*
X156182787Y-105008691D01*
X159603595Y-108429499D01*
X159637621Y-108491811D01*
X159640500Y-108518594D01*
X159640500Y-108523639D01*
X159620498Y-108591760D01*
X159566842Y-108638253D01*
X159496568Y-108648357D01*
X159443522Y-108627745D01*
X159248474Y-108494763D01*
X159248467Y-108494759D01*
X159011076Y-108380437D01*
X158759295Y-108302771D01*
X158759287Y-108302770D01*
X158498740Y-108263500D01*
X158235260Y-108263500D01*
X157974712Y-108302770D01*
X157974704Y-108302771D01*
X157722923Y-108380437D01*
X157485532Y-108494759D01*
X157485525Y-108494763D01*
X157315438Y-108610727D01*
X157315438Y-108610729D01*
X157996485Y-109291776D01*
X157855640Y-109380275D01*
X157725775Y-109510140D01*
X157637276Y-109650985D01*
X156956671Y-108970380D01*
X156956670Y-108970381D01*
X156910400Y-109028404D01*
X156910397Y-109028407D01*
X156778653Y-109256595D01*
X156778651Y-109256599D01*
X156682393Y-109501863D01*
X156682392Y-109501865D01*
X156623760Y-109758745D01*
X156604070Y-110021500D01*
X156623760Y-110284254D01*
X156682392Y-110541134D01*
X156682393Y-110541136D01*
X156778651Y-110786400D01*
X156778653Y-110786404D01*
X156910396Y-111014590D01*
X156943028Y-111055509D01*
X156969862Y-111121239D01*
X156956900Y-111191043D01*
X156908257Y-111242757D01*
X156839377Y-111259964D01*
X156808217Y-111254727D01*
X156745875Y-111235971D01*
X156474272Y-111196000D01*
X156474269Y-111196000D01*
X156268453Y-111196000D01*
X156063191Y-111211023D01*
X155795231Y-111270714D01*
X155795219Y-111270718D01*
X155538801Y-111368789D01*
X155299397Y-111503149D01*
X155299393Y-111503151D01*
X155082094Y-111670944D01*
X155082093Y-111670945D01*
X154891548Y-111868581D01*
X154731807Y-112091858D01*
X154731803Y-112091864D01*
X154606270Y-112336024D01*
X154517631Y-112595848D01*
X154517628Y-112595861D01*
X154467764Y-112865817D01*
X154467763Y-112865828D01*
X154457738Y-113140180D01*
X154487762Y-113413066D01*
X154557204Y-113678684D01*
X154611724Y-113806979D01*
X154664577Y-113931352D01*
X154807595Y-114165696D01*
X154983209Y-114376718D01*
X154983211Y-114376720D01*
X154983213Y-114376722D01*
X155187666Y-114559914D01*
X155187672Y-114559919D01*
X155187677Y-114559923D01*
X155416641Y-114711404D01*
X155665221Y-114827933D01*
X155928119Y-114907027D01*
X155928122Y-114907027D01*
X155928124Y-114907028D01*
X156199727Y-114947000D01*
X156199731Y-114947000D01*
X156405547Y-114947000D01*
X156610805Y-114931977D01*
X156878775Y-114872284D01*
X157135198Y-114774211D01*
X157374609Y-114639847D01*
X157591904Y-114472057D01*
X157782454Y-114274416D01*
X157942196Y-114051137D01*
X158067727Y-113806979D01*
X158067727Y-113806978D01*
X158067729Y-113806975D01*
X158156368Y-113547151D01*
X158156370Y-113547146D01*
X158183161Y-113402100D01*
X158206235Y-113277182D01*
X158206236Y-113277171D01*
X158207456Y-113243791D01*
X158216262Y-113002820D01*
X158201188Y-112865817D01*
X158186237Y-112729933D01*
X158151184Y-112595854D01*
X158116796Y-112464318D01*
X158009423Y-112211648D01*
X157866405Y-111977304D01*
X157834884Y-111939427D01*
X157806685Y-111874277D01*
X157818186Y-111804218D01*
X157865738Y-111751499D01*
X157934244Y-111732857D01*
X157968873Y-111738430D01*
X157974696Y-111740226D01*
X157974712Y-111740229D01*
X158235260Y-111779500D01*
X158498740Y-111779500D01*
X158759287Y-111740229D01*
X158759295Y-111740228D01*
X159011076Y-111662562D01*
X159248467Y-111548240D01*
X159443520Y-111415254D01*
X159511072Y-111393407D01*
X159579711Y-111411548D01*
X159627646Y-111463919D01*
X159640499Y-111519360D01*
X159640500Y-119468146D01*
X159638751Y-119483988D01*
X159639044Y-119484016D01*
X159638298Y-119491908D01*
X159640469Y-119560974D01*
X159640500Y-119562953D01*
X159640500Y-119591851D01*
X159640501Y-119591872D01*
X159641378Y-119598820D01*
X159641844Y-119604732D01*
X159643326Y-119651888D01*
X159643327Y-119651893D01*
X159648977Y-119671339D01*
X159652986Y-119690697D01*
X159655525Y-119710793D01*
X159655526Y-119710799D01*
X159672893Y-119754662D01*
X159674816Y-119760279D01*
X159687982Y-119805593D01*
X159698294Y-119823031D01*
X159706988Y-119840779D01*
X159714444Y-119859609D01*
X159714450Y-119859620D01*
X159742177Y-119897783D01*
X159745437Y-119902746D01*
X159769460Y-119943365D01*
X159783779Y-119957684D01*
X159796617Y-119972714D01*
X159806156Y-119985843D01*
X159808528Y-119989107D01*
X159836794Y-120012491D01*
X159844886Y-120019185D01*
X159849267Y-120023171D01*
X160509464Y-120683368D01*
X161080308Y-121254212D01*
X161114334Y-121316524D01*
X161109269Y-121387339D01*
X161040656Y-121571298D01*
X160984602Y-121828975D01*
X160965791Y-122091999D01*
X160984602Y-122355024D01*
X161040655Y-122612698D01*
X161132811Y-122859777D01*
X161259186Y-123091214D01*
X161417214Y-123302317D01*
X161417222Y-123302326D01*
X161603673Y-123488777D01*
X161603682Y-123488785D01*
X161619508Y-123500632D01*
X161814783Y-123646812D01*
X161814785Y-123646813D01*
X162008245Y-123752451D01*
X162046226Y-123773190D01*
X162293299Y-123865344D01*
X162550972Y-123921397D01*
X162654774Y-123928821D01*
X162721294Y-123953632D01*
X162763841Y-124010467D01*
X162768906Y-124081283D01*
X162734880Y-124143595D01*
X162672568Y-124177620D01*
X162645785Y-124180500D01*
X142496252Y-124180500D01*
X142491756Y-124180339D01*
X142253577Y-124163304D01*
X142235783Y-124160745D01*
X142009074Y-124111427D01*
X141991825Y-124106363D01*
X141774429Y-124025279D01*
X141758076Y-124017811D01*
X141554434Y-123906614D01*
X141539310Y-123896894D01*
X141353568Y-123757849D01*
X141339982Y-123746076D01*
X141175923Y-123582017D01*
X141164150Y-123568431D01*
X141025105Y-123382689D01*
X141015385Y-123367565D01*
X140904188Y-123163923D01*
X140896720Y-123147570D01*
X140875700Y-123091214D01*
X140815635Y-122930171D01*
X140810572Y-122912925D01*
X140761253Y-122686211D01*
X140758695Y-122668422D01*
X140741661Y-122430244D01*
X140741500Y-122425748D01*
X140741500Y-110021500D01*
X141114070Y-110021500D01*
X141133760Y-110284254D01*
X141192392Y-110541134D01*
X141192393Y-110541136D01*
X141288651Y-110786400D01*
X141288653Y-110786404D01*
X141420397Y-111014592D01*
X141420400Y-111014597D01*
X141466670Y-111072617D01*
X141466672Y-111072617D01*
X142147275Y-110392013D01*
X142235775Y-110532860D01*
X142365640Y-110662725D01*
X142506485Y-110751223D01*
X141825438Y-111432270D01*
X141995532Y-111548239D01*
X141995532Y-111548240D01*
X142232923Y-111662562D01*
X142484704Y-111740228D01*
X142484712Y-111740229D01*
X142745260Y-111779500D01*
X143008740Y-111779500D01*
X143269287Y-111740229D01*
X143269293Y-111740228D01*
X143276828Y-111737904D01*
X143347818Y-111736934D01*
X143408063Y-111774499D01*
X143438435Y-111838671D01*
X143429292Y-111909076D01*
X143416449Y-111931618D01*
X143301807Y-112091858D01*
X143301803Y-112091864D01*
X143176270Y-112336024D01*
X143087631Y-112595848D01*
X143087628Y-112595861D01*
X143037764Y-112865817D01*
X143037763Y-112865828D01*
X143027738Y-113140180D01*
X143057762Y-113413066D01*
X143127204Y-113678684D01*
X143181724Y-113806979D01*
X143234577Y-113931352D01*
X143377595Y-114165696D01*
X143553209Y-114376718D01*
X143553211Y-114376720D01*
X143553213Y-114376722D01*
X143757666Y-114559914D01*
X143757672Y-114559919D01*
X143757677Y-114559923D01*
X143986641Y-114711404D01*
X144235221Y-114827933D01*
X144498119Y-114907027D01*
X144498122Y-114907027D01*
X144498124Y-114907028D01*
X144769727Y-114947000D01*
X144769731Y-114947000D01*
X144975547Y-114947000D01*
X145180805Y-114931977D01*
X145448775Y-114872284D01*
X145705198Y-114774211D01*
X145944609Y-114639847D01*
X146161904Y-114472057D01*
X146352454Y-114274416D01*
X146512196Y-114051137D01*
X146637727Y-113806979D01*
X146637727Y-113806978D01*
X146637729Y-113806975D01*
X146726368Y-113547151D01*
X146726370Y-113547146D01*
X146753161Y-113402100D01*
X146776235Y-113277182D01*
X146776236Y-113277171D01*
X146777456Y-113243791D01*
X146786262Y-113002820D01*
X146771188Y-112865817D01*
X146756237Y-112729933D01*
X146721184Y-112595854D01*
X146686796Y-112464318D01*
X146579423Y-112211648D01*
X146436405Y-111977304D01*
X146260791Y-111766282D01*
X146260787Y-111766279D01*
X146260786Y-111766277D01*
X146056333Y-111583085D01*
X146056320Y-111583075D01*
X145827359Y-111431596D01*
X145792498Y-111415254D01*
X145578779Y-111315067D01*
X145369994Y-111252253D01*
X145315875Y-111235971D01*
X145044272Y-111196000D01*
X145044269Y-111196000D01*
X144838453Y-111196000D01*
X144633196Y-111211022D01*
X144426949Y-111256966D01*
X144356109Y-111252253D01*
X144299062Y-111209990D01*
X144273920Y-111143594D01*
X144288666Y-111074146D01*
X144301043Y-111055419D01*
X144333602Y-111014591D01*
X144333603Y-111014590D01*
X144465346Y-110786404D01*
X144465348Y-110786400D01*
X144561606Y-110541136D01*
X144561607Y-110541134D01*
X144620239Y-110284254D01*
X144639929Y-110021500D01*
X144620239Y-109758745D01*
X144561607Y-109501865D01*
X144561606Y-109501863D01*
X144465348Y-109256599D01*
X144465346Y-109256595D01*
X144333605Y-109028413D01*
X144333600Y-109028405D01*
X144287327Y-108970381D01*
X143606723Y-109650985D01*
X143518225Y-109510140D01*
X143388360Y-109380275D01*
X143247514Y-109291776D01*
X143928560Y-108610729D01*
X143928560Y-108610728D01*
X143758467Y-108494759D01*
X143521076Y-108380437D01*
X143269295Y-108302771D01*
X143269287Y-108302770D01*
X143008740Y-108263500D01*
X142745260Y-108263500D01*
X142484712Y-108302770D01*
X142484704Y-108302771D01*
X142232923Y-108380437D01*
X141995532Y-108494759D01*
X141995525Y-108494763D01*
X141825438Y-108610727D01*
X141825438Y-108610729D01*
X142506485Y-109291776D01*
X142365640Y-109380275D01*
X142235775Y-109510140D01*
X142147276Y-109650985D01*
X141466671Y-108970380D01*
X141466670Y-108970381D01*
X141420400Y-109028404D01*
X141420397Y-109028407D01*
X141288653Y-109256595D01*
X141288651Y-109256599D01*
X141192393Y-109501863D01*
X141192392Y-109501865D01*
X141133760Y-109758745D01*
X141114070Y-110021500D01*
X140741500Y-110021500D01*
X140741500Y-93474251D01*
X140741661Y-93469755D01*
X140758695Y-93231577D01*
X140761252Y-93213789D01*
X140810573Y-92987067D01*
X140815633Y-92969832D01*
X140896723Y-92752422D01*
X140904188Y-92736077D01*
X141015388Y-92532429D01*
X141025101Y-92517315D01*
X141164156Y-92331560D01*
X141175916Y-92317989D01*
X141339989Y-92153916D01*
X141353560Y-92142156D01*
X141539315Y-92003101D01*
X141554429Y-91993388D01*
X141758083Y-91882184D01*
X141774422Y-91874723D01*
X141991832Y-91793633D01*
X142009067Y-91788573D01*
X142235789Y-91739252D01*
X142253570Y-91736695D01*
X142365693Y-91728676D01*
X142491756Y-91719661D01*
X142496252Y-91719500D01*
X142502285Y-91719500D01*
X165853715Y-91719500D01*
X165859748Y-91719500D01*
X165864244Y-91719661D01*
G37*
%TD.AperFunction*%
%TA.AperFunction,Conductor*%
G36*
X167406012Y-92668779D02*
G01*
X167434088Y-92703619D01*
X167451811Y-92736077D01*
X167459279Y-92752429D01*
X167540363Y-92969825D01*
X167545427Y-92987074D01*
X167594745Y-93213783D01*
X167597304Y-93231577D01*
X167614339Y-93469754D01*
X167614500Y-93474250D01*
X167614500Y-122425748D01*
X167614339Y-122430244D01*
X167597304Y-122668422D01*
X167594745Y-122686216D01*
X167545427Y-122912925D01*
X167540363Y-122930174D01*
X167459279Y-123147570D01*
X167451811Y-123163923D01*
X167340614Y-123367565D01*
X167330894Y-123382689D01*
X167191849Y-123568431D01*
X167180076Y-123582017D01*
X167016017Y-123746076D01*
X167002431Y-123757849D01*
X166816689Y-123896894D01*
X166801565Y-123906614D01*
X166597923Y-124017811D01*
X166581570Y-124025279D01*
X166364174Y-124106363D01*
X166346925Y-124111427D01*
X166120216Y-124160745D01*
X166102422Y-124163304D01*
X165864244Y-124180339D01*
X165859748Y-124180500D01*
X165522215Y-124180500D01*
X165454094Y-124160498D01*
X165407601Y-124106842D01*
X165397497Y-124036568D01*
X165426991Y-123971988D01*
X165486717Y-123933604D01*
X165513226Y-123928821D01*
X165617028Y-123921397D01*
X165874701Y-123865344D01*
X166121774Y-123773190D01*
X166353217Y-123646812D01*
X166564320Y-123488783D01*
X166750783Y-123302320D01*
X166908812Y-123091217D01*
X167035190Y-122859774D01*
X167127344Y-122612701D01*
X167183397Y-122355028D01*
X167202209Y-122092000D01*
X167183397Y-121828972D01*
X167127344Y-121571299D01*
X167035190Y-121324226D01*
X167030984Y-121316524D01*
X166908813Y-121092785D01*
X166750785Y-120881682D01*
X166750777Y-120881673D01*
X166564326Y-120695222D01*
X166564317Y-120695214D01*
X166353214Y-120537186D01*
X166197761Y-120452302D01*
X166147559Y-120402100D01*
X166132468Y-120332726D01*
X166157279Y-120266206D01*
X166197762Y-120231127D01*
X166352945Y-120146391D01*
X166465169Y-120062379D01*
X166465170Y-120062379D01*
X165559220Y-119156429D01*
X165656588Y-119116099D01*
X165781925Y-119019925D01*
X165878099Y-118894589D01*
X165918429Y-118797220D01*
X166824379Y-119703170D01*
X166824379Y-119703169D01*
X166908391Y-119590945D01*
X167034734Y-119359565D01*
X167126862Y-119112559D01*
X167182901Y-118854952D01*
X167201707Y-118592000D01*
X167182901Y-118329047D01*
X167126862Y-118071440D01*
X167034734Y-117824434D01*
X166908388Y-117593050D01*
X166824380Y-117480829D01*
X166824379Y-117480828D01*
X165918429Y-118386778D01*
X165878099Y-118289412D01*
X165781925Y-118164075D01*
X165656588Y-118067901D01*
X165559220Y-118027570D01*
X166465170Y-117121619D01*
X166465169Y-117121618D01*
X166352947Y-117037609D01*
X166197761Y-116952871D01*
X166147559Y-116902669D01*
X166132468Y-116833295D01*
X166157279Y-116766775D01*
X166197758Y-116731699D01*
X166353217Y-116646812D01*
X166564320Y-116488783D01*
X166750783Y-116302320D01*
X166908812Y-116091217D01*
X167035190Y-115859774D01*
X167127344Y-115612701D01*
X167183397Y-115355028D01*
X167202209Y-115092000D01*
X167183397Y-114828972D01*
X167127344Y-114571299D01*
X167035190Y-114324226D01*
X166908812Y-114092783D01*
X166787966Y-113931351D01*
X166750785Y-113881682D01*
X166750777Y-113881673D01*
X166564326Y-113695222D01*
X166564317Y-113695214D01*
X166366519Y-113547146D01*
X166353217Y-113537188D01*
X166353215Y-113537187D01*
X166353214Y-113537186D01*
X166197761Y-113452302D01*
X166147559Y-113402100D01*
X166132468Y-113332726D01*
X166157279Y-113266206D01*
X166197762Y-113231127D01*
X166352945Y-113146391D01*
X166465169Y-113062379D01*
X166465170Y-113062379D01*
X165559220Y-112156429D01*
X165656588Y-112116099D01*
X165781925Y-112019925D01*
X165878099Y-111894589D01*
X165918429Y-111797220D01*
X166824379Y-112703170D01*
X166824379Y-112703169D01*
X166908391Y-112590945D01*
X167034734Y-112359565D01*
X167126862Y-112112559D01*
X167182901Y-111854952D01*
X167201707Y-111592000D01*
X167182901Y-111329047D01*
X167126862Y-111071440D01*
X167034734Y-110824434D01*
X166908388Y-110593050D01*
X166824380Y-110480829D01*
X166824379Y-110480828D01*
X165918429Y-111386778D01*
X165878099Y-111289412D01*
X165781925Y-111164075D01*
X165656588Y-111067901D01*
X165559220Y-111027570D01*
X166465170Y-110121619D01*
X166465169Y-110121618D01*
X166352947Y-110037609D01*
X166197761Y-109952871D01*
X166147559Y-109902669D01*
X166132468Y-109833295D01*
X166157279Y-109766775D01*
X166197758Y-109731699D01*
X166353217Y-109646812D01*
X166564320Y-109488783D01*
X166750783Y-109302320D01*
X166908812Y-109091217D01*
X167035190Y-108859774D01*
X167127344Y-108612701D01*
X167183397Y-108355028D01*
X167202209Y-108092000D01*
X167183397Y-107828972D01*
X167127344Y-107571299D01*
X167035190Y-107324226D01*
X166908812Y-107092783D01*
X166787544Y-106930787D01*
X166750785Y-106881682D01*
X166750777Y-106881673D01*
X166564326Y-106695222D01*
X166564317Y-106695214D01*
X166353214Y-106537186D01*
X166197761Y-106452302D01*
X166147559Y-106402100D01*
X166132468Y-106332726D01*
X166157279Y-106266206D01*
X166197762Y-106231127D01*
X166352945Y-106146391D01*
X166465169Y-106062379D01*
X166465170Y-106062379D01*
X165559220Y-105156429D01*
X165656588Y-105116099D01*
X165781925Y-105019925D01*
X165878099Y-104894589D01*
X165918429Y-104797220D01*
X166824379Y-105703170D01*
X166824379Y-105703169D01*
X166908391Y-105590945D01*
X167034734Y-105359565D01*
X167126862Y-105112559D01*
X167182901Y-104854952D01*
X167201707Y-104591999D01*
X167182901Y-104329047D01*
X167126862Y-104071440D01*
X167034734Y-103824434D01*
X166908388Y-103593050D01*
X166824380Y-103480829D01*
X166824379Y-103480828D01*
X165918429Y-104386777D01*
X165878099Y-104289412D01*
X165781925Y-104164075D01*
X165656588Y-104067901D01*
X165559220Y-104027570D01*
X166465170Y-103121619D01*
X166465169Y-103121618D01*
X166352947Y-103037609D01*
X166197761Y-102952871D01*
X166147559Y-102902669D01*
X166132468Y-102833295D01*
X166157279Y-102766775D01*
X166197758Y-102731699D01*
X166353217Y-102646812D01*
X166564320Y-102488783D01*
X166750783Y-102302320D01*
X166908812Y-102091217D01*
X167035190Y-101859774D01*
X167127344Y-101612701D01*
X167183397Y-101355028D01*
X167202209Y-101092000D01*
X167183397Y-100828972D01*
X167127344Y-100571299D01*
X167035190Y-100324226D01*
X166908812Y-100092783D01*
X166799984Y-99947405D01*
X166750785Y-99881682D01*
X166750777Y-99881673D01*
X166564326Y-99695222D01*
X166564317Y-99695214D01*
X166458369Y-99615903D01*
X166353217Y-99537188D01*
X166198281Y-99452586D01*
X166148081Y-99402385D01*
X166132989Y-99333011D01*
X166157800Y-99266491D01*
X166198280Y-99231414D01*
X166353217Y-99146812D01*
X166564320Y-98988783D01*
X166750783Y-98802320D01*
X166908812Y-98591217D01*
X167035190Y-98359774D01*
X167127344Y-98112701D01*
X167183397Y-97855028D01*
X167202209Y-97592000D01*
X167183397Y-97328972D01*
X167127344Y-97071299D01*
X167035190Y-96824226D01*
X166908812Y-96592783D01*
X166830245Y-96487829D01*
X166750785Y-96381682D01*
X166750777Y-96381673D01*
X166564326Y-96195222D01*
X166564322Y-96195219D01*
X166564320Y-96195217D01*
X166520437Y-96162367D01*
X166477893Y-96105533D01*
X166472827Y-96034717D01*
X166506852Y-95972405D01*
X166569164Y-95938380D01*
X166595948Y-95935500D01*
X166737632Y-95935500D01*
X166737638Y-95935500D01*
X166737645Y-95935499D01*
X166737649Y-95935499D01*
X166798196Y-95928990D01*
X166798199Y-95928989D01*
X166798201Y-95928989D01*
X166935204Y-95877889D01*
X167052261Y-95790261D01*
X167139889Y-95673204D01*
X167190989Y-95536201D01*
X167197500Y-95475638D01*
X167197500Y-92764003D01*
X167217502Y-92695882D01*
X167271158Y-92649389D01*
X167341432Y-92639285D01*
X167406012Y-92668779D01*
G37*
%TD.AperFunction*%
%TA.AperFunction,Conductor*%
G36*
X164829901Y-118894588D02*
G01*
X164926075Y-119019925D01*
X165051412Y-119116099D01*
X165148779Y-119156429D01*
X164242828Y-120062379D01*
X164242829Y-120062380D01*
X164355050Y-120146388D01*
X164510237Y-120231127D01*
X164560439Y-120281330D01*
X164575531Y-120350704D01*
X164550720Y-120417224D01*
X164510238Y-120452302D01*
X164354790Y-120537183D01*
X164354784Y-120537187D01*
X164354783Y-120537188D01*
X164159507Y-120683368D01*
X164092988Y-120708178D01*
X164023614Y-120693086D01*
X164008494Y-120683370D01*
X163813217Y-120537188D01*
X163813212Y-120537185D01*
X163813209Y-120537183D01*
X163657761Y-120452302D01*
X163607559Y-120402100D01*
X163592468Y-120332726D01*
X163617279Y-120266206D01*
X163657762Y-120231127D01*
X163812945Y-120146391D01*
X163925169Y-120062379D01*
X163925170Y-120062379D01*
X163019220Y-119156429D01*
X163116588Y-119116099D01*
X163241925Y-119019925D01*
X163338099Y-118894589D01*
X163378429Y-118797220D01*
X164083999Y-119502790D01*
X164084001Y-119502790D01*
X164789570Y-118797220D01*
X164829901Y-118894588D01*
G37*
%TD.AperFunction*%
%TA.AperFunction,Conductor*%
G36*
X161116012Y-115845588D02*
G01*
X161144086Y-115880424D01*
X161259188Y-116091217D01*
X161337903Y-116196369D01*
X161417214Y-116302317D01*
X161417222Y-116302326D01*
X161603673Y-116488777D01*
X161603682Y-116488785D01*
X161606525Y-116490913D01*
X161814783Y-116646812D01*
X161970238Y-116731697D01*
X162020440Y-116781899D01*
X162035531Y-116851273D01*
X162010720Y-116917793D01*
X161970238Y-116952871D01*
X161815057Y-117037606D01*
X161702829Y-117121618D01*
X161702828Y-117121619D01*
X162608778Y-118027570D01*
X162511412Y-118067901D01*
X162386075Y-118164075D01*
X162289901Y-118289411D01*
X162249570Y-118386779D01*
X161343619Y-117480828D01*
X161343618Y-117480829D01*
X161259608Y-117593055D01*
X161144088Y-117804615D01*
X161093885Y-117854818D01*
X161024511Y-117869909D01*
X160957991Y-117845098D01*
X160915444Y-117788262D01*
X160907500Y-117744230D01*
X160907500Y-115940812D01*
X160927502Y-115872691D01*
X160981158Y-115826198D01*
X161051432Y-115816094D01*
X161116012Y-115845588D01*
G37*
%TD.AperFunction*%
%TA.AperFunction,Conductor*%
G36*
X164144386Y-116490913D02*
G01*
X164159505Y-116500629D01*
X164354783Y-116646812D01*
X164510238Y-116731697D01*
X164560440Y-116781899D01*
X164575531Y-116851273D01*
X164550720Y-116917793D01*
X164510238Y-116952871D01*
X164355057Y-117037606D01*
X164242829Y-117121618D01*
X164242828Y-117121619D01*
X165148779Y-118027570D01*
X165051412Y-118067901D01*
X164926075Y-118164075D01*
X164829901Y-118289411D01*
X164789570Y-118386779D01*
X164084001Y-117681210D01*
X164083999Y-117681210D01*
X163378429Y-118386778D01*
X163338099Y-118289412D01*
X163241925Y-118164075D01*
X163116588Y-118067901D01*
X163019219Y-118027570D01*
X163925170Y-117121619D01*
X163925169Y-117121618D01*
X163812947Y-117037609D01*
X163657761Y-116952871D01*
X163607559Y-116902669D01*
X163592468Y-116833295D01*
X163617279Y-116766775D01*
X163657758Y-116731699D01*
X163813217Y-116646812D01*
X164008492Y-116500631D01*
X164075011Y-116475821D01*
X164144386Y-116490913D01*
G37*
%TD.AperFunction*%
%TA.AperFunction,Conductor*%
G36*
X164829901Y-111894588D02*
G01*
X164926075Y-112019925D01*
X165051412Y-112116099D01*
X165148779Y-112156429D01*
X164242828Y-113062379D01*
X164242829Y-113062380D01*
X164355050Y-113146388D01*
X164510237Y-113231127D01*
X164560439Y-113281330D01*
X164575531Y-113350704D01*
X164550720Y-113417224D01*
X164510238Y-113452302D01*
X164354786Y-113537185D01*
X164159507Y-113683368D01*
X164092987Y-113708178D01*
X164023613Y-113693086D01*
X164008490Y-113683367D01*
X163826519Y-113547146D01*
X163813217Y-113537188D01*
X163813215Y-113537187D01*
X163813214Y-113537186D01*
X163657761Y-113452302D01*
X163607559Y-113402100D01*
X163592468Y-113332726D01*
X163617279Y-113266206D01*
X163657762Y-113231127D01*
X163812945Y-113146391D01*
X163925169Y-113062379D01*
X163925170Y-113062379D01*
X163019220Y-112156429D01*
X163116588Y-112116099D01*
X163241925Y-112019925D01*
X163338099Y-111894589D01*
X163378429Y-111797220D01*
X164083999Y-112502790D01*
X164084001Y-112502790D01*
X164789570Y-111797220D01*
X164829901Y-111894588D01*
G37*
%TD.AperFunction*%
%TA.AperFunction,Conductor*%
G36*
X164144386Y-109490913D02*
G01*
X164159505Y-109500629D01*
X164354783Y-109646812D01*
X164510238Y-109731697D01*
X164560440Y-109781899D01*
X164575531Y-109851273D01*
X164550720Y-109917793D01*
X164510238Y-109952871D01*
X164355057Y-110037606D01*
X164242829Y-110121618D01*
X164242828Y-110121619D01*
X165148779Y-111027570D01*
X165051412Y-111067901D01*
X164926075Y-111164075D01*
X164829901Y-111289411D01*
X164789570Y-111386779D01*
X164084001Y-110681210D01*
X164083999Y-110681210D01*
X163378429Y-111386779D01*
X163338099Y-111289412D01*
X163241925Y-111164075D01*
X163116588Y-111067901D01*
X163019219Y-111027569D01*
X163925170Y-110121619D01*
X163925169Y-110121618D01*
X163812947Y-110037609D01*
X163657761Y-109952871D01*
X163607559Y-109902669D01*
X163592468Y-109833295D01*
X163617279Y-109766775D01*
X163657758Y-109731699D01*
X163813217Y-109646812D01*
X164008492Y-109500631D01*
X164075011Y-109475821D01*
X164144386Y-109490913D01*
G37*
%TD.AperFunction*%
%TA.AperFunction,Conductor*%
G36*
X164829901Y-104894588D02*
G01*
X164926075Y-105019925D01*
X165051412Y-105116099D01*
X165148779Y-105156429D01*
X164242828Y-106062379D01*
X164242829Y-106062380D01*
X164355050Y-106146388D01*
X164510237Y-106231127D01*
X164560439Y-106281330D01*
X164575531Y-106350704D01*
X164550720Y-106417224D01*
X164510238Y-106452302D01*
X164354790Y-106537183D01*
X164354784Y-106537187D01*
X164354783Y-106537188D01*
X164159507Y-106683368D01*
X164092988Y-106708178D01*
X164023614Y-106693086D01*
X164008494Y-106683370D01*
X163813217Y-106537188D01*
X163813212Y-106537185D01*
X163813209Y-106537183D01*
X163657761Y-106452302D01*
X163607559Y-106402100D01*
X163592468Y-106332726D01*
X163617279Y-106266206D01*
X163657762Y-106231127D01*
X163812945Y-106146391D01*
X163925169Y-106062379D01*
X163925170Y-106062379D01*
X163019220Y-105156429D01*
X163116588Y-105116099D01*
X163241925Y-105019925D01*
X163338099Y-104894589D01*
X163378429Y-104797220D01*
X164083999Y-105502790D01*
X164084001Y-105502790D01*
X164789570Y-104797220D01*
X164829901Y-104894588D01*
G37*
%TD.AperFunction*%
%TA.AperFunction,Conductor*%
G36*
X150622000Y-99889904D02*
G01*
X150601998Y-99958025D01*
X150585095Y-99978999D01*
X148333336Y-102230757D01*
X148320901Y-102240721D01*
X148321089Y-102240948D01*
X148314979Y-102246002D01*
X148267694Y-102296355D01*
X148266319Y-102297774D01*
X148245863Y-102318231D01*
X148241560Y-102323777D01*
X148237714Y-102328279D01*
X148205417Y-102362674D01*
X148205411Y-102362683D01*
X148195651Y-102380435D01*
X148184803Y-102396950D01*
X148172386Y-102412958D01*
X148153645Y-102456264D01*
X148151034Y-102461594D01*
X148128305Y-102502939D01*
X148128303Y-102502944D01*
X148123267Y-102522559D01*
X148116864Y-102541262D01*
X148108819Y-102559852D01*
X148101437Y-102606456D01*
X148100233Y-102612268D01*
X148088500Y-102657968D01*
X148088500Y-102678223D01*
X148086949Y-102697933D01*
X148083780Y-102717942D01*
X148083780Y-102717943D01*
X148088220Y-102764917D01*
X148088500Y-102770850D01*
X148088500Y-102887137D01*
X148068498Y-102955258D01*
X148014842Y-103001751D01*
X147944568Y-103011855D01*
X147909252Y-103001332D01*
X147873917Y-102984856D01*
X147873903Y-102984850D01*
X147661287Y-102927880D01*
X147441999Y-102908695D01*
X147222712Y-102927880D01*
X147010096Y-102984850D01*
X147010092Y-102984852D01*
X146810598Y-103077878D01*
X146750011Y-103120301D01*
X147358685Y-103728974D01*
X147307862Y-103736635D01*
X147185643Y-103795493D01*
X147086202Y-103887760D01*
X147018375Y-104005240D01*
X146999449Y-104088159D01*
X146390801Y-103479511D01*
X146348378Y-103540098D01*
X146255352Y-103739592D01*
X146255350Y-103739596D01*
X146198380Y-103952212D01*
X146179195Y-104171500D01*
X146198380Y-104390787D01*
X146255350Y-104603403D01*
X146255352Y-104603407D01*
X146276675Y-104649134D01*
X146287336Y-104719325D01*
X146258356Y-104784138D01*
X146198937Y-104822995D01*
X146127942Y-104823558D01*
X146073385Y-104791479D01*
X145958405Y-104676499D01*
X145924379Y-104614187D01*
X145921500Y-104587404D01*
X145921500Y-101406592D01*
X145941502Y-101338471D01*
X145958400Y-101317502D01*
X147370205Y-99905697D01*
X147432515Y-99871673D01*
X147488218Y-99872616D01*
X147488224Y-99872586D01*
X147488430Y-99872620D01*
X147490236Y-99872651D01*
X147493356Y-99873441D01*
X147493365Y-99873444D01*
X147715431Y-99910500D01*
X147715435Y-99910500D01*
X147940565Y-99910500D01*
X147940569Y-99910500D01*
X148162635Y-99873444D01*
X148375574Y-99800342D01*
X148573576Y-99693189D01*
X148751240Y-99554906D01*
X148903722Y-99389268D01*
X148992816Y-99252898D01*
X149046819Y-99206810D01*
X149117167Y-99197235D01*
X149181524Y-99227212D01*
X149203782Y-99252898D01*
X149292674Y-99388958D01*
X149445097Y-99554534D01*
X149622698Y-99692767D01*
X149622699Y-99692768D01*
X149820628Y-99799882D01*
X149820630Y-99799883D01*
X150033483Y-99872955D01*
X150033492Y-99872957D01*
X150114000Y-99886391D01*
X150114000Y-98985674D01*
X150225685Y-99036680D01*
X150332237Y-99052000D01*
X150403763Y-99052000D01*
X150510315Y-99036680D01*
X150622000Y-98985674D01*
X150622000Y-99889904D01*
G37*
%TD.AperFunction*%
%TA.AperFunction,Conductor*%
G36*
X164144386Y-102490913D02*
G01*
X164159505Y-102500629D01*
X164354783Y-102646812D01*
X164510238Y-102731697D01*
X164560440Y-102781899D01*
X164575531Y-102851273D01*
X164550720Y-102917793D01*
X164510238Y-102952871D01*
X164355057Y-103037606D01*
X164242829Y-103121618D01*
X164242828Y-103121619D01*
X165148779Y-104027570D01*
X165051412Y-104067901D01*
X164926075Y-104164075D01*
X164829901Y-104289411D01*
X164789570Y-104386779D01*
X164084001Y-103681210D01*
X164083999Y-103681210D01*
X163378429Y-104386779D01*
X163338099Y-104289412D01*
X163241925Y-104164075D01*
X163116588Y-104067901D01*
X163019219Y-104027570D01*
X163925170Y-103121619D01*
X163925169Y-103121618D01*
X163812947Y-103037609D01*
X163657761Y-102952871D01*
X163607559Y-102902669D01*
X163592468Y-102833295D01*
X163617279Y-102766775D01*
X163657758Y-102731699D01*
X163813217Y-102646812D01*
X164008492Y-102500631D01*
X164075011Y-102475821D01*
X164144386Y-102490913D01*
G37*
%TD.AperFunction*%
%TD*%
M02*
