%TF.GenerationSoftware,KiCad,Pcbnew,7.0.5-0*%
%TF.CreationDate,2024-07-25T14:15:13+02:00*%
%TF.ProjectId,rj45-stepper-adapter,726a3435-2d73-4746-9570-7065722d6164,rev?*%
%TF.SameCoordinates,Original*%
%TF.FileFunction,Soldermask,Bot*%
%TF.FilePolarity,Negative*%
%FSLAX46Y46*%
G04 Gerber Fmt 4.6, Leading zero omitted, Abs format (unit mm)*
G04 Created by KiCad (PCBNEW 7.0.5-0) date 2024-07-25 14:15:13*
%MOMM*%
%LPD*%
G01*
G04 APERTURE LIST*
G04 Aperture macros list*
%AMRoundRect*
0 Rectangle with rounded corners*
0 $1 Rounding radius*
0 $2 $3 $4 $5 $6 $7 $8 $9 X,Y pos of 4 corners*
0 Add a 4 corners polygon primitive as box body*
4,1,4,$2,$3,$4,$5,$6,$7,$8,$9,$2,$3,0*
0 Add four circle primitives for the rounded corners*
1,1,$1+$1,$2,$3*
1,1,$1+$1,$4,$5*
1,1,$1+$1,$6,$7*
1,1,$1+$1,$8,$9*
0 Add four rect primitives between the rounded corners*
20,1,$1+$1,$2,$3,$4,$5,0*
20,1,$1+$1,$4,$5,$6,$7,0*
20,1,$1+$1,$6,$7,$8,$9,0*
20,1,$1+$1,$8,$9,$2,$3,0*%
G04 Aperture macros list end*
%ADD10R,2.670000X2.670000*%
%ADD11C,2.670000*%
%ADD12O,1.700000X1.700000*%
%ADD13R,1.700000X1.700000*%
%ADD14C,2.500000*%
%ADD15C,1.500000*%
%ADD16RoundRect,0.250500X-0.499500X-0.499500X0.499500X-0.499500X0.499500X0.499500X-0.499500X0.499500X0*%
%ADD17C,3.250000*%
G04 APERTURE END LIST*
%TO.C,G\u002A\u002A\u002A*%
G36*
X154599995Y-120760078D02*
G01*
X154393223Y-121206846D01*
X154373735Y-121246403D01*
X154286260Y-121418365D01*
X154208213Y-121560624D01*
X154135940Y-121678856D01*
X154065785Y-121778737D01*
X153994094Y-121865943D01*
X153917212Y-121946150D01*
X153844828Y-122013026D01*
X153642284Y-122171650D01*
X153404493Y-122323646D01*
X153133881Y-122468298D01*
X152832876Y-122604888D01*
X152503904Y-122732699D01*
X152149394Y-122851013D01*
X151771772Y-122959114D01*
X151373466Y-123056283D01*
X150956902Y-123141804D01*
X150524508Y-123214959D01*
X150078710Y-123275031D01*
X149621937Y-123321303D01*
X149156616Y-123353057D01*
X149051484Y-123357136D01*
X148911497Y-123360148D01*
X148752226Y-123361761D01*
X148582006Y-123362028D01*
X148409173Y-123361000D01*
X148242062Y-123358729D01*
X148089008Y-123355266D01*
X147958347Y-123350665D01*
X147858413Y-123344976D01*
X147664649Y-123326692D01*
X147450347Y-123295067D01*
X147262167Y-123251977D01*
X147093353Y-123195463D01*
X146937146Y-123123565D01*
X146786788Y-123034326D01*
X146745866Y-123005930D01*
X146620650Y-122904118D01*
X146494581Y-122782395D01*
X146379109Y-122652379D01*
X146285679Y-122525692D01*
X146217498Y-122413474D01*
X146100065Y-122180839D01*
X145994917Y-121916598D01*
X145901541Y-121619227D01*
X145819428Y-121287197D01*
X145748066Y-120918982D01*
X145745153Y-120901695D01*
X145725089Y-120770958D01*
X145703093Y-120609975D01*
X145679612Y-120423346D01*
X145655091Y-120215674D01*
X145629976Y-119991562D01*
X145604712Y-119755612D01*
X145579746Y-119512426D01*
X145555521Y-119266606D01*
X145532486Y-119022755D01*
X145511084Y-118785475D01*
X145491761Y-118559368D01*
X145474964Y-118349036D01*
X145461138Y-118159082D01*
X145450728Y-117994108D01*
X145444181Y-117858716D01*
X145441941Y-117757509D01*
X145449243Y-117532335D01*
X145486738Y-117215887D01*
X145505211Y-117137327D01*
X147527552Y-117137327D01*
X147541014Y-117406422D01*
X147581467Y-117702728D01*
X147648773Y-118025758D01*
X147742800Y-118375027D01*
X147863411Y-118750048D01*
X148010472Y-119150336D01*
X148183848Y-119575405D01*
X148383405Y-120024769D01*
X148402519Y-120066049D01*
X148476412Y-120222209D01*
X148550891Y-120374708D01*
X148623554Y-120518990D01*
X148691998Y-120650500D01*
X148753821Y-120764685D01*
X148806620Y-120856988D01*
X148847992Y-120922855D01*
X148875535Y-120957730D01*
X148925526Y-120988214D01*
X148997532Y-120999135D01*
X149070022Y-120982725D01*
X149133526Y-120943280D01*
X149178573Y-120885097D01*
X149195693Y-120812473D01*
X149193745Y-120804834D01*
X149177722Y-120765166D01*
X149147270Y-120697200D01*
X149104494Y-120605425D01*
X149051501Y-120494329D01*
X148990399Y-120368399D01*
X148923292Y-120232123D01*
X148839440Y-120060995D01*
X148627601Y-119607152D01*
X148443362Y-119178154D01*
X148286819Y-118774303D01*
X148158071Y-118395902D01*
X148057216Y-118043253D01*
X147984352Y-117716659D01*
X147939577Y-117416422D01*
X147922988Y-117142846D01*
X147928651Y-116946327D01*
X147951732Y-116771652D01*
X147993524Y-116624395D01*
X148055212Y-116500439D01*
X148137978Y-116395666D01*
X148211413Y-116329352D01*
X148313423Y-116268553D01*
X148429866Y-116234928D01*
X148570462Y-116224631D01*
X148624270Y-116225029D01*
X148693825Y-116229035D01*
X148749556Y-116240653D01*
X148807346Y-116263840D01*
X148883077Y-116302555D01*
X148975845Y-116359166D01*
X149121742Y-116475085D01*
X149272864Y-116625703D01*
X149427346Y-116808924D01*
X149583324Y-117022653D01*
X149738935Y-117264793D01*
X149738938Y-117264797D01*
X149837387Y-117435490D01*
X149938071Y-117626582D01*
X150042300Y-117840964D01*
X150151387Y-118081528D01*
X150266641Y-118351166D01*
X150389374Y-118652770D01*
X150520898Y-118989230D01*
X150565389Y-119067412D01*
X150628423Y-119119918D01*
X150701407Y-119139838D01*
X150777691Y-119125441D01*
X150850625Y-119074997D01*
X150869722Y-119054466D01*
X150888317Y-119022571D01*
X150893848Y-118980724D01*
X150889813Y-118914599D01*
X150887916Y-118897252D01*
X150877650Y-118826702D01*
X150861510Y-118731892D01*
X150841296Y-118623084D01*
X150818813Y-118510538D01*
X150806647Y-118451027D01*
X150745423Y-118119032D01*
X150698696Y-117804189D01*
X150666443Y-117508635D01*
X150648640Y-117234504D01*
X150645266Y-116983932D01*
X150656297Y-116759053D01*
X150681710Y-116562003D01*
X150721482Y-116394918D01*
X150775591Y-116259933D01*
X150844013Y-116159182D01*
X150901656Y-116106631D01*
X150974673Y-116072701D01*
X151049645Y-116075923D01*
X151129116Y-116116541D01*
X151215628Y-116194798D01*
X151300677Y-116295663D01*
X151413145Y-116459223D01*
X151526674Y-116658476D01*
X151641383Y-116893753D01*
X151757391Y-117165387D01*
X151874817Y-117473710D01*
X151993780Y-117819053D01*
X152114397Y-118201748D01*
X152236788Y-118622127D01*
X152361071Y-119080523D01*
X152487365Y-119577268D01*
X152615788Y-120112692D01*
X152620111Y-120131204D01*
X152654497Y-120277313D01*
X152682010Y-120390689D01*
X152704207Y-120476176D01*
X152722643Y-120538621D01*
X152738875Y-120582869D01*
X152754459Y-120613765D01*
X152770951Y-120636155D01*
X152789907Y-120654884D01*
X152792055Y-120656787D01*
X152863180Y-120699441D01*
X152937825Y-120703904D01*
X153019286Y-120670397D01*
X153042082Y-120656179D01*
X153063919Y-120639729D01*
X153080685Y-120620160D01*
X153092002Y-120594303D01*
X153097491Y-120558989D01*
X153096775Y-120511049D01*
X153089475Y-120447317D01*
X153075213Y-120364624D01*
X153053611Y-120259800D01*
X153024291Y-120129679D01*
X152986874Y-119971092D01*
X152940982Y-119780870D01*
X152886238Y-119555846D01*
X152763354Y-119066049D01*
X152634024Y-118583248D01*
X152505823Y-118138853D01*
X152378608Y-117732530D01*
X152252236Y-117363946D01*
X152126567Y-117032769D01*
X152001457Y-116738666D01*
X151876765Y-116481303D01*
X151752349Y-116260349D01*
X151628065Y-116075469D01*
X151503773Y-115926331D01*
X151379330Y-115812601D01*
X151254594Y-115733948D01*
X151116557Y-115686031D01*
X150976668Y-115675139D01*
X150839886Y-115700498D01*
X150710156Y-115760835D01*
X150591424Y-115854879D01*
X150487634Y-115981357D01*
X150447199Y-116045859D01*
X150389297Y-116158836D01*
X150343452Y-116281628D01*
X150308319Y-116420016D01*
X150282552Y-116579777D01*
X150264808Y-116766692D01*
X150253741Y-116986538D01*
X150241000Y-117357769D01*
X150154876Y-117201461D01*
X150123088Y-117144571D01*
X149958072Y-116873022D01*
X149785919Y-116627302D01*
X149608892Y-116410016D01*
X149429257Y-116223769D01*
X149249277Y-116071165D01*
X149071216Y-115954809D01*
X148936858Y-115892168D01*
X148752969Y-115840057D01*
X148567830Y-115822694D01*
X148385856Y-115838752D01*
X148211461Y-115886904D01*
X148049058Y-115965822D01*
X147903062Y-116074178D01*
X147777887Y-116210644D01*
X147677946Y-116373894D01*
X147625548Y-116495741D01*
X147583795Y-116631873D01*
X147554267Y-116784599D01*
X147534304Y-116964851D01*
X147527552Y-117137327D01*
X145505211Y-117137327D01*
X145557178Y-116916328D01*
X145661786Y-116630509D01*
X145801784Y-116355281D01*
X145978397Y-116087494D01*
X146192846Y-115824000D01*
X146234811Y-115777650D01*
X146324302Y-115683782D01*
X146422094Y-115588161D01*
X146532128Y-115487328D01*
X146658341Y-115377823D01*
X146804675Y-115256184D01*
X146975069Y-115118952D01*
X147173462Y-114962666D01*
X147306917Y-114858211D01*
X147459201Y-114738238D01*
X147588174Y-114635317D01*
X147698248Y-114545661D01*
X147793837Y-114465484D01*
X147879356Y-114390997D01*
X147959218Y-114318416D01*
X148037837Y-114243952D01*
X148119627Y-114163820D01*
X148209000Y-114074233D01*
X148238840Y-114044141D01*
X148346017Y-113937231D01*
X148433306Y-113852996D01*
X148506261Y-113786800D01*
X148570439Y-113734012D01*
X148631392Y-113689996D01*
X148694676Y-113650121D01*
X148765846Y-113609753D01*
X148934003Y-113529410D01*
X149181523Y-113446245D01*
X149449264Y-113392233D01*
X149734139Y-113367154D01*
X150033061Y-113370792D01*
X150342942Y-113402928D01*
X150660695Y-113463344D01*
X150983232Y-113551822D01*
X151307467Y-113668143D01*
X151630312Y-113812090D01*
X151761148Y-113878361D01*
X152023900Y-114026704D01*
X152263003Y-114185642D01*
X152489045Y-114362539D01*
X152712616Y-114564759D01*
X152780691Y-114629794D01*
X152923347Y-114761679D01*
X153051496Y-114871951D01*
X153172944Y-114966082D01*
X153295495Y-115049546D01*
X153426955Y-115127816D01*
X153575128Y-115206363D01*
X153747819Y-115290663D01*
X153855356Y-115342427D01*
X153964830Y-115396592D01*
X154061829Y-115446050D01*
X154138696Y-115486891D01*
X154187770Y-115515205D01*
X154256156Y-115564075D01*
X154360354Y-115652420D01*
X154474786Y-115761711D01*
X154593251Y-115885170D01*
X154709548Y-116016016D01*
X154817476Y-116147470D01*
X154910834Y-116272753D01*
X154983421Y-116385085D01*
X155062800Y-116535371D01*
X155148609Y-116744266D01*
X155213512Y-116969071D01*
X155258586Y-117214654D01*
X155284905Y-117485880D01*
X155293547Y-117787615D01*
X155290974Y-117966220D01*
X155277490Y-118216178D01*
X155251430Y-118467393D01*
X155211644Y-118728325D01*
X155156984Y-119007436D01*
X155086300Y-119313187D01*
X155057439Y-119427783D01*
X154928097Y-119881490D01*
X154776951Y-120321941D01*
X154681211Y-120558989D01*
X154599995Y-120760078D01*
G37*
%TD*%
D10*
%TO.C,J1*%
X165354000Y-94092000D03*
X162814000Y-94092000D03*
D11*
X165354000Y-97592000D03*
X162814000Y-97592000D03*
X165354000Y-101092000D03*
X162814000Y-101092000D03*
X165354000Y-104592000D03*
X162814000Y-104592000D03*
X165354000Y-108092000D03*
X162814000Y-108092000D03*
X165354000Y-111592000D03*
X162814000Y-111592000D03*
X165354000Y-115092000D03*
X162814000Y-115092000D03*
X165354000Y-118592000D03*
X162814000Y-118592000D03*
X165354000Y-122092000D03*
X162814000Y-122092000D03*
%TD*%
D12*
%TO.C,J2*%
X147828000Y-98552000D03*
X150368000Y-98552000D03*
D13*
X152908000Y-98552000D03*
%TD*%
D14*
%TO.C,J3*%
X158367000Y-110021500D03*
X142877000Y-110021500D03*
D15*
X155062000Y-104171500D03*
X153802000Y-106711500D03*
X152522000Y-104171500D03*
X151262000Y-106711500D03*
X149982000Y-104171500D03*
X148722000Y-106711500D03*
X147442000Y-104171500D03*
D16*
X146182000Y-106711500D03*
D17*
X156337000Y-113071500D03*
X144907000Y-113071500D03*
%TD*%
M02*
